<?xml version="1.0" encoding="UTF-8"?>
<svg id="Layer_1" data-name="Layer 1" xmlns="http://www.w3.org/2000/svg" viewBox="0 0 146.93 270.88">
  <defs>
    <style>
      .cls-1 {
        fill: #fff;
      }
    </style>
  </defs>
  <path class="cls-1" d="m125.96,5.17l-2.9-2.41-43.85,11.79v4.12l12.93,5.35v54.87l-.57-.17c-.41-.12-42.58-12.04-70.1,12.41C8.33,102.81,1.08,121.68,1.08,144.27c0,38.2,19.83,61,53.06,61,18.87,0,37.46-16.29,37.64-16.46l.47-.4.24.57c2.03,4.82,8.28,14.99,9.37,16.75,12.72-2.59,40.87-10.94,42.23-11.42l.05-.03v-4.23l-18.19-6.88V5.17Zm-33.81,172.93l-.35.08c-2.52.53-15.37,3.22-20.66,3.22-24.5,0-36.42-14.67-36.42-44.85,0-13.49,3.2-26.76,8.57-35.51,1.54-2.5,4.06-4.26,6.92-4.83,4.3-.85,9.33-1.32,15.8-1.46,15.58-.4,25.74,3.45,25.85,3.48l.29.1v79.77Z"/>
</svg>