<?xml version="1.0" encoding="UTF-8"?>
<svg id="Layer_1" data-name="Layer 1" xmlns="http://www.w3.org/2000/svg" viewBox="0 0 127.37 270.88">
  <defs>
    <style>
      .cls-1 {
        fill: #fff;
      }
    </style>
  </defs>
  <path class="cls-1" d="m67.02,73.07C26.55,73.07.41,100.92.41,144.01c0,39.25,21.49,61.76,58.96,61.76,26.82,0,50.38-14.17,54.09-16.52l-1.75-7.65c-1.07.23-3.21.73-5.82,1.35-9.58,2.27-25.61,6.05-30.43,6.05-26.37,0-41.59-19.82-41.74-54.4v-.45s80.02,2.29,80.02,2.29v-.07c.98-6.08,1.54-13.15,1.54-19.39,0-16.41-6.27-43.93-48.26-43.93Zm-32.79,48.42l.07-.52c1.58-11.92,4.44-20.74,9-27.75l.07-.12.13-.05c4.33-1.84,10.74-2.22,15.36-2.22,17.37,0,26.26,9.49,26.42,28.21v.44s-51.05,2.03-51.05,2.03Z"/>
</svg>