<?xml version="1.0" encoding="UTF-8"?>
<svg id="Layer_1" data-name="Layer 1" xmlns="http://www.w3.org/2000/svg" viewBox="0 0 142.68 270.88">
  <defs>
    <style>
      .cls-1 {
        fill: #fff;
      }
    </style>
  </defs>
  <path class="cls-1" d="m139.91,74.95l-11.04-27.09-34.53,29.66-.25-.1c-8.05-3.25-17.08-5.03-25.42-5.03-16.25,0-31.19,4-42.07,11.26-12.89,8.6-19.7,21.56-19.7,37.5,0,25.46,16.89,35.68,31.06,39.79l.92.26-.8.54c-13.4,8.98-23.06,20.02-24.05,27.45-.65,4.86.64,9.31,3.74,12.85,4.11,4.69,10.97,7.37,18.83,7.37h46.38c14.25,0,22.09,6.4,22.09,18.02,0,6.69-1.96,13.3-5.25,17.67l-.07.1-.11.04c-9.24,3.88-18.43,5.55-30.72,5.55-25.86,0-40.7-9.32-40.7-25.56,0-5.31,1.89-9.69,2.69-11.3h0c-3.33,0-17.36.46-25.19,8-3.62,3.48-5.45,8.01-5.45,13.5,0,21.22,21.28,33.89,56.92,33.89,21.52,0,39.4-4.37,54.67-13.36,16.35-9.64,24.99-23.73,24.99-40.76,0-20.32-14.89-32.46-39.84-32.46h-36.49c-15.07,0-18.01-3.24-18.01-8.84,0-2.83,3.17-8.83,4.14-10.59l.15-.27.3.03c1.29.17,8.11.97,15.97.97,16.44,0,31.22-4.13,41.63-11.64,11.84-8.55,18.1-21.37,18.1-37.12s-8.82-25.62-16.22-31.07l-.76-.56.92-.24,33.18-8.49Zm-55.95,70.77l-.06.11-.12.07c-.9.49-5.91,2.96-16.13,2.96-17.79,0-27.19-11.34-27.19-32.79,0-13.42,3.41-21.19,6.28-25.34l.07-.09.1-.05c.76-.38,5.02-2.22,14.62-2.22,18.81,0,27.95,10.47,27.95,32.03,0,12.47-3.01,20.65-5.52,25.32Z"/>
</svg>