<?xml version="1.0" encoding="UTF-8"?>
<svg id="Layer_1" data-name="Layer 1" xmlns="http://www.w3.org/2000/svg" viewBox="0 0 146.98 270.88">
  <defs>
    <style>
      .cls-1 {
        fill: #fff;
      }
    </style>
  </defs>
  <path class="cls-1" d="m132.23,112.75c0-27.35-20.65-39.59-41.12-39.59-9.81,0-37.85,12.87-43.37,15.45l-.63.3V4.75l-2.91-2.4L1.63,14.16v4.1l11.66,5.6v165.7l-.21.13-12.72,7.62v4.23h59.59v-4.06l-12.84-7.91v-90.77l.39-.05c2.56-.32,15.56-1.98,19.66-1.98,20.58,0,31.01,10.69,31.01,31.77v61.28l-12.33,7.65v4.06h60.51v-4.06l-14.12-7.91v-76.82Z"/>
  <g>
    <path class="cls-1" d="m105.81,43.94h-4.37v-3.19h12.74v3.19h-4.35v11.04h-4.02v-11.04Z"/>
    <path class="cls-1" d="m128.53,54.98l-.04-7.54-3.66,6.14h-1.79l-3.64-5.93v7.34h-3.72v-14.23h3.31l5,8.21,4.88-8.21h3.31l.04,14.23h-3.7Z"/>
  </g>
</svg>