<?xml version="1.0" encoding="UTF-8"?>
<svg id="Layer_1" data-name="Layer 1" xmlns="http://www.w3.org/2000/svg" viewBox="0 0 67.28 270.88">
  <defs>
    <style>
      .cls-1 {
        fill: #fff;
      }
    </style>
  </defs>
  <polygon class="cls-1" points="50.88 75.19 47.89 72.81 2.19 85.51 2.19 89.57 16.3 96.19 16.3 189.57 16.06 189.69 .41 197.47 .41 201.54 66.18 201.54 66.18 197.48 50.88 189.57 50.88 75.19"/>
  <path class="cls-1" d="m32.4,57.61c.27.16.61.16.88,0,.04-.02,4.14-2.38,12.77-10.83,8.41-8.22,10.83-12.11,11.08-12.53.16-.26.16-.59,0-.87-.24-.41-2.62-4.32-10.83-12.52-8.14-8.12-12.15-10.59-12.58-10.83-.27-.16-.6-.16-.87,0-.17.1-4.16,2.38-12.78,10.83-8.34,8.16-10.82,12.1-11.08,12.53-.16.26-.16.59,0,.86.02.05,2.21,3.93,10.83,12.53,8.38,8.36,12.41,10.73,12.57,10.83Z"/>
</svg>