<?xml version="1.0" encoding="UTF-8"?>
<svg id="Layer_1" data-name="Layer 1" xmlns="http://www.w3.org/2000/svg" viewBox="0 0 149.5 270.88">
  <defs>
    <style>
      .cls-1 {
        fill: #fff;
      }
    </style>
  </defs>
  <path class="cls-1" d="m131.16,112.62c0-19.7-12.56-39.59-40.61-39.59-11.24,0-42.85,15.07-44.19,15.72l-.16.07-1.44-.47v-12.98l-3.03-2.38L.51,85.38v4.04l11.71,6.63v93.41l-.17.13-10.03,7.77v4.04h57.11v-4.04l-12.84-7.91v-90.77l.39-.05c3.56-.46,15.5-1.98,19.41-1.98,20.58,0,31.01,10.69,31.01,31.77v61.27l-18.1,7.65v4.06h66.28v-4.05l-14.11-7.9v-76.83Z"/>
</svg>