<?xml version="1.0" encoding="UTF-8"?>
<svg id="Layer_1" data-name="Layer 1" xmlns="http://www.w3.org/2000/svg" viewBox="0 0 139.55 270.88">
  <defs>
    <style>
      .cls-1 {
        fill: #fff;
      }
    </style>
  </defs>
  <path class="cls-1" d="m73.02,72.65C27.64,72.65.54,98.88.54,142.83c0,38.57,24.16,62.53,63.04,62.53,45.06,0,71.96-26.33,71.96-70.43,0-38.41-23.96-62.28-62.53-62.28Zm16.09,112.05l-.08.11-.14.05c-3.61,1.23-9.54,1.97-15.87,1.97-23.79,0-36.36-17.94-36.36-51.9,0-17.41,3.96-32.96,10.59-41.63l.08-.11.13-.04c4.74-1.64,10.7-1.98,14.86-1.98,23.94,0,37.12,18.07,37.12,50.9,0,18.22-3.67,33.37-10.33,42.63Z"/>
</svg>