<?xml version="1.0" encoding="UTF-8"?>
<svg id="Layer_1" data-name="Layer 1" xmlns="http://www.w3.org/2000/svg" viewBox="0 0 107.77 270.88">
  <defs>
    <style>
      .cls-1 {
        fill: #fff;
      }
    </style>
  </defs>
  <path class="cls-1" d="m62.65,122.63l-1.32-.56c-13.13-5.68-25.53-11.03-25.72-22.24-.1-5.62,3.65-11.95,4.08-12.49l.1-.12.17-.03c.22-.03,2.32-.42,7.86-.42.11,0,.23,0,.35,0,24.54.05,39.44,18,41.27,20.32l3.7-1.03-.26-27.68c-.16-.05-16.65-5.86-37.69-5.86-17.68,0-32.91,5.18-41.79,14.21-6.54,6.63-9.77,15.24-9.59,25.56.4,22.89,19.68,31.32,36.7,38.77l1.3.58c13.25,5.78,25.78,11.25,25.97,22.75.07,3.87-1.47,8.73-4.36,13.68l-.17.3-.2.03c-.13.02-.3.06-.53.1-1.6.35-5.78,1.26-12.49,1.26h-.49c-26.62-.18-43.4-20.38-45.09-22.52H.38l3.67,29.99.03.02c.61.33,15.24,7.98,37.62,7.98,20.44,0,37.66-5.6,47.26-15.34,7.23-7.35,10.8-16.93,10.6-28.47-.41-22.99-19.8-31.38-36.92-38.79Z"/>
</svg>