<?xml version="1.0" encoding="UTF-8"?>
<svg id="Layer_1" data-name="Layer 1" xmlns="http://www.w3.org/2000/svg" viewBox="0 0 149.85 270.88">
  <defs>
    <style>
      .cls-1 {
        fill: #fff;
      }
    </style>
  </defs>
  <path class="cls-1" d="m131.52,76.77l-2.82-2.42-48.17,9.63v4.06l17.17,7.14v82.5l-.37.06c-1.83.31-18.03,2.98-22.99,2.98-17.37,0-26.93-10.83-26.93-30.5v-73.42l-2.84-2.41L.25,83.98v3.89l13.1,6.62v70c0,24.82,16.14,40.86,41.12,40.86,17.61,0,35.12-12.32,40.87-16.38.83-.58,1.37-.96,1.68-1.15l.1-.06h.67l.06.37c.71,4.18,7.75,15.38,8.89,17.18,10.52-1.73,41.42-11.32,42.4-11.7l.06-.02v-3.98l-17.68-6.88v-105.98Z"/>
</svg>