<svg xmlns="http://www.w3.org/2000/svg" width="119.086" height="74.196" viewBox="0 0 119.086 74.196">
  <g id="Path_24783" data-name="Path 24783" transform="translate(119.086 74.196) rotate(180)" fill="#fafafa" stroke-linejoin="round">
    <path d="M 86.67791748046875 73.99639129638672 L 77.28935241699219 73.99639129638672 C 77.34779357910156 61.68870544433594 82.81370544433594 50.08975601196289 92.30610656738281 42.14577865600586 L 92.72837066650391 41.79240798950195 L 92.17775726318359 41.79240798950195 L 0.2000023275613785 41.79240798950195 L 0.2000023275613785 32.40398025512695 L 92.17775726318359 32.40398025512695 L 92.72837066650391 32.40398025512695 L 92.30610656738281 32.05060958862305 C 82.81370544433594 24.10663032531738 77.34779357910156 12.50768184661865 77.28935241699219 0.2000095099210739 L 86.67791748046875 0.2000095099210739 C 86.78520965576172 17.91089057922363 101.1748962402344 32.29787063598633 118.8861846923828 32.40340042114258 L 118.8861846923828 41.79301834106445 C 101.1715621948242 41.90029907226562 86.78520202636719 56.28660202026367 86.67791748046875 73.99639129638672 Z" stroke="none"/>
    <path d="M 77.49079895019531 0.399993896484375 C 77.6070556640625 12.57403182983398 83.03895568847656 24.03434371948242 92.43446350097656 31.89722442626953 C 92.56350708007812 32.00521087646484 92.61117553710938 32.18239593505859 92.55372619628906 32.34054946899414 C 92.49627685546875 32.49868774414062 92.34601593017578 32.60397720336914 92.17775726318359 32.60397720336914 L 0.4000015258789062 32.60397720336914 L 0.4000015258789062 41.59241104125977 L 92.17775726318359 41.59241104125977 C 92.34601593017578 41.59241104125977 92.49627685546875 41.69770050048828 92.55372619628906 41.85583877563477 C 92.61117553710938 42.01399230957031 92.56350708007812 42.19117736816406 92.43446350097656 42.29916381835938 C 83.03895568847656 50.16204452514648 77.6070556640625 61.62235641479492 77.49079895019531 73.79637908935547 L 86.47972106933594 73.79637908935547 C 86.69368743896484 56.13601303100586 101.0210571289062 41.80878448486328 118.6861877441406 41.59482574462891 L 118.6861877441406 32.60162353515625 C 101.0228042602539 32.39113235473633 86.69371032714844 18.06254959106445 86.47972106933594 0.399993896484375 L 77.49079895019531 0.399993896484375 M 77.08888244628906 -7.62939453125e-06 L 86.87731170654297 -7.62939453125e-06 C 86.87731170654297 17.7562255859375 101.3250503540039 32.2039794921875 119.0812759399414 32.2039794921875 L 119.0861892700195 32.2039794921875 L 119.0861892700195 41.99240875244141 L 119.0812759399414 41.99240875244141 C 101.3250503540039 41.99240875244141 86.87731170654297 56.44014739990234 86.87731170654297 74.19638061523438 L 77.08888244628906 74.19638061523438 C 77.08888244628906 61.27074813842773 82.96682739257812 49.70080947875977 92.17775726318359 41.99240875244141 L 0 41.99240875244141 L 0 32.2039794921875 L 92.17775726318359 32.2039794921875 C 82.96682739257812 24.49557876586914 77.08888244628906 12.92564010620117 77.08888244628906 -7.62939453125e-06 Z" stroke="none" fill="#fafafa"/>
  </g>
</svg>
