<svg xmlns="http://www.w3.org/2000/svg" width="405" height="405" viewBox="0 0 405 405">
  <g id="Group_10821" data-name="Group 10821" transform="translate(-14 -15)">
    <g id="Group_10820" data-name="Group 10820">
      <rect id="Rectangle_3330" data-name="Rectangle 3330" width="405" height="405" rx="14" transform="translate(14 15)" fill="#fff"/>
    </g>
    <g id="Group_10601" data-name="Group 10601" transform="translate(56.601 57.6)">
      <path id="Path_24952" data-name="Path 24952" d="M72.907,33.458c0,18.489-33.458,126.306-33.458,126.306S5.991,51.947,5.991,33.458a33.458,33.458,0,1,1,66.916,0" transform="translate(120.315)" fill="#171717"/>
      <path id="Path_24953" data-name="Path 24953" d="M58.873,11.557c13.071,13.071,65.651,112.96,65.651,112.96s-99.91-52.58-112.982-65.63a33.468,33.468,0,1,1,47.33-47.33" transform="translate(35.241 35.227)" fill="#171717"/>
      <path id="Path_24954" data-name="Path 24954" d="M33.458,5.991c18.489,0,126.306,33.458,126.306,33.458S51.947,72.907,33.458,72.907a33.458,33.458,0,1,1,0-66.916" transform="translate(0 120.314)" fill="#171717"/>
      <path id="Path_24955" data-name="Path 24955" d="M11.558,73.228C24.609,60.157,124.5,7.577,124.5,7.577s-52.58,99.91-65.63,112.982a33.46,33.46,0,1,1-47.309-47.33" transform="translate(35.246 152.166)" fill="#171717"/>
      <path id="Path_24956" data-name="Path 24956" d="M5.991,133.883c0-18.489,33.458-126.306,33.458-126.306S72.907,115.393,72.907,133.883a33.458,33.458,0,1,1-66.916,0" transform="translate(120.315 152.166)" fill="#171717"/>
      <path id="Path_24957" data-name="Path 24957" d="M73.228,120.538C60.157,107.467,7.577,7.578,7.577,7.578s99.91,52.58,112.982,65.63a33.468,33.468,0,0,1-47.33,47.33" transform="translate(152.165 152.186)" fill="#171717"/>
      <path id="Path_24958" data-name="Path 24958" d="M133.883,72.907c-18.489,0-126.306-33.458-126.306-33.458S115.393,5.991,133.883,5.991a33.458,33.458,0,1,1,0,66.916" transform="translate(152.165 120.314)" fill="#171717"/>
      <path id="Path_24959" data-name="Path 24959" d="M120.538,58.873C107.467,71.944,7.578,124.524,7.578,124.524s52.58-99.91,65.63-112.982a33.468,33.468,0,0,1,47.33,47.33" transform="translate(152.186 35.242)" fill="#171717"/>
    </g>
  </g>
</svg>
