<?xml version="1.0" encoding="UTF-8"?><svg id="Layer_2" xmlns="http://www.w3.org/2000/svg" viewBox="0 0 378.91 378.91"><defs><style>.cls-1{fill:#171717;}.cls-1,.cls-2{stroke-width:0px;}.cls-2{fill:#fff;}</style></defs><g id="Layer_1-2"><rect class="cls-2" y="0" width="378.91" height="378.91"/><path class="cls-1" d="M344.52,158.32c-34.22-34.22-89.7-34.23-123.92,0-5.42,5.42-27.43,24.82-31.14,31.14,51.34-36.39,94.88-28.54,123.67.25.28.28.57.57.84.86l31.39-31.39c-.27-.3-.56-.58-.84-.86Z"/><path class="cls-1" d="M321.12,277.08c0-48.39-39.22-87.63-87.63-87.63-7.66,0-36.95-1.85-44.04,0,62.03,10.57,87.27,46.91,87.27,87.63,0,.4,0,.8-.01,1.21h44.39c.01-.4.01-.8.01-1.21Z"/><path class="cls-1" d="M220.6,344.52c34.22-34.22,34.23-89.7,0-123.92-5.42-5.42-24.82-27.43-31.14-31.14,36.39,51.34,28.54,94.88-.25,123.67-.28.28-.57.57-.86.84l31.39,31.39c.3-.27.58-.56.86-.84Z"/><path class="cls-1" d="M101.83,321.12c48.39,0,87.63-39.22,87.63-87.63,0-7.66,1.85-36.95,0-44.04-10.57,62.03-46.91,87.27-87.63,87.27-.4,0-.8,0-1.21-.01v44.39c.4.01.8.01,1.21.01Z"/><path class="cls-1" d="M34.39,220.6c34.22,34.22,89.7,34.23,123.92,0,5.42-5.42,27.43-24.82,31.14-31.14-51.34,36.39-94.88,28.54-123.67-.25-.28-.28-.57-.57-.84-.86l-31.39,31.39c.27.3.56.58.84.86Z"/><path class="cls-1" d="M57.79,101.83c0,48.39,39.22,87.63,87.63,87.63,7.66,0,36.95,1.85,44.04,0-62.03-10.57-87.27-46.91-87.27-87.63,0-.4,0-.8.01-1.21h-44.39c-.01.4-.01.8-.01,1.21Z"/><path class="cls-1" d="M158.32,34.39c-34.22,34.22-34.23,89.7,0,123.92,5.42,5.42,24.82,27.43,31.14,31.14-36.39-51.34-28.54-94.88.25-123.67.28-.28.57-.57.86-.84l-31.39-31.39c-.3.27-.58.56-.86.84Z"/><path class="cls-1" d="M277.08,57.79c-48.39,0-87.63,39.22-87.63,87.63,0,7.66-1.85,36.95,0,44.04,10.57-62.03,46.91-87.27,87.63-87.27.4,0,.8,0,1.21.01v-44.39c-.4-.01-.8-.01-1.21-.01Z"/></g></svg>