<svg xmlns="http://www.w3.org/2000/svg" width="1237.5" height="202.286" viewBox="0 0 1237.5 202.286">
  <g id="Group_10485" data-name="Group 10485" transform="translate(-10869 16507.91)">
    <path id="Path_24874" data-name="Path 24874" d="M0,.01H78.445c32.518,0,54.2,22.817,54.2,53.921,0,20.25-7.7,32.8-19.4,40.794,15.117,6.558,26.819,21.109,26.819,47.352,0,36.52-20.827,57.629-59.9,57.629H0ZM71.6,85.024c19.967,0,35.378-7.7,35.378-31.093,0-18.825-12.55-30.528-35.378-30.528H25.1V85.024Zm4.851,91.289c23.676,0,37.945-11.408,37.945-34.236,0-23.393-13.692-34.236-37.945-34.236H25.1V176.3H76.443Z" transform="translate(10869 -16507.908)" fill='#fff'/>
    <path id="Path_24875" data-name="Path 24875" d="M990.823,145.559h23.958c0,19.4,14.834,27.961,35.661,27.961,21.109,0,33.377-8.842,33.377-21.109,0-8.842-6.275-15.117-19.4-18.543l-34.236-8.559c-20.827-5.133-33.377-17.977-33.377-38.793,0-23.111,18.825-41.077,52.2-41.077,33.094,0,55.628,19.4,55.628,47.069h-23.393c-.859-17.118-13.975-25.1-32.235-25.1-19.4,0-29.1,8.559-29.1,19.108,0,10.843,8.276,14.552,18.543,17.118l31.093,7.7c24.818,6.275,38.51,18.825,38.51,41.077,0,25.1-21.392,43.937-57.629,43.937-34.519,0-58.76-16.835-59.619-50.778Z" transform="translate(10998.451 -16501.973)" fill='#fff'/>
    <path id="Path_24876" data-name="Path 24876" d="M225.151,47.71H147.78V193.474h24.241V52.414h5.506l5.043,18.113h42.58Z" transform="translate(10888.308 -16501.676)" fill='#fff'/>
    <path id="Path_24877" data-name="Path 24877" d="M346.527,48.007H322.342V61.778h-5.585l-2.612-9.746c-7.847-4.319-17.22-6.592-27.8-6.592-36.52,0-59.9,22.251-59.9,61.044v28.809c0,38.793,23.393,61.044,59.9,61.044,10.594,0,19.967-2.284,27.814-6.592l2.612-9.735h5.585v13.76h24.185V48.007Zm-24.252,87.3c0,29.668-16.259,38.227-35.943,38.227-21.109,0-35.661-8.559-35.661-38.227V106.5c0-26.819,14.552-38.227,35.661-38.227,19.685,0,35.943,11.408,35.943,38.227Z" transform="translate(10898.585 -16501.973)" fill='#fff'/>
    <path id="Path_24878" data-name="Path 24878" d="M830.906,48.007V61.8H825.32l-2.634-9.814c-7.824-4.285-17.175-6.546-27.724-6.546-36.52,0-59.9,22.251-59.9,61.044v28.809c0,38.793,23.393,61.044,59.9,61.044,10.56,0,19.911-2.261,27.735-6.558l2.623-9.769h5.585v13.76h24.253V48H830.906Zm0,87.3c0,29.668-16.259,38.227-35.943,38.227-21.109,0-35.661-8.559-35.661-38.227V106.5c0-26.819,14.552-38.227,35.661-38.227,19.685,0,35.943,11.408,35.943,38.227Z" transform="translate(10965.038 -16501.973)" fill='#fff'/>
    <path id="Path_24879" data-name="Path 24879" d="M928.956,51.364c-10.56,0-19.9,2.261-27.724,6.546L898.6,67.725h-5.585V.01H868.76V199.695h24.253v-13.76H898.6l2.623,9.769c7.824,4.3,17.175,6.558,27.735,6.558,36.52,0,59.9-22.251,59.9-61.044V112.408c0-38.793-23.393-61.044-59.9-61.044m35.661,89.864c0,29.668-14.552,38.227-35.661,38.227-19.685,0-35.943-8.559-35.943-38.227V112.42c0-26.819,16.259-38.227,35.943-38.227,21.109,0,35.661,11.408,35.661,38.227Z" transform="translate(10982.506 -16507.908)" fill='#fff'/>
    <path id="Path_24880" data-name="Path 24880" d="M585.156.011V63.622c-9.124-7.982-21.392-12.268-35.944-12.268-36.52,0-59.9,22.251-59.9,61.044v28.809c0,38.793,23.393,61.044,59.9,61.044,10.56,0,19.911-2.261,27.735-6.558l2.623-9.769h5.585v13.76h24.253V0H585.156Zm0,141.207c0,29.668-16.259,38.227-35.944,38.227-21.109,0-35.661-8.559-35.661-38.227V112.41c0-26.819,14.552-38.227,35.661-38.227,19.685,0,35.944,11.408,35.944,38.227Z" transform="translate(10932.93 -16507.91)" fill='#fff'/>
    <path id="Path_24881" data-name="Path 24881" d="M653.825,176.889l-3.7,13.771h-5.585l.057-5.936a53.345,53.345,0,0,1,9.452-29.024l65.906-95.314a78.569,78.569,0,0,0,14-44.876V.01H708.628V15.5a53.374,53.374,0,0,1-9.509,30.471l-65.906,95.314c-14.224,24.151-14.224,35.593-14.224,35.593v22.817H734.52V176.878H653.814Z" transform="translate(10949.873 -16507.908)" fill='#fff'/>
    <path id="Path_24882" data-name="Path 24882" d="M1076.13,2.35h-3.81V.01h10.165V2.35h-3.822V13.137h-2.533Z" transform="translate(11009.103 -16507.908)" fill='#fff'/>
    <path id="Path_24883" data-name="Path 24883" d="M1084.672.474V13.137h-2.442V.01h4.67l2.25,12.663L1091.4.01h4.67V13.137h-2.442V.474l-2.1,12.663h-4.76l-2.1-12.663Z" transform="translate(11010.396 -16507.908)" fill='#fff'/>
    <path id="Path_24884" data-name="Path 24884" d="M393.93,47.07l-1.153,3.98L390.165,60.8H384.58V47.07H360.621v.724h-.011V193.557h24.253V71.323h70.462V193.557h24.253V47.07Z" transform="translate(10916.115 -16501.76)" fill='#fff'/>
  </g>
</svg>
