<svg xmlns="http://www.w3.org/2000/svg" width="18.871" height="18.872" viewBox="0 0 18.871 18.872">
  <path id="iconmonstr-instagram-11_1_" data-name="iconmonstr-instagram-11 (1)" d="M9.436,1.7c2.519,0,2.818.009,3.814.055,2.557.116,3.751,1.33,3.868,3.868.046.995.054,1.293.054,3.813s-.009,2.818-.054,3.813C17,15.785,15.809,17,13.249,17.117c-1,.046-1.293.055-3.814.055s-2.818-.009-3.813-.055C3.06,17,1.871,15.781,1.755,13.249c-.046-.995-.055-1.293-.055-3.813s.01-2.817.055-3.813c.117-2.537,1.308-3.752,3.868-3.868,1-.045,1.293-.054,3.813-.054Zm0-1.7C6.873,0,6.552.011,5.546.057,2.119.214.215,2.115.057,5.545.011,6.552,0,6.873,0,9.436s.011,2.884.057,3.891c.157,3.427,2.059,5.331,5.488,5.488,1.007.046,1.328.057,3.891.057s2.884-.011,3.891-.057c3.424-.157,5.333-2.059,5.488-5.488.046-1.006.057-1.328.057-3.891s-.011-2.883-.057-3.89C18.661,2.122,16.757.215,13.327.057,12.32.011,12,0,9.436,0Zm0,4.591a4.846,4.846,0,1,0,4.845,4.845A4.845,4.845,0,0,0,9.436,4.591Zm0,7.991a3.145,3.145,0,1,1,3.145-3.145A3.145,3.145,0,0,1,9.436,12.581Zm5.037-9.314A1.132,1.132,0,1,0,15.6,4.4,1.133,1.133,0,0,0,14.473,3.267Z" fill="#fff"/>
</svg>
