<?xml version="1.0" standalone="no"?>
<!DOCTYPE svg PUBLIC "-//W3C//DTD SVG 1.1//EN" "http://www.w3.org/Graphics/SVG/1.1/DTD/svg11.dtd" >
<svg xmlns="http://www.w3.org/2000/svg" xmlns:xlink="http://www.w3.org/1999/xlink" version="1.1">
<metadata>
Created by FontForge 20170731 at Fri Jul 14 18:48:57 2023
 By Aleksey,,,
Copyright (c) 2022 by Studio Few. All rights reserved.
</metadata>
<defs>
<font id="FTSterling-Regular" horiz-adv-x="1091" >
  <font-face 
    font-family="FT Sterling"
    font-weight="400"
    font-stretch="normal"
    units-per-em="2048"
    panose-1="0 0 0 0 0 0 0 0 0 0"
    ascent="1638"
    descent="-410"
    x-height="1024"
    cap-height="1403"
    bbox="-96 -545 2226 1878"
    underline-thickness="102"
    underline-position="-357"
    unicode-range="U+0020-25FC"
  />
<missing-glyph horiz-adv-x="748" 
d="M68 0v1365h544v-1365h-544zM136 68h408v1229h-408v-1229z" />
    <glyph glyph-name=".notdef" horiz-adv-x="748" 
d="M68 0v1365h544v-1365h-544zM136 68h408v1229h-408v-1229z" />
    <glyph glyph-name="glyph1" horiz-adv-x="0" 
 />
    <glyph glyph-name="glyph2" horiz-adv-x="682" 
 />
    <glyph glyph-name="space" unicode=" " horiz-adv-x="604" 
 />
    <glyph glyph-name="exclam" unicode="!" horiz-adv-x="598" 
d="M180 102q0 50 35 84.5t84 34.5t84 -34.5t35 -84.5q0 -49 -34.5 -83.5t-84.5 -34.5t-84.5 34.5t-34.5 83.5zM211 1403h172l-14 -1004h-144z" />
    <glyph glyph-name="quotedbl" unicode="&#x22;" horiz-adv-x="606" 
d="M78 1497h178l-16 -387h-146zM350 1497h178l-16 -387h-145z" />
    <glyph glyph-name="numbersign" unicode="#" horiz-adv-x="1505" 
d="M96 352l10 131h275l72 461h-271l13 133h278l53 357h152l-53 -357h358l55 357h152l-55 -357h274l-10 -133h-281l-69 -461h274l-12 -131h-281l-51 -352h-152l52 352h-365l-55 -352h-152l55 352h-266zM532 483h365l70 461h-363z" />
    <glyph glyph-name="dollar" unicode="$" horiz-adv-x="1265" 
d="M80 375l168 37q19 -111 103 -184.5t214 -90.5v510l-125 21q-152 24 -237.5 120t-85.5 236q0 164 124 274t324 125v95h152v-99q159 -18 267 -101t144 -228l-167 -35q-47 174 -244 215v-484l76 -12q75 -12 136 -35t117 -63.5t87.5 -106.5t31.5 -153q0 -175 -120 -291.5
t-328 -138.5v-101h-152v99q-200 17 -328.5 120.5t-156.5 270.5zM293 1030q0 -83 50.5 -137.5t141.5 -67.5l80 -12v463q-122 -14 -197 -81.5t-75 -164.5zM717 135q127 17 199.5 89t72.5 175q0 55 -18.5 95.5t-52.5 64.5t-71 36.5t-85 20.5l-45 9v-490z" />
    <glyph glyph-name="percent" unicode="%" horiz-adv-x="1597" 
d="M104 1090q0 144 94.5 239.5t235.5 95.5q143 0 237.5 -94.5t94.5 -238.5q0 -145 -94.5 -240.5t-237.5 -95.5t-236.5 94.5t-93.5 239.5zM205 0l1020 1409h180l-1016 -1409h-184zM248 1090q0 -89 52.5 -148t133.5 -59q82 0 133 59t51 148t-51 147.5t-133 58.5
q-81 0 -133.5 -59t-52.5 -147zM850 301q0 145 94 240.5t236 95.5t236.5 -95t94.5 -239q0 -146 -94.5 -241t-236.5 -95q-143 0 -236.5 94.5t-93.5 239.5zM991 301q0 -89 53 -148t136 -59q81 0 132.5 59t51.5 148t-51.5 147t-132.5 58q-83 0 -136 -58.5t-53 -146.5z" />
    <glyph glyph-name="ampersand" unicode="&#x26;" horiz-adv-x="1423" 
d="M141 369q0 133 79 232.5t237 176.5q-46 48 -67 72.5t-54.5 72t-48.5 96t-15 103.5q0 143 104 236.5t265 93.5q158 0 263.5 -88.5t105.5 -228.5q0 -120 -83 -211.5t-233 -171.5l328 -340q27 38 50 110t32 150l162 -17q-13 -102 -47.5 -200t-77.5 -162l186 -184l-110 -113
l-160 168q-169 -197 -445 -197q-208 0 -339.5 111t-131.5 291zM313 375q0 -112 83 -187t216 -75q101 0 188.5 44t143.5 117l-385 398h-10q-236 -126 -236 -297zM438 1118q0 -118 146 -260h10q119 60 183.5 121.5t64.5 148.5q0 82 -54 134.5t-141 52.5q-92 0 -150.5 -56.5
t-58.5 -140.5z" />
    <glyph glyph-name="quotesingle" unicode="'" horiz-adv-x="333" 
d="M78 1497h178l-16 -387h-146z" />
    <glyph glyph-name="parenleft" unicode="(" horiz-adv-x="567" 
d="M104 664q0 265 79 500.5t206 408.5h176q-133 -194 -214 -431t-81 -478q0 -242 82.5 -484t216.5 -440h-176q-128 180 -208.5 419t-80.5 505z" />
    <glyph glyph-name="parenright" unicode=")" horiz-adv-x="567" 
d="M-2 -260q135 197 218 439.5t83 484.5q0 241 -81.5 478t-215.5 431h176q127 -173 206 -408.5t79 -500.5q0 -266 -80.5 -505t-208.5 -419h-176z" />
    <glyph glyph-name="asterisk" unicode="*" horiz-adv-x="606" 
d="M66 1233l30 104l154 -57l-4 170h112l-2 -168l154 55l33 -104l-158 -47l102 -131l-84 -64l-100 135l-96 -135l-88 66l100 129z" />
    <glyph glyph-name="plus" unicode="+" horiz-adv-x="1191" 
d="M109 629v137h409v448h158v-448h409v-137h-409v-463h-158v463h-409z" />
    <glyph glyph-name="comma" unicode="," horiz-adv-x="518" 
d="M137 82q0 50 32 79t83 29q60 0 94.5 -43t34.5 -118q0 -92 -55.5 -157t-147.5 -75l-20 78q55 8 88 41t35 68q-12 -4 -37 -4q-45 0 -76 26.5t-31 75.5z" />
    <glyph glyph-name="hyphen" unicode="-" horiz-adv-x="978" 
d="M90 596v143h799v-143h-799z" />
    <glyph glyph-name="period" unicode="." horiz-adv-x="514" 
d="M139 104q0 48 34.5 82.5t84.5 34.5q49 0 83 -34.5t34 -82.5q0 -51 -33.5 -85.5t-83.5 -34.5q-51 0 -85 34.5t-34 85.5z" />
    <glyph glyph-name="slash" unicode="/" horiz-adv-x="976" 
d="M-2 -223l803 1702h176l-799 -1702h-180z" />
    <glyph glyph-name="zero" unicode="0" horiz-adv-x="1294" 
d="M98 700q0 340 147.5 532.5t403.5 192.5q258 0 403.5 -194.5t145.5 -528.5q0 -338 -148 -531.5t-405 -193.5q-255 0 -401 193t-146 530zM279 705q0 -260 96.5 -413t269.5 -153t273 150.5t100 412.5q0 264 -100.5 413t-272.5 149q-170 0 -268 -149t-98 -410z" />
    <glyph glyph-name="one" unicode="1" horiz-adv-x="706" 
d="M61 1098v100q150 9 227.5 55.5t106.5 149.5h164v-1403h-174v1098h-324z" />
    <glyph glyph-name="two" unicode="2" horiz-adv-x="1132" 
d="M70 0v119q0 93 28.5 170.5t82.5 135t112 98t135 79.5l209 103q54 26 89.5 48t74.5 56.5t58.5 81t19.5 104.5q0 119 -82 195t-217 76q-134 0 -214 -78.5t-104 -200.5l-170 25q21 184 153.5 298.5t342.5 114.5t341.5 -116.5t131.5 -304.5q0 -73 -23.5 -137.5t-54 -105.5
t-77.5 -78.5t-75 -53.5t-65 -35l-213 -107q-36 -18 -49.5 -24.5t-51.5 -28t-56.5 -36.5t-47.5 -42t-43.5 -52t-26.5 -60t-12 -72v-14h776v-158h-972z" />
    <glyph glyph-name="three" unicode="3" horiz-adv-x="1142" 
d="M90 354l162 27q26 -113 107 -181.5t210 -68.5q139 0 227.5 72t88.5 196q0 126 -98 193t-261 67h-112v144h108q152 0 235 62.5t83 176.5q0 110 -77.5 171t-205.5 61q-130 0 -204.5 -66.5t-90.5 -173.5l-160 25q6 72 38.5 136.5t88.5 116.5t143.5 82.5t194.5 30.5
q195 0 325 -99.5t130 -266.5q0 -123 -70 -204.5t-164 -109.5v-10q31 -5 64.5 -18.5t73 -40.5t70 -63.5t51 -93t20.5 -122.5q0 -127 -67.5 -224t-179.5 -146.5t-249 -49.5q-200 0 -330 107t-151 270z" />
    <glyph glyph-name="four" unicode="4" horiz-adv-x="1183" 
d="M70 342v166l630 895h236v-907h217v-154h-217v-342h-174v342h-692zM252 496h510v725h-10l-500 -715v-10z" />
    <glyph glyph-name="five" unicode="5" horiz-adv-x="1122" 
d="M76 317l151 48q33 -104 121.5 -169t202.5 -65q142 0 236 95t94 235q0 137 -92 225t-230 88q-188 0 -287 -153l-170 59l103 723h751v-154h-622l-66 -454h11q104 127 313 127q200 0 332.5 -129t132.5 -330q0 -99 -36.5 -187.5t-101.5 -154.5t-160.5 -105t-207.5 -39
q-184 0 -314.5 98t-160.5 242z" />
    <glyph glyph-name="six" unicode="6" horiz-adv-x="1202" 
d="M98 686q0 185 44.5 329t122.5 231.5t178 132t216 44.5q162 0 281 -75.5t152 -192.5l-150 -57q-37 81 -107.5 127.5t-172.5 46.5q-185 0 -287.5 -152t-102.5 -411v-15h11q42 95 147 156t240 61q129 0 234.5 -54.5t169 -159t63.5 -240.5q0 -205 -140 -342.5t-360 -137.5
q-117 0 -214.5 45t-170.5 131.5t-113.5 223t-40.5 309.5zM313 446q0 -134 91 -226.5t237 -92.5q145 0 230 93t85 231q0 141 -86.5 226t-224.5 85q-144 0 -238 -90t-94 -226z" />
    <glyph glyph-name="seven" unicode="7" horiz-adv-x="1007" 
d="M18 1247v156h979v-129q-97 -114 -169 -212.5t-143 -221t-118.5 -245t-81.5 -275t-45 -320.5h-184q13 161 49 313.5t84 276t114.5 244t132 213.5t144.5 190v10h-762z" />
    <glyph glyph-name="eight" unicode="8" horiz-adv-x="1142" 
d="M88 387q0 135 74 227t200 125v11q-106 33 -169.5 120t-63.5 195q0 154 123.5 257t318.5 103q198 0 321.5 -103t123.5 -257q0 -108 -65 -195.5t-171 -119.5v-11q125 -33 201 -125.5t76 -224.5q0 -183 -136 -297.5t-350 -114.5q-217 0 -350 116t-133 294zM266 397
q0 -117 83.5 -189.5t221.5 -72.5t223 72.5t85 189.5q0 119 -84 197t-224 78t-222.5 -77.5t-82.5 -197.5zM309 1051q0 -98 73 -161t189 -63t190.5 63.5t74.5 160.5q0 99 -73.5 159t-191.5 60t-190 -60t-72 -159z" />
    <glyph glyph-name="nine" unicode="9" horiz-adv-x="1202" 
d="M68 944q0 207 138.5 343t358.5 136q117 0 214.5 -45t170.5 -131t113.5 -222.5t40.5 -309.5q0 -186 -44.5 -329.5t-122 -231.5t-177.5 -132.5t-217 -44.5q-161 0 -280 76t-152 193l151 57q35 -80 106 -127t173 -47q186 0 287.5 152t101.5 413v15h-10q-41 -96 -147 -158
t-241 -62q-128 0 -233.5 55.5t-168 160t-62.5 239.5zM246 950q0 -141 86.5 -225t224.5 -84q144 0 238 89t94 224t-91 227.5t-237 92.5q-145 0 -230 -92t-85 -232z" />
    <glyph glyph-name="colon" unicode=":" horiz-adv-x="530" 
d="M147 117q0 50 34 83t85 33q50 0 84.5 -33.5t34.5 -82.5q0 -51 -34.5 -86t-84.5 -35q-51 0 -85 35t-34 86zM147 909q0 50 34 84.5t85 34.5q50 0 84.5 -35t34.5 -84t-34.5 -83.5t-84.5 -34.5q-51 0 -85 34t-34 84z" />
    <glyph glyph-name="semicolon" unicode=";" horiz-adv-x="538" 
d="M147 94q0 50 32 79.5t83 29.5q60 0 94.5 -43.5t34.5 -118.5q0 -92 -55 -156.5t-148 -74.5l-18 77q54 8 86.5 41t34.5 68q-12 -4 -35 -4q-47 0 -78 26.5t-31 75.5zM152 909q0 50 33.5 84.5t84.5 34.5q50 0 84.5 -35t34.5 -84t-34.5 -83.5t-84.5 -34.5q-51 0 -84.5 34
t-33.5 84z" />
    <glyph glyph-name="less" unicode="&#x3c;" horiz-adv-x="1019" 
d="M70 598v168l882 391v-168l-721 -303v-10l721 -301v-168z" />
    <glyph glyph-name="equal" unicode="=" horiz-adv-x="1183" 
d="M129 406v141h926v-141h-926zM129 834v143h926v-143h-926z" />
    <glyph glyph-name="greater" unicode="&#x3e;" horiz-adv-x="1019" 
d="M68 207v168l720 301v10l-720 303v168l882 -391v-168z" />
    <glyph glyph-name="question" unicode="?" horiz-adv-x="1038" 
d="M68 1024q19 181 147 290t320 109q191 0 313.5 -106.5t122.5 -278.5q0 -65 -16.5 -118t-55 -98t-63 -66.5t-77.5 -61.5q-4 -3 -6.5 -5t-5.5 -4.5t-6 -4.5q-46 -36 -71 -59t-54 -59t-40.5 -78.5t-8.5 -94.5h-153q-5 59 5.5 110.5t29 88t49 72t58.5 60t65 54.5q5 4 8 6
q42 33 63.5 52t49.5 52t40.5 70t12.5 82q0 107 -73.5 172.5t-189.5 65.5q-130 0 -209 -78t-92 -199zM377 102q0 50 34 84.5t85 34.5q49 0 83.5 -34.5t34.5 -84.5t-34 -84t-84 -34q-51 0 -85 34t-34 84z" />
    <glyph glyph-name="at" unicode="@" horiz-adv-x="1470" 
d="M88 555q0 191 88 348t245.5 248.5t352.5 91.5q175 0 318 -74t226 -210.5t83 -309.5q0 -182 -88 -297.5t-232 -115.5q-70 0 -118.5 32t-61.5 103h-10q-63 -144 -217 -144q-118 0 -193 83.5t-75 219.5q0 156 94 266.5t227 110.5q139 0 166 -121h10l10 111h156l-47 -412
q-12 -123 74 -123q72 0 120 80t48 203q0 210 -139 342.5t-351 132.5q-156 0 -280.5 -74.5t-193.5 -202.5t-69 -284q0 -229 143.5 -378t381.5 -148h491v-127h-491q-201 0 -354.5 86.5t-233.5 233t-80 329.5zM559 535q0 -81 39.5 -130t99.5 -49q79 0 134 72.5t55 173.5
q0 80 -37 128t-100 48q-80 0 -135.5 -71t-55.5 -172z" />
    <glyph glyph-name="A" unicode="A" horiz-adv-x="1353" 
d="M14 0l559 1403h205l561 -1403h-196l-150 383h-637l-151 -383h-191zM406 532h534l-260 676h-10z" />
    <glyph glyph-name="B" unicode="B" horiz-adv-x="1314" 
d="M178 0v1403h586q192 -4 305 -99t113 -247q0 -107 -59.5 -188t-166.5 -119v-17q117 -21 195 -110t78 -224q0 -174 -127 -286.5t-334 -112.5h-590zM356 154h367q162 0 241.5 68t79.5 186q0 119 -80.5 183t-215.5 64h-392v-501zM356 805h363q131 0 205.5 64t74.5 167
q0 106 -73.5 160.5t-214.5 54.5h-355v-446z" />
    <glyph glyph-name="C" unicode="C" horiz-adv-x="1447" 
d="M90 700q0 210 83.5 374.5t238.5 257.5t358 93q232 0 389.5 -119.5t210.5 -312.5l-168 -43q-48 142 -161 227t-275 85q-104 0 -194 -36.5t-158.5 -105t-108 -175.5t-39.5 -238q0 -255 139 -410.5t359 -155.5q162 0 274.5 87.5t163.5 240.5l166 -45q-57 -202 -215.5 -324.5
t-384.5 -122.5q-144 0 -268.5 51.5t-215 144t-142.5 228.5t-52 299z" />
    <glyph glyph-name="D" unicode="D" horiz-adv-x="1415" 
d="M176 0v1403h465q144 0 268.5 -48t217 -136t145.5 -220.5t53 -293.5t-53 -294.5t-145.5 -223t-217.5 -138.5t-268 -49h-465zM352 158h289q105 0 197 37t161.5 105t109.5 172.5t40 232.5q0 129 -40 232.5t-109.5 170t-161 102t-197.5 35.5h-289v-1087z" />
    <glyph glyph-name="E" unicode="E" horiz-adv-x="1230" 
d="M178 0v1403h934v-156h-756v-454h688l3 -158h-691v-477h756v-158h-934z" />
    <glyph glyph-name="F" unicode="F" horiz-adv-x="1167" 
d="M178 0v1403h928v-156h-750v-461h682v-155h-682v-631h-178z" />
    <glyph glyph-name="G" unicode="G" horiz-adv-x="1499" 
d="M88 702q0 325 188 526.5t490 201.5q224 0 380 -111t197 -268l-169 -45q-41 112 -147 189t-267 77q-223 0 -358.5 -154.5t-135.5 -410.5q0 -252 133 -412t361 -160q91 0 168.5 26.5t127.5 68t85.5 92.5t51 98.5t15.5 87.5v20q0 35 -15 49.5t-52 14.5h-441v153h451
q120 0 179 -55t59 -174v-516h-168v272h-11q-15 -42 -38 -80.5t-62.5 -78.5t-90 -69.5t-123 -48t-157.5 -18.5q-190 0 -338.5 91t-230.5 256t-82 378z" />
    <glyph glyph-name="H" unicode="H" horiz-adv-x="1454" 
d="M178 0v1403h178v-617h742v617h178v-1403h-178v629h-742v-629h-178z" />
    <glyph glyph-name="I" unicode="I" horiz-adv-x="534" 
d="M178 0v1403h178v-1403h-178z" />
    <glyph glyph-name="J" unicode="J" horiz-adv-x="753" 
d="M39 0v158h178q199 0 199 209v1036h180v-1038q0 -174 -95 -269.5t-280 -95.5h-182z" />
    <glyph glyph-name="K" unicode="K" horiz-adv-x="1329" 
d="M178 0v1403h178l2 -739h11l661 739h223l-526 -602l576 -801h-226l-479 674h-10l-230 -248l-2 -426h-178z" />
    <glyph glyph-name="L" unicode="L" horiz-adv-x="1087" 
d="M178 0v1403h178v-1245h682v-158h-860z" />
    <glyph glyph-name="M" unicode="M" horiz-adv-x="1783" 
d="M178 0v1403h254l449 -1188h10l459 1188h256v-1403h-181v1112h-10l-434 -1112h-193l-421 1108h-11v-1108h-178z" />
    <glyph glyph-name="N" unicode="N" horiz-adv-x="1515" 
d="M178 0v1403h213l758 -1147h10v1147h180v-1403h-219l-753 1141h-11v-1141h-178z" />
    <glyph glyph-name="O" unicode="O" horiz-adv-x="1542" 
d="M88 702q0 161 51.5 296.5t142 229t216.5 145.5t272 52t272 -52t217 -145.5t143 -229t52 -296.5t-52.5 -297.5t-143.5 -230t-217 -145.5t-271 -52q-146 0 -271.5 52t-216.5 145t-142.5 229.5t-51.5 298.5zM268 702q0 -255 140 -409t362 -154t363 154t141 409
q0 254 -140.5 408t-363.5 154t-362.5 -154.5t-139.5 -407.5z" />
    <glyph glyph-name="P" unicode="P" horiz-adv-x="1234" 
d="M178 0v1403h545q204 0 328.5 -118t124.5 -302q0 -186 -125.5 -305t-331.5 -119l-365 2v-561h-176zM354 715h357q132 0 207 74t75 192q0 120 -75 194t-207 74h-355z" />
    <glyph glyph-name="Q" unicode="Q" horiz-adv-x="1562" 
d="M92 702q0 159 52 294t142.5 229t216.5 147t271 53q195 0 350.5 -90t244.5 -255.5t89 -377.5q0 -314 -186 -516q73 -57 168 -57h35v-152h-41q-172 0 -285 107q-162 -107 -375 -107q-193 0 -348.5 90.5t-244.5 256.5t-89 378zM272 702q0 -250 141 -406.5t361 -156.5
q149 0 270 76q-58 85 -121.5 126.5t-158.5 41.5h-37v154h43q131 0 224.5 -52t166.5 -161q117 152 117 378q0 249 -141.5 405.5t-362.5 156.5t-361.5 -156.5t-140.5 -405.5z" />
    <glyph glyph-name="R" unicode="R" horiz-adv-x="1368" 
d="M178 0v1403h570q216 0 333 -105.5t117 -281.5q0 -250 -246 -328v-10q97 -5 159.5 -65t62.5 -187v-426h-181v416q0 96 -50 135t-142 39h-447v-590h-176zM354 743h379q133 0 208 71.5t75 191.5q0 113 -74 179t-217 66h-371v-508z" />
    <glyph glyph-name="S" unicode="S" horiz-adv-x="1265" 
d="M80 375l168 37q22 -128 129 -205.5t268 -77.5q158 0 251 76t93 194q0 55 -18.5 95.5t-52.5 64.5t-71 36.5t-85 20.5l-322 52q-152 24 -237.5 120t-85.5 236q0 177 142.5 289t365.5 112q193 0 328 -85t175 -250l-167 -35q-32 116 -125 169.5t-215 53.5q-144 0 -236 -70
t-92 -178q0 -83 50.5 -137.5t141.5 -67.5l308 -51q75 -12 136 -35t117 -63.5t87.5 -106.5t31.5 -153q0 -193 -144.5 -313.5t-387.5 -120.5q-227 0 -374.5 105.5t-178.5 287.5z" />
    <glyph glyph-name="T" unicode="T" horiz-adv-x="1202" 
d="M23 1251v152h1157v-152h-492v-1251h-174v1251h-491z" />
    <glyph glyph-name="U" unicode="U" horiz-adv-x="1423" 
d="M160 516v887h178v-883q0 -181 101 -279t272 -98t272.5 98t101.5 279v883h179v-887q0 -252 -152.5 -393t-400.5 -141t-399.5 141t-151.5 393z" />
    <glyph glyph-name="V" unicode="V" horiz-adv-x="1357" 
d="M18 1403h199l457 -1184h10l457 1184h198l-565 -1403h-190z" />
    <glyph glyph-name="W" unicode="W" horiz-adv-x="1914" 
d="M27 1403h190l293 -1170h10l344 1170h187l346 -1172h10l291 1172h190l-387 -1403h-203l-335 1135h-11l-340 -1135h-202z" />
    <glyph glyph-name="X" unicode="X" horiz-adv-x="1343" 
d="M20 0l531 719l-498 684h205l397 -549h15l391 549h209l-488 -686l541 -717h-215l-436 582h-13l-423 -582h-216z" />
    <glyph glyph-name="Y" unicode="Y" horiz-adv-x="1259" 
d="M16 1403h203l404 -668h10l407 668h203l-524 -840v-563h-178v563z" />
    <glyph glyph-name="Z" unicode="Z" horiz-adv-x="1290" 
d="M88 0v162l895 1075v10h-883v156h1100v-164l-897 -1073v-10h905v-156h-1120z" />
    <glyph glyph-name="bracketleft" unicode="[" horiz-adv-x="667" 
d="M178 -266v1747h481v-142h-323v-1464h323v-141h-481z" />
    <glyph glyph-name="backslash" unicode="\" horiz-adv-x="976" 
d="M-2 1479h178l801 -1702h-178z" />
    <glyph glyph-name="bracketright" unicode="]" horiz-adv-x="667" 
d="M8 -125h324v1464h-324v142h484v-1747h-484v141z" />
    <glyph glyph-name="asciicircum" unicode="^" horiz-adv-x="905" 
d="M55 780l310 623h178l307 -623h-162l-229 477h-10l-230 -477h-164z" />
    <glyph glyph-name="underscore" unicode="_" horiz-adv-x="1046" 
d="M25 0h997v-145h-997v145z" />
    <glyph glyph-name="grave" unicode="`" horiz-adv-x="544" 
d="M63 1503h218l200 -286h-178z" />
    <glyph glyph-name="a" unicode="a" 
d="M96 289q0 73 27.5 129.5t78 91.5t116.5 55t149 25l225 16q58 3 83.5 22t25.5 77q0 95 -70 149.5t-184 54.5q-110 0 -176 -49.5t-88 -128.5l-160 19q19 130 134 213.5t290 83.5q190 0 307 -94t117 -253v-700h-174l2 178h-11q-31 -87 -121 -145t-218 -58
q-156 0 -254.5 86.5t-98.5 227.5zM270 293q0 -82 58 -131t157 -49q137 0 226.5 92.5t89.5 228.5v66q-23 -13 -90 -19l-215 -16q-226 -14 -226 -172z" />
    <glyph glyph-name="b" unicode="b" horiz-adv-x="1220" 
d="M158 0v1423h168v-585h10q39 84 130 141t218 57q201 0 331 -147.5t130 -378.5q0 -233 -132 -383t-333 -150q-123 0 -214.5 58t-129.5 141h-10v-176h-168zM322 506q0 -175 94 -277t237 -102q141 0 231.5 103.5t90.5 279.5q0 172 -90 275.5t-232 103.5q-144 0 -237.5 -106
t-93.5 -277z" />
    <glyph glyph-name="c" unicode="c" horiz-adv-x="1093" 
d="M76 512q0 236 143.5 385.5t366.5 149.5q165 0 287 -88t157 -232l-151 -41q-33 98 -108.5 153.5t-180.5 55.5q-155 0 -248.5 -109.5t-93.5 -275.5q0 -169 96 -275t246 -106q104 0 185 56.5t116 154.5l145 -37q-43 -150 -165 -238t-287 -88q-219 0 -363.5 148.5
t-144.5 386.5z" />
    <glyph glyph-name="d" unicode="d" horiz-adv-x="1212" 
d="M78 510q0 232 129 379t332 147q126 0 217 -57.5t129 -140.5h10v585h168v-1423h-168v176h-10q-38 -83 -129.5 -141t-214.5 -58q-201 0 -332 149.5t-131 383.5zM246 510q0 -176 91 -279.5t232 -103.5q142 0 237 102.5t95 276.5q0 172 -94.5 277.5t-239.5 105.5
q-142 0 -231.5 -103.5t-89.5 -275.5z" />
    <glyph glyph-name="e" unicode="e" horiz-adv-x="1118" 
d="M78 508q0 238 134 387t355 149q220 0 346.5 -147.5t126.5 -382.5v-57h-792q5 -149 91 -242.5t236 -93.5q108 0 183 55.5t104 134.5l150 -41q-37 -126 -156 -209.5t-281 -83.5q-226 0 -361.5 146.5t-135.5 384.5zM254 590h614q-6 143 -88 225t-213 82t-218.5 -85.5
t-94.5 -221.5z" />
    <glyph glyph-name="f" unicode="f" horiz-adv-x="712" 
d="M37 881v143h188v147q0 127 74.5 195t202.5 68h174v-142h-144q-77 0 -108 -36t-31 -103v-129h273v-143h-273v-881h-168v881h-188z" />
    <glyph glyph-name="g" unicode="g" horiz-adv-x="1206" 
d="M86 522q0 232 132 378.5t331 146.5q123 0 211.5 -56t128.5 -141h10v174h170v-963q0 -220 -136 -341t-362 -121q-179 0 -304 78.5t-148 207.5l155 33q23 -82 106 -131t191 -49q150 0 239 82t89 233v148h-10q-40 -86 -129.5 -143.5t-214.5 -57.5q-201 0 -330 145.5
t-129 376.5zM256 522q0 -170 89.5 -272.5t229.5 -102.5q142 0 236 105t94 274t-94.5 270t-235.5 101q-139 0 -229 -101t-90 -274z" />
    <glyph glyph-name="h" unicode="h" horiz-adv-x="1181" 
d="M158 0v1423h168v-585h8q38 96 124.5 152.5t213.5 56.5q172 0 272 -101.5t100 -281.5v-664h-170v625q0 52 -12 97t-39 86.5t-78.5 66t-121.5 24.5q-135 0 -216 -93t-81 -259v-547h-168z" />
    <glyph glyph-name="i" unicode="i" horiz-adv-x="464" 
d="M117 1315q0 48 33.5 81.5t82.5 33.5q46 0 79.5 -34t33.5 -81t-33.5 -82t-79.5 -35q-49 0 -82.5 34.5t-33.5 82.5zM147 0v1024h166v-1024h-166z" />
    <glyph glyph-name="j" unicode="j" horiz-adv-x="507" 
d="M-39 -225h100q69 0 101.5 35t32.5 110v1104h165v-1118q0 -132 -72.5 -202.5t-189.5 -70.5h-137v142zM160 1317q0 46 33.5 79.5t82.5 33.5q46 0 79.5 -33.5t33.5 -79.5q0 -49 -33.5 -83t-79.5 -34q-49 0 -82.5 33.5t-33.5 83.5z" />
    <glyph glyph-name="k" unicode="k" horiz-adv-x="1058" 
d="M158 0v1423h166v-923h10l479 524h211l-391 -426l409 -598h-200l-322 477h-10l-186 -192v-285h-166z" />
    <glyph glyph-name="l" unicode="l" horiz-adv-x="481" 
d="M158 0v1423h166v-1423h-166z" />
    <glyph glyph-name="m" unicode="m" horiz-adv-x="1775" 
d="M158 0v1024h168v-190h10q34 95 116 154t199 59q115 0 191.5 -53.5t107.5 -155.5h11q94 209 331 209q160 0 252 -101t92 -278v-668h-166v631q0 39 -6 74.5t-21.5 72t-39.5 62.5t-63.5 42.5t-90.5 16.5q-118 0 -188 -86.5t-70 -232.5v-580h-166v631q0 51 -10 94.5
t-32.5 84.5t-68.5 65t-110 24q-124 0 -201 -96.5t-77 -261.5v-541h-168z" />
    <glyph glyph-name="n" unicode="n" horiz-adv-x="1181" 
d="M158 0v1024h168v-182h8q38 92 127 148.5t211 56.5q166 0 269 -102.5t103 -280.5v-664h-170v625q0 39 -7.5 76.5t-26 74t-46.5 63.5t-72 43.5t-99 16.5q-131 0 -214 -93.5t-83 -258.5v-547h-168z" />
    <glyph glyph-name="o" unicode="o" horiz-adv-x="1177" 
d="M78 510q0 236 144.5 386.5t367.5 150.5t367.5 -150.5t144.5 -386.5q0 -235 -144.5 -384t-367.5 -149t-367.5 149t-144.5 384zM248 510q0 -173 96 -278t246 -105t246 105t96 278q0 175 -96 281t-246 106t-246 -106t-96 -281z" />
    <glyph glyph-name="p" unicode="p" horiz-adv-x="1222" 
d="M158 -385v1409h168v-174h10q40 83 131 140t215 57q201 0 332 -149t131 -384q0 -232 -129 -379t-332 -147q-127 0 -217.5 57t-130.5 141h-10v-571h-168zM322 520q0 -173 93.5 -279t237.5 -106q142 0 233 103.5t91 275.5q0 176 -92 279.5t-234 103.5q-141 0 -235 -102
t-94 -275z" />
    <glyph glyph-name="q" unicode="q" horiz-adv-x="1214" 
d="M78 514q0 235 131 384t332 149q124 0 215 -57t131 -140h10v174h168v-1409h-168v571h-10q-40 -84 -130.5 -141t-217.5 -57q-203 0 -332 147t-129 379zM246 514q0 -172 90.5 -275.5t232.5 -103.5q144 0 238 106t94 279t-94.5 275t-235.5 102q-142 0 -233.5 -103.5
t-91.5 -279.5z" />
    <glyph glyph-name="r" unicode="r" horiz-adv-x="778" 
d="M158 0v1024h166v-182h8q11 33 28.5 62t47.5 59t78.5 47.5t109.5 17.5h143v-154h-151q-125 0 -193.5 -76t-68.5 -220v-578h-168z" />
    <glyph glyph-name="s" unicode="s" horiz-adv-x="1007" 
d="M68 266l161 31q16 -79 89 -131.5t188 -52.5q112 0 182 51t70 133q0 31 -12 55t-27 37t-41.5 22.5t-44 13t-45.5 7.5l-240 37q-116 19 -185 91t-69 179q0 137 110.5 222.5t291.5 85.5q96 0 175.5 -25.5t140.5 -87t81 -152.5l-156 -34q-25 81 -89.5 121t-153.5 40
q-60 0 -111 -15.5t-87 -52.5t-36 -91q0 -67 47.5 -100.5t112.5 -43.5l223 -35q281 -37 281 -262q0 -153 -121.5 -244.5t-304.5 -91.5q-177 0 -294 83t-136 210z" />
    <glyph glyph-name="t" unicode="t" horiz-adv-x="821" 
d="M37 883v141h166q16 0 16 18v263l168 20l2 -301h324l2 -141h-326v-604q0 -64 29.5 -99t105.5 -35h211v-145h-241q-133 0 -204 68.5t-71 201.5v613h-182z" />
    <glyph glyph-name="u" unicode="u" horiz-adv-x="1179" 
d="M147 360v664h168v-623q0 -53 12.5 -99t39.5 -86.5t78 -64.5t120 -24q136 0 217.5 101t81.5 266v530h170v-1024h-170v188h-10q-41 -97 -124.5 -154t-211.5 -57q-172 0 -271.5 102.5t-99.5 280.5z" />
    <glyph glyph-name="v" unicode="v" horiz-adv-x="1032" 
d="M18 1024h183l309 -840h10l309 840h185l-406 -1024h-188z" />
    <glyph glyph-name="w" unicode="w" horiz-adv-x="1495" 
d="M27 1024h180l207 -795h10l229 795h187l231 -795h10l207 795h178l-297 -1024h-174l-241 821h-11l-241 -821h-174z" />
    <glyph glyph-name="x" unicode="x" horiz-adv-x="1019" 
d="M20 0l388 522l-375 502h196l275 -377h10l270 377h193l-365 -506l389 -518h-198l-287 395h-10l-293 -395h-193z" />
    <glyph glyph-name="y" unicode="y" horiz-adv-x="1044" 
d="M18 1024h183l319 -831h10l299 831h197l-461 -1151q-103 -260 -315 -260h-193v145h166q69 1 109 37.5t69 112.5l35 88z" />
    <glyph glyph-name="z" unicode="z" horiz-adv-x="1015" 
d="M78 0v141l641 731v11h-625v141h838v-141l-639 -731v-11h645v-141h-860z" />
    <glyph glyph-name="braceleft" unicode="{" horiz-adv-x="585" 
d="M90 520v121q99 50 130.5 122t31.5 214v356q0 111 64 184.5t171 73.5h91v-139h-46q-62 0 -92 -33t-30 -116v-357q0 -135 -36.5 -222t-137.5 -140v-11q101 -52 137.5 -138.5t36.5 -221.5v-395q0 -80 30 -112t92 -32h46v-139h-89q-107 0 -172 74t-65 186v387
q0 148 -31 218.5t-131 119.5z" />
    <glyph glyph-name="bar" unicode="|" horiz-adv-x="509" 
d="M178 -248v1854h156v-1854h-156z" />
    <glyph glyph-name="braceright" unicode="}" horiz-adv-x="585" 
d="M8 -326h45q62 0 92.5 32t30.5 112v395q0 135 36.5 221.5t137.5 138.5v11q-101 53 -137.5 140t-36.5 222v357q0 82 -30.5 115.5t-92.5 33.5h-45v139h92q105 0 169.5 -73.5t64.5 -184.5v-356q0 -142 31.5 -214t130.5 -122v-121q-99 -49 -130.5 -120t-31.5 -218v-387
q0 -112 -65 -186t-171 -74h-90v139z" />
    <glyph glyph-name="uni00A0" unicode="&#xa0;" horiz-adv-x="604" 
 />
    <glyph glyph-name="exclamdown" unicode="&#xa1;" horiz-adv-x="530" 
d="M147 1094q0 51 34 85.5t85 34.5q50 0 83.5 -34.5t33.5 -85.5q0 -48 -34 -82.5t-83 -34.5q-50 0 -84.5 34.5t-34.5 82.5zM176 -207l14 1006h144l16 -1006h-174z" />
    <glyph glyph-name="cent" unicode="&#xa2;" horiz-adv-x="1140" 
d="M88 684q0 216 122.5 360.5t319.5 167.5v131h146v-133q138 -20 237 -103t129 -208l-151 -43q-27 79 -82.5 132.5t-132.5 70.5v-752q79 17 138.5 70.5t88.5 134.5l146 -37q-38 -131 -137 -215t-236 -104v-127h-146v125q-194 22 -318 166t-124 364zM260 682
q0 -147 74 -248.5t196 -128.5v756q-124 -26 -197 -130.5t-73 -248.5z" />
    <glyph glyph-name="sterling" unicode="&#xa3;" horiz-adv-x="1146" 
d="M129 0v150q83 55 132.5 121.5t64.5 150.5t-23 176h-172v147h123q-5 17 -28 72.5t-35.5 105.5t-12.5 105q0 181 127.5 297.5t327.5 116.5q189 0 312.5 -102.5t146.5 -256.5l-166 -32q-26 118 -109.5 178.5t-185.5 60.5q-111 0 -193 -69.5t-82 -194.5q0 -50 11 -96
t35.5 -108t29.5 -77h483v-147h-434q46 -129 1.5 -246.5t-134.5 -187.5v-10h752v-154h-971z" />
    <glyph glyph-name="yen" unicode="&#xa5;" horiz-adv-x="1273" 
d="M-4 1403h203l405 -668h10l408 668h203l-504 -805h348v-125h-371v-104h371v-123h-371v-246h-178v246h-270v123h270v104h-270v125h248z" />
    <glyph glyph-name="brokenbar" unicode="&#xa6;" horiz-adv-x="509" 
d="M178 -236v764h156v-764h-156zM178 831v764h156v-764h-156z" />
    <glyph glyph-name="dieresis" unicode="&#xa8;" horiz-adv-x="753" 
d="M70 1315q0 48 35 82.5t85 34.5q47 0 82 -35t35 -82q0 -51 -34.5 -86t-82.5 -35q-51 0 -85.5 35t-34.5 86zM446 1315q0 48 34.5 82.5t84.5 34.5q49 0 83 -34.5t34 -82.5q0 -51 -34 -86t-83 -35q-51 0 -85 35t-34 86z" />
    <glyph glyph-name="copyright" unicode="&#xa9;" horiz-adv-x="1746" 
d="M88 733q0 227 100 408t279.5 283t404.5 102q226 0 406 -102.5t280.5 -283.5t100.5 -407q0 -170 -59 -317t-162 -251.5t-249.5 -164t-316.5 -59.5t-316 60t-248.5 164.5t-161 251.5t-58.5 316zM219 733q0 -143 49 -267t134.5 -212t207 -138t262.5 -50q188 0 338.5 86
t235 238.5t84.5 342.5q0 142 -49.5 266t-136 211.5t-209 138t-263.5 50.5t-262.5 -50t-207 -138t-134.5 -212t-49 -266zM424 729q0 219 128.5 354.5t334.5 135.5q164 0 273.5 -89t139.5 -233l-139 -31q-31 103 -104 160t-174 57q-140 0 -225 -97t-85 -257q0 -161 86 -258.5
t222 -97.5q102 0 176 58t106 161l135 -37q-32 -140 -141.5 -228.5t-271.5 -88.5q-204 0 -332.5 136.5t-128.5 354.5z" />
    <glyph glyph-name="guillemotleft" unicode="&#xab;" horiz-adv-x="1239" 
d="M242 582l311 376h365l-316 -372v-11l316 -370h-365z" />
    <glyph glyph-name="uni00AD" unicode="&#xad;" horiz-adv-x="1112" 
d="M182 555v147h738v-147h-738z" />
    <glyph glyph-name="registered" unicode="&#xae;" horiz-adv-x="1744" 
d="M88 733q0 227 100 408t279.5 283t404.5 102q226 0 405.5 -102.5t279.5 -283.5t100 -407q0 -227 -100.5 -408t-280 -282.5t-404.5 -101.5q-170 0 -316 60t-248.5 164.5t-161 251.5t-58.5 316zM219 733q0 -143 49 -267t134.5 -212t207 -138t262.5 -50q187 0 337 86
t234.5 238.5t84.5 342.5t-84.5 342.5t-234.5 238t-337 85.5q-141 0 -262.5 -50t-207 -138t-134.5 -212t-49 -266zM575 297v885h355q134 0 215.5 -74t81.5 -193q0 -93 -48.5 -145t-117.5 -59v-11q76 0 119 -39t43 -118v-246h-156v242q0 59 -28.5 80.5t-84.5 21.5h-241v-344
h-138zM713 766h202q77 0 122.5 38t45.5 105q0 70 -45 110t-123 40h-202v-293z" />
    <glyph glyph-name="macron" unicode="&#xaf;" horiz-adv-x="720" 
d="M66 1225v143h589v-143h-589z" />
    <glyph glyph-name="degree" unicode="&#xb0;" horiz-adv-x="636" 
d="M47 1280q0 117 76.5 193.5t193.5 76.5q119 0 196 -75.5t77 -192.5t-77.5 -193.5t-195.5 -76.5q-117 0 -193.5 75.5t-76.5 192.5zM180 1280q0 -65 38.5 -107.5t98.5 -42.5q58 0 97 42.5t39 107.5q0 66 -39 110t-97 44q-60 0 -98.5 -44t-38.5 -110z" />
    <glyph glyph-name="acute" unicode="&#xb4;" horiz-adv-x="538" 
d="M66 1217l200 286h209l-239 -286h-170z" />
    <glyph glyph-name="periodcentered" unicode="&#xb7;" horiz-adv-x="503" 
d="M137 627q0 47 34 80.5t83 33.5q48 0 82.5 -33.5t34.5 -80.5q0 -50 -34.5 -84.5t-82.5 -34.5q-50 0 -83.5 34t-33.5 85z" />
    <glyph glyph-name="cedilla" unicode="&#xb8;" horiz-adv-x="591" 
d="M59 -387l111 35q31 -88 123 -88q49 0 84 25t35 75q0 46 -31.5 73t-81.5 27q-19 0 -37 -5.5t-25.5 -9t-25.5 -15.5l-18 -13l-97 58l107 215h116l-77 -148q4 1 19 5.5t30.5 6.5t34.5 1q87 -3 143.5 -54t56.5 -141q0 -99 -66 -152t-161 -53q-83 0 -148 40t-92 118z" />
    <glyph glyph-name="guillemotright" unicode="&#xbb;" horiz-adv-x="1239" 
d="M242 205l315 370v11l-315 372h364l312 -376l-312 -377h-364z" />
    <glyph glyph-name="questiondown" unicode="&#xbf;" horiz-adv-x="1019" 
d="M37 76q0 67 17 120.5t56 98.5t64 67t79 62q9 7 13 10q46 36 70.5 59t53 59t40 78.5t8.5 94.5h156q3 -51 -2.5 -94.5t-23.5 -81t-34 -64t-48.5 -58t-51 -47t-57.5 -46.5q-42 -33 -63.5 -52t-49.5 -52t-40.5 -70t-12.5 -82q0 -107 73.5 -172.5t190.5 -65.5q129 0 207.5 78
t91.5 199l164 -27q-19 -182 -146.5 -290.5t-318.5 -108.5q-192 0 -314 106.5t-122 278.5zM393 1012q0 50 34 84t83 34q51 0 85 -34t34 -84t-34 -84.5t-85 -34.5q-49 0 -83 34.5t-34 84.5z" />
    <glyph glyph-name="Agrave" unicode="&#xc0;" horiz-adv-x="1302" 
d="M-33 0l561 1403h203l563 -1403h-196l-152 383h-635l-151 -383h-193zM309 1810h215l201 -288h-176zM358 532h535l-260 676h-10z" />
    <glyph glyph-name="Aacute" unicode="&#xc1;" horiz-adv-x="1353" 
d="M14 0l559 1403h205l561 -1403h-196l-150 383h-637l-151 -383h-191zM406 532h534l-260 676h-10zM588 1530l200 287h209l-239 -287h-170z" />
    <glyph glyph-name="Acircumflex" unicode="&#xc2;" horiz-adv-x="1353" 
d="M14 0l559 1403h205l561 -1403h-196l-150 383h-637l-151 -383h-191zM362 1507l216 242h184l217 -242h-178l-129 142l-127 -142h-183zM406 532h534l-260 676h-10z" />
    <glyph glyph-name="Atilde" unicode="&#xc3;" horiz-adv-x="1353" 
d="M14 0l559 1403h205l561 -1403h-196l-150 383h-637l-151 -383h-191zM369 1503v19q-4 99 47 154t131 55q34 0 66 -12t47.5 -23.5t41.5 -32.5q5 -4 22 -18.5t24 -19.5t20 -11t25 -6q26 0 44 19t17 59v28h123v-16q3 -102 -46.5 -156.5t-129.5 -54.5q-76 0 -152 67
q-2 2 -9 8.5t-9.5 9t-9.5 8t-10.5 8t-9.5 7.5t-10.5 7t-10.5 4.5t-11.5 4t-11.5 1.5q-28 0 -48 -20t-20 -58v-31h-120zM406 532h534l-260 676h-10z" />
    <glyph glyph-name="Adieresis" unicode="&#xc4;" horiz-adv-x="1353" 
d="M14 0l559 1403h205l561 -1403h-196l-150 383h-637l-151 -383h-191zM367 1614q0 48 34 82.5t84 34.5q49 0 84 -34.5t35 -82.5q0 -51 -34.5 -86t-84.5 -35q-51 0 -84.5 35t-33.5 86zM406 532h534l-260 676h-10zM741 1614q0 48 35 82.5t84 34.5t84 -34.5t35 -82.5
q0 -51 -34.5 -86t-84.5 -35t-84.5 35t-34.5 86z" />
    <glyph glyph-name="Aring" unicode="&#xc5;" horiz-adv-x="1353" 
d="M14 0l559 1403h205l561 -1403h-196l-150 383h-637l-151 -383h-191zM406 532h534l-260 676h-10zM463 1673q0 89 59 147t150 58q89 0 147 -58t58 -147t-58 -146t-147 -57q-91 0 -150 57t-59 146zM582 1673q0 -40 26 -67t64 -27t63 27t25 67q0 42 -25 70.5t-63 28.5t-64 -29
t-26 -70z" />
    <glyph glyph-name="AE" unicode="&#xc6;" horiz-adv-x="1970" 
d="M14 0l549 1403h1286v-156h-755v-454h688l2 -158h-690v-477h755v-158h-934v381h-563l-147 -381h-191zM401 532h514v715h-243z" />
    <glyph glyph-name="Ccedilla" unicode="&#xc7;" horiz-adv-x="1437" 
d="M74 700q0 210 84 374.5t239 257.5t357 93q232 0 390.5 -119.5t209.5 -312.5l-168 -43q-46 142 -159 227t-275 85q-104 0 -194 -36.5t-158.5 -105t-108 -175.5t-39.5 -238q0 -255 138.5 -410.5t359.5 -155.5q162 0 274.5 87.5t163.5 240.5l164 -45q-57 -202 -214.5 -324.5
t-383.5 -122.5h-9l-40 -75q3 1 18.5 5t30.5 6t34 1q86 -3 143.5 -54t57.5 -141q0 -99 -66 -151.5t-161 -52.5q-83 0 -148.5 39.5t-91.5 117.5l111 35q27 -88 123 -88q49 0 83.5 25t34.5 75q0 46 -30.5 73.5t-81.5 27.5q-15 0 -28.5 -2.5t-25.5 -8.5t-19 -10t-19 -12l-15 -10
l-96 57l76 154q-250 39 -405.5 230t-155.5 482z" />
    <glyph glyph-name="Egrave" unicode="&#xc8;" horiz-adv-x="1230" 
d="M178 0v1403h934v-156h-756v-454h688l3 -158h-691v-477h756v-158h-934zM328 1806h217l200 -288h-178z" />
    <glyph glyph-name="Eacute" unicode="&#xc9;" horiz-adv-x="1230" 
d="M178 0v1403h934v-156h-756v-454h688l3 -158h-691v-477h756v-158h-934zM506 1526l201 286h208l-239 -286h-170z" />
    <glyph glyph-name="Ecircumflex" unicode="&#xca;" horiz-adv-x="1230" 
d="M178 0v1403h934v-156h-756v-454h688l3 -158h-691v-477h756v-158h-934zM334 1503l215 242h184l217 -242h-178l-131 142l-125 -142h-182z" />
    <glyph glyph-name="Edieresis" unicode="&#xcb;" horiz-adv-x="1230" 
d="M178 0v1403h934v-156h-756v-454h688l3 -158h-691v-477h756v-158h-934zM330 1610q0 48 34.5 82t84.5 34q49 0 83.5 -34t34.5 -82q0 -51 -34 -86t-84 -35q-51 0 -85 35t-34 86zM705 1610q0 48 34.5 82t83.5 34t84 -34.5t35 -81.5q0 -51 -34.5 -86t-84.5 -35t-84 35t-34 86z
" />
    <glyph glyph-name="Igrave" unicode="&#xcc;" horiz-adv-x="507" 
d="M-96 1829h217l201 -289h-177zM152 0v1403h178v-1403h-178z" />
    <glyph glyph-name="Iacute" unicode="&#xcd;" horiz-adv-x="550" 
d="M178 0v1403h178v-1403h-178zM186 1548l201 287h209l-240 -287h-170z" />
    <glyph glyph-name="Icircumflex" unicode="&#xce;" horiz-adv-x="466" 
d="M-63 1526l217 241h184l217 -241h-178l-131 141l-125 -141h-184zM162 0v1403h178v-1403h-178z" />
    <glyph glyph-name="Idieresis" unicode="&#xcf;" horiz-adv-x="624" 
d="M8 1632q0 48 35 82.5t86 34.5q47 0 82 -35t35 -82q0 -51 -34.5 -86t-82.5 -35q-51 0 -86 35t-35 86zM229 0v1403h179v-1403h-179zM385 1632q0 48 34.5 82.5t84.5 34.5q49 0 83 -34.5t34 -82.5q0 -51 -34 -86t-83 -35q-51 0 -85 35t-34 86z" />
    <glyph glyph-name="Eth" unicode="&#xd0;" horiz-adv-x="1409" 
d="M35 653v142h135v608h465q144 0 268.5 -48t217 -136t145.5 -220.5t53 -293.5t-53 -294.5t-145.5 -223t-217.5 -138.5t-268 -49h-465v653h-135zM344 158h291q105 0 197 37t161 105t108.5 172.5t39.5 232.5q0 129 -39.5 232.5t-109 170t-160.5 102t-197 35.5h-291v-450h262
v-142h-262v-495z" />
    <glyph glyph-name="Ntilde" unicode="&#xd1;" horiz-adv-x="1515" 
d="M178 0v1403h213l758 -1147h10v1147h180v-1403h-219l-753 1141h-11v-1141h-178zM426 1530v16q-3 100 47.5 154.5t132.5 54.5q81 0 156 -67q4 -3 21 -18t24 -19.5t20 -10.5t25 -6q26 0 44 18t17 60v29h121v-17q4 -102 -45.5 -157.5t-128.5 -55.5q-77 0 -151 70
q-62 53 -93 55q-28 2 -48 -18.5t-19 -58.5v-29h-123z" />
    <glyph glyph-name="Ograve" unicode="&#xd2;" horiz-adv-x="1542" 
d="M88 702q0 161 51.5 296.5t142 229t216.5 145.5t272 52t272 -52t217 -145.5t143 -229t52 -296.5t-52.5 -297.5t-143.5 -230t-217 -145.5t-271 -52q-146 0 -271.5 52t-216.5 145t-142.5 229.5t-51.5 298.5zM268 702q0 -255 140 -409t362 -154t363 154t141 409
q0 254 -140.5 408t-363.5 154t-362.5 -154.5t-139.5 -407.5zM430 1839h217l201 -287h-176z" />
    <glyph glyph-name="Oacute" unicode="&#xd3;" horiz-adv-x="1542" 
d="M88 702q0 161 51.5 296.5t142 229t216.5 145.5t272 52t272 -52t217 -145.5t143 -229t52 -296.5t-52.5 -297.5t-143.5 -230t-217 -145.5t-271 -52q-146 0 -271.5 52t-216.5 145t-142.5 229.5t-51.5 298.5zM268 702q0 -255 140 -409t362 -154t363 154t141 409
q0 254 -140.5 408t-363.5 154t-362.5 -154.5t-139.5 -407.5zM653 1559l201 288h209l-240 -288h-170z" />
    <glyph glyph-name="Ocircumflex" unicode="&#xd4;" horiz-adv-x="1542" 
d="M88 702q0 161 51.5 296.5t142 229t216.5 145.5t272 52t272 -52t217 -145.5t143 -229t52 -296.5t-52.5 -297.5t-143.5 -230t-217 -145.5t-271 -52q-146 0 -271.5 52t-216.5 145t-142.5 229.5t-51.5 298.5zM268 702q0 -255 140 -409t362 -154t363 154t141 409
q0 254 -140.5 408t-363.5 154t-362.5 -154.5t-139.5 -407.5zM463 1538l215 240h184l217 -240h-178l-129 139l-127 -139h-182z" />
    <glyph glyph-name="Otilde" unicode="&#xd5;" horiz-adv-x="1542" 
d="M88 702q0 161 51.5 296.5t142 229t216.5 145.5t272 52t272 -52t217 -145.5t143 -229t52 -296.5t-52.5 -297.5t-143.5 -230t-217 -145.5t-271 -52q-146 0 -271.5 52t-216.5 145t-142.5 229.5t-51.5 298.5zM268 702q0 -255 140 -409t362 -154t363 154t141 409
q0 254 -140.5 408t-363.5 154t-362.5 -154.5t-139.5 -407.5zM440 1534v16q-4 99 47 154t131 55q81 0 156 -67q4 -3 21 -18t24 -19.5t20 -10.5t25 -6q26 0 44.5 18t17.5 58v31h123v-19q3 -102 -47 -156t-130 -54q-75 0 -151 67q-21 20 -29.5 27t-27.5 18t-35 12
q-28 2 -48 -18.5t-20 -58.5v-29h-121z" />
    <glyph glyph-name="Odieresis" unicode="&#xd6;" horiz-adv-x="1542" 
d="M88 702q0 161 51.5 296.5t142 229t216.5 145.5t272 52t272 -52t217 -145.5t143 -229t52 -296.5t-52.5 -297.5t-143.5 -230t-217 -145.5t-271 -52q-146 0 -271.5 52t-216.5 145t-142.5 229.5t-51.5 298.5zM268 702q0 -255 140 -409t362 -154t363 154t141 409
q0 254 -140.5 408t-363.5 154t-362.5 -154.5t-139.5 -407.5zM459 1642q0 49 35 83t86 34q48 0 82 -34t34 -83q0 -50 -34 -84t-82 -34q-51 0 -86 33.5t-35 84.5zM836 1642q0 50 33.5 83.5t84.5 33.5q50 0 83.5 -33.5t33.5 -83.5q0 -51 -33.5 -84.5t-83.5 -33.5
q-51 0 -84.5 33.5t-33.5 84.5z" />
    <glyph glyph-name="multiply" unicode="&#xd7;" horiz-adv-x="1056" 
d="M78 348l344 342l-342 342l106 109l342 -342l342 342l109 -109l-342 -342l342 -342l-109 -108l-342 342l-342 -342z" />
    <glyph glyph-name="Oslash" unicode="&#xd8;" horiz-adv-x="1574" 
d="M96 41l160 186q-150 193 -150 475q0 161 51.5 296.5t142 229t216.5 145.5t272 52q227 0 396 -118l119 137l116 -96l-123 -142q177 -199 177 -504q0 -161 -52.5 -297.5t-144 -230t-217.5 -145.5t-271 -52q-245 0 -426 142l-149 -174zM287 702q0 -198 88 -337l700 813
q-125 86 -287 86q-223 0 -362 -154.5t-139 -407.5zM473 248q131 -109 315 -109q222 0 363 154t141 409q0 226 -108 371z" />
    <glyph glyph-name="Ugrave" unicode="&#xd9;" horiz-adv-x="1423" 
d="M160 516v887h178v-883q0 -181 101 -279t272 -98t272.5 98t101.5 279v883h179v-887q0 -252 -152.5 -393t-400.5 -141t-399.5 141t-151.5 393zM408 1810h215l200 -288h-176z" />
    <glyph glyph-name="Uacute" unicode="&#xda;" horiz-adv-x="1441" 
d="M160 516v887h178v-883q0 -181 101 -279t272 -98t272.5 98t101.5 279v883h179v-887q0 -252 -152.5 -393t-400.5 -141t-399.5 141t-151.5 393zM627 1530l200 287h209l-239 -287h-170z" />
    <glyph glyph-name="Ucircumflex" unicode="&#xdb;" horiz-adv-x="1423" 
d="M160 516v887h178v-883q0 -181 101 -279t272 -98t272.5 98t101.5 279v883h179v-887q0 -252 -152.5 -393t-400.5 -141t-399.5 141t-151.5 393zM397 1507l215 242h185l217 -242h-178l-129 142l-127 -142h-183z" />
    <glyph glyph-name="Udieresis" unicode="&#xdc;" horiz-adv-x="1423" 
d="M160 516v887h178v-883q0 -181 101 -279t272 -98t272.5 98t101.5 279v883h179v-887q0 -252 -152.5 -393t-400.5 -141t-399.5 141t-151.5 393zM401 1614q0 48 34.5 82.5t84.5 34.5q49 0 84 -34.5t35 -82.5q0 -51 -34.5 -86t-84.5 -35q-51 0 -85 35t-34 86zM776 1614
q0 48 35 82.5t84 34.5t84 -34.5t35 -82.5q0 -51 -34.5 -86t-84.5 -35t-84.5 35t-34.5 86z" />
    <glyph glyph-name="Yacute" unicode="&#xdd;" horiz-adv-x="1259" 
d="M16 1403h203l404 -668h10l407 668h203l-524 -840v-563h-178v563zM555 1546l201 289h209l-242 -289h-168z" />
    <glyph glyph-name="Thorn" unicode="&#xde;" horiz-adv-x="1234" 
d="M178 0h176v315l371 -2q203 0 327 119.5t124 304.5q0 184 -123.5 302t-323.5 118h-373v246h-178v-1403zM356 469v535h357q132 0 206 -74.5t74 -194.5q0 -119 -74 -192.5t-206 -73.5h-357z" />
    <glyph glyph-name="germandbls" unicode="&#xdf;" horiz-adv-x="1251" 
d="M178 0l2 997q0 194 127.5 311t345.5 117q204 0 336.5 -98.5t132.5 -263.5q0 -124 -69.5 -203t-163.5 -106v-11q31 -5 65.5 -19t73 -42t68.5 -65t49.5 -93t19.5 -121q0 -126 -70 -219t-184 -138.5t-254 -45.5h-188v156h188q144 0 235 65t91 187q0 125 -96.5 193.5
t-253.5 68.5h-62v143h58q147 0 229 59.5t82 171.5q0 110 -81 170t-212 60q-140 0 -217.5 -76.5t-77.5 -216.5v-981h-174z" />
    <glyph glyph-name="agrave" unicode="&#xe0;" 
d="M96 289q0 73 27.5 129.5t78 91.5t116.5 55t149 25l225 16q58 3 83.5 22t25.5 77q0 95 -70 149.5t-184 54.5q-110 0 -176 -49.5t-88 -128.5l-160 19q19 130 134 213.5t290 83.5q190 0 307 -94t117 -253v-700h-174l2 178h-11q-31 -87 -121 -145t-218 -58
q-156 0 -254.5 86.5t-98.5 227.5zM250 1448h215l201 -289h-177zM270 293q0 -82 58 -131t157 -49q137 0 226.5 92.5t89.5 228.5v66q-23 -13 -90 -19l-215 -16q-226 -14 -226 -172z" />
    <glyph glyph-name="aacute" unicode="&#xe1;" 
d="M96 289q0 73 27.5 129.5t78 91.5t116.5 55t149 25l225 16q58 3 83.5 22t25.5 77q0 95 -70 149.5t-184 54.5q-110 0 -176 -49.5t-88 -128.5l-160 19q19 130 134 213.5t290 83.5q190 0 307 -94t117 -253v-700h-174l2 178h-11q-31 -87 -121 -145t-218 -58
q-156 0 -254.5 86.5t-98.5 227.5zM270 293q0 -82 58 -131t157 -49q137 0 226.5 92.5t89.5 228.5v66q-23 -13 -90 -19l-215 -16q-226 -14 -226 -172zM471 1167l201 287h209l-240 -287h-170z" />
    <glyph glyph-name="acircumflex" unicode="&#xe2;" 
d="M96 289q0 73 27.5 129.5t78 91.5t116.5 55t149 25l225 16q58 3 83.5 22t25.5 77q0 95 -70 149.5t-184 54.5q-110 0 -176 -49.5t-88 -128.5l-160 19q19 130 134 213.5t290 83.5q190 0 307 -94t117 -253v-700h-174l2 178h-11q-31 -87 -121 -145t-218 -58
q-156 0 -254.5 86.5t-98.5 227.5zM240 1145l215 241h184l217 -241h-178l-129 141l-127 -141h-182zM270 293q0 -82 58 -131t157 -49q137 0 226.5 92.5t89.5 228.5v66q-23 -13 -90 -19l-215 -16q-226 -14 -226 -172z" />
    <glyph glyph-name="atilde" unicode="&#xe3;" 
d="M96 289q0 73 27.5 129.5t78 91.5t116.5 55t149 25l225 16q58 3 83.5 22t25.5 77q0 95 -70 149.5t-184 54.5q-110 0 -176 -49.5t-88 -128.5l-160 19q19 130 134 213.5t290 83.5q190 0 307 -94t117 -253v-700h-174l2 178h-11q-31 -87 -121 -145t-218 -58
q-156 0 -254.5 86.5t-98.5 227.5zM229 1141v18q-4 99 47.5 154t131.5 55q34 0 66 -12t47.5 -23.5t41.5 -32.5q6 -5 22 -18.5t23.5 -19t20 -11.5t24.5 -6q26 0 44.5 19t17.5 59v29h123v-17q3 -102 -46.5 -156.5t-129.5 -54.5q-75 0 -152 68q-21 20 -29.5 27t-27.5 18t-35 12
q-28 0 -48 -20t-20 -58v-30h-121zM270 293q0 -82 58 -131t157 -49q137 0 226.5 92.5t89.5 228.5v66q-23 -13 -90 -19l-215 -16q-226 -14 -226 -172z" />
    <glyph glyph-name="adieresis" unicode="&#xe4;" 
d="M96 289q0 73 27.5 129.5t78 91.5t116.5 55t149 25l225 16q58 3 83.5 22t25.5 77q0 95 -70 149.5t-184 54.5q-110 0 -176 -49.5t-88 -128.5l-160 19q19 130 134 213.5t290 83.5q190 0 307 -94t117 -253v-700h-174l2 178h-11q-31 -87 -121 -145t-218 -58
q-156 0 -254.5 86.5t-98.5 227.5zM240 1251q0 48 34.5 82.5t83.5 34.5t84 -34.5t35 -82.5q0 -51 -34.5 -86t-84.5 -35t-84 35t-34 86zM270 293q0 -82 58 -131t157 -49q137 0 226.5 92.5t89.5 228.5v66q-23 -13 -90 -19l-215 -16q-226 -14 -226 -172zM614 1251q0 48 35 82.5
t86 34.5q47 0 82 -35t35 -82q0 -51 -34.5 -86t-82.5 -35q-51 0 -86 35t-35 86z" />
    <glyph glyph-name="aring" unicode="&#xe5;" 
d="M96 289q0 73 27.5 129.5t78 91.5t116.5 55t149 25l225 16q58 3 83.5 22t25.5 77q0 95 -70 149.5t-184 54.5q-110 0 -176 -49.5t-88 -128.5l-160 19q19 130 134 213.5t290 83.5q190 0 307 -94t117 -253v-700h-174l2 178h-11q-31 -87 -121 -145t-218 -58
q-156 0 -254.5 86.5t-98.5 227.5zM270 293q0 -82 58 -131t157 -49q137 0 226.5 92.5t89.5 228.5v66q-23 -13 -90 -19l-215 -16q-226 -14 -226 -172zM344 1311q0 89 59.5 147t149.5 58q89 0 147 -58t58 -147t-57 -146t-146 -57q-91 0 -151 57t-60 146zM463 1311q0 -40 27 -67
t65 -27q37 0 61.5 27t24.5 67q0 41 -24.5 69.5t-61.5 28.5q-38 0 -65 -28.5t-27 -69.5z" />
    <glyph glyph-name="ae" unicode="&#xe6;" horiz-adv-x="1837" 
d="M96 289q0 73 27.5 129.5t78 91.5t116.5 55t149 25l225 16q58 3 83.5 22t25.5 77q0 95 -70 149.5t-184 54.5q-110 0 -176 -49.5t-88 -128.5l-160 19q19 130 134 213.5t290 83.5q127 0 223.5 -43t149.5 -123q132 163 366 163q220 0 346.5 -147.5t126.5 -382.5v-57h-788v-49
q18 -130 102.5 -208.5t220.5 -78.5q108 0 183 55.5t104 134.5l150 -41q-37 -126 -156 -209.5t-281 -83.5q-194 0 -323 111v-88h-174l2 178h-11q-31 -87 -121 -145t-218 -58q-156 0 -254.5 86.5t-98.5 227.5zM270 293q0 -82 58 -131t157 -49q135 0 224.5 91t91.5 226
q-4 46 -4 68q-19 -11 -86 -17l-215 -16q-226 -14 -226 -172zM973 590h614q-6 143 -88 225t-213 82t-218.5 -85.5t-94.5 -221.5z" />
    <glyph glyph-name="ccedilla" unicode="&#xe7;" horiz-adv-x="1093" 
d="M76 512q0 236 143.5 385.5t366.5 149.5q165 0 287 -88t157 -232l-151 -41q-33 98 -108.5 153.5t-180.5 55.5q-155 0 -248.5 -109.5t-93.5 -275.5q0 -169 96 -275t246 -106q104 0 185 56.5t116 154.5l145 -37q-43 -150 -165 -238t-287 -88h-9l-40 -75q54 14 83 14
q87 -3 145 -55t58 -142q0 -97 -67 -150.5t-162 -53.5q-83 0 -148 39.5t-90 117.5l109 35q31 -86 123 -86q49 0 84 24.5t35 73.5q0 46 -31.5 73.5t-79.5 27.5q-15 0 -28.5 -2.5t-26.5 -8.5t-19.5 -9.5t-19.5 -12.5t-15 -10l-96 59l78 154q-174 39 -282.5 179t-108.5 343z" />
    <glyph glyph-name="egrave" unicode="&#xe8;" horiz-adv-x="1118" 
d="M78 508q0 238 134 387t355 149q220 0 346.5 -147.5t126.5 -382.5v-57h-792q5 -149 91 -242.5t236 -93.5q108 0 183 55.5t104 134.5l150 -41q-37 -126 -156 -209.5t-281 -83.5q-226 0 -361.5 146.5t-135.5 384.5zM250 1446h217l201 -287h-179zM254 590h614q-6 143 -88 225
t-213 82t-218.5 -85.5t-94.5 -221.5z" />
    <glyph glyph-name="eacute" unicode="&#xe9;" horiz-adv-x="1118" 
d="M78 508q0 238 134 387t355 149q220 0 346.5 -147.5t126.5 -382.5v-57h-792q5 -149 91 -242.5t236 -93.5q108 0 183 55.5t104 134.5l150 -41q-37 -126 -156 -209.5t-281 -83.5q-226 0 -361.5 146.5t-135.5 384.5zM254 590h614q-6 143 -88 225t-213 82t-218.5 -85.5
t-94.5 -221.5zM469 1165l201 289h209l-242 -289h-168z" />
    <glyph glyph-name="ecircumflex" unicode="&#xea;" horiz-adv-x="1118" 
d="M78 508q0 238 134 387t355 149q220 0 346.5 -147.5t126.5 -382.5v-57h-792q5 -149 91 -242.5t236 -93.5q108 0 183 55.5t104 134.5l150 -41q-37 -126 -156 -209.5t-281 -83.5q-226 0 -361.5 146.5t-135.5 384.5zM254 590h614q-6 143 -88 225t-213 82t-218.5 -85.5
t-94.5 -221.5zM262 1145l215 239h185l217 -239h-179l-129 139l-127 -139h-182z" />
    <glyph glyph-name="edieresis" unicode="&#xeb;" horiz-adv-x="1118" 
d="M78 508q0 238 134 387t355 149q220 0 346.5 -147.5t126.5 -382.5v-57h-792q5 -149 91 -242.5t236 -93.5q108 0 183 55.5t104 134.5l150 -41q-37 -126 -156 -209.5t-281 -83.5q-226 0 -361.5 146.5t-135.5 384.5zM254 590h614q-6 143 -88 225t-213 82t-218.5 -85.5
t-94.5 -221.5zM260 1249q0 49 34.5 83t84.5 34t84.5 -34t34.5 -83q0 -51 -34.5 -85t-84.5 -34t-84.5 34t-34.5 85zM635 1249q0 49 35 83t86 34q48 0 82 -34t34 -83q0 -50 -34 -84.5t-82 -34.5q-51 0 -86 34t-35 85z" />
    <glyph glyph-name="igrave" unicode="&#xec;" horiz-adv-x="499" 
d="M-74 1432h217l201 -289h-178zM170 0v1024h166v-1024h-166z" />
    <glyph glyph-name="iacute" unicode="&#xed;" horiz-adv-x="485" 
d="M158 1151l200 287h209l-239 -287h-170zM170 0v1024h168v-1024h-168z" />
    <glyph glyph-name="icircumflex" unicode="&#xee;" horiz-adv-x="477" 
d="M-68 1128l215 242h185l217 -242h-178l-129 142l-127 -142h-183zM158 0v1024h166v-1024h-166z" />
    <glyph glyph-name="idieresis" unicode="&#xef;" horiz-adv-x="595" 
d="M-8 1235q0 48 35 82.5t84 34.5t83.5 -34.5t34.5 -82.5q0 -51 -34 -86t-84 -35t-84.5 35t-34.5 86zM219 0v1024h168v-1024h-168zM367 1235q0 48 35 82.5t85 34.5q47 0 82 -35t35 -82q0 -51 -34.5 -86t-82.5 -35q-51 0 -85.5 35t-34.5 86z" />
    <glyph glyph-name="eth" unicode="&#xf0;" horiz-adv-x="1314" 
d="M78 510q0 232 129 379t332 147q126 0 217 -57.5t129 -140.5h10v284h-205v131h205v170h168v-170h178v-131h-178v-1122h-168v176h-10q-38 -83 -129.5 -141t-214.5 -58q-201 0 -332 149.5t-131 383.5zM246 510q0 -176 91 -279.5t232 -103.5q142 0 237 102.5t95 276.5
q0 172 -94.5 277.5t-239.5 105.5q-142 0 -231.5 -103.5t-89.5 -275.5z" />
    <glyph glyph-name="ntilde" unicode="&#xf1;" horiz-adv-x="1181" 
d="M158 0v1024h168v-182h8q38 92 127 148.5t211 56.5q166 0 269 -102.5t103 -280.5v-664h-170v625q0 39 -7.5 76.5t-26 74t-46.5 63.5t-72 43.5t-99 16.5q-131 0 -214 -93.5t-83 -258.5v-547h-168zM293 1145v16q-3 99 47.5 154t130.5 55q83 0 158 -67q4 -3 21 -18t24 -19.5
t20 -10.5t25 -6q25 0 42.5 18t16.5 58v31h123v-19q4 -101 -45.5 -156t-128.5 -55q-75 0 -152 68q-59 55 -92 57q-29 2 -48.5 -18.5t-18.5 -58.5v-29h-123z" />
    <glyph glyph-name="ograve" unicode="&#xf2;" horiz-adv-x="1177" 
d="M78 510q0 236 144.5 386.5t367.5 150.5t367.5 -150.5t144.5 -386.5q0 -235 -144.5 -384t-367.5 -149t-367.5 149t-144.5 384zM248 510q0 -173 96 -278t246 -105t246 105t96 278q0 175 -96 281t-246 106t-246 -106t-96 -281zM266 1432h215l201 -287h-176z" />
    <glyph glyph-name="oacute" unicode="&#xf3;" horiz-adv-x="1177" 
d="M78 510q0 236 144.5 386.5t367.5 150.5t367.5 -150.5t144.5 -386.5q0 -235 -144.5 -384t-367.5 -149t-367.5 149t-144.5 384zM248 510q0 -173 96 -278t246 -105t246 105t96 278q0 175 -96 281t-246 106t-246 -106t-96 -281zM485 1151l201 289h209l-240 -289h-170z" />
    <glyph glyph-name="ocircumflex" unicode="&#xf4;" horiz-adv-x="1177" 
d="M78 510q0 236 144.5 386.5t367.5 150.5t367.5 -150.5t144.5 -386.5q0 -235 -144.5 -384t-367.5 -149t-367.5 149t-144.5 384zM248 510q0 -173 96 -278t246 -105t246 105t96 278q0 175 -96 281t-246 106t-246 -106t-96 -281zM281 1130l215 242h184l217 -242h-178l-131 140
l-125 -140h-182z" />
    <glyph glyph-name="otilde" unicode="&#xf5;" horiz-adv-x="1177" 
d="M78 510q0 236 144.5 386.5t367.5 150.5t367.5 -150.5t144.5 -386.5q0 -235 -144.5 -384t-367.5 -149t-367.5 149t-144.5 384zM248 510q0 -173 96 -278t246 -105t246 105t96 278q0 175 -96 281t-246 106t-246 -106t-96 -281zM272 1126v17q-3 100 48 154.5t131 54.5
q81 0 157 -68q5 -4 17.5 -14.5t18.5 -15.5t16 -11.5t19.5 -9t18.5 -2.5q25 0 43 18.5t17 59.5v28h123v-16q4 -102 -45.5 -157.5t-128.5 -55.5q-78 0 -152 70q-2 1 -9 7.5t-9.5 8.5t-9.5 7.5t-10.5 8t-10 7t-11 6.5t-10.5 4.5t-11.5 4t-10.5 1.5q-29 2 -49 -19t-19 -59v-29
h-123z" />
    <glyph glyph-name="odieresis" unicode="&#xf6;" horiz-adv-x="1177" 
d="M78 510q0 236 144.5 386.5t367.5 150.5t367.5 -150.5t144.5 -386.5q0 -235 -144.5 -384t-367.5 -149t-367.5 149t-144.5 384zM248 510q0 -173 96 -278t246 -105t246 105t96 278q0 175 -96 281t-246 106t-246 -106t-96 -281zM279 1235q0 50 33.5 84.5t84.5 34.5
q49 0 84 -35t35 -84t-35 -84t-84 -35q-51 0 -84.5 34.5t-33.5 84.5zM653 1235q0 49 34.5 84t84.5 35t84.5 -35t34.5 -84t-34.5 -84t-84.5 -35t-84.5 35t-34.5 84z" />
    <glyph glyph-name="divide" unicode="&#xf7;" horiz-adv-x="1097" 
d="M109 633v139h882v-139h-882zM432 375q0 49 34.5 83t82.5 34q49 0 83 -34.5t34 -82.5t-34 -82.5t-83 -34.5t-83 34t-34 83zM434 1032q0 47 34 81t81 34t81 -34t34 -81q0 -49 -33.5 -83t-81.5 -34t-81.5 34t-33.5 83z" />
    <glyph glyph-name="oslash" unicode="&#xf8;" horiz-adv-x="1189" 
d="M86 39l111 129q-109 140 -109 342q0 237 145 387t369 150q156 0 277 -76l92 108l116 -98l-94 -113q119 -144 119 -358q0 -235 -144 -384t-366 -149q-165 0 -293 86l-106 -124zM260 510q0 -123 47 -209l469 549q-77 47 -174 47q-150 0 -246 -106t-96 -281zM410 184
q82 -57 190 -57q151 0 247.5 105t96.5 278q0 134 -59 231z" />
    <glyph glyph-name="ugrave" unicode="&#xf9;" horiz-adv-x="1179" 
d="M147 360v664h168v-623q0 -53 12.5 -99t39.5 -86.5t78 -64.5t120 -24q136 0 217.5 101t81.5 266v530h170v-1024h-170v188h-10q-41 -97 -124.5 -154t-211.5 -57q-172 0 -271.5 102.5t-99.5 280.5zM293 1425h215l201 -286h-177z" />
    <glyph glyph-name="uacute" unicode="&#xfa;" horiz-adv-x="1179" 
d="M147 360v664h168v-623q0 -53 12.5 -99t39.5 -86.5t78 -64.5t120 -24q136 0 217.5 101t81.5 266v530h170v-1024h-170v188h-10q-41 -97 -124.5 -154t-211.5 -57q-172 0 -271.5 102.5t-99.5 280.5zM508 1145l201 289h209l-240 -289h-170z" />
    <glyph glyph-name="ucircumflex" unicode="&#xfb;" horiz-adv-x="1179" 
d="M147 360v664h168v-623q0 -53 12.5 -99t39.5 -86.5t78 -64.5t120 -24q136 0 217.5 101t81.5 266v530h170v-1024h-170v188h-10q-41 -97 -124.5 -154t-211.5 -57q-172 0 -271.5 102.5t-99.5 280.5zM283 1124l217 242h184l215 -242h-176l-131 140l-127 -140h-182z" />
    <glyph glyph-name="udieresis" unicode="&#xfc;" horiz-adv-x="1179" 
d="M147 360v664h168v-623q0 -53 12.5 -99t39.5 -86.5t78 -64.5t120 -24q136 0 217.5 101t81.5 266v530h170v-1024h-170v188h-10q-41 -97 -124.5 -154t-211.5 -57q-172 0 -271.5 102.5t-99.5 280.5zM289 1229q0 50 34 84.5t85 34.5q49 0 83.5 -34.5t34.5 -84.5t-34.5 -84.5
t-83.5 -34.5q-51 0 -85 34.5t-34 84.5zM664 1229q0 50 34.5 84.5t83.5 34.5q50 0 84.5 -35t34.5 -84t-34.5 -84t-84.5 -35q-49 0 -83.5 34.5t-34.5 84.5z" />
    <glyph glyph-name="yacute" unicode="&#xfd;" horiz-adv-x="1044" 
d="M18 1024h183l319 -831h10l299 831h197l-461 -1151q-103 -260 -315 -260h-193v145h166q69 1 109 37.5t69 112.5l35 88zM420 1145l201 289h208l-239 -289h-170z" />
    <glyph glyph-name="thorn" unicode="&#xfe;" horiz-adv-x="1222" 
d="M158 -385v1808h168v-573h10q40 84 130.5 140.5t215.5 56.5q202 0 332.5 -149t130.5 -384q0 -232 -128.5 -379t-332.5 -147q-128 0 -217.5 57t-130.5 141h-10v-571h-168zM322 520q0 -173 93.5 -279t237.5 -106q141 0 232.5 103.5t91.5 275.5q0 176 -92 279.5t-234 103.5
q-141 0 -235 -102.5t-94 -274.5z" />
    <glyph glyph-name="ydieresis" unicode="&#xff;" horiz-adv-x="1038" 
d="M18 1024h183l319 -831h10l299 831h197l-461 -1151q-103 -260 -315 -260h-193v145h166q69 1 109 37.5t69 112.5l35 88zM207 1229q0 50 35 84.5t86 34.5q47 0 81.5 -35t34.5 -84t-34.5 -84t-81.5 -35q-51 0 -86 34.5t-35 84.5zM584 1229q0 50 33.5 84.5t84.5 34.5
q49 0 83 -34.5t34 -84.5t-34 -84.5t-83 -34.5q-51 0 -84.5 34.5t-33.5 84.5z" />
    <glyph glyph-name="OE" unicode="&#x152;" horiz-adv-x="2344" 
d="M88 702q0 161 51.5 296.5t142 229t216.5 145.5t272 52q160 0 294.5 -61t227.5 -174v213h934v-156h-756v-454h689l2 -158h-691v-477h756v-158h-934v215q-93 -114 -228 -176t-294 -62q-146 0 -271.5 52t-216.5 145t-142.5 229.5t-51.5 298.5zM268 702q0 -255 140 -409
t362 -154t363 154t141 409q0 254 -140.5 408t-363.5 154t-362.5 -154.5t-139.5 -407.5z" />
    <glyph glyph-name="oe" unicode="&#x153;" horiz-adv-x="1972" 
d="M78 510q0 236 144.5 386.5t367.5 150.5q135 0 245.5 -59t178.5 -165q64 105 168.5 163t238.5 58q220 0 346.5 -147.5t126.5 -382.5v-57h-790q3 -149 90 -242.5t236 -93.5q108 0 182.5 55t103.5 135l150 -41q-37 -126 -155.5 -209.5t-280.5 -83.5q-138 0 -245 58t-171 162
q-68 -104 -178.5 -162t-245.5 -58q-223 0 -367.5 149t-144.5 384zM248 510q0 -173 96 -278t246 -105t246 105t96 278q0 175 -96 281t-246 106t-246 -106t-96 -281zM1108 590h614q-6 143 -88 225t-213 82q-130 0 -218 -85.5t-95 -221.5z" />
    <glyph glyph-name="Ydieresis" unicode="&#x178;" horiz-adv-x="1259" 
d="M16 1403h203l404 -668h10l407 668h203l-524 -840v-563h-178v563zM319 1630q0 49 34.5 83t84.5 34t84.5 -34t34.5 -83q0 -51 -34.5 -85t-84.5 -34t-84.5 34t-34.5 85zM694 1630q0 49 35 83t86 34q48 0 82.5 -34t34.5 -83q0 -50 -34.5 -84.5t-82.5 -34.5q-51 0 -86 34
t-35 85z" />
    <glyph glyph-name="circumflex" unicode="&#x2c6;" horiz-adv-x="747" 
d="M66 1186l215 241h184l217 -241h-178l-129 141l-127 -141h-182z" />
    <glyph glyph-name="tilde" unicode="&#x2dc;" horiz-adv-x="722" 
d="M57 1266v16q-4 100 47 154.5t132 54.5q35 0 66 -11.5t48.5 -23.5t42.5 -33q5 -4 21 -18t23 -19t19.5 -10.5t24.5 -5.5q26 0 44.5 18t17.5 60v29h123v-17q3 -102 -46 -157.5t-128 -55.5q-82 0 -152 70q-2 1 -9 7.5t-9.5 8.5t-9.5 7.5t-10.5 8t-10 7t-11 6.5t-10.5 4.5
t-11.5 4t-10.5 1.5q-29 2 -49 -19t-19 -59v-28h-123z" />
    <glyph glyph-name="uni2000" unicode="&#x2000;" horiz-adv-x="939" 
 />
    <glyph glyph-name="uni2001" unicode="&#x2001;" horiz-adv-x="1878" 
 />
    <glyph glyph-name="uni2002" unicode="&#x2002;" horiz-adv-x="939" 
 />
    <glyph glyph-name="uni2003" unicode="&#x2003;" horiz-adv-x="1878" 
 />
    <glyph glyph-name="uni2004" unicode="&#x2004;" horiz-adv-x="626" 
 />
    <glyph glyph-name="uni2005" unicode="&#x2005;" horiz-adv-x="469" 
 />
    <glyph glyph-name="uni2006" unicode="&#x2006;" horiz-adv-x="313" 
 />
    <glyph glyph-name="uni2007" unicode="&#x2007;" horiz-adv-x="313" 
 />
    <glyph glyph-name="uni2008" unicode="&#x2008;" horiz-adv-x="234" 
 />
    <glyph glyph-name="uni2009" unicode="&#x2009;" horiz-adv-x="375" 
 />
    <glyph glyph-name="uni200A" unicode="&#x200a;" horiz-adv-x="104" 
 />
    <glyph glyph-name="uni2010" unicode="&#x2010;" horiz-adv-x="978" 
d="M90 596v143h799v-143h-799z" />
    <glyph glyph-name="uni2011" unicode="&#x2011;" horiz-adv-x="978" 
d="M90 596v143h799v-143h-799z" />
    <glyph glyph-name="figuredash" unicode="&#x2012;" horiz-adv-x="978" 
d="M90 596v143h799v-143h-799z" />
    <glyph glyph-name="endash" unicode="&#x2013;" horiz-adv-x="1431" 
d="M129 557v145h1174v-145h-1174z" />
    <glyph glyph-name="emdash" unicode="&#x2014;" horiz-adv-x="2289" 
d="M150 557v145h1990v-145h-1990z" />
    <glyph glyph-name="quoteleft" unicode="&#x2018;" horiz-adv-x="397" 
d="M78 1346q0 92 55 155.5t148 75.5l18 -78q-54 -8 -87.5 -41.5t-35.5 -68.5q12 4 37 4q47 0 78 -26t31 -75q0 -50 -32.5 -80t-82.5 -30q-61 0 -95 44t-34 120z" />
    <glyph glyph-name="quoteright" unicode="&#x2019;" horiz-adv-x="397" 
d="M78 1466q0 51 31 81t81 30q61 0 96.5 -44.5t35.5 -119.5q0 -91 -56 -155t-149 -76l-19 78q55 8 88 41.5t35 68.5q-12 -4 -37 -4q-46 0 -76 25.5t-30 74.5z" />
    <glyph glyph-name="quotesinglbase" unicode="&#x201a;" horiz-adv-x="397" 
d="M78 82q0 50 31 79t81 29q61 0 96.5 -43t35.5 -118q0 -92 -56 -157t-149 -75l-19 78q55 8 88 41t35 68q-12 -4 -37 -4q-45 0 -75.5 26.5t-30.5 75.5z" />
    <glyph glyph-name="quotedblleft" unicode="&#x201c;" horiz-adv-x="700" 
d="M78 1268q0 92 55 155.5t148 75.5l18 -78q-54 -9 -87.5 -41t-35.5 -67q24 4 37 4q47 0 78 -27t31 -76q0 -50 -32 -79t-83 -29q-61 0 -95 43t-34 119zM381 1268q0 92 55 155.5t148 75.5l18 -78q-54 -9 -87.5 -41t-33.5 -67q20 4 35 4q47 0 78 -27t31 -76q0 -50 -32 -79
t-83 -29q-60 0 -94.5 43.5t-34.5 118.5z" />
    <glyph glyph-name="quotedblright" unicode="&#x201d;" horiz-adv-x="700" 
d="M78 1391q0 50 31 79t81 29q61 0 96.5 -43.5t35.5 -118.5q0 -91 -56 -155t-149 -76l-19 78q54 9 87.5 41t35.5 67q-24 -4 -37 -4q-45 0 -75.5 27t-30.5 76zM381 1391q0 50 31.5 79t81.5 29q61 0 96 -43.5t35 -118.5q0 -91 -56 -155t-149 -76l-19 78q55 8 88 40.5t35 67.5
q-24 -4 -37 -4q-45 0 -75.5 27t-30.5 76z" />
    <glyph glyph-name="quotedblbase" unicode="&#x201e;" horiz-adv-x="700" 
d="M78 82q0 50 31 79t81 29q61 0 96.5 -43t35.5 -118q0 -92 -56 -157t-149 -75l-19 78q54 8 87.5 41t35.5 68q-12 -4 -37 -4q-45 0 -75.5 26.5t-30.5 75.5zM381 82q0 50 31.5 79t81.5 29q61 0 96 -43t35 -118q0 -92 -56 -157t-149 -75l-19 78q55 8 88 41t35 68
q-12 -4 -37 -4q-45 0 -75.5 26.5t-30.5 75.5z" />
    <glyph glyph-name="bullet" unicode="&#x2022;" horiz-adv-x="645" 
d="M135 664q0 78 55 132t134 54q77 0 131.5 -54t54.5 -132t-54.5 -133.5t-131.5 -55.5q-79 0 -134 55.5t-55 133.5z" />
    <glyph glyph-name="ellipsis" unicode="&#x2026;" horiz-adv-x="1486" 
d="M174 104q0 48 35 82.5t86 34.5q47 0 82 -35t35 -82q0 -50 -34.5 -85t-82.5 -35q-51 0 -86 34.5t-35 85.5zM627 104q0 48 35 82.5t86 34.5q47 0 81.5 -35t34.5 -82q0 -51 -34 -85.5t-82 -34.5q-51 0 -86 34.5t-35 85.5zM1075 104q0 48 35 82.5t84 34.5t84 -34.5t35 -82.5
q0 -51 -34.5 -85.5t-84.5 -34.5t-84.5 34.5t-34.5 85.5z" />
    <glyph glyph-name="uni202F" unicode="&#x202f;" horiz-adv-x="375" 
 />
    <glyph glyph-name="guilsinglleft" unicode="&#x2039;" horiz-adv-x="606" 
d="M57 582l312 376h200l-313 -376l313 -377h-200z" />
    <glyph glyph-name="guilsinglright" unicode="&#x203a;" horiz-adv-x="606" 
d="M37 205l315 377l-315 376h201l311 -376l-311 -377h-201z" />
    <glyph glyph-name="uni205F" unicode="&#x205f;" horiz-adv-x="469" 
 />
    <glyph glyph-name="Euro" unicode="&#x20ac;" horiz-adv-x="1509" 
d="M72 481l20 140h133q-2 27 -2 84q0 46 2 69h-153l20 139h152q50 245 209 381t395 136q218 0 363 -116t202 -317l-166 -45q-46 150 -150.5 233t-254.5 83q-156 0 -266 -91t-150 -264h543l-21 -139h-542q-3 -30 -3 -65q0 -15 5 -88h561l-21 -140h-518q44 -163 151 -251.5
t261 -88.5q149 0 254.5 85t148.5 239l168 -49q-60 -204 -208 -321.5t-361 -117.5q-225 0 -385 131t-213 373h-174z" />
    <glyph glyph-name="trademark" unicode="&#x2122;" horiz-adv-x="1234" 
d="M61 1329v90h467l2 -90h-186v-416h-98v416h-185zM588 915v504h114l150 -364l147 364h115v-504h-100l2 310l-121 -307h-86l-123 313v-316h-98z" />
    <glyph glyph-name="uni25FC" unicode="&#x25fc;" horiz-adv-x="1024" 
d="M0 0v1024h1024v-1024h-1024z" />
    </font>
</defs>
</svg>
