<?xml version="1.0" standalone="no"?>
<!DOCTYPE svg PUBLIC "-//W3C//DTD SVG 1.1//EN" "http://www.w3.org/Graphics/SVG/1.1/DTD/svg11.dtd" >
<svg xmlns="http://www.w3.org/2000/svg" xmlns:xlink="http://www.w3.org/1999/xlink" version="1.1">
<metadata>
Created by FontForge 20170731 at Fri Jul 14 18:49:01 2023
 By Aleksey,,,
Copyright (c) 2022 by Studio Few. All rights reserved.
</metadata>
<defs>
<font id="FTSterling-MediumItalic" horiz-adv-x="1384" >
  <font-face 
    font-family="FT Sterling Medium"
    font-weight="500"
    font-style="italic"
    font-stretch="normal"
    units-per-em="2048"
    panose-1="0 0 0 0 0 0 0 0 0 0"
    ascent="1638"
    descent="-410"
    x-height="1024"
    cap-height="1403"
    bbox="-260 -549 2341 1903"
    underline-thickness="102"
    underline-position="-357"
    unicode-range="U+0020-25FC"
  />
<missing-glyph horiz-adv-x="748" 
d="M68 0v1365h544v-1365h-544zM136 68h408v1229h-408v-1229z" />
    <glyph glyph-name=".notdef" horiz-adv-x="748" 
d="M68 0v1365h544v-1365h-544zM136 68h408v1229h-408v-1229z" />
    <glyph glyph-name="glyph1" horiz-adv-x="0" 
 />
    <glyph glyph-name="glyph2" horiz-adv-x="682" 
 />
    <glyph glyph-name="space" unicode=" " horiz-adv-x="595" 
 />
    <glyph glyph-name="exclam" unicode="!" horiz-adv-x="624" 
d="M49 119q9 55 56 94t104 39t88 -39t22 -94q-9 -58 -54.5 -98.5t-102.5 -40.5q-58 0 -91 41.5t-22 97.5zM150 418l155 985h209l-190 -985h-174z" />
    <glyph glyph-name="quotedbl" unicode="&#x22;" horiz-adv-x="661" 
d="M135 1087l55 424h207l-92 -424h-170zM444 1087l56 424h207l-93 -424h-170z" />
    <glyph glyph-name="numbersign" unicode="#" horiz-adv-x="1519" 
d="M2 338l33 156h274l146 432h-258l34 155h275l115 351h180l-115 -351h340l115 351h180l-115 -351h269l-35 -155h-283l-143 -432h260l-33 -156h-278l-107 -338h-180l106 338h-344l-110 -338h-181l111 338h-256zM489 494h345l143 432h-342z" />
    <glyph glyph-name="dollar" unicode="$" horiz-adv-x="1282" 
d="M-4 369l215 49q3 -97 63.5 -164t167.5 -88l80 463l-98 16q-161 26 -233.5 128.5t-43.5 244.5q31 164 171.5 275.5t343.5 131.5l18 103h178l-18 -105q162 -20 256.5 -109t101.5 -231l-209 -45q-10 81 -58 131.5t-124 69.5l-76 -436l64 -10q85 -14 149.5 -41t110.5 -71
t63.5 -109.5t1.5 -149.5q-33 -175 -175.5 -295.5t-358.5 -144.5l-19 -105h-176l19 105q-195 20 -303.5 124t-110.5 263zM365 1028q-14 -74 23 -124.5t124 -65.5l45 -9l74 414q-106 -15 -177.5 -73t-88.5 -142zM618 164q116 18 189.5 82.5t91.5 154.5q17 91 -32.5 136.5
t-149.5 60.5l-23 4z" />
    <glyph glyph-name="percent" unicode="%" horiz-adv-x="1638" 
d="M37 0l1300 1413h219l-1294 -1413h-225zM143 1100q26 146 139.5 243t258.5 97q146 0 226 -96.5t54 -241.5q-26 -147 -140 -243.5t-259 -96.5q-146 0 -225.5 96.5t-53.5 241.5zM311 1100q-14 -81 24.5 -134t113.5 -53q74 0 130 54t70 133q14 81 -23 133.5t-112 52.5
t-132 -53t-71 -133zM782 301q26 146 139.5 243t258.5 97q147 0 226.5 -96t53.5 -242t-140 -243t-259 -97q-146 0 -225.5 96.5t-53.5 241.5zM950 303q-14 -81 24 -134.5t113 -53.5q74 0 130.5 54t70.5 134t-23 133t-112 53q-74 0 -131.5 -53.5t-71.5 -132.5z" />
    <glyph glyph-name="ampersand" unicode="&#x26;" horiz-adv-x="1452" 
d="M57 367q23 131 117 226.5t268 178.5q-73 85 -106.5 163t-16.5 173q25 147 147.5 241.5t289.5 94.5q163 0 257 -89.5t68 -236.5q-19 -112 -109 -199.5t-255 -175.5l235 -297q30 35 65.5 106.5t57.5 141.5l182 -26q-28 -95 -82.5 -197.5t-109.5 -161.5l154 -186l-156 -131
l-129 166q-207 -191 -471 -191q-211 0 -324.5 110.5t-81.5 289.5zM270 375q-19 -101 44 -166.5t182 -65.5q93 0 180 42.5t145 103.5l-276 354h-10q-115 -56 -183 -120t-82 -148zM516 1108q-17 -108 94 -238h11q118 56 182 110.5t78 127.5q14 74 -26.5 123t-121.5 49
q-82 0 -143.5 -49.5t-73.5 -122.5z" />
    <glyph glyph-name="quotesingle" unicode="'" horiz-adv-x="352" 
d="M135 1087l55 424h207l-92 -424h-170z" />
    <glyph glyph-name="parenleft" unicode="(" horiz-adv-x="593" 
d="M42 299q-11 177 24 365q49 272 173 515.5t287 419.5h203q-383 -452 -467 -935q-85 -490 139 -943h-202q-66 116 -106 258.5t-51 319.5z" />
    <glyph glyph-name="parenright" unicode=")" horiz-adv-x="593" 
d="M-203 -279q177 204 303.5 446t171.5 499q85 482 -139 933h203q67 -114 106.5 -256.5t49.5 -317t-25 -361.5q-49 -274 -174.5 -519.5t-290.5 -423.5h-205z" />
    <glyph glyph-name="asterisk" unicode="*" horiz-adv-x="632" 
d="M125 1225l59 121l148 -58l28 174h132l-33 -172l168 56l16 -121l-168 -49l80 -136l-115 -75l-78 141l-122 -139l-90 75l126 134z" />
    <glyph glyph-name="plus" unicode="+" horiz-adv-x="1193" 
d="M63 614l29 168h397l76 430h195l-76 -430h397l-30 -168h-398l-78 -446h-194l80 446h-398z" />
    <glyph glyph-name="comma" unicode="," horiz-adv-x="540" 
d="M-18 -131q62 9 106 44t53 77q-18 -4 -45 -4q-50 0 -78 30.5t-18 83.5q10 58 52.5 91.5t101.5 33.5q68 0 99.5 -48t16.5 -134q-19 -109 -95.5 -181.5t-190.5 -84.5z" />
    <glyph glyph-name="hyphen" unicode="-" horiz-adv-x="974" 
d="M39 563l31 176h798l-30 -176h-799z" />
    <glyph glyph-name="period" unicode="." horiz-adv-x="538" 
d="M6 121q11 56 57 94.5t103 38.5q58 0 90 -39t23 -94q-11 -59 -57 -99t-103 -40q-58 0 -91 41.5t-22 97.5z" />
    <glyph glyph-name="slash" unicode="/" horiz-adv-x="962" 
d="M-188 -205l1058 1694h209l-1054 -1694h-213z" />
    <glyph glyph-name="zero" unicode="0" horiz-adv-x="1312" 
d="M68 700q60 332 241.5 528.5t450.5 196.5q177 0 290 -90.5t147.5 -251.5t-1.5 -383q-61 -340 -246 -531.5t-446 -191.5q-262 0 -379.5 191.5t-56.5 531.5zM289 700q-43 -243 21.5 -384.5t228.5 -141.5q162 0 277.5 139.5t158.5 386.5q45 251 -22.5 391t-227.5 140
q-161 0 -277 -141t-159 -390z" />
    <glyph glyph-name="one" unicode="1" horiz-adv-x="745" 
d="M102 1061l21 123q150 6 238.5 56t140.5 163h203l-248 -1403h-213l186 1061h-328z" />
    <glyph glyph-name="two" unicode="2" horiz-adv-x="1140" 
d="M-80 0l21 119q16 89 54 162.5t97.5 131t126.5 101t156 86.5l239 115q38 18 63 31t63 39t63 52t47.5 65.5t30.5 84.5q19 106 -42 176t-184 70q-122 0 -206 -71.5t-125 -186.5l-207 26q54 189 208.5 306.5t370.5 117.5t329 -119.5t79 -310.5q-13 -74 -48.5 -139.5
t-73 -106.5t-91 -79.5t-83 -54.5t-69.5 -35l-256 -127q-39 -17 -64.5 -29.5t-66 -38t-66.5 -49.5t-49.5 -60t-31.5 -75l-2 -11h743l-33 -190h-993z" />
    <glyph glyph-name="three" unicode="3" horiz-adv-x="1146" 
d="M-4 358l203 29q6 -101 69 -164t183 -63q127 0 217 66.5t110 176.5q20 114 -61 176t-234 62h-108l31 176h104q56 0 108 11t101.5 34t84 67.5t44.5 104.5q17 97 -40.5 153t-174.5 56q-122 0 -201 -60t-115 -161l-188 29q21 76 66 142t111.5 118.5t160.5 83t203 30.5
q203 0 318.5 -100.5t86.5 -269.5q-22 -122 -106.5 -203.5t-192.5 -110.5l-2 -10q48 -9 91.5 -32.5t81 -62.5t53 -102t1.5 -141q-34 -184 -197 -300t-382 -116q-204 0 -319 105.5t-107 275.5z" />
    <glyph glyph-name="four" unicode="4" horiz-adv-x="1206" 
d="M-23 334l37 201l774 868h275l-158 -887h215l-33 -184h-215l-57 -332h-215l57 334h-680zM227 516h463l115 655h-10l-568 -645v-10z" />
    <glyph glyph-name="five" unicode="5" horiz-adv-x="1134" 
d="M-23 319l201 60q15 -99 83 -157t173 -58q130 0 233.5 85t125.5 214q23 127 -47.5 206t-196.5 79q-168 0 -289 -138l-192 68l239 725h768l-35 -184h-610l-135 -408h10q122 113 311 113q203 0 315.5 -128t76.5 -331q-38 -206 -205.5 -347t-396.5 -141q-189 0 -305 98
t-124 244z" />
    <glyph glyph-name="six" unicode="6" horiz-adv-x="1208" 
d="M51 370.5q-18 133.5 12 313.5q26 150 78.5 274t120.5 209.5t151.5 144t173 86t183.5 27.5q166 0 275.5 -79t121.5 -201l-194 -66q-22 74 -79.5 119t-154.5 45q-171 0 -292.5 -139.5t-161.5 -374.5l-2 -10h10q57 84 164.5 141.5t238.5 57.5q199 0 311 -126t76 -329
q-38 -213 -205 -350.5t-386 -137.5q-118 0 -209.5 43t-152.5 131t-79 221.5zM272 451q-22 -123 46.5 -209t201.5 -86t227.5 85.5t116.5 213.5q23 128 -43.5 205t-193.5 77q-132 0 -232 -80.5t-123 -205.5z" />
    <glyph glyph-name="seven" unicode="7" horiz-adv-x="1030" 
d="M90 1214l35 189h995l-30 -168q-80 -76 -136.5 -132t-130 -136.5t-127 -151.5t-114 -166t-105.5 -190t-87 -213t-71 -246h-219q36 148 88.5 285.5t117 252.5t127 209.5t139.5 184t132 147t125 125.5v10h-739z" />
    <glyph glyph-name="eight" unicode="8" horiz-adv-x="1159" 
d="M2 387q23 130 111 220.5t215 123.5l2 10q-99 35 -145.5 121.5t-26.5 194.5q28 157 174.5 262.5t351.5 105.5t313 -106.5t80 -263.5q-19 -107 -96 -194.5t-186 -119.5l-2 -10q115 -31 171 -121.5t33 -220.5q-32 -182 -190 -297t-381 -115q-222 0 -338.5 115t-85.5 295z
M221 403q-19 -108 46.5 -174.5t191.5 -66.5q127 0 216 66t109 175q21 109 -44.5 178.5t-194.5 69.5q-127 0 -216 -70t-108 -178zM371 1036q-15 -93 42 -151t165 -58t185.5 57.5t94.5 151.5q17 92 -40.5 148.5t-168.5 56.5t-187 -57t-91 -148z" />
    <glyph glyph-name="nine" unicode="9" horiz-adv-x="1208" 
d="M-8 256l196 66q20 -73 78.5 -118.5t155.5 -45.5q170 0 291.5 140t163.5 374l2 10h-11q-56 -84 -164.5 -140.5t-240.5 -56.5q-96 0 -175.5 32.5t-132 90.5t-74 143.5t-3.5 186.5q37 213 204 350t388 137q118 0 209 -42.5t152 -130t78 -221t-13 -314.5
q-32 -185 -103 -329.5t-166.5 -233t-206 -134t-229.5 -45.5q-167 0 -276 80t-123 201zM295 948q-22 -128 45 -206t195 -78q132 0 231 80.5t121 205.5q22 124 -46 209.5t-202 85.5q-132 0 -227 -84.5t-117 -212.5z" />
    <glyph glyph-name="colon" unicode=":" horiz-adv-x="550" 
d="M16 133q12 58 57.5 95.5t100.5 37.5q56 0 89.5 -39t25.5 -94q-9 -57 -56.5 -98t-105.5 -41q-56 0 -88.5 40t-22.5 99zM152 897q10 57 55.5 95t101.5 38q57 0 89.5 -38.5t23.5 -94.5q-9 -57 -56 -97t-104 -40t-88.5 39.5t-21.5 97.5z" />
    <glyph glyph-name="semicolon" unicode=";" horiz-adv-x="563" 
d="M-6 -123q63 9 106.5 44t53.5 77q-18 -4 -45 -4q-49 0 -77.5 30.5t-19.5 84.5q9 56 52 90t104 34q69 0 99.5 -49.5t15.5 -134.5q-19 -109 -95.5 -180.5t-191.5 -83.5zM156 897q10 57 55.5 95t101.5 38q57 0 89.5 -38.5t23.5 -94.5q-9 -57 -56 -97t-104 -40t-88.5 39.5
t-21.5 97.5z" />
    <glyph glyph-name="less" unicode="&#x3c;" horiz-adv-x="1017" 
d="M23 586l32 182l957 406l-35 -203l-725 -289v-10l620 -289l-34 -203z" />
    <glyph glyph-name="equal" unicode="=" horiz-adv-x="1202" 
d="M41 377l31 172h956l-31 -172h-956zM123 834l29 170h956l-31 -170h-954z" />
    <glyph glyph-name="greater" unicode="&#x3e;" horiz-adv-x="1017" 
d="M-51 180l35 203l725 289v10l-621 289l35 203l815 -406l-33 -182z" />
    <glyph glyph-name="question" unicode="?" horiz-adv-x="1052" 
d="M94 1010q49 191 199.5 302t347.5 111q196 0 303.5 -107t77.5 -282q-9 -53 -30.5 -100t-47.5 -80t-62.5 -65t-67.5 -53.5t-70 -47.5q-5 -3 -7 -4.5t-5.5 -3.5t-6.5 -4q-51 -33 -82 -56.5t-63.5 -57.5t-50.5 -74.5t-25 -90.5h-180q6 74 29.5 132.5t67 106.5t82.5 79t105 76
q43 30 66.5 48t55 49t49 65.5t24.5 76.5q17 98 -40 153.5t-157 55.5q-116 0 -200 -71t-115 -189zM233 119q11 56 57.5 94.5t104.5 38.5q57 0 88.5 -39t22.5 -94q-10 -58 -56 -98.5t-102 -40.5q-59 0 -91.5 41t-23.5 98z" />
    <glyph glyph-name="at" unicode="@" horiz-adv-x="1540" 
d="M33 553q37 204 159.5 370t305 261.5t387.5 95.5q137 0 251 -45.5t189.5 -126t107 -198t7.5 -255.5q-35 -194 -151.5 -317t-268.5 -123q-73 0 -117.5 32.5t-48.5 98.5h-10q-91 -137 -248 -137q-125 0 -189.5 88.5t-39.5 232.5q29 162 146.5 278t256.5 116q63 0 104.5 -27
t47.5 -82h10l26 98h179l-123 -417q-37 -131 47 -131q73 0 135 80.5t84 203.5q19 107 -5 199t-81 155t-143.5 98.5t-190.5 35.5q-238 0 -428 -167.5t-233 -412.5q-27 -152 16 -273t156 -192.5t280 -71.5l479 3l-26 -150h-479q-162 -1 -287.5 51t-200 143.5t-102.5 216.5
t-2 269zM545 537q-15 -83 15 -132t91 -49q77 0 144 73.5t86 172.5q14 80 -14 128t-91 48q-80 0 -146.5 -71.5t-84.5 -169.5z" />
    <glyph glyph-name="A" unicode="A" 
d="M-141 0l809 1403h252l311 -1403h-240l-80 371h-604l-213 -371h-235zM393 551h490l-129 620h-11z" />
    <glyph glyph-name="B" unicode="B" horiz-adv-x="1329" 
d="M25 0l247 1403h611q191 -3 289 -100q76 -75 76 -184q0 -32 -7 -68q-20 -108 -93.5 -189t-186.5 -117v-14q113 -21 173 -110q43 -64 44 -152q0 -33 -7 -70q-28 -173 -174 -286t-350 -113h-622zM279 184h339q144 0 226 61t102 165q6 28 6 53q0 71 -46 115q-62 60 -189 61
h-359zM389 815h332q123 0 201.5 59t93.5 154q4 21 4 40q0 68 -48 106q-62 49 -184 49h-327z" />
    <glyph glyph-name="C" unicode="C" horiz-adv-x="1466" 
d="M61 399q-15 67 -15 142t15 159q57 322 287.5 523.5t534.5 201.5q123 0 223 -35.5t165 -96.5t102.5 -139.5t45.5 -168.5l-215 -55q-20 132 -110 215.5t-248 83.5q-95 0 -185.5 -33.5t-167.5 -96.5t-133.5 -164.5t-78.5 -227.5q-12 -70 -12 -131q0 -153 76 -256
q107 -144 312 -144q160 0 279.5 86t193.5 225l191 -55q-41 -93 -106.5 -174t-152 -144.5t-199 -100t-236.5 -36.5q-145 0 -263.5 50.5t-195.5 144t-107 227.5z" />
    <glyph glyph-name="D" unicode="D" horiz-adv-x="1427" 
d="M20 0l248 1403h473q151 0 271 -47.5t198 -135.5q76 -89 106 -221q15 -67 15 -141q0 -73 -14 -153q-39 -220 -161 -381.5t-292.5 -242.5t-369.5 -81h-474zM268 193h254q136 0 253.5 55.5t205.5 173.5t117 283q11 67 11 125q1 156 -81 252q-112 130 -323 130h-256z" />
    <glyph glyph-name="E" unicode="E" horiz-adv-x="1243" 
d="M25 0l247 1403h955l-35 -191h-733l-70 -405h655l-28 -191h-662l-75 -426h733l-33 -190h-954z" />
    <glyph glyph-name="F" unicode="F" horiz-adv-x="1185" 
d="M25 0l247 1403h955l-35 -191h-733l-72 -413h655l-32 -191h-658l-106 -608h-221z" />
    <glyph glyph-name="G" unicode="G" horiz-adv-x="1529" 
d="M57 700q29 161 103 297.5t181 233.5t247 151t295 54q118 0 215 -31t160.5 -84t100.5 -120t44 -142l-215 -55q-23 103 -105.5 172t-234.5 69q-215 0 -369 -145t-198 -391q-13 -72 -13 -137q0 -151 70 -258q98 -152 317 -152q83 0 159 24t130.5 61.5t96.5 84.5t65 92t29 84
l4 16q5 29 -6.5 42.5t-42.5 13.5h-441l33 182h453q131 0 187 -60q39 -42 39 -117q0 -32 -7 -69l-90 -516h-197l43 252h-10q-33 -55 -79 -102t-108.5 -88t-146 -65t-176.5 -24q-189 0 -324 91t-191 258q-33 99 -33 214q0 78 15 164z" />
    <glyph glyph-name="H" unicode="H" horiz-adv-x="1470" 
d="M25 0l247 1403h224l-109 -602h684l107 602h223l-248 -1403h-223l108 614h-684l-106 -614h-223z" />
    <glyph glyph-name="I" unicode="I" horiz-adv-x="565" 
d="M25 0l247 1403h222l-248 -1403h-221z" />
    <glyph glyph-name="J" unicode="J" horiz-adv-x="794" 
d="M-111 0l33 190h199q92 0 147.5 53t71.5 142l180 1018h221l-180 -1024q-33 -180 -150.5 -279.5t-312.5 -99.5h-209z" />
    <glyph glyph-name="K" unicode="K" horiz-adv-x="1361" 
d="M25 0l247 1403h222l-121 -692h10l737 692h275l-625 -598l426 -805h-276l-336 651h-11l-251 -229l-76 -422h-221z" />
    <glyph glyph-name="L" unicode="L" horiz-adv-x="1103" 
d="M25 0l247 1403h222l-215 -1213h663l-33 -190h-884z" />
    <glyph glyph-name="M" unicode="M" horiz-adv-x="1818" 
d="M25 0l247 1403h312l217 -1114h10l619 1114h317l-248 -1403h-225l184 1049h-10l-588 -1049h-209l-213 1044h-10l-182 -1044h-221z" />
    <glyph glyph-name="N" unicode="N" horiz-adv-x="1531" 
d="M25 0l247 1403h248l518 -1075h11l190 1075h221l-248 -1405l-258 2l-512 1063h-10l-186 -1063h-221z" />
    <glyph glyph-name="O" unicode="O" horiz-adv-x="1556" 
d="M57 702q38 216 159.5 382t294.5 253.5t370 87.5q148 0 268 -52t195.5 -147t105.5 -228q15 -66 15 -140t-15 -156q-29 -164 -108 -302t-189.5 -229.5t-246 -142.5t-279.5 -51q-145 0 -263.5 51t-197 143.5t-108.5 230.5q-15 70 -15 146q0 74 14 154zM276 482
q20 -98 72.5 -166t133 -104t180.5 -36q205 0 365.5 142.5t203.5 383.5q12 67 12 127q-1 153 -79 257q-108 144 -316 144.5t-367.5 -142.5t-201.5 -383q-12 -66 -11 -125q-1 -52 8 -98z" />
    <glyph glyph-name="P" unicode="P" horiz-adv-x="1249" 
d="M25 0l247 1403h555q142 0 239 -59q98 -58 136 -156q25 -63 24 -136q0 -40 -7 -83q-33 -187 -184 -310q-150 -122 -364 -122h-3h-332l-94 -537h-217zM369 723h319q124 0 203.5 69t99.5 177q5 28 5 54q0 72 -41 125q-56 71 -181 71h-317z" />
    <glyph glyph-name="Q" unicode="Q" horiz-adv-x="1581" 
d="M68 700q37 215 158 381t294.5 255t370.5 89q302 0 463 -201q120 -150 120 -366q0 -75 -14 -158q-54 -293 -256 -489q54 -45 144 -45h32l-32 -189h-48q-171 0 -268 105q-187 -105 -397 -105q-144 0 -262 51.5t-195.5 144t-107.5 229.5q-16 70 -16 147q0 73 14 151z
M287 705q-11 -63 -11 -120q0 -87 26 -161q43 -121 139.5 -184.5t228.5 -63.5q136 0 260 70q-41 78 -97 114.5t-147 36.5h-33l35 191h47q129 0 215.5 -49.5t145.5 -155.5q109 131 143 319q12 66 12 125q0 154 -79 259q-110 145 -316 145q-135 0 -254 -64t-203 -185t-112 -277
z" />
    <glyph glyph-name="R" unicode="R" horiz-adv-x="1372" 
d="M25 0l247 1403h592q147 0 242.5 -53.5t129.5 -141.5q22 -56 22 -121q0 -38 -7 -79q-14 -74 -47.5 -132.5t-79 -95.5t-89.5 -59.5t-93 -36.5l-2 -10q100 -6 152 -68q36 -44 36 -118q0 -32 -6 -70l-73 -418h-222l70 397q4 24 4 45q0 127 -160 127h-397l-100 -569h-219z
M377 754h344q126 0 204.5 67.5t96.5 171.5q5 26 5 50q1 67 -39 115q-54 64 -189 65h-338z" />
    <glyph glyph-name="S" unicode="S" horiz-adv-x="1282" 
d="M-4 369l215 49q3 -117 90.5 -188.5t237.5 -71.5q147 0 243 68.5t117 174.5q4 24 4 44q-1 59 -37 93q-50 44 -149 60l-293 47q-160 26 -232 126q-53 74 -53 172q0 34 6 71q32 183 199 299.5t399 116.5q203 0 324.5 -92.5t130.5 -254.5l-209 -45q-13 105 -88.5 159
t-193.5 54q-133 0 -228 -63.5t-114 -161.5q-4 -20 -3 -38q0 -48 26 -85q37 -50 124 -65l283 -45q175 -27 265 -117q67 -67 67 -176q0 -36 -7 -78q-36 -196 -206.5 -320.5t-419.5 -124.5q-232 0 -364 108t-134 284z" />
    <glyph glyph-name="T" unicode="T" horiz-adv-x="1216" 
d="M90 1221l33 182h1171l-34 -182h-478l-215 -1221h-215l215 1221h-477z" />
    <glyph glyph-name="U" unicode="U" horiz-adv-x="1431" 
d="M96 514l158 889h223l-155 -881q-8 -46 -9 -87q-1 -103 53 -167q74 -90 234 -90t266 90t135 254l156 881h221l-157 -889q-29 -167 -124 -289.5t-232 -183.5t-300 -61q-252 0 -382 142q-98 107 -98 275q0 55 11 117z" />
    <glyph glyph-name="V" unicode="V" horiz-adv-x="1382" 
d="M117 1403h245l224 -1135h10l625 1135h245l-802 -1403h-240z" />
    <glyph glyph-name="W" unicode="W" horiz-adv-x="1957" 
d="M125 1403h233l80 -1102h11l522 1102h223l133 -1106h10l467 1106h232l-637 -1403h-238l-133 1075h-10l-514 -1075h-242z" />
    <glyph glyph-name="X" unicode="X" horiz-adv-x="1357" 
d="M-129 -2l645 717l-364 688h254l268 -520h16l451 520h256l-606 -692l399 -711h-260l-301 543h-13l-481 -545h-264z" />
    <glyph glyph-name="Y" unicode="Y" horiz-adv-x="1284" 
d="M113 1403h247l263 -639h10l493 639h248l-669 -842l-99 -561h-223l98 561z" />
    <glyph glyph-name="Z" unicode="Z" horiz-adv-x="1280" 
d="M-63 0l34 197l1022 1007v10h-833l35 189h1099l-37 -199l-1024 -1003l-2 -11h852l-32 -190h-1114z" />
    <glyph glyph-name="bracketleft" unicode="[" horiz-adv-x="702" 
d="M-29 -283l324 1819h524l-28 -164h-340l-263 -1491h338l-28 -164h-527z" />
    <glyph glyph-name="backslash" unicode="\" horiz-adv-x="962" 
d="M111 1489h208l463 -1694h-211z" />
    <glyph glyph-name="bracketright" unicode="]" horiz-adv-x="702" 
d="M-193 -283l29 164h340l264 1491h-340l29 164h524l-321 -1819h-525z" />
    <glyph glyph-name="asciicircum" unicode="^" horiz-adv-x="942" 
d="M43 776l422 627h205l198 -627h-198l-131 441h-11l-286 -441h-199z" />
    <glyph glyph-name="underscore" unicode="_" horiz-adv-x="1048" 
d="M-162 -178l31 178h1016l-33 -178h-1014z" />
    <glyph glyph-name="grave" unicode="`" horiz-adv-x="567" 
d="M174 1503h258l141 -299h-206z" />
    <glyph glyph-name="a" unicode="a" horiz-adv-x="1107" 
d="M-8 291q13 75 52 132t97 92t125.5 54.5t147.5 24.5l231 14q50 3 77 23.5t36 70.5q3 17 3 33q-1 61 -43 99q-54 50 -155 49q-103 0 -170.5 -45.5t-99.5 -118.5l-193 24q40 131 174 219.5t318 88.5q196 0 300 -98q81 -77 81 -195q0 -33 -6 -70l-121 -688h-211l29 168h-11
q-39 -80 -138 -137.5t-224 -57.5q-157 1 -241 87q-64 66 -64 166q0 31 6 65zM209 297q-3 -17 -3 -32q0 -51 34 -85q44 -44 131 -45q122 0 218.5 81t119.5 210l8 57q-21 -11 -76 -16l-207 -16q-90 -7 -151 -44t-74 -110z" />
    <glyph glyph-name="b" unicode="b" horiz-adv-x="1236" 
d="M4 0l250 1423h207l-101 -569h11q52 78 149 132t219 54q202 0 306 -148q75 -106 75 -256q0 -59 -12 -126q-44 -238 -202.5 -385.5t-356.5 -147.5q-119 0 -197 54.5t-102 132.5h-10l-29 -164h-207zM297 508q-8 -46 -8 -86q0 -101 50 -170q70 -96 200 -96t230.5 97
t129.5 259q9 49 9 92q0 98 -46 164q-66 96 -196 96q-133 0 -237.5 -98t-131.5 -258z" />
    <glyph glyph-name="c" unicode="c" horiz-adv-x="1099" 
d="M14 514q41 235 213 384t396 149q174 0 279 -91.5t118 -230.5l-193 -55q-13 87 -73 141.5t-160 54.5q-140 0 -243.5 -99.5t-131.5 -254.5q-8 -44 -8 -84q1 -100 51 -171q70 -99 209 -99q100 0 183.5 55.5t131.5 142.5l166 -49q-70 -147 -207.5 -238.5t-308.5 -91.5
q-224 -1 -344 149q-89 111 -89 271q0 55 11 117z" />
    <glyph glyph-name="d" unicode="d" horiz-adv-x="1230" 
d="M14 510q38 231 195 380.5t362 149.5q122 0 199.5 -54t99.5 -132h11l100 569h209l-250 -1423h-209l29 164h-10q-51 -78 -147.5 -132.5t-217.5 -54.5q-202 0 -307 151q-76 109 -76 259q0 58 12 123zM221 512q-9 -48 -9 -91q0 -99 47 -167q67 -98 198 -98t235 96t133 256
q8 45 8 85q0 102 -50 173q-69 98 -201 98q-130 0 -231 -96.5t-130 -255.5z" />
    <glyph glyph-name="e" unicode="e" horiz-adv-x="1126" 
d="M14 512q41 237 206 386t388 149q146 0 244.5 -68t135.5 -188q21 -68 21 -148q0 -60 -12 -127q-11 -60 -14 -70h-768q-4 -30 -5 -57q0 -91 50 -157q64 -84 195 -85q101 0 180 51t119 126l174 -50q-65 -135 -201 -217t-301 -82q-226 0 -340 148q-83 108 -84 264
q0 59 12 125zM246 598h555q3 24 3 46q0 92 -50 152q-62 74 -181.5 74t-209.5 -76.5t-117 -195.5z" />
    <glyph glyph-name="f" unicode="f" horiz-adv-x="729" 
d="M33 854l30 170h181l24 141q23 129 115.5 202t228.5 73h189l-29 -170h-149q-130 0 -150 -125l-20 -121h270l-31 -170h-270l-150 -854h-209l150 854h-180z" />
    <glyph glyph-name="g" unicode="g" horiz-adv-x="1218" 
d="M-63 -117l198 39q10 -75 79.5 -119.5t172.5 -44.5q134 0 231 79t121 218l25 133h-10q-60 -82 -152.5 -135t-214.5 -53q-199 0 -302 146q-74 104 -74 250q0 59 12 124q40 230 196 378.5t359 148.5q117 0 190 -52t104 -133h11l28 162h207l-168 -958q-27 -149 -112.5 -258
t-210 -163.5t-273.5 -54.5q-186 0 -301.5 81t-115.5 212zM233 524q-9 -48 -9 -90q0 -97 46 -162q67 -94 195 -94q129 0 231 95.5t129 252.5q8 44 8 84q0 97 -49 164q-69 94 -196 94q-128 0 -228 -92.5t-127 -251.5z" />
    <glyph glyph-name="h" unicode="h" horiz-adv-x="1200" 
d="M4 0l250 1423h207l-101 -569h11q57 91 148 143t212 52q171 0 254 -103q60 -74 60 -189q0 -44 -9 -95l-116 -662h-207l106 614q7 31 7 61q0 16 -2 33q-6 46 -24 82t-60.5 58t-104.5 22q-125 0 -212.5 -83t-113.5 -230l-98 -557h-207z" />
    <glyph glyph-name="i" unicode="i" horiz-adv-x="495" 
d="M-4 0l182 1024h203l-180 -1024h-205zM197 1309q9 54 54.5 92.5t102.5 38.5q56 0 88 -38q25 -30 25 -70q0 -11 -2 -23q-8 -56 -54 -97t-104 -41q-59 1 -90 41q-23 30 -23 68q0 14 3 29z" />
    <glyph glyph-name="j" unicode="j" horiz-adv-x="544" 
d="M-260 -375l31 168h112q70 0 105 36t47 101l192 1094h205l-196 -1112q-24 -135 -115.5 -211t-218.5 -76h-162zM244 1309q9 54 54 93.5t103 39.5q57 0 88 -38q25 -31 25 -71q0 -11 -2 -22q-8 -56 -53.5 -98t-104.5 -42q-57 0 -89 41q-24 31 -24 70q0 13 3 27z" />
    <glyph glyph-name="k" unicode="k" horiz-adv-x="1093" 
d="M4 0l250 1423h203l-156 -886h10l531 487h252l-467 -426l309 -598h-242l-231 455h-10l-197 -174l-49 -281h-203z" />
    <glyph glyph-name="l" unicode="l" horiz-adv-x="505" 
d="M4 0l250 1423h203l-250 -1423h-203z" />
    <glyph glyph-name="m" unicode="m" horiz-adv-x="1796" 
d="M4 0l180 1024h205l-31 -172h11q49 88 139 142.5t203 54.5q108 0 177.5 -49.5t86.5 -147.5h10q68 103 162 150t199 47q157 -1 237 -99q58 -71 58 -186q0 -45 -9 -96l-116 -668h-205l110 629q7 29 7 58q0 13 -2 27q-4 43 -18.5 77.5t-52.5 56.5t-95 22q-110 0 -187.5 -77
t-99.5 -201l-103 -592h-204l110 629q7 30 7 59q0 16 -2 30q-5 44 -19.5 77.5t-51.5 54t-92 20.5q-116 0 -200 -83.5t-109 -221.5l-98 -565h-207z" />
    <glyph glyph-name="n" unicode="n" horiz-adv-x="1200" 
d="M4 0l180 1024h207l-29 -166h9q56 87 149.5 139t210.5 52q167 1 252 -103q62 -75 62 -191q0 -44 -9 -93l-116 -662h-207l106 612q6 33 6 63q0 68 -30 119q-43 74 -160 74q-123 0 -211.5 -83t-114.5 -228l-98 -557h-207z" />
    <glyph glyph-name="o" unicode="o" horiz-adv-x="1179" 
d="M14 512q41 237 214 386t401 149q227 0 345 -149q88 -111 87 -270q0 -55 -10 -116q-41 -236 -213 -385.5t-398 -149.5q-228 -1 -348 149q-89 111 -88 271q0 55 10 115zM223 514q-9 -49 -9 -92q0 -100 49 -168q70 -96 206 -96t241.5 95t135.5 261q7 45 7 85q-1 104 -51 173
q-70 96 -206 96q-133 0 -238 -94.5t-135 -259.5z" />
    <glyph glyph-name="p" unicode="p" horiz-adv-x="1310" 
d="M4 -389l250 1413h207l-29 -164h10q53 78 149 132.5t218 54.5q202 0 307 -150q76 -107 76 -258q0 -60 -12 -127q-41 -234 -197.5 -381t-359.5 -147q-123 0 -199 53.5t-102 132.5h-11l-100 -559h-207zM369 516q-9 -48 -9 -90q0 -99 48 -167q69 -97 202 -97q132 0 234 96
t129 256q9 48 9 90q0 100 -49 168q-69 96 -200 96q-130 0 -233 -95.5t-131 -256.5z" />
    <glyph glyph-name="q" unicode="q" horiz-adv-x="1163" 
d="M14 512q41 235 200 385t361 150q121 0 197.5 -54t104.5 -133h10l28 164h207l-250 -1413h-206l98 559h-10q-53 -79 -148.5 -132.5t-218.5 -53.5q-204 0 -309 148q-76 106 -76 256q0 59 12 124zM223 514q-9 -48 -9 -90q0 -99 48 -166q69 -96 199 -96q133 0 236 97t132 257
q8 46 8 87q0 101 -49 169q-70 96 -200 96q-132 0 -235 -97.5t-130 -256.5z" />
    <glyph glyph-name="r" unicode="r" horiz-adv-x="802" 
d="M4 0l180 1024h203l-31 -176h9q40 79 112.5 130.5t177.5 51.5h146l-33 -188h-158q-119 0 -198 -71t-103 -208l-98 -561z" />
    <glyph glyph-name="s" unicode="s" horiz-adv-x="1026" 
d="M-37 264l203 39q2 -72 62 -121t165 -49q102 0 173 47.5t83 120.5q2 12 2 22q-1 41 -29 61q-36 24 -102 34l-235 35q-119 17 -177 93q-43 57 -43 131q0 26 5 54q25 144 156.5 233t318.5 89q160 0 259.5 -73t102.5 -198l-196 -45q-9 70 -63 110t-140 40q-85 0 -154 -37
t-80 -105q-3 -13 -2 -25q0 -38 28 -62q36 -30 93 -40l221 -32q247 -37 247 -218q0 -26 -5 -55q-28 -153 -168.5 -248.5t-333.5 -95.5q-188 -1 -291 87q-100 85 -100 201v7z" />
    <glyph glyph-name="t" unicode="t" horiz-adv-x="835" 
d="M35 856l28 168h160q22 0 25 23l45 253l211 23l-51 -299h317l-29 -168h-317l-98 -553q-3 -18 -3 -34q0 -93 107 -93h209l-31 -176h-243q-143 0 -209 74q-48 53 -48 142q0 35 7 75l100 565h-180z" />
    <glyph glyph-name="u" unicode="u" horiz-adv-x="1198" 
d="M57 362l117 662h207l-109 -612q-7 -31 -7 -61q0 -16 2 -33q6 -46 24.5 -82t60 -58t101.5 -22q128 0 217 89.5t114 233.5l99 545h207l-181 -1024h-207l29 172h-10q-126 -197 -359 -197q-170 -1 -254 103q-60 75 -60 190q0 44 9 94z" />
    <glyph glyph-name="v" unicode="v" horiz-adv-x="1073" 
d="M49 1024h223l152 -791h10l432 791h224l-592 -1024h-217z" />
    <glyph glyph-name="w" unicode="w" horiz-adv-x="1536" 
d="M57 1024h217l54 -748h10l354 748h219l86 -750h11l321 750h217l-477 -1024h-207l-98 780h-10l-371 -780h-209z" />
    <glyph glyph-name="x" unicode="x" horiz-adv-x="1050" 
d="M-129 0l473 520l-278 504h239l187 -350h10l307 350h235l-450 -502l293 -522h-240l-201 371h-10l-330 -371h-235z" />
    <glyph glyph-name="y" unicode="y" horiz-adv-x="1073" 
d="M-158 -397l31 178h180q68 3 109 37t82 106l37 66l-234 1036h223l156 -790h10l416 790l238 -2l-664 -1159q-65 -113 -158 -187.5t-215 -74.5h-211z" />
    <glyph glyph-name="z" unicode="z" horiz-adv-x="1024" 
d="M-74 0l29 168l727 678l2 10h-592l31 168h852l-31 -168l-723 -676l-2 -10h612l-30 -170h-875z" />
    <glyph glyph-name="braceleft" unicode="{" horiz-adv-x="626" 
d="M35 539l24 139q112 51 160 121.5t72 206.5l63 358q20 114 101.5 190t185.5 76h119l-29 -162h-55q-59 0 -93 -30t-46 -101l-66 -362q-25 -140 -84 -229t-172 -134l-2 -10q181 -83 129 -360l-72 -412q-13 -69 11.5 -97t83.5 -28h55l-29 -164h-117q-107 0 -161 78t-33 193
l72 399q26 140 2.5 209t-119.5 119z" />
    <glyph glyph-name="bar" unicode="|" horiz-adv-x="526" 
d="M-20 -252l327 1866h185l-328 -1866h-184z" />
    <glyph glyph-name="braceright" unicode="}" horiz-adv-x="626" 
d="M-223 -459l28 164h56q61 0 94.5 28.5t46.5 96.5l72 412q26 139 86 227.5t172 132.5l2 10q-98 45 -127 135.5t-4 227.5l65 362q12 71 -12.5 101t-83.5 30h-55l28 162h119q104 0 159.5 -76t35.5 -190l-64 -358q-25 -136 -1 -206.5t116 -121.5l-25 -139
q-109 -50 -157 -117.5t-72 -210.5l-72 -399q-20 -117 -102 -194t-188 -77h-117z" />
    <glyph glyph-name="uni00A0" unicode="&#xa0;" horiz-adv-x="595" 
 />
    <glyph glyph-name="exclamdown" unicode="&#xa1;" horiz-adv-x="559" 
d="M-16 -229l192 987h174l-157 -987h-209zM182 1057q9 55 55 96t105 41q57 0 89 -39.5t22 -97.5q-9 -55 -55.5 -94t-102.5 -39q-58 0 -91 38.5t-22 94.5z" />
    <glyph glyph-name="cent" unicode="&#xa2;" horiz-adv-x="1146" 
d="M59 682q38 211 184 354.5t343 171.5l22 127h168l-22 -127q136 -23 218 -109t93 -208l-191 -55q-11 68 -50 117t-103 69l-121 -686q74 20 134.5 69.5t96.5 116.5l166 -49q-60 -127 -173 -213.5t-257 -107.5l-22 -123h-168l22 123q-188 28 -283 171t-57 359zM266 680
q-24 -129 21.5 -220.5t144.5 -121.5l121 682q-109 -28 -186.5 -119.5t-100.5 -220.5z" />
    <glyph glyph-name="sterling" unicode="&#xa3;" horiz-adv-x="1150" 
d="M-25 0l33 178q136 74 205 183.5t45 230.5h-174l31 172h114q-3 16 -8.5 44t-9 48.5t-6.5 48t-2 56.5t6 59q31 182 179 300t357 118q103 0 183.5 -31.5t127 -84t69 -113.5t20.5 -126l-203 -43q-4 102 -68.5 159.5t-160.5 57.5q-103 0 -187.5 -62t-105.5 -177q-5 -27 -6 -54
t2.5 -55.5t7 -47t10.5 -51t10 -46.5h461l-31 -172h-405q16 -117 -44 -226.5t-157 -170.5l-2 -11l725 -2l-30 -182h-986z" />
    <glyph glyph-name="yen" unicode="&#xa5;" horiz-adv-x="1306" 
d="M98 1403h248l264 -639h11l491 639h248l-633 -797h315l-24 -139h-344l-17 -92h344l-24 -135h-344l-41 -240h-221l41 240h-275l25 135h274l17 92h-275l25 139h246z" />
    <glyph glyph-name="brokenbar" unicode="&#xa6;" horiz-adv-x="526" 
d="M-18 -231l135 763h184l-135 -763h-184zM170 834l135 761h182l-133 -761h-184z" />
    <glyph glyph-name="dieresis" unicode="&#xa8;" horiz-adv-x="788" 
d="M145 1311q11 56 57 94.5t103 38.5t89.5 -38.5t23.5 -94.5q-11 -57 -58 -97t-104 -40t-89 39.5t-22 97.5zM539 1311q9 56 55 94.5t104 38.5q56 0 88.5 -39t22.5 -94q-9 -57 -56 -97t-104 -40t-88.5 39.5t-21.5 97.5z" />
    <glyph glyph-name="copyright" unicode="&#xa9;" horiz-adv-x="1746" 
d="M58 485.5q-14 120.5 8 259.5q40 227 174.5 409t333 284t423.5 102q226 0 389 -102.5t233 -283.5t30 -406q-39 -225 -171 -407.5t-332 -287t-429 -104.5q-136 0 -252 38.5t-199 109.5t-138.5 169.5t-69.5 219zM213 745q-34 -186 22.5 -335.5t189 -233.5t316.5 -84t347 84
t273 233.5t144 335.5q33 185 -24.5 334.5t-190.5 234.5t-317 85q-185 0 -347.5 -84.5t-271 -234t-141.5 -335.5zM408 737q37 216 189.5 352t356.5 136q167 0 261.5 -91.5t99.5 -228.5l-166 -39q-11 97 -69.5 150t-155.5 53q-131 0 -225.5 -90t-120.5 -238
q-27 -149 36.5 -239t192.5 -90q96 0 173.5 53.5t125.5 150.5l149 -43q-54 -132 -180.5 -223.5t-294.5 -91.5q-201 0 -305 132.5t-67 346.5z" />
    <glyph glyph-name="guillemotleft" unicode="&#xab;" horiz-adv-x="1251" 
d="M242 592l376 377h300l-379 -373l-2 -10l247 -371h-297z" />
    <glyph glyph-name="uni00AD" unicode="&#xad;" horiz-adv-x="1112" 
d="M115 532l32 183h758l-33 -183h-757z" />
    <glyph glyph-name="registered" unicode="&#xae;" horiz-adv-x="1742" 
d="M54 526.5q-10 103.5 12 218.5q40 227 174.5 409t332.5 284t422 102q226 0 388.5 -102.5t232 -283.5t29.5 -406q-39 -225 -170.5 -407t-331.5 -287t-428 -105q-113 0 -212.5 27t-177 77.5t-137 121.5t-92 159.5t-42.5 192zM213 745q-34 -186 22 -335.5t188 -233.5t316 -84
t346.5 84t272 233.5t143.5 335.5q33 185 -24 334.5t-190 234.5t-316 85q-279 0 -493.5 -185.5t-264.5 -468.5zM481 317l152 869h364q130 0 198 -73.5t48 -190.5q-16 -92 -73 -144t-123 -59l-3 -10q75 -2 109.5 -43.5t22.5 -116.5l-41 -232h-179l39 224q10 62 -13 83t-79 21
h-207l-59 -328h-156zM721 784h184q69 0 115.5 34.5t56.5 94.5q11 61 -23 97.5t-104 36.5h-182z" />
    <glyph glyph-name="macron" unicode="&#xaf;" horiz-adv-x="743" 
d="M127 1217l31 176h624l-30 -176h-625z" />
    <glyph glyph-name="degree" unicode="&#xb0;" horiz-adv-x="636" 
d="M121 1280q20 118 111 195t210 77q120 0 186 -76.5t44 -193.5q-20 -115 -111.5 -192.5t-210.5 -77.5q-120 0 -185.5 76.5t-43.5 191.5zM276 1280q-11 -56 17 -92.5t80 -36.5q51 0 90.5 36.5t50.5 92.5q9 57 -17 95t-77 38q-54 0 -94.5 -38t-49.5 -95z" />
    <glyph glyph-name="acute" unicode="&#xb4;" horiz-adv-x="563" 
d="M123 1204l248 299h252l-297 -299h-203z" />
    <glyph glyph-name="periodcentered" unicode="&#xb7;" horiz-adv-x="518" 
d="M94 629q10 55 55 92t99 37q55 0 86 -38t22 -91q-8 -56 -53 -95.5t-100 -39.5t-87 38.5t-22 96.5z" />
    <glyph glyph-name="cedilla" unicode="&#xb8;" horiz-adv-x="583" 
d="M-162 -389l129 39q17 -78 99 -78q44 0 78.5 24t43.5 68q6 41 -17.5 64.5t-68.5 23.5q-20 0 -41 -6.5t-30.5 -11.5t-32.5 -19l-92 66l147 215h131l-104 -143q62 9 84 8q82 -8 126 -61t27 -138q-17 -97 -94 -154t-174 -57q-84 0 -142.5 42t-68.5 118z" />
    <glyph glyph-name="guillemotright" unicode="&#xbb;" horiz-adv-x="1251" 
d="M176 215l377 371l2 10l-248 373h299l244 -377l-377 -377h-297z" />
    <glyph glyph-name="questiondown" unicode="&#xbf;" horiz-adv-x="1015" 
d="M-104 72q10 53 32.5 100t46.5 79t63.5 66t66 52.5t71.5 47.5q11 7 17 11q101 65 154 124.5t67 154.5h180q-5 -60 -23.5 -111.5t-42 -88t-63.5 -74t-72 -61.5t-84 -59q-42 -28 -67 -47.5t-55 -49.5t-47.5 -65t-24.5 -77q-15 -96 40 -153.5t158 -57.5q115 0 199 72t115 190
l194 -31q-45 -191 -197 -303.5t-350 -112.5q-196 0 -303 108t-75 286zM412 985q9 58 55.5 97.5t103.5 39.5q58 0 90 -40.5t21 -96.5q-9 -56 -55.5 -94.5t-104.5 -38.5q-57 0 -88 39t-22 94z" />
    <glyph glyph-name="Agrave" unicode="&#xc0;" horiz-adv-x="1345" 
d="M-172 0l809 1403h252l311 -1403h-239l-80 371h-605l-213 -371h-235zM362 551h490l-129 620h-10zM494 1817h258l141 -299h-207z" />
    <glyph glyph-name="Aacute" unicode="&#xc1;" 
d="M-141 0l809 1403h252l311 -1403h-240l-80 371h-604l-213 -371h-235zM393 551h490l-129 620h-11zM694 1522l248 299h252l-299 -299h-201z" />
    <glyph glyph-name="Acircumflex" unicode="&#xc2;" 
d="M-141 0l809 1403h252l311 -1403h-240l-80 371h-604l-213 -371h-235zM393 551h490l-129 620h-11zM471 1507l264 256h223l179 -256h-211l-97 144l-145 -144h-213z" />
    <glyph glyph-name="Atilde" unicode="&#xc3;" 
d="M-141 0l809 1403h252l311 -1403h-240l-80 371h-604l-213 -371h-235zM393 551h490l-129 620h-11zM487 1511l2 11q12 109 77 171t155 62q34 0 63 -10.5t44.5 -22t39.5 -32.5q2 -2 13.5 -12t14.5 -12.5t12.5 -9.5t15 -9t13 -4.5t15.5 -2.5q25 0 47 19.5t27 62.5l2 21h137
l-2 -12q-12 -109 -75.5 -172.5t-149.5 -63.5q-82 0 -143 61q-52 58 -90 58q-27 2 -49.5 -20.5t-28.5 -63.5l-2 -19h-138z" />
    <glyph glyph-name="Adieresis" unicode="&#xc4;" 
d="M-141 0l809 1403h252l311 -1403h-240l-80 371h-604l-213 -371h-235zM393 551h490l-129 620h-11zM494 1626q10 57 55.5 95t101.5 38q57 0 89.5 -38.5t23.5 -94.5q-9 -57 -56 -97t-104 -40q-56 0 -89 39.5t-21 97.5zM885 1626q10 57 56 95t103 38q56 0 89 -39t24 -94
q-9 -57 -56.5 -97t-105.5 -40q-56 0 -88 39.5t-22 97.5z" />
    <glyph glyph-name="Aring" unicode="&#xc5;" 
d="M-141 0l809 1403h252l311 -1403h-240l-80 371h-604l-213 -371h-235zM393 551h490l-129 620h-11zM614 1688q17 94 90 154.5t168 60.5t146.5 -60.5t36.5 -154.5q-17 -94 -89 -154.5t-167 -60.5q-97 0 -149.5 61t-35.5 154zM750 1686q-6 -38 14 -63.5t55 -25.5q36 0 65 25.5
t36 65.5t-12 66t-56 26t-66 -26.5t-36 -67.5z" />
    <glyph glyph-name="AE" unicode="&#xc6;" horiz-adv-x="1998" 
d="M-141 0l794 1403h1332l-35 -191h-733l-72 -405h657l-30 -191h-660l-76 -426h733l-32 -190h-957l66 369h-551l-205 -369h-231zM385 551h494l116 663h-243z" />
    <glyph glyph-name="Ccedilla" unicode="&#xc7;" horiz-adv-x="1462" 
d="M47 700q57 322 287 523.5t534 201.5q123 0 223 -35.5t165.5 -96.5t103 -139.5t45.5 -168.5l-215 -55q-20 131 -110.5 215t-248.5 84q-95 0 -185.5 -33.5t-167.5 -96.5t-133.5 -164.5t-78.5 -227.5q-43 -243 64 -387t313 -144q160 0 279.5 86t193.5 225l191 -55
q-55 -126 -150.5 -226.5t-237.5 -164.5t-305 -64l-49 -69q58 9 82 8q80 -6 125 -58.5t31 -138.5q-17 -96 -94.5 -154.5t-178.5 -58.5q-82 0 -139 42t-69 118l131 39q14 -78 96 -78q44 0 80 24.5t43 67.5q6 38 -16 63t-68 25q-47 0 -105 -36l-92 65l103 150
q-162 27 -274.5 118.5t-160 246t-12.5 349.5z" />
    <glyph glyph-name="Egrave" unicode="&#xc8;" horiz-adv-x="1243" 
d="M25 0l247 1403h955l-35 -191h-733l-70 -405h655l-28 -191h-662l-75 -426h733l-33 -190h-954zM481 1806h256l144 -299h-207z" />
    <glyph glyph-name="Eacute" unicode="&#xc9;" horiz-adv-x="1243" 
d="M25 0l247 1403h955l-35 -191h-733l-70 -405h655l-28 -191h-662l-75 -426h733l-33 -190h-954zM621 1511l245 299h252l-297 -299h-200z" />
    <glyph glyph-name="Ecircumflex" unicode="&#xca;" horiz-adv-x="1243" 
d="M25 0l247 1403h955l-35 -191h-733l-70 -405h655l-28 -191h-662l-75 -426h733l-33 -190h-954zM428 1497l264 258h223l179 -258h-209l-99 143l-145 -143h-213z" />
    <glyph glyph-name="Edieresis" unicode="&#xcb;" horiz-adv-x="1243" 
d="M25 0l247 1403h955l-35 -191h-733l-70 -405h655l-28 -191h-662l-75 -426h733l-33 -190h-954zM446 1618q10 57 56.5 95t103.5 38q55 0 87.5 -39.5t23.5 -93.5q-9 -58 -56 -98.5t-104 -40.5q-56 0 -89.5 39.5t-21.5 99.5zM838 1618q12 57 57.5 95t101.5 38q57 0 89.5 -39.5
t23.5 -93.5q-9 -58 -56 -98.5t-104 -40.5q-55 0 -88.5 39.5t-23.5 99.5z" />
    <glyph glyph-name="Igrave" unicode="&#xcc;" horiz-adv-x="550" 
d="M-2 0l248 1403h223l-248 -1403h-223zM74 1823h258l141 -299h-207z" />
    <glyph glyph-name="Iacute" unicode="&#xcd;" horiz-adv-x="577" 
d="M25 0l247 1403h222l-248 -1403h-221zM305 1528l246 299h252l-297 -299h-201z" />
    <glyph glyph-name="Icircumflex" unicode="&#xce;" horiz-adv-x="509" 
d="M12 0l248 1403h221l-248 -1403h-221zM51 1513l266 256h224l176 -256h-209l-98 144l-146 -144h-213z" />
    <glyph glyph-name="Idieresis" unicode="&#xcf;" horiz-adv-x="649" 
d="M72 0l247 1403h224l-248 -1403h-223zM135 1632q11 56 57 94.5t103 38.5t89.5 -38.5t21.5 -94.5q-9 -58 -55.5 -97.5t-104.5 -39.5q-56 0 -88.5 39t-22.5 98zM526 1632q11 56 57.5 94.5t104.5 38.5q55 0 87.5 -38.5t23.5 -94.5q-10 -58 -57 -97.5t-103 -39.5q-57 0 -90 39
t-23 98z" />
    <glyph glyph-name="Eth" unicode="&#xd0;" horiz-adv-x="1417" 
d="M-6 633l31 168h129l106 602h473q150 0 269.5 -47.5t197 -135.5t107 -220.5t0.5 -294.5q-39 -220 -160.5 -381.5t-293 -242.5t-370.5 -81h-471l113 633h-131zM260 193h254q101 0 193.5 32.5t170 94.5t132.5 161t77 224q21 128 1.5 223.5t-75.5 158.5t-137 94t-182 31h-254
l-73 -411h247l-30 -168h-246z" />
    <glyph glyph-name="Ntilde" unicode="&#xd1;" horiz-adv-x="1531" 
d="M25 0l247 1403h248l518 -1075h11l190 1075h221l-248 -1405l-258 2l-512 1063h-10l-186 -1063h-221zM551 1532l2 10q13 111 78 172.5t153 61.5q77 0 148 -66q3 -3 19.5 -16.5t22.5 -17.5t18.5 -9.5t23.5 -5.5q25 0 47 19.5t27 62.5l4 20h135l-2 -12q-12 -110 -75.5 -172.5
t-150.5 -62.5q-80 0 -141 61q-51 57 -90 57q-29 2 -51.5 -21t-26.5 -63l-4 -18h-137z" />
    <glyph glyph-name="Ograve" unicode="&#xd2;" horiz-adv-x="1556" 
d="M57 702q38 216 159.5 382t294.5 253.5t370 87.5q148 0 268 -52t195.5 -147t105.5 -228t0 -296q-29 -164 -108 -302t-189.5 -229.5t-246 -142.5t-279.5 -51q-145 0 -263.5 51t-197 143.5t-108.5 230t-1 300.5zM276.5 482q19.5 -98 72 -166t133 -104t180.5 -36
q205 0 365.5 142.5t203.5 383.5q42 240 -66.5 384.5t-316.5 144.5t-367.5 -143t-201.5 -383q-22 -125 -2.5 -223zM606 1843h258l142 -299h-207z" />
    <glyph glyph-name="Oacute" unicode="&#xd3;" horiz-adv-x="1556" 
d="M57 702q38 216 159.5 382t294.5 253.5t370 87.5q148 0 268 -52t195.5 -147t105.5 -228t0 -296q-29 -164 -108 -302t-189.5 -229.5t-246 -142.5t-279.5 -51q-145 0 -263.5 51t-197 143.5t-108.5 230t-1 300.5zM276.5 482q19.5 -98 72 -166t133 -104t180.5 -36
q205 0 365.5 142.5t203.5 383.5q42 240 -66.5 384.5t-316.5 144.5t-367.5 -143t-201.5 -383q-22 -125 -2.5 -223zM776 1548l248 299h252l-297 -299h-203z" />
    <glyph glyph-name="Ocircumflex" unicode="&#xd4;" horiz-adv-x="1556" 
d="M57 702q38 216 159.5 382t294.5 253.5t370 87.5q148 0 268 -52t195.5 -147t105.5 -228t0 -296q-29 -164 -108 -302t-189.5 -229.5t-246 -142.5t-279.5 -51q-145 0 -263.5 51t-197 143.5t-108.5 230t-1 300.5zM276.5 482q19.5 -98 72 -166t133 -104t180.5 -36
q205 0 365.5 142.5t203.5 383.5q42 240 -66.5 384.5t-316.5 144.5t-367.5 -143t-201.5 -383q-22 -125 -2.5 -223zM567 1534l267 258h223l176 -258h-209l-98 143l-146 -143h-213z" />
    <glyph glyph-name="Otilde" unicode="&#xd5;" horiz-adv-x="1556" 
d="M57 702q38 216 159.5 382t294.5 253.5t370 87.5q148 0 268 -52t195.5 -147t105.5 -228t0 -296q-29 -164 -108 -302t-189.5 -229.5t-246 -142.5t-279.5 -51q-145 0 -263.5 51t-197 143.5t-108.5 230t-1 300.5zM276.5 482q19.5 -98 72 -166t133 -104t180.5 -36
q205 0 365.5 142.5t203.5 383.5q42 240 -66.5 384.5t-316.5 144.5t-367.5 -143t-201.5 -383q-22 -125 -2.5 -223zM565 1538l2 12q13 110 78.5 171t153.5 61q78 0 147 -64q4 -3 14 -12t14 -12.5t12.5 -10t14.5 -9t14 -5t15 -2.5q25 0 47 19.5t27 64.5l4 18h137l-2 -10
q-13 -110 -76.5 -172.5t-150.5 -62.5q-85 0 -142 61q-55 55 -90 57q-29 0 -51 -22.5t-26 -60.5l-5 -21h-137z" />
    <glyph glyph-name="Odieresis" unicode="&#xd6;" horiz-adv-x="1556" 
d="M57 702q38 216 159.5 382t294.5 253.5t370 87.5q148 0 268 -52t195.5 -147t105.5 -228t0 -296q-29 -164 -108 -302t-189.5 -229.5t-246 -142.5t-279.5 -51q-145 0 -263.5 51t-197 143.5t-108.5 230t-1 300.5zM276.5 482q19.5 -98 72 -166t133 -104t180.5 -36
q205 0 365.5 142.5t203.5 383.5q42 240 -66.5 384.5t-316.5 144.5t-367.5 -143t-201.5 -383q-22 -125 -2.5 -223zM588 1653q9 56 55.5 95.5t104.5 39.5q57 0 88 -40t22 -95q-9 -57 -56 -97t-104 -40q-58 0 -89.5 40.5t-20.5 96.5zM979 1653q11 56 57 95.5t103 39.5t89 -40
t23 -95q-10 -57 -56.5 -97t-102.5 -40q-59 0 -90.5 40t-22.5 97z" />
    <glyph glyph-name="multiply" unicode="&#xd7;" horiz-adv-x="1056" 
d="M-8 369l383 323l-269 324l152 131l268 -326l381 326l107 -131l-381 -324l266 -323l-151 -129l-267 323l-383 -325z" />
    <glyph glyph-name="Oslash" unicode="&#xd8;" horiz-adv-x="1611" 
d="M-39 47l189 182q-118 193 -70 473q38 216 159.5 382t294.5 253.5t369 87.5q224 0 371 -110l156 149l120 -118l-157 -154q132 -194 80 -490q-29 -164 -108 -302t-190 -229.5t-246.5 -142.5t-279.5 -51q-231 0 -385 123l-180 -174zM301 705q-33 -176 23 -308l790 762
q-101 72 -244 72q-208 0 -367.5 -143t-201.5 -383zM428 258q102 -82 256 -82q205 0 365.5 142.5t203.5 383.5q34 191 -30 326z" />
    <glyph glyph-name="Ugrave" unicode="&#xd9;" horiz-adv-x="1431" 
d="M96 514l158 889h223l-155 -881q-29 -164 44.5 -254t233.5 -90t266 90t135 254l156 881h221l-157 -889q-29 -167 -124 -289.5t-232 -183.5t-300 -61q-252 0 -382 142.5t-87 391.5zM557 1817h258l141 -299h-206z" />
    <glyph glyph-name="Uacute" unicode="&#xda;" horiz-adv-x="1449" 
d="M96 514l158 889h223l-155 -881q-29 -164 44.5 -254t233.5 -90t266 90t135 254l156 881h221l-157 -889q-29 -167 -124 -289.5t-232 -183.5t-300 -61q-252 0 -382 142.5t-87 391.5zM723 1522l248 299h252l-297 -299h-203z" />
    <glyph glyph-name="Ucircumflex" unicode="&#xdb;" horiz-adv-x="1431" 
d="M96 514l158 889h223l-155 -881q-29 -164 44.5 -254t233.5 -90t266 90t135 254l156 881h221l-157 -889q-29 -167 -124 -289.5t-232 -183.5t-300 -61q-252 0 -382 142.5t-87 391.5zM496 1507l266 256h223l176 -256h-209l-98 144l-145 -144h-213z" />
    <glyph glyph-name="Udieresis" unicode="&#xdc;" horiz-adv-x="1431" 
d="M96 514l158 889h223l-155 -881q-29 -164 44.5 -254t233.5 -90t266 90t135 254l156 881h221l-157 -889q-29 -167 -124 -289.5t-232 -183.5t-300 -61q-252 0 -382 142.5t-87 391.5zM520 1626q10 57 56 95t102 38q57 0 89.5 -38.5t23.5 -94.5q-9 -57 -56 -97t-104 -40
q-56 0 -89.5 39.5t-21.5 97.5zM911 1626q10 57 56.5 95t103.5 38q56 0 89 -39t24 -94q-9 -57 -56.5 -97t-105.5 -40q-56 0 -88.5 39.5t-22.5 97.5z" />
    <glyph glyph-name="Yacute" unicode="&#xdd;" horiz-adv-x="1284" 
d="M113 1403h247l263 -639h10l493 639h248l-669 -842l-99 -561h-223l98 561zM662 1524l247 299h252l-297 -299h-202z" />
    <glyph glyph-name="Thorn" unicode="&#xde;" horiz-adv-x="1208" 
d="M25 0h217l51 297h344q209 -1 357.5 122.5t181.5 309.5t-69.5 310t-309.5 124h-351l43 240h-217zM328 483l86 496h321q125 0 179 -70.5t36 -179.5q-20 -114 -100.5 -180t-202.5 -66h-319z" />
    <glyph glyph-name="germandbls" unicode="&#xdf;" horiz-adv-x="1277" 
d="M25 2l176 987q37 202 189.5 319t379.5 117q216 0 333.5 -100t88.5 -266q-22 -122 -107.5 -202.5t-191.5 -106.5v-11q49 -9 92 -34t77 -64.5t48.5 -100.5t1.5 -134q-33 -187 -198 -296.5t-390 -109.5h-182l31 186h182q131 0 222.5 58.5t111.5 167.5q21 115 -59 176
t-220 61h-61l31 176h59q132 0 220.5 52.5t105.5 154.5q17 98 -46.5 155.5t-187.5 57.5q-130 0 -214.5 -67.5t-108.5 -202.5l-172 -975z" />
    <glyph glyph-name="agrave" unicode="&#xe0;" horiz-adv-x="1107" 
d="M-8 291q13 75 52 132t97 92t125.5 54.5t147.5 24.5l231 14q50 3 77 23.5t36 70.5q14 82 -39.5 131.5t-155.5 49.5q-103 0 -170.5 -45.5t-99.5 -118.5l-193 24q40 131 174 219.5t318 88.5q197 0 300.5 -98t74.5 -265l-121 -688h-211l29 168h-11q-39 -80 -138 -137.5
t-224 -57.5q-157 0 -241 86.5t-58 231.5zM209 297q-13 -73 31.5 -117.5t130.5 -44.5q122 0 218.5 81t119.5 210l8 57q-21 -11 -76 -16l-207 -16q-90 -7 -151 -44t-74 -110zM344 1450h256l141 -299h-206z" />
    <glyph glyph-name="aacute" unicode="&#xe1;" horiz-adv-x="1146" 
d="M-8 291q13 75 52 132t97 92t125.5 54.5t147.5 24.5l231 14q50 3 77 23.5t36 70.5q14 82 -39.5 131.5t-155.5 49.5q-103 0 -170.5 -45.5t-99.5 -118.5l-193 24q40 131 174 219.5t318 88.5q197 0 300.5 -98t74.5 -265l-121 -688h-211l29 168h-11q-39 -80 -138 -137.5
t-224 -57.5q-157 0 -241 86.5t-58 231.5zM209 297q-13 -73 31.5 -117.5t130.5 -44.5q122 0 218.5 81t119.5 210l8 57q-21 -11 -76 -16l-207 -16q-90 -7 -151 -44t-74 -110zM510 1155l248 299h252l-297 -299h-203z" />
    <glyph glyph-name="acircumflex" unicode="&#xe2;" horiz-adv-x="1110" 
d="M-8 291q13 75 52 132t97 92t125.5 54.5t147.5 24.5l231 14q50 3 77 23.5t36 70.5q14 82 -39.5 131.5t-155.5 49.5q-103 0 -170.5 -45.5t-99.5 -118.5l-193 24q40 131 174 219.5t318 88.5q197 0 300.5 -98t74.5 -265l-121 -688h-211l29 168h-11q-39 -80 -138 -137.5
t-224 -57.5q-157 0 -241 86.5t-58 231.5zM209 297q-13 -73 31.5 -117.5t130.5 -44.5q122 0 218.5 81t119.5 210l8 57q-21 -11 -76 -16l-207 -16q-90 -7 -151 -44t-74 -110zM279 1141l266 256h223l176 -256h-209l-98 143l-145 -143h-213z" />
    <glyph glyph-name="atilde" unicode="&#xe3;" horiz-adv-x="1107" 
d="M-8 291q13 75 52 132t97 92t125.5 54.5t147.5 24.5l231 14q50 3 77 23.5t36 70.5q14 82 -39.5 131.5t-155.5 49.5q-103 0 -170.5 -45.5t-99.5 -118.5l-193 24q40 131 174 219.5t318 88.5q197 0 300.5 -98t74.5 -265l-121 -688h-211l29 168h-11q-39 -80 -138 -137.5
t-224 -57.5q-157 0 -241 86.5t-58 231.5zM209 297q-13 -73 31.5 -117.5t130.5 -44.5q122 0 218.5 81t119.5 210l8 57q-21 -11 -76 -16l-207 -16q-90 -7 -151 -44t-74 -110zM276 1145l3 10q12 111 76.5 172.5t152.5 61.5q78 0 149 -66q3 -2 11.5 -9.5t12 -10.5t11 -9t12 -8.5
t11 -5.5t12.5 -4.5t12 -1.5q26 0 48 19.5t26 62.5l4 20h135l-2 -12q-12 -111 -75.5 -173.5t-149.5 -62.5q-79 0 -141 62q-53 57 -90 57q-29 2 -51.5 -21t-26.5 -63l-4 -18h-136z" />
    <glyph glyph-name="adieresis" unicode="&#xe4;" horiz-adv-x="1120" 
d="M-8 291q13 75 52 132t97 92t125.5 54.5t147.5 24.5l231 14q50 3 77 23.5t36 70.5q14 82 -39.5 131.5t-155.5 49.5q-103 0 -170.5 -45.5t-99.5 -118.5l-193 24q40 131 174 219.5t318 88.5q197 0 300.5 -98t74.5 -265l-121 -688h-211l29 168h-11q-39 -80 -138 -137.5
t-224 -57.5q-157 0 -241 86.5t-58 231.5zM209 297q-13 -73 31.5 -117.5t130.5 -44.5q122 0 218.5 81t119.5 210l8 57q-21 -11 -76 -16l-207 -16q-90 -7 -151 -44t-74 -110zM297 1260q11 56 57 94.5t103 38.5q58 0 89.5 -39t22.5 -94q-11 -59 -56.5 -98.5t-102.5 -39.5
q-58 0 -90 41t-23 97zM690 1260q9 56 55.5 94.5t104.5 38.5q57 0 88.5 -39t22.5 -94q-9 -58 -55.5 -98t-102.5 -40q-59 0 -91.5 41t-21.5 97z" />
    <glyph glyph-name="aring" unicode="&#xe5;" horiz-adv-x="1107" 
d="M-8 291q13 75 52 132t97 92t125.5 54.5t147.5 24.5l231 14q50 3 77 23.5t36 70.5q14 82 -39.5 131.5t-155.5 49.5q-103 0 -170.5 -45.5t-99.5 -118.5l-193 24q40 131 174 219.5t318 88.5q197 0 300.5 -98t74.5 -265l-121 -688h-211l29 168h-11q-39 -80 -138 -137.5
t-224 -57.5q-157 0 -241 86.5t-58 231.5zM209 297q-13 -73 31.5 -117.5t130.5 -44.5q122 0 218.5 81t119.5 210l8 57q-21 -11 -76 -16l-207 -16q-90 -7 -151 -44t-74 -110zM434 1321q17 95 90.5 155t169.5 60q94 0 145.5 -61t34.5 -154q-15 -93 -87.5 -154t-168.5 -61
q-97 0 -149 60.5t-35 154.5zM571 1321q-7 -39 13 -64.5t57 -25.5q36 0 64 25.5t34 64.5q7 40 -11.5 66t-53.5 26q-37 0 -67 -26.5t-36 -65.5z" />
    <glyph glyph-name="ae" unicode="&#xe6;" horiz-adv-x="1832" 
d="M-8 291q13 76 52 133t97 92t125.5 54t147.5 24l231 14q50 3 77 23.5t36 70.5q14 82 -39.5 131.5t-155.5 49.5q-103 0 -170.5 -45.5t-99.5 -118.5l-193 24q40 131 174 219.5t318 88.5q121 0 209 -38.5t133 -109.5q163 144 381 144q146 0 244.5 -68t135.5 -188t9 -275
q-11 -60 -14 -70h-766l-6 -34q-6 -118 57.5 -191.5t185.5 -73.5q101 0 180 51t119 126l174 -50q-65 -135 -200.5 -217t-300.5 -82q-166 0 -277 84l-10 -59h-211l29 168h-11q-39 -80 -138 -137.5t-224 -57.5q-157 0 -241 86.5t-58 231.5zM209 297q-13 -73 31.5 -117.5
t130.5 -44.5q122 0 218.5 81t119.5 210l8 53v4q-21 -11 -76 -16l-207 -16q-90 -7 -151 -44t-74 -110zM952 598h555q15 123 -46 197.5t-181 74.5t-210.5 -76.5t-117.5 -195.5z" />
    <glyph glyph-name="ccedilla" unicode="&#xe7;" horiz-adv-x="1099" 
d="M14 514q41 235 213 384t396 149q174 0 279 -91.5t118 -230.5l-193 -55q-13 87 -73 141.5t-160 54.5q-140 0 -243.5 -99.5t-131.5 -254.5q-28 -156 42.5 -255t209.5 -99q100 0 183.5 55.5t131.5 142.5l166 -49q-70 -147 -207.5 -238.5t-308.5 -91.5l-51 -71q62 9 84 8
q81 -8 125 -61.5t31 -137.5q-18 -97 -96 -154t-175 -57q-84 0 -141.5 42t-69.5 118l131 39q14 -78 99 -78q43 0 77.5 24.5t43.5 67.5q6 41 -17.5 64.5t-68.5 23.5t-103 -36l-92 65l104 156q-170 39 -254.5 180t-48.5 344z" />
    <glyph glyph-name="egrave" unicode="&#xe8;" horiz-adv-x="1126" 
d="M14 512q41 237 206 386t388 149q146 0 244.5 -68t135.5 -188t9 -275q-11 -60 -14 -70h-768q-19 -130 45 -214.5t195 -84.5q101 0 180 51t119 126l174 -50q-65 -135 -201 -217t-301 -82q-226 0 -340.5 148t-71.5 389zM246 598h555q15 123 -46.5 197.5t-181.5 74.5
t-210 -76.5t-117 -195.5zM344 1448h256l141 -299h-206z" />
    <glyph glyph-name="eacute" unicode="&#xe9;" horiz-adv-x="1128" 
d="M14 512q41 237 206 386t388 149q146 0 244.5 -68t135.5 -188t9 -275q-11 -60 -14 -70h-768q-19 -130 45 -214.5t195 -84.5q101 0 180 51t119 126l174 -50q-65 -135 -201 -217t-301 -82q-226 0 -340.5 148t-71.5 389zM246 598h555q15 123 -46.5 197.5t-181.5 74.5
t-210 -76.5t-117 -195.5zM504 1153l248 299h252l-297 -299h-203z" />
    <glyph glyph-name="ecircumflex" unicode="&#xea;" horiz-adv-x="1126" 
d="M14 512q41 237 206 386t388 149q146 0 244.5 -68t135.5 -188t9 -275q-11 -60 -14 -70h-768q-19 -130 45 -214.5t195 -84.5q101 0 180 51t119 126l174 -50q-65 -135 -201 -217t-301 -82q-226 0 -340.5 148t-71.5 389zM246 598h555q15 123 -46.5 197.5t-181.5 74.5
t-210 -76.5t-117 -195.5zM295 1139l264 258h223l179 -258h-211l-99 143l-143 -143h-213z" />
    <glyph glyph-name="edieresis" unicode="&#xeb;" horiz-adv-x="1126" 
d="M14 512q41 237 206 386t388 149q146 0 244.5 -68t135.5 -188t9 -275q-11 -60 -14 -70h-768q-19 -130 45 -214.5t195 -84.5q101 0 180 51t119 126l174 -50q-65 -135 -201 -217t-301 -82q-226 0 -340.5 148t-71.5 389zM246 598h555q15 123 -46.5 197.5t-181.5 74.5
t-210 -76.5t-117 -195.5zM311 1260q10 56 57 94.5t103 38.5q57 0 89 -39.5t24 -93.5q-9 -58 -56 -99t-104 -41t-90.5 41.5t-22.5 98.5zM705 1260q10 57 56 95t103 38t88.5 -39.5t22.5 -93.5q-9 -58 -55 -99t-103 -41q-58 0 -90.5 41t-21.5 99z" />
    <glyph glyph-name="igrave" unicode="&#xec;" horiz-adv-x="522" 
d="M16 0l181 1024h204l-180 -1024h-205zM25 1438h256l143 -299h-207z" />
    <glyph glyph-name="iacute" unicode="&#xed;" horiz-adv-x="507" 
d="M12 0l181 1024h202l-180 -1024h-203zM205 1143l246 299h251l-294 -299h-203z" />
    <glyph glyph-name="icircumflex" unicode="&#xee;" horiz-adv-x="516" 
d="M-23 1128l265 256h223l178 -256h-209l-98 144l-146 -144h-213zM10 0l180 1024h205l-180 -1024h-205z" />
    <glyph glyph-name="idieresis" unicode="&#xef;" horiz-adv-x="618" 
d="M49 1247q11 56 57.5 94.5t104.5 38.5q55 0 87.5 -38.5t23.5 -94.5q-10 -58 -57 -97.5t-103 -39.5q-57 0 -90 39t-23 98zM66 0l180 1024h203l-181 -1024h-202zM442 1247q11 56 57 94.5t103 38.5t89.5 -38.5t21.5 -94.5q-9 -58 -55.5 -97.5t-104.5 -39.5q-56 0 -88.5 39
t-22.5 98z" />
    <glyph glyph-name="eth" unicode="&#xf0;" horiz-adv-x="1314" 
d="M14 510q38 231 195 380.5t362 149.5q122 0 199.5 -54t99.5 -132h11l45 256h-185l29 154h182l29 159h209l-29 -159h158l-27 -154h-157l-195 -1110h-209l29 164h-10q-51 -78 -147.5 -132.5t-217.5 -54.5q-202 0 -307 151t-64 382zM221 512q-29 -160 38 -258t198 -98t235 96
t133 256q27 160 -42 258t-201 98q-130 0 -231 -96.5t-130 -255.5z" />
    <glyph glyph-name="ntilde" unicode="&#xf1;" horiz-adv-x="1200" 
d="M4 0l180 1024h207l-29 -166h9q56 87 149.5 139t210.5 52q167 0 252 -103.5t53 -283.5l-116 -662h-207l106 612q19 108 -24 182t-160 74q-123 0 -211.5 -83t-114.5 -228l-98 -557h-207zM342 1143l2 12q13 110 78 170.5t153 60.5q80 0 148 -63q4 -3 14 -12t14 -12.5
t12.5 -10t14.5 -9t14 -5t15 -2.5q25 0 47 19.5t27 64.5l4 18h135l-2 -10q-12 -110 -75 -173t-150 -63q-84 0 -142 62q-55 55 -90 57q-29 0 -51.5 -23t-26.5 -61l-4 -20h-137z" />
    <glyph glyph-name="ograve" unicode="&#xf2;" horiz-adv-x="1179" 
d="M14 512q41 237 214 386t401 149q226 0 344.5 -149t77.5 -386q-41 -236 -213 -385.5t-398 -149.5q-228 0 -347.5 149.5t-78.5 385.5zM223 514q-30 -163 40 -259.5t206 -96.5t241.5 95t135.5 261q27 162 -43.5 258t-206.5 96q-133 0 -238 -94.5t-135 -259.5zM356 1440h256
l144 -299h-207z" />
    <glyph glyph-name="oacute" unicode="&#xf3;" horiz-adv-x="1179" 
d="M14 512q41 237 214 386t401 149q226 0 344.5 -149t77.5 -386q-41 -236 -213 -385.5t-398 -149.5q-228 0 -347.5 149.5t-78.5 385.5zM223 514q-30 -163 40 -259.5t206 -96.5t241.5 95t135.5 261q27 162 -43.5 258t-206.5 96q-133 0 -238 -94.5t-135 -259.5zM522 1145
l246 299h252l-297 -299h-201z" />
    <glyph glyph-name="ocircumflex" unicode="&#xf4;" horiz-adv-x="1179" 
d="M14 512q41 237 214 386t401 149q226 0 344.5 -149t77.5 -386q-41 -236 -213 -385.5t-398 -149.5q-228 0 -347.5 149.5t-78.5 385.5zM223 514q-30 -163 40 -259.5t206 -96.5t241.5 95t135.5 261q27 162 -43.5 258t-206.5 96q-133 0 -238 -94.5t-135 -259.5zM307 1130
l266 256h224l176 -256h-209l-98 144l-146 -144h-213z" />
    <glyph glyph-name="otilde" unicode="&#xf5;" horiz-adv-x="1179" 
d="M14 512q41 237 214 386t401 149q226 0 344.5 -149t77.5 -386q-41 -236 -213 -385.5t-398 -149.5q-228 0 -347.5 149.5t-78.5 385.5zM223 514q-30 -163 40 -259.5t206 -96.5t241.5 95t135.5 261q27 162 -43.5 258t-206.5 96q-133 0 -238 -94.5t-135 -259.5zM313 1135l2 10
q11 111 76.5 172t153.5 61q79 0 149 -65q3 -2 11.5 -9.5t12 -10.5t11 -9t12 -8.5t11 -5.5t12.5 -4.5t12 -1.5q26 0 48 19.5t26 62.5l4 20h135l-2 -12q-12 -111 -75.5 -173.5t-149.5 -62.5q-79 0 -141 62q-52 57 -91 57q-29 2 -51 -21t-26 -63l-4 -18h-136z" />
    <glyph glyph-name="odieresis" unicode="&#xf6;" horiz-adv-x="1179" 
d="M14 512q41 237 214 386t401 149q226 0 344.5 -149t77.5 -386q-41 -236 -213 -385.5t-398 -149.5q-228 0 -347.5 149.5t-78.5 385.5zM223 514q-30 -163 40 -259.5t206 -96.5t241.5 95t135.5 261q27 162 -43.5 258t-206.5 96q-133 0 -238 -94.5t-135 -259.5zM328 1249
q9 55 55.5 94t103.5 39t88.5 -39t22.5 -94q-9 -58 -55.5 -97.5t-102.5 -39.5q-59 0 -91 40.5t-21 96.5zM719 1249q11 56 57.5 94.5t104.5 38.5q57 0 88 -39t22 -94q-10 -58 -56.5 -97.5t-103.5 -39.5q-58 0 -89.5 40.5t-22.5 96.5z" />
    <glyph glyph-name="divide" unicode="&#xf7;" horiz-adv-x="1130" 
d="M63 616l31 170h926l-31 -170h-926zM352 356q9 55 54 92t100 37t86 -37.5t22 -91.5q-9 -55 -53 -94t-100 -39q-57 0 -88.5 38.5t-20.5 94.5zM477 1051q9 53 53 89t99 36q53 0 83 -36.5t21 -90.5q-9 -55 -53.5 -92t-99.5 -37t-83.5 39t-19.5 92z" />
    <glyph glyph-name="oslash" unicode="&#xf8;" horiz-adv-x="1224" 
d="M-53 37l137 135q-82 144 -45 340q41 237 213 386t399 149q146 0 254 -68l119 117l119 -113l-121 -119q90 -145 53 -352q-41 -235 -213 -385t-399 -150q-153 0 -266 74l-129 -127zM246 514q-18 -101 4 -180l508 500q-58 34 -137 34q-134 0 -239 -94.5t-136 -259.5z
M346 199q59 -41 148 -41q134 0 240 95t134 261q18 113 -8 191z" />
    <glyph glyph-name="ugrave" unicode="&#xf9;" horiz-adv-x="1198" 
d="M57 362l117 662h207l-109 -612q-11 -48 -5 -94t24.5 -82t60 -58t101.5 -22q128 0 217 89.5t114 233.5l99 545h207l-181 -1024h-207l29 172h-10q-126 -197 -359 -197q-170 0 -253.5 103.5t-51.5 283.5zM385 1427h256l143 -299h-206z" />
    <glyph glyph-name="uacute" unicode="&#xfa;" horiz-adv-x="1198" 
d="M57 362l117 662h207l-109 -612q-11 -48 -5 -94t24.5 -82t60 -58t101.5 -22q128 0 217 89.5t114 233.5l99 545h207l-181 -1024h-207l29 172h-10q-126 -197 -359 -197q-170 0 -253.5 103.5t-51.5 283.5zM541 1133l245 299h252l-295 -299h-202z" />
    <glyph glyph-name="ucircumflex" unicode="&#xfb;" horiz-adv-x="1198" 
d="M57 362l117 662h207l-109 -612q-11 -48 -5 -94t24.5 -82t60 -58t101.5 -22q128 0 217 89.5t114 233.5l99 545h207l-181 -1024h-207l29 172h-10q-126 -197 -359 -197q-170 0 -253.5 103.5t-51.5 283.5zM317 1118l265 256h223l178 -256h-211l-96 144l-146 -144h-213z" />
    <glyph glyph-name="udieresis" unicode="&#xfc;" horiz-adv-x="1198" 
d="M57 362l117 662h207l-109 -612q-11 -48 -5 -94t24.5 -82t60 -58t101.5 -22q128 0 217 89.5t114 233.5l99 545h207l-181 -1024h-207l29 172h-10q-126 -197 -359 -197q-170 0 -253.5 103.5t-51.5 283.5zM342 1237q9 55 56 94t104 39t88 -39t22 -94q-9 -58 -55 -97.5
t-102 -39.5q-59 0 -91.5 40.5t-21.5 96.5zM733 1237q11 56 57.5 94.5t104.5 38.5q57 0 88.5 -39t22.5 -94q-10 -58 -56.5 -97.5t-103.5 -39.5q-58 0 -90 40.5t-23 96.5z" />
    <glyph glyph-name="yacute" unicode="&#xfd;" horiz-adv-x="1073" 
d="M-158 -397l31 178h180q68 3 109 37t82 106l37 66l-234 1036h223l156 -790h10l416 790l238 -2l-664 -1159q-65 -113 -158 -187.5t-215 -74.5h-211zM471 1133l246 299h252l-295 -299h-203z" />
    <glyph glyph-name="thorn" unicode="&#xfe;" horiz-adv-x="1241" 
d="M-68 -389l322 1812h207l-99 -563h11q53 79 148.5 133t217.5 54q203 0 308.5 -150t62.5 -385q-41 -234 -196.5 -381t-360.5 -147q-123 0 -199 53.5t-102 132.5h-10l-101 -559h-209zM299 518q-29 -158 40 -257t202 -99q131 0 233 96.5t129 255.5q29 160 -40.5 257
t-198.5 97q-131 0 -234.5 -97t-130.5 -253z" />
    <glyph glyph-name="ydieresis" unicode="&#xff;" horiz-adv-x="1062" 
d="M-158 -397l31 178h180q68 3 109 37t82 106l37 66l-234 1036h223l156 -790h10l416 790l238 -2l-664 -1159q-65 -113 -158 -187.5t-215 -74.5h-211zM266 1237q9 55 56 94t104 39t88.5 -39t22.5 -94q-9 -58 -55.5 -97.5t-102.5 -39.5q-59 0 -91.5 40.5t-21.5 96.5zM657 1237
q11 56 57.5 94.5t104.5 38.5q57 0 88.5 -39t22.5 -94q-10 -58 -56.5 -97.5t-103.5 -39.5q-58 0 -90 40.5t-23 96.5z" />
    <glyph glyph-name="OE" unicode="&#x152;" horiz-adv-x="2355" 
d="M57 702q38 216 159.5 382t294.5 253.5t370 87.5q153 0 273.5 -54t197.5 -154l32 186h957l-35 -191h-733l-72 -405h658l-31 -191h-660l-75 -426h733l-33 -190h-956l32 186q-114 -101 -253.5 -155t-288.5 -54q-145 0 -263.5 51t-197 143.5t-108.5 230t-1 300.5zM276.5 482
q19.5 -98 72 -166t133 -104t180.5 -36q205 0 365.5 142.5t203.5 383.5q42 240 -66.5 384.5t-316.5 144.5t-367.5 -143t-201.5 -383q-22 -125 -2.5 -223z" />
    <glyph glyph-name="oe" unicode="&#x153;" horiz-adv-x="1957" 
d="M14 512q41 237 214 386t401 149q129 0 225.5 -51t151.5 -144q83 93 194 144t238 51q222 0 327.5 -147.5t63.5 -383.5q-11 -60 -14 -70h-771q-19 -130 45.5 -214.5t196.5 -84.5q101 0 179 50.5t120 126.5l172 -50q-64 -135 -199 -217t-301 -82q-130 0 -225 51.5
t-147 145.5q-86 -92 -201 -143.5t-244 -51.5q-228 0 -347.5 149.5t-78.5 385.5zM223 514q-30 -163 40 -259.5t206 -96.5t241.5 95t135.5 261q27 162 -43.5 258t-206.5 96q-133 0 -238 -94.5t-135 -259.5zM1075 598h555q15 123 -45.5 197.5t-179.5 74.5q-120 0 -211.5 -77
t-118.5 -195z" />
    <glyph glyph-name="Ydieresis" unicode="&#x178;" horiz-adv-x="1284" 
d="M113 1403h247l263 -639h10l493 639h248l-669 -842l-99 -561h-223l98 561zM446 1628q11 56 57 95.5t103 39.5t89.5 -39.5t23.5 -95.5q-11 -57 -58 -97t-104 -40t-89.5 40t-21.5 97zM840 1628q9 56 55 95.5t104 39.5q56 0 88.5 -40t22.5 -95q-9 -57 -56 -97t-104 -40
t-89 40t-21 97z" />
    <glyph glyph-name="circumflex" unicode="&#x2c6;" horiz-adv-x="782" 
d="M121 1186l264 258h223l178 -258h-211l-96 143l-145 -143h-213z" />
    <glyph glyph-name="tilde" unicode="&#x2dc;" horiz-adv-x="739" 
d="M123 1257l2 11q13 111 78 172t153 61q35 0 66.5 -12t46.5 -23.5t35 -29.5q2 -2 10 -8.5t10.5 -9t10 -8.5t11 -8l10.5 -6t11.5 -5.5t10.5 -3t12 -1.5q25 0 46.5 19.5t25.5 62.5l4 21h137l-2 -12q-12 -109 -76 -172.5t-150 -63.5q-81 0 -143 62q-50 57 -90 57
q-29 2 -51.5 -21t-26.5 -63l-4 -19h-137z" />
    <glyph glyph-name="uni2000" unicode="&#x2000;" horiz-adv-x="951" 
 />
    <glyph glyph-name="uni2001" unicode="&#x2001;" horiz-adv-x="1903" 
 />
    <glyph glyph-name="uni2002" unicode="&#x2002;" horiz-adv-x="951" 
 />
    <glyph glyph-name="uni2003" unicode="&#x2003;" horiz-adv-x="1903" 
 />
    <glyph glyph-name="uni2004" unicode="&#x2004;" horiz-adv-x="634" 
 />
    <glyph glyph-name="uni2005" unicode="&#x2005;" horiz-adv-x="475" 
 />
    <glyph glyph-name="uni2006" unicode="&#x2006;" horiz-adv-x="317" 
 />
    <glyph glyph-name="uni2007" unicode="&#x2007;" horiz-adv-x="317" 
 />
    <glyph glyph-name="uni2008" unicode="&#x2008;" horiz-adv-x="237" 
 />
    <glyph glyph-name="uni2009" unicode="&#x2009;" horiz-adv-x="380" 
 />
    <glyph glyph-name="uni200A" unicode="&#x200a;" horiz-adv-x="105" 
 />
    <glyph glyph-name="uni2010" unicode="&#x2010;" horiz-adv-x="974" 
d="M39 563l31 176h798l-30 -176h-799z" />
    <glyph glyph-name="uni2011" unicode="&#x2011;" horiz-adv-x="974" 
d="M39 563l31 176h798l-30 -176h-799z" />
    <glyph glyph-name="figuredash" unicode="&#x2012;" horiz-adv-x="974" 
d="M39 563l31 176h798l-30 -176h-799z" />
    <glyph glyph-name="endash" unicode="&#x2013;" horiz-adv-x="1347" 
d="M72 537l32 178h1096l-33 -178h-1095z" />
    <glyph glyph-name="emdash" unicode="&#x2014;" horiz-adv-x="2230" 
d="M92 537l33 178h1937l-32 -178h-1938z" />
    <glyph glyph-name="quoteleft" unicode="&#x2018;" horiz-adv-x="423" 
d="M156 1311q19 106 94.5 177t189.5 83l2 -92q-62 -9 -105 -43t-52 -76q18 4 43 4q52 0 79.5 -31.5t18.5 -83.5q-10 -58 -53.5 -91.5t-102.5 -33.5q-70 0 -100.5 49.5t-13.5 137.5z" />
    <glyph glyph-name="quoteright" unicode="&#x2019;" horiz-adv-x="423" 
d="M162 1217q62 9 105.5 42.5t54.5 75.5q-20 -4 -46 -4q-50 0 -78 31t-18 84q9 58 51.5 91.5t102.5 33.5q68 0 100 -48.5t17 -133.5q-19 -108 -96.5 -181.5t-190.5 -83.5z" />
    <glyph glyph-name="quotesinglbase" unicode="&#x201a;" horiz-adv-x="423" 
d="M-78 -131q63 9 107 44t55 77q-20 -4 -45 -4q-51 0 -79 30t-19 84q10 58 53 91.5t102 33.5q68 0 100 -48.5t17 -133.5q-19 -109 -96 -181.5t-191 -84.5z" />
    <glyph glyph-name="quotedblleft" unicode="&#x201c;" horiz-adv-x="765" 
d="M145 1257q21 108 97 180.5t188 82.5l4 -93q-62 -9 -106.5 -43t-53.5 -75q18 4 45 4q50 0 78 -31.5t19 -83.5q-9 -58 -51.5 -91.5t-102.5 -33.5q-68 0 -100 48.5t-17 135.5zM487 1257q21 107 97.5 180t187.5 83l4 -93q-61 -9 -105 -43t-53 -75q16 4 44 4q49 0 77 -30.5
t19 -84.5q-9 -58 -51.5 -91.5t-102.5 -33.5q-68 0 -100 48.5t-17 135.5z" />
    <glyph glyph-name="quotedblright" unicode="&#x201d;" horiz-adv-x="763" 
d="M152 1165q62 9 106 43t53 76q-18 -4 -45 -4q-49 0 -77 30.5t-19 84.5q10 58 52.5 91.5t101.5 33.5q68 0 99.5 -48.5t16.5 -134.5q-19 -108 -95.5 -181t-188.5 -83zM496 1165q61 9 104.5 43.5t52.5 75.5q-18 -4 -45 -4q-49 0 -77 30.5t-19 84.5q10 58 52.5 91.5
t101.5 33.5q68 0 99.5 -48.5t16.5 -134.5q-19 -108 -95.5 -181t-188.5 -83z" />
    <glyph glyph-name="quotedblbase" unicode="&#x201e;" horiz-adv-x="765" 
d="M-78 -131q62 9 106.5 44t53.5 77q-18 -4 -43 -4q-51 0 -79 30t-19 84q10 58 52.5 91.5t100.5 33.5q68 0 101 -48.5t18 -133.5q-19 -108 -96 -181t-191 -85zM266 -131q62 9 106.5 44t53.5 77q-18 -4 -45 -4q-50 0 -78 30.5t-18 83.5q9 58 51.5 91.5t101.5 33.5
q68 0 100 -48.5t17 -133.5q-19 -109 -96 -181.5t-191 -84.5z" />
    <glyph glyph-name="bullet" unicode="&#x2022;" horiz-adv-x="677" 
d="M98 672q15 88 87 149.5t161 61.5q88 0 138.5 -61.5t35.5 -149.5t-87.5 -149.5t-160.5 -61.5q-89 0 -139 61.5t-35 149.5z" />
    <glyph glyph-name="ellipsis" unicode="&#x2026;" horiz-adv-x="1527" 
d="M39 121q9 56 55.5 94.5t104.5 38.5q57 0 88 -39t22 -94q-9 -58 -55 -98.5t-102 -40.5q-59 0 -91.5 41t-21.5 98zM504 121q9 56 55.5 94.5t104.5 38.5q57 0 88 -39t22 -94q-9 -58 -55.5 -98.5t-102.5 -40.5q-59 0 -91 41t-21 98zM965 121q11 56 56.5 94.5t102.5 38.5
q58 0 90 -39t23 -94q-11 -59 -57 -99t-103 -40t-89 41t-23 98z" />
    <glyph glyph-name="uni202F" unicode="&#x202f;" horiz-adv-x="380" 
 />
    <glyph glyph-name="guilsinglleft" unicode="&#x2039;" horiz-adv-x="634" 
d="M10 592l379 377h234l-379 -377l248 -377h-236z" />
    <glyph glyph-name="guilsinglright" unicode="&#x203a;" horiz-adv-x="634" 
d="M-76 215l379 377l-246 377h234l246 -377l-377 -377h-236z" />
    <glyph glyph-name="uni205F" unicode="&#x205f;" horiz-adv-x="475" 
 />
    <glyph glyph-name="Euro" unicode="&#x20ac;" horiz-adv-x="1546" 
d="M8 467l49 162h125q1 8 11 78l12 61h-142l50 162h141q96 240 282 373t420 133q220 0 345.5 -115t150.5 -303l-211 -60q-18 130 -99.5 207.5t-223.5 77.5q-143 0 -258 -80.5t-183 -232.5h514l-49 -162h-518q-6 -27 -12 -57q-2 -16 -6.5 -43.5t-6.5 -38.5h539l-49 -162h-488
q20 -141 105 -217t223 -76q141 0 251.5 79.5t176.5 211.5l189 -59q-93 -191 -262 -310t-390 -119q-225 0 -364 129t-154 361h-168z" />
    <glyph glyph-name="trademark" unicode="&#x2122;" horiz-adv-x="1261" 
d="M143 1313l19 100h477l-16 -100h-185l-71 -406h-111l72 406h-185zM610 909l90 504h131l80 -348l201 348h131l-92 -504h-109l56 301l-168 -301h-96l-60 303l-53 -303h-111z" />
    <glyph glyph-name="uni25FC" unicode="&#x25fc;" horiz-adv-x="1024" 
d="M0 0v1024h1024v-1024h-1024z" />
    </font>
</defs>
</svg>
