<?xml version="1.0" standalone="no"?>
<!DOCTYPE svg PUBLIC "-//W3C//DTD SVG 1.1//EN" "http://www.w3.org/Graphics/SVG/1.1/DTD/svg11.dtd" >
<svg xmlns="http://www.w3.org/2000/svg" xmlns:xlink="http://www.w3.org/1999/xlink" version="1.1">
<metadata>
Created by FontForge 20170731 at Fri Jul 14 18:49:01 2023
 By Aleksey,,,
Copyright (c) 2022 by Studio Few. All rights reserved.
</metadata>
<defs>
<font id="FTSterling-Light" horiz-adv-x="1163" >
  <font-face 
    font-family="FT Sterling Light"
    font-weight="300"
    font-stretch="normal"
    units-per-em="2048"
    panose-1="0 0 0 0 0 0 0 0 0 0"
    ascent="1638"
    descent="-410"
    x-height="1024"
    cap-height="1403"
    bbox="-92 -543 2212 1851"
    underline-thickness="102"
    underline-position="-357"
    unicode-range="U+0020-25FC"
  />
<missing-glyph horiz-adv-x="748" 
d="M68 0v1365h544v-1365h-544zM136 68h408v1229h-408v-1229z" />
    <glyph glyph-name=".notdef" horiz-adv-x="748" 
d="M68 0v1365h544v-1365h-544zM136 68h408v1229h-408v-1229z" />
    <glyph glyph-name="glyph1" horiz-adv-x="0" 
 />
    <glyph glyph-name="glyph2" horiz-adv-x="682" 
 />
    <glyph glyph-name="space" unicode=" " horiz-adv-x="612" 
 />
    <glyph glyph-name="exclam" unicode="!" horiz-adv-x="571" 
d="M184 88q0 41 30 70.5t73 29.5q41 0 70.5 -29.5t29.5 -70.5q0 -43 -29.5 -72.5t-70.5 -29.5q-43 0 -73 29.5t-30 72.5zM215 1403h137l-12 -1022h-113z" />
    <glyph glyph-name="quotedbl" unicode="&#x22;" horiz-adv-x="550" 
d="M82 1483h151l-16 -353h-119zM317 1483h152l-16 -353h-119z" />
    <glyph glyph-name="numbersign" unicode="#" horiz-adv-x="1490" 
d="M102 365l15 108h274l76 490h-283l15 108h284l54 367h122l-53 -367h379l53 367h123l-53 -367h281l-15 -108h-280l-72 -490h287l-15 -108h-286l-52 -365h-122l51 365h-385l-58 -365h-123l58 365h-275zM514 473h385l72 490h-381z" />
    <glyph glyph-name="dollar" unicode="$" horiz-adv-x="1249" 
d="M78 379l131 29q19 -126 115 -206.5t245 -95.5v560l-149 24q-137 24 -220 116t-83 228q0 161 126 268.5t326 118.5v84h127v-86q153 -18 261 -98.5t143 -226.5l-131 -25q-50 195 -273 229v-526l86 -14q39 -6 75 -16.5t78.5 -28t76.5 -44.5t63.5 -62.5t45.5 -87t16 -113.5
q0 -171 -118 -284t-323 -132v-96h-127v94q-201 12 -331 114t-160 277zM252 1036q0 -91 56 -150.5t151 -74.5l110 -18v510q-139 -9 -228 -84t-89 -183zM696 109q142 15 225 93t83 193q0 50 -15 89.5t-37.5 64t-56.5 42.5t-64 27t-67 15l-68 12v-536z" />
    <glyph glyph-name="percent" unicode="%" horiz-adv-x="1558" 
d="M113 1079q0 145 91 239.5t230 94.5q140 0 232 -94t92 -236q0 -144 -92 -237.5t-232 -93.5t-230.5 92.5t-90.5 234.5zM225 0l987 1403h144l-987 -1403h-144zM229 1079q0 -96 58 -160.5t147 -64.5q87 0 144 64.5t57 160.5t-57 161t-144 65q-89 0 -147 -65t-58 -161z
M821 299q0 145 91 239.5t231 94.5q139 0 231 -93.5t92 -236.5q0 -144 -91.5 -238t-231.5 -94t-231 93t-91 235zM938 299q0 -96 58 -160.5t147 -64.5q87 0 143.5 64.5t56.5 160.5t-56.5 160.5t-143.5 64.5q-89 0 -147 -64.5t-58 -160.5z" />
    <glyph glyph-name="ampersand" unicode="&#x26;" horiz-adv-x="1394" 
d="M143 369q0 267 316 415q-5 6 -36 40t-43.5 49.5t-37.5 51.5t-36.5 63t-21.5 67t-10 80q0 142 100.5 233.5t258.5 91.5q155 0 254.5 -88t99.5 -223q0 -67 -26.5 -126t-75.5 -107t-104 -84.5t-126 -71.5l369 -383q63 92 84 274l135 -6q-30 -225 -121 -366l189 -187l-88 -92
l-164 168q-82 -97 -198 -149t-253 -52q-207 0 -336 111t-129 291zM276 373q0 -124 91 -206.5t241 -82.5q107 0 202 45.5t159 128.5l-428 442h-11q-254 -134 -254 -327zM408 1128q0 -123 153 -280h10q64 31 108.5 58t86 63t63 80t21.5 96q0 92 -57.5 148.5t-153.5 56.5
q-102 0 -166.5 -64t-64.5 -158z" />
    <glyph glyph-name="quotesingle" unicode="'" horiz-adv-x="315" 
d="M82 1483h151l-16 -353h-119z" />
    <glyph glyph-name="parenleft" unicode="(" horiz-adv-x="540" 
d="M113 664q0 257 75.5 483.5t196.5 400.5h150q-128 -184 -207.5 -417.5t-79.5 -466.5q0 -236 81 -474.5t212 -429.5h-150q-122 180 -200 413.5t-78 490.5z" />
    <glyph glyph-name="parenright" unicode=")" horiz-adv-x="540" 
d="M0 -240q131 191 212 429.5t81 474.5q0 233 -79.5 466.5t-207.5 417.5h150q121 -174 196.5 -400.5t75.5 -483.5t-78 -490.5t-200 -413.5h-150z" />
    <glyph glyph-name="asterisk" unicode="*" horiz-adv-x="579" 
d="M72 1243l26 86l148 -57l-4 166h92l-2 -164l149 55l27 -86l-152 -47l101 -127l-70 -53l-98 133l-92 -131l-74 53l98 125z" />
    <glyph glyph-name="plus" unicode="+" horiz-adv-x="1191" 
d="M113 645v107h422v462h122v-462h422v-107h-422v-481h-122v481h-422z" />
    <glyph glyph-name="comma" unicode="," horiz-adv-x="493" 
d="M143 61q0 43 28 69t69 26q52 0 81 -38.5t29 -103.5q0 -75 -46.5 -130.5t-121.5 -67.5l-18 63q48 8 77 39t29 59q-12 -4 -28 -4q-42 0 -70.5 23t-28.5 65z" />
    <glyph glyph-name="hyphen" unicode="-" horiz-adv-x="983" 
d="M92 629v110h799v-110h-799z" />
    <glyph glyph-name="period" unicode="." horiz-adv-x="489" 
d="M143 88q0 41 30 70.5t73 29.5q41 0 70.5 -29.5t29.5 -70.5q0 -43 -29.5 -72.5t-70.5 -29.5q-43 0 -73 29.5t-30 72.5z" />
    <glyph glyph-name="slash" unicode="/" horiz-adv-x="989" 
d="M0 -244l844 1714h145l-842 -1714h-147z" />
    <glyph glyph-name="zero" unicode="0" horiz-adv-x="1277" 
d="M102 702q0 339 145.5 530t393.5 191q249 0 392 -192t143 -526q0 -338 -144 -531.5t-395 -193.5t-393 194.5t-142 527.5zM244 705q0 -272 103.5 -436.5t289.5 -164.5q184 0 290.5 162t106.5 439q0 278 -107.5 435.5t-289.5 157.5q-183 0 -288 -159t-105 -434z" />
    <glyph glyph-name="one" unicode="1" horiz-adv-x="667" 
d="M61 1137v77q150 9 225.5 52.5t100.5 136.5h127v-1403h-135v1137h-318z" />
    <glyph glyph-name="two" unicode="2" horiz-adv-x="1126" 
d="M72 0v119q0 78 22 146t56 117t85 92.5t98.5 71.5t106.5 56l197 92q62 28 101 51.5t80.5 60t62 86t20.5 112.5q0 132 -90.5 212t-237.5 80q-148 0 -236 -84t-112 -213l-129 23q21 177 153 289t333 112t331.5 -113t130.5 -298q0 -268 -299 -404l-190 -88q-37 -17 -58 -27
t-61.5 -32.5t-66 -42t-58 -50.5t-51 -62.5t-32 -74t-13.5 -88.5v-18h811v-125h-954z" />
    <glyph glyph-name="three" unicode="3" horiz-adv-x="1138" 
d="M96 352l129 21q27 -124 115.5 -198.5t228.5 -74.5q152 0 248 79.5t96 217.5q0 134 -101.5 207.5t-274.5 73.5h-119v113h112q160 0 247 69.5t87 192.5q0 122 -84.5 186t-222.5 64q-141 0 -222 -72.5t-97 -186.5l-125 21q5 70 37 133t87 114t140.5 81t189.5 30
q189 0 315 -97t126 -263q0 -65 -22 -121.5t-57 -94t-72 -62t-75 -37.5v-11q23 -4 53 -15t70.5 -37t73 -62t55.5 -96t23 -132q0 -128 -69 -224.5t-178.5 -143.5t-240.5 -47q-198 0 -325 107t-148 265z" />
    <glyph glyph-name="four" unicode="4" horiz-adv-x="1161" 
d="M72 352v127l641 924h198v-928h219v-125h-219v-350h-135v352h-704zM219 475h557v795h-10l-547 -785v-10z" />
    <glyph glyph-name="five" unicode="5" horiz-adv-x="1110" 
d="M80 315l115 37q32 -111 130.5 -181.5t223.5 -70.5q153 0 253.5 104t100.5 255q0 149 -99 245.5t-249 96.5q-200 0 -309 -168l-140 49l97 721h737v-123h-635l-69 -500h10q116 140 332 140q199 0 329.5 -130.5t130.5 -330.5q0 -130 -61 -239t-174.5 -174.5t-257.5 -65.5
q-181 0 -308.5 97t-156.5 238z" />
    <glyph glyph-name="six" unicode="6" horiz-adv-x="1196" 
d="M104 688q0 149 28.5 271.5t79 207.5t120 143.5t150 85.5t171.5 27q154 0 269.5 -73t146.5 -185l-117 -49q-82 184 -295 184q-202 0 -308.5 -165.5t-106.5 -448.5v-18h10q43 107 154.5 173t248.5 66q127 0 233 -55t170 -160t64 -239q0 -131 -58.5 -238.5t-171.5 -172.5
t-259 -65q-240 0 -384.5 186t-144.5 525zM285 442q0 -144 98.5 -244t257.5 -100q158 0 249 100.5t91 250.5q0 154 -92.5 244.5t-241.5 90.5q-156 0 -259 -97.5t-103 -244.5z" />
    <glyph glyph-name="seven" unicode="7" horiz-adv-x="985" 
d="M10 1280v123h965v-88q-171 -208 -283 -400.5t-184 -421t-94 -493.5h-148q34 359 167.5 671t363.5 599v10h-787z" />
    <glyph glyph-name="eight" unicode="8" horiz-adv-x="1128" 
d="M92 387q0 139 77.5 232.5t207.5 125.5v11q-108 33 -174 122t-66 197q0 148 119 248t307 100q189 0 308.5 -99.5t119.5 -248.5q0 -109 -66.5 -197t-174.5 -122v-11q129 -32 207.5 -125.5t78.5 -228.5q0 -183 -133 -297t-340 -114q-211 0 -341 115.5t-130 291.5zM233 393
q0 -128 90.5 -207.5t239.5 -79.5q150 0 241 79.5t91 207.5t-90 212.5t-242 84.5q-151 0 -240.5 -84.5t-89.5 -212.5zM281 1065q0 -104 78.5 -171t203.5 -67t205 67.5t80 170.5q0 105 -79 168t-206 63t-204.5 -63t-77.5 -168z" />
    <glyph glyph-name="nine" unicode="9" horiz-adv-x="1196" 
d="M74 948q0 97 34.5 183.5t96.5 151.5t155 102.5t203 37.5q240 0 384.5 -186t144.5 -524q0 -185 -43.5 -329t-120 -231.5t-174 -131.5t-211.5 -44q-154 0 -269.5 73.5t-146.5 185.5l117 49q39 -88 114 -136.5t181 -48.5q202 0 308.5 166t106.5 449v18h-10
q-43 -107 -154.5 -173t-248.5 -66q-127 0 -233 55t-170 160t-64 239zM215 952q0 -154 92.5 -245t241.5 -91q156 0 259 97.5t103 244.5q0 144 -99 244.5t-257 100.5t-249 -100.5t-91 -250.5z" />
    <glyph glyph-name="colon" unicode=":" horiz-adv-x="509" 
d="M154 102q0 42 30 71.5t72 29.5q41 0 70.5 -30t29.5 -71q0 -43 -29.5 -72.5t-70.5 -29.5q-43 0 -72.5 29.5t-29.5 72.5zM154 924q0 41 29.5 70.5t72.5 29.5q41 0 70.5 -29.5t29.5 -70.5q0 -43 -29.5 -73t-70.5 -30q-43 0 -72.5 30t-29.5 73z" />
    <glyph glyph-name="semicolon" unicode=";" horiz-adv-x="514" 
d="M154 78q0 43 27.5 68.5t68.5 25.5q52 0 81 -38t29 -103q0 -76 -46.5 -131.5t-120.5 -67.5l-19 64q48 8 77.5 39t29.5 59q-12 -4 -29 -4q-42 0 -70 23t-28 65zM158 924q0 41 29.5 70.5t72.5 29.5q41 0 70.5 -29.5t29.5 -70.5q0 -43 -29.5 -73t-70.5 -30q-43 0 -72.5 30
t-29.5 73z" />
    <glyph glyph-name="less" unicode="&#x3c;" horiz-adv-x="1021" 
d="M72 612v150l878 379v-133l-768 -316v-10l768 -315v-134z" />
    <glyph glyph-name="equal" unicode="=" horiz-adv-x="1165" 
d="M133 434v113h899v-113h-899zM133 836v112h899v-112h-899z" />
    <glyph glyph-name="greater" unicode="&#x3e;" horiz-adv-x="1021" 
d="M72 233v134l768 315v10l-768 316v133l878 -379v-150z" />
    <glyph glyph-name="question" unicode="?" horiz-adv-x="1024" 
d="M72 1036q22 173 146 280t310 107q187 0 305.5 -105.5t118.5 -275.5q0 -65 -17 -118t-52 -96t-63.5 -69t-74.5 -63q-12 -9 -18 -14q-45 -36 -70.5 -60t-54.5 -61.5t-41 -82.5t-8 -99h-129q-3 59 9.5 111.5t29.5 87t53.5 74.5t58.5 59.5t68 56.5q44 35 68 57.5t53.5 58
t43 75.5t13.5 88q0 116 -80.5 188t-212.5 72q-143 0 -230 -83.5t-101 -207.5zM391 88q0 41 30 70.5t73 29.5q41 0 70.5 -29.5t29.5 -70.5q0 -43 -29.5 -72.5t-70.5 -29.5q-43 0 -73 29.5t-30 72.5z" />
    <glyph glyph-name="at" unicode="@" horiz-adv-x="1402" 
d="M92 555q0 134 49 254.5t134 208t206 139t260 51.5q167 0 301.5 -71.5t211.5 -201t77 -292.5q0 -171 -82 -280t-215 -109q-153 0 -174 141h-10q-59 -147 -209 -147q-110 0 -180 77t-70 203q0 149 90.5 255t218.5 106q136 0 160 -129h10l11 119h135l-45 -404
q-12 -115 76 -115q72 0 119.5 78.5t47.5 202.5q0 204 -133 333.5t-342 129.5q-153 0 -273.5 -72.5t-185.5 -196t-65 -274.5q0 -146 60.5 -263.5t175.5 -186t264 -68.5h506v-104h-506q-140 0 -258 48.5t-197.5 132t-123.5 196t-44 239.5zM520 532q0 -81 40 -128.5t102 -47.5
q79 0 134.5 72.5t55.5 171.5q0 81 -38 129.5t-101 48.5q-80 0 -136.5 -72t-56.5 -174z" />
    <glyph glyph-name="A" unicode="A" horiz-adv-x="1320" 
d="M20 0l562 1403h153l565 -1403h-151l-156 395h-667l-158 -395h-148zM367 514h579l-282 731h-11z" />
    <glyph glyph-name="B" unicode="B" horiz-adv-x="1300" 
d="M184 0v1403h564q190 -6 301.5 -99.5t111.5 -242.5q0 -107 -59 -187.5t-168 -121.5v-19q115 -18 194.5 -106t79.5 -226q0 -174 -128.5 -287.5t-336.5 -113.5h-559zM319 123h392q182 0 268 75t86 203q0 131 -89 201t-235 70h-422v-549zM319 795h392q144 0 225.5 69.5
t81.5 184.5q0 114 -80.5 172.5t-235.5 58.5h-383v-485z" />
    <glyph glyph-name="C" unicode="C" horiz-adv-x="1427" 
d="M92 700q0 154 46 286t130.5 229t211 152.5t280.5 55.5q223 0 377 -113t209 -309l-132 -32q-51 155 -171 241t-287 86q-111 0 -207 -40t-167 -113.5t-112 -186t-41 -249.5q0 -266 145 -433.5t380 -167.5q165 0 285 88.5t175 256.5l127 -35q-61 -210 -215 -323t-368 -113
q-142 0 -264.5 51.5t-211.5 144t-139.5 228t-50.5 296.5z" />
    <glyph glyph-name="D" unicode="D" horiz-adv-x="1402" 
d="M184 0v1403h457q185 0 336.5 -83t242.5 -243.5t91 -369.5q0 -158 -53 -292t-143.5 -224t-213 -140.5t-260.5 -50.5h-457zM319 123h326q146 0 266 70t192.5 204.5t72.5 309.5q0 132 -42 241t-114.5 181t-169 111.5t-205.5 39.5h-326v-1157z" />
    <glyph glyph-name="E" unicode="E" horiz-adv-x="1220" 
d="M184 0v1403h914v-123h-779v-504h719v-123h-719v-530h779v-123h-914z" />
    <glyph glyph-name="F" unicode="F" horiz-adv-x="1148" 
d="M184 0v1403h903v-123h-768v-506h709v-123h-709v-651h-135z" />
    <glyph glyph-name="G" unicode="G" horiz-adv-x="1476" 
d="M92 702q0 162 49 297t136.5 228t209.5 144.5t265 51.5q147 0 271 -54.5t199.5 -140.5t100.5 -188l-135 -32q-40 122 -156 205t-289 83q-231 0 -372.5 -161.5t-141.5 -427.5q0 -173 60.5 -308t179 -214t276.5 -79q100 0 184 30t137 76t90.5 102t53 106t15.5 90v22
q0 40 -18.5 57t-59.5 17h-445v123h451q109 0 160 -51t51 -160v-518h-135v291h-10q-12 -40 -32 -78.5t-59 -82t-90 -75.5t-129.5 -53.5t-171.5 -21.5q-193 0 -340.5 92.5t-226 256t-78.5 373.5z" />
    <glyph glyph-name="H" unicode="H" horiz-adv-x="1435" 
d="M184 0v1403h135v-633h797v633h135v-1403h-135v643h-797v-643h-135z" />
    <glyph glyph-name="I" unicode="I" horiz-adv-x="503" 
d="M184 0v1403h135v-1403h-135z" />
    <glyph glyph-name="J" unicode="J" horiz-adv-x="712" 
d="M41 0v123h156q217 0 217 225v1055h135v-1055q0 -170 -89 -259t-263 -89h-156z" />
    <glyph glyph-name="K" unicode="K" horiz-adv-x="1294" 
d="M184 0v1403h135l3 -787h10l710 787h168l-530 -604l584 -799h-174l-508 696h-11l-249 -266l-3 -430h-135z" />
    <glyph glyph-name="L" unicode="L" horiz-adv-x="1069" 
d="M184 0v1403h135v-1280h699v-123h-834z" />
    <glyph glyph-name="M" unicode="M" horiz-adv-x="1748" 
d="M184 0v1403h197l481 -1264h10l496 1264h197v-1403h-135v1176h-11l-465 -1176h-176l-448 1174h-11v-1174h-135z" />
    <glyph glyph-name="N" unicode="N" horiz-adv-x="1501" 
d="M184 0v1403h176l811 -1217h11v1217h135v-1403h-176l-811 1217h-11v-1217h-135z" />
    <glyph glyph-name="O" unicode="O" horiz-adv-x="1525" 
d="M92 702q0 321 187 521t483 200q194 0 347 -90t239 -254.5t86 -376.5q0 -160 -50.5 -295t-139 -228.5t-213 -146t-269.5 -52.5q-296 0 -483 200t-187 522zM233 702q0 -269 145.5 -433.5t383.5 -164.5q239 0 384.5 164.5t145.5 433.5q0 266 -145.5 431t-384.5 165
q-237 0 -383 -165t-146 -431z" />
    <glyph glyph-name="P" unicode="P" horiz-adv-x="1218" 
d="M184 0v1403h535q195 0 316.5 -112.5t121.5 -295.5t-121.5 -297t-316.5 -114h-400v-584h-135zM319 707h396q139 0 221 78t82 208t-82 208.5t-221 78.5h-393z" />
    <glyph glyph-name="Q" unicode="Q" horiz-adv-x="1544" 
d="M92 702q0 157 50 291.5t138 228.5t212.5 147.5t269.5 53.5q146 0 270.5 -53.5t213 -147.5t138.5 -228.5t50 -291.5q0 -165 -53.5 -302.5t-153.5 -235.5q83 -70 186 -70h39v-114h-39q-174 0 -283 106q-157 -106 -368 -106q-193 0 -346 91.5t-238.5 256.5t-85.5 374z
M233 702q0 -262 147 -430t382 -168q162 0 289 84q-56 90 -124 135.5t-165 45.5h-39v116h39q130 0 220 -51.5t153 -154.5l6 -13q151 167 151 436q0 261 -147 428.5t-383 167.5q-235 0 -382 -167.5t-147 -428.5z" />
    <glyph glyph-name="R" unicode="R" horiz-adv-x="1363" 
d="M184 0v1403h547q215 0 329 -100.5t114 -278.5q0 -77 -21 -136t-58.5 -97t-75 -60t-85.5 -39v-10q43 -2 79 -15t68 -40t50 -76t18 -117v-434h-137v434q0 102 -52 139t-147 37h-498v-610h-131zM315 733h414q141 0 223 74.5t82 208.5q0 125 -80 194.5t-233 69.5h-404z" />
    <glyph glyph-name="S" unicode="S" horiz-adv-x="1249" 
d="M78 379l131 29q20 -139 135 -222.5t287 -83.5q169 0 271 82.5t102 210.5q0 50 -15 89.5t-37.5 64t-56.5 42.5t-64 27t-67 15l-344 57q-137 24 -220 116t-83 228q0 169 139 279t354 110q118 0 215.5 -32t173 -108t101.5 -189l-131 -25q-18 67 -56.5 116t-90 74t-104 36.5
t-110.5 11.5q-154 0 -255 -77.5t-101 -193.5q0 -91 56 -150.5t151 -74.5l323 -53q39 -6 75 -16.5t78.5 -28t76.5 -44.5t63.5 -62.5t45.5 -87t16 -113.5q0 -186 -138.5 -303t-375.5 -117q-223 0 -368 103t-177 290z" />
    <glyph glyph-name="T" unicode="T" horiz-adv-x="1187" 
d="M20 1284v119h1147v-119h-508v-1284h-131v1284h-508z" />
    <glyph glyph-name="U" unicode="U" horiz-adv-x="1413" 
d="M164 520v883h135v-883q0 -197 112 -304t296 -107t295.5 107t111.5 304v883h135v-883q0 -254 -148.5 -395t-393.5 -141q-247 0 -395 141t-148 395z" />
    <glyph glyph-name="V" unicode="V" horiz-adv-x="1333" 
d="M20 1403h154l488 -1231h10l487 1231h154l-576 -1403h-141z" />
    <glyph glyph-name="W" unicode="W" horiz-adv-x="1871" 
d="M31 1403h145l311 -1235h11l362 1235h148l362 -1237h10l312 1237h149l-387 -1403h-166l-350 1194h-10l-353 -1194h-165z" />
    <glyph glyph-name="X" unicode="X" horiz-adv-x="1327" 
d="M20 0l543 725l-508 678h158l432 -578h14l422 578h162l-491 -682l555 -721h-166l-479 623h-11l-463 -623h-168z" />
    <glyph glyph-name="Y" unicode="Y" horiz-adv-x="1234" 
d="M20 1403h158l432 -696h11l436 696h157l-530 -840v-563h-135v563z" />
    <glyph glyph-name="Z" unicode="Z" horiz-adv-x="1298" 
d="M92 0v127l944 1143v10h-932v123h1104v-129l-946 -1141v-10h955v-123h-1125z" />
    <glyph glyph-name="bracketleft" unicode="[" horiz-adv-x="634" 
d="M184 -248v1671h441v-118h-310v-1434h310v-119h-441z" />
    <glyph glyph-name="backslash" unicode="\" horiz-adv-x="989" 
d="M0 1470h145l844 -1714h-147z" />
    <glyph glyph-name="bracketright" unicode="]" horiz-adv-x="634" 
d="M10 -129h309v1434h-309v118h441v-1671h-441v119z" />
    <glyph glyph-name="asciicircum" unicode="^" horiz-adv-x="870" 
d="M53 786l307 617h150l307 -617h-127l-250 512h-10l-250 -512h-127z" />
    <glyph glyph-name="underscore" unicode="_" horiz-adv-x="1044" 
d="M31 0h983v-113h-983v113z" />
    <glyph glyph-name="grave" unicode="`" horiz-adv-x="522" 
d="M70 1505h176l207 -276h-148z" />
    <glyph glyph-name="a" unicode="a" horiz-adv-x="1073" 
d="M102 287q0 141 99 215.5t274 85.5l225 14q33 2 49.5 5t36 13t27.5 32t8 57q0 106 -78.5 165.5t-203.5 59.5q-118 0 -190.5 -53.5t-94.5 -137.5l-125 13q20 128 132.5 208t277.5 80q184 0 297.5 -91t113.5 -242v-711h-137l2 190h-10q-35 -93 -128 -153t-222 -60
q-158 0 -255.5 85.5t-97.5 224.5zM238 289q0 -90 63 -143.5t174 -53.5q155 0 250.5 102.5t95.5 247.5v74q-25 -14 -106 -20l-226 -17q-121 -8 -186 -53t-65 -137z" />
    <glyph glyph-name="b" unicode="b" horiz-adv-x="1204" 
d="M164 0v1423h129v-602h10q40 90 135.5 151.5t225.5 61.5q202 0 330 -147.5t128 -378.5q0 -233 -131 -382t-332 -149q-127 0 -222 60t-134 149h-10v-186h-129zM287 502q0 -186 102.5 -295t255.5 -109t249.5 110t96.5 300q0 186 -95.5 296.5t-248.5 110.5
q-157 0 -258.5 -114t-101.5 -299z" />
    <glyph glyph-name="c" unicode="c" horiz-adv-x="1087" 
d="M82 512q0 235 141.5 383.5t360.5 148.5q159 0 280.5 -82t157.5 -231l-125 -29q-35 108 -116.5 166t-192.5 58q-168 0 -269.5 -120t-101.5 -296q0 -181 104 -296.5t267 -115.5q110 0 196.5 58t124.5 170l117 -25q-41 -154 -164 -237.5t-282 -83.5q-214 0 -356 147
t-142 385z" />
    <glyph glyph-name="d" unicode="d" horiz-adv-x="1193" 
d="M82 508q0 231 128.5 378.5t330.5 147.5q130 0 225 -61.5t135 -151.5h10v602h129v-1423h-129v186h-10q-39 -89 -134 -149t-222 -60q-201 0 -332 149t-131 382zM213 508q0 -190 96.5 -300t249.5 -110t256 109t103 295q0 185 -102 299t-259 114q-153 0 -248.5 -110.5
t-95.5 -296.5z" />
    <glyph glyph-name="e" unicode="e" horiz-adv-x="1107" 
d="M84 506q0 236 129 386t350 150q218 0 340.5 -148t122.5 -382v-45h-813q5 -165 99 -269t259 -104q117 0 198 60.5t110 144.5l116 -33q-33 -118 -148.5 -203.5t-277.5 -85.5q-222 0 -353.5 146.5t-131.5 382.5zM219 582h676q-7 163 -98 252.5t-232 89.5t-239 -93.5
t-107 -248.5z" />
    <glyph glyph-name="f" unicode="f" horiz-adv-x="696" 
d="M41 909v115h199v154q0 124 68.5 188t189.5 64h157v-115h-139q-84 0 -115.5 -39.5t-31.5 -112.5v-139h274v-115h-274v-909h-129v909h-199z" />
    <glyph glyph-name="g" unicode="g" horiz-adv-x="1193" 
d="M92 522q0 155 62 275.5t167.5 185t235.5 64.5q128 0 221 -60t133 -149h11v186h129v-969q0 -214 -130.5 -332t-351.5 -118q-173 0 -295 78.5t-145 205.5l123 25q23 -90 112 -143.5t205 -53.5q161 0 257 87t96 247v162h-11q-40 -90 -134 -151.5t-224 -61.5q-201 0 -331 146
t-130 376zM223 522q0 -183 96 -293t248 -110q156 0 258.5 113.5t102.5 295.5t-103 290t-256 108q-152 0 -249 -109t-97 -295z" />
    <glyph glyph-name="h" unicode="h" 
d="M164 0v1423h129v-604h8q37 104 126 164.5t224 60.5q172 0 270.5 -99t98.5 -279v-666h-129v635q0 41 -7 79t-26 78t-49 69t-79 48t-112 19q-146 0 -235.5 -102.5t-89.5 -288.5v-537h-129z" />
    <glyph glyph-name="i" unicode="i" horiz-adv-x="432" 
d="M121 1323q0 38 28 66t68 28q38 0 66 -28t28 -66q0 -40 -28 -68t-66 -28q-40 0 -68 28t-28 68zM150 0v1024h129v-1024h-129z" />
    <glyph glyph-name="j" unicode="j" horiz-adv-x="473" 
d="M-31 -244h84q71 0 106.5 32.5t35.5 119.5v1116h129v-1126q0 -126 -68.5 -191t-177.5 -65h-109v114zM160 1325q0 38 28 66t68 28q38 0 66 -28t28 -66q0 -40 -28 -68t-66 -28q-40 0 -68 28t-28 68z" />
    <glyph glyph-name="k" unicode="k" horiz-adv-x="1021" 
d="M164 0v1423h129v-962h10l516 563h166l-387 -424l403 -600h-157l-336 502h-10l-205 -213v-289h-129z" />
    <glyph glyph-name="l" unicode="l" horiz-adv-x="456" 
d="M164 0v1423h129v-1423h-129z" />
    <glyph glyph-name="m" unicode="m" horiz-adv-x="1755" 
d="M164 0v1024h129v-209h10q34 103 118.5 166t207.5 63q119 0 195 -56t104 -163h10q95 219 338 219q162 0 249 -103t87 -275v-666h-129v635q0 53 -10.5 99.5t-35 92.5t-74 73.5t-118.5 27.5q-127 0 -203.5 -96.5t-76.5 -262.5v-569h-129v635q0 43 -5 80t-20.5 77.5t-40 69.5
t-68 47.5t-100.5 18.5q-137 0 -223 -110t-86 -302v-516h-129z" />
    <glyph glyph-name="n" unicode="n" 
d="M164 0v1024h129v-197h8q36 97 129.5 157t220.5 60q165 0 267 -100t102 -278v-666h-129v635q0 40 -8 78.5t-27.5 78t-49.5 69.5t-78.5 48.5t-109.5 18.5q-142 0 -233.5 -103.5t-91.5 -287.5v-537h-129z" />
    <glyph glyph-name="o" unicode="o" horiz-adv-x="1175" 
d="M82 510q0 236 144 385t364 149q219 0 361.5 -149t142.5 -385q0 -234 -142.5 -382t-361.5 -148q-220 0 -364 148t-144 382zM217 510q0 -185 104 -299.5t267 -114.5q164 0 269.5 114.5t105.5 299.5q0 186 -105 302t-268 116t-268 -116t-105 -302z" />
    <glyph glyph-name="p" unicode="p" horiz-adv-x="1204" 
d="M164 -379v1403h129v-186h10q39 89 134 149t222 60q201 0 332 -149t131 -382q0 -231 -128 -378.5t-330 -147.5q-130 0 -225.5 61.5t-135.5 151.5h-10v-582h-129zM287 522q0 -185 101.5 -299t258.5 -114q153 0 248.5 110.5t95.5 296.5q0 190 -96.5 300t-249.5 110
t-255.5 -109t-102.5 -295z" />
    <glyph glyph-name="q" unicode="q" horiz-adv-x="1193" 
d="M82 516q0 233 131 382t332 149q127 0 222 -60t134 -149h10v186h129v-1403h-129v582h-10q-40 -90 -135 -151.5t-225 -61.5q-202 0 -330.5 147.5t-128.5 378.5zM213 516q0 -186 95.5 -296.5t248.5 -110.5q157 0 259 114t102 299q0 186 -103 295t-256 109t-249.5 -110
t-96.5 -300z" />
    <glyph glyph-name="r" unicode="r" horiz-adv-x="751" 
d="M164 0v1024h129v-186h8q6 21 15.5 42t30.5 49t48.5 49t73 35.5t100.5 14.5h142v-123h-144q-132 0 -203 -81t-71 -230v-594h-129z" />
    <glyph glyph-name="s" unicode="s" horiz-adv-x="991" 
d="M72 266l127 25q16 -87 93.5 -143t201.5 -56q123 0 199.5 56t76.5 147q0 31 -8.5 55.5t-26.5 40t-33 26t-43 17.5t-39 9t-38 6l-238 38q-108 18 -176 86.5t-68 174.5q0 131 105.5 212.5t281.5 81.5q50 0 95.5 -7t93 -25.5t84.5 -47t66 -75t42 -105.5l-123 -26
q-53 174 -260 174q-64 0 -119 -16t-95 -57.5t-40 -102.5q0 -134 179 -160l217 -35q24 -4 37.5 -6t45.5 -11t53 -19t49.5 -30.5t45.5 -45t29 -62t12 -82.5q0 -150 -118 -238t-292 -88q-167 0 -282 78t-135 211z" />
    <glyph glyph-name="t" unicode="t" horiz-adv-x="806" 
d="M41 911v113h172q14 0 14 16v271l129 16v-303h334v-113h-334v-657q0 -66 31.5 -102.5t114.5 -36.5h213v-115h-240q-120 0 -184 63t-64 187v661h-186z" />
    <glyph glyph-name="u" unicode="u" 
d="M154 358v666h129v-635q0 -53 12.5 -101t41 -93t83.5 -72t131 -27q150 0 240 113.5t90 298.5v516h129v-1024h-129v205h-11q-41 -103 -127 -164t-221 -61q-173 0 -270.5 100.5t-97.5 277.5z" />
    <glyph glyph-name="v" unicode="v" horiz-adv-x="989" 
d="M20 1024h144l323 -889h11l325 889h146l-398 -1024h-157z" />
    <glyph glyph-name="w" unicode="w" horiz-adv-x="1452" 
d="M31 1024h141l227 -842h11l239 842h154l239 -842h11l227 842h141l-301 -1024h-137l-250 860h-10l-250 -860h-139z" />
    <glyph glyph-name="x" unicode="x" horiz-adv-x="987" 
d="M20 0l394 522l-379 502h149l303 -403h11l295 403h151l-369 -508l392 -516h-154l-309 422h-10l-320 -422h-154z" />
    <glyph glyph-name="y" unicode="y" horiz-adv-x="1015" 
d="M20 1024h142l346 -872h10l322 872h155l-463 -1143q-15 -38 -27 -63.5t-39 -66t-57 -65.5t-77 -44t-103 -19h-174v115h152q68 0 113.5 37t76.5 116l43 111z" />
    <glyph glyph-name="z" unicode="z" horiz-adv-x="1007" 
d="M82 0v113l674 786v10h-658v115h824v-115l-674 -784v-10h678v-115h-844z" />
    <glyph glyph-name="braceleft" unicode="{" horiz-adv-x="544" 
d="M92 500v104q51 26 82 57t46 76.5t19.5 90.5t4.5 120v355q0 109 60.5 178t166.5 69h64v-114h-35q-64 0 -96.5 -37t-32.5 -129v-352q0 -66 -4 -108.5t-18 -93t-47 -90t-85 -71.5v-10q42 -25 71.5 -57.5t45.5 -63.5t24.5 -75t10.5 -78.5t2 -86.5v-379q0 -89 32.5 -124
t96.5 -35h35v-117h-62q-106 0 -167.5 70.5t-61.5 181.5v373q0 154 -27.5 226t-124.5 120z" />
    <glyph glyph-name="bar" unicode="|" horiz-adv-x="495" 
d="M184 -246v1843h127v-1843h-127z" />
    <glyph glyph-name="braceright" unicode="}" horiz-adv-x="544" 
d="M10 -354h35q64 0 96.5 35t32.5 124v379q0 52 2 86.5t10.5 78.5t24.5 75t45.5 63.5t71.5 57.5v10q-52 32 -85 71.5t-47 90t-18 93t-4 108.5v352q0 92 -32.5 129t-96.5 37h-35v114h64q106 0 166.5 -69t60.5 -178v-355q0 -75 4.5 -120t19.5 -90.5t46 -76.5t82 -57v-104
q-97 -48 -124.5 -120t-27.5 -226v-373q0 -111 -61.5 -181.5t-167.5 -70.5h-62v117z" />
    <glyph glyph-name="uni00A0" unicode="&#xa0;" horiz-adv-x="612" 
 />
    <glyph glyph-name="exclamdown" unicode="&#xa1;" horiz-adv-x="501" 
d="M150 1130q0 43 29.5 73t72.5 30q41 0 70.5 -30t29.5 -73q0 -41 -29.5 -70.5t-70.5 -29.5q-43 0 -72.5 29.5t-29.5 70.5zM180 -184l13 1022h112l12 -1022h-137z" />
    <glyph glyph-name="cent" unicode="&#xa2;" horiz-adv-x="1136" 
d="M90 686q0 221 125.5 366.5t325.5 164.5v137h123v-140q136 -18 235.5 -98t130.5 -211l-125 -28q-29 91 -92 146.5t-149 70.5v-815q88 16 154.5 71.5t99.5 149.5l116 -25q-36 -135 -136 -216t-234 -99v-131h-123v127q-197 18 -324 162t-127 368zM225 684q0 -165 87 -276.5
t229 -131.5v820q-146 -20 -231 -135.5t-85 -276.5z" />
    <glyph glyph-name="sterling" unicode="&#xa3;" horiz-adv-x="1144" 
d="M133 604v123h133q-6 20 -30.5 77t-40 113.5t-15.5 118.5q0 179 126.5 294.5t320.5 115.5q176 0 302.5 -98t149.5 -263l-135 -26q-15 70 -49 123t-79.5 82.5t-93.5 44t-97 14.5q-77 0 -143.5 -30.5t-112 -98t-45.5 -160.5q0 -57 14.5 -111t38.5 -113.5t31 -82.5h503v-123
h-460q26 -82 26.5 -150t-26 -131.5t-60.5 -108.5t-76 -81v-10h779v-123h-959v123q280 207 170 481h-172z" />
    <glyph glyph-name="yen" unicode="&#xa5;" horiz-adv-x="1239" 
d="M-6 1403h158l432 -696h10l436 696h158l-514 -813h383v-111h-400v-117h400v-110h-400v-252h-135v252h-264v110h264v117h-264v111h248z" />
    <glyph glyph-name="brokenbar" unicode="&#xa6;" horiz-adv-x="495" 
d="M184 -240v766h127v-766h-127zM184 831v766h127v-766h-127z" />
    <glyph glyph-name="dieresis" unicode="&#xa8;" horiz-adv-x="716" 
d="M78 1319q0 41 29.5 70.5t72.5 29.5q41 0 71 -29.5t30 -70.5q0 -43 -29.5 -72.5t-71.5 -29.5q-43 0 -72.5 29.5t-29.5 72.5zM436 1319q0 41 30 70.5t73 29.5q41 0 70.5 -29.5t29.5 -70.5q0 -43 -29.5 -72.5t-70.5 -29.5q-43 0 -73 29.5t-30 72.5z" />
    <glyph glyph-name="copyright" unicode="&#xa9;" horiz-adv-x="1744" 
d="M92 721q0 170 58 316.5t160 250t247.5 162.5t314.5 59q226 0 404.5 -101t277.5 -281t99 -406q0 -227 -99.5 -407t-277.5 -281t-404 -101t-404.5 101.5t-277 281.5t-98.5 406zM209 721q0 -146 49 -272.5t136 -216t210.5 -140.5t267.5 -51q143 0 267 51.5t211.5 141
t137.5 216t50 271.5t-50 271.5t-137.5 216t-211.5 141t-267 51.5q-144 0 -267.5 -51t-210.5 -140.5t-136 -216t-49 -272.5zM424 717q0 224 128 360.5t335 136.5q161 0 269.5 -86.5t139.5 -238.5l-116 -21q-34 108 -112.5 169t-184.5 61q-149 0 -239.5 -104.5t-90.5 -276.5
q0 -173 91 -278t235 -105q108 0 187.5 62t113.5 171l114 -30q-34 -148 -143.5 -234t-265.5 -86q-204 0 -332.5 139t-128.5 361z" />
    <glyph glyph-name="guillemotleft" unicode="&#xab;" horiz-adv-x="1224" 
d="M135 571l311 377h166l-315 -373v-10l315 -370h-166zM526 571l312 377h166l-316 -373v-10l316 -370h-166z" />
    <glyph glyph-name="uni00AD" unicode="&#xad;" horiz-adv-x="1112" 
d="M195 578v112h716v-112h-716z" />
    <glyph glyph-name="registered" unicode="&#xae;" horiz-adv-x="1744" 
d="M92 721q0 170 58 316.5t160 250t247.5 162.5t314.5 59q226 0 404.5 -101t277.5 -281t99 -406q0 -227 -99.5 -407t-277.5 -281t-404 -101t-404.5 101.5t-277 281.5t-98.5 406zM209 721q0 -146 49 -272.5t136 -216t210.5 -140.5t267.5 -51q143 0 267 51.5t211.5 141
t137.5 216t50 271.5t-50 271.5t-137.5 216t-211.5 141t-267 51.5q-144 0 -267.5 -51t-210.5 -140.5t-136 -216t-49 -272.5zM578 276v904h346q138 0 219.5 -74t81.5 -195q0 -94 -48.5 -148.5t-121.5 -62.5v-10q166 7 166 -153v-261h-136v261q0 58 -28 79t-84 21h-279v-361
h-116zM694 745h224q84 0 134 43.5t50 116.5q0 78 -49 122t-135 44h-222z" />
    <glyph glyph-name="macron" unicode="&#xaf;" horiz-adv-x="696" 
d="M72 1231v110h553v-110h-553z" />
    <glyph glyph-name="degree" unicode="&#xb0;" horiz-adv-x="636" 
d="M51 1278q0 118 75 195t191 77q117 0 193 -75.5t76 -192.5t-76 -193.5t-193 -76.5q-115 0 -190.5 75t-75.5 191zM162 1278q0 -72 44 -120t111 -48q66 0 109 48t43 120q0 75 -43 124.5t-109 49.5q-67 0 -111 -49.5t-44 -124.5z" />
    <glyph glyph-name="acute" unicode="&#xb4;" horiz-adv-x="514" 
d="M72 1229l207 276h165l-235 -276h-137z" />
    <glyph glyph-name="periodcentered" unicode="&#xb7;" horiz-adv-x="489" 
d="M143 625q0 41 30 70.5t73 29.5q41 0 70.5 -29.5t29.5 -70.5q0 -43 -29.5 -73t-70.5 -30q-43 0 -73 30t-30 73z" />
    <glyph glyph-name="cedilla" unicode="&#xb8;" horiz-adv-x="600" 
d="M66 -385l96 29q30 -97 135 -97q54 0 92.5 27t38.5 82q0 52 -34.5 81.5t-88.5 29.5q-22 0 -42.5 -6.5t-29.5 -11.5t-27 -19l-18 -13l-90 52l105 213h104l-78 -150q48 18 86 18q91 0 152 -49.5t61 -144.5q0 -99 -65.5 -149t-157.5 -50q-82 0 -146.5 39t-92.5 119z" />
    <glyph glyph-name="guillemotright" unicode="&#xbb;" horiz-adv-x="1224" 
d="M135 195l316 370v10l-316 373h166l311 -377l-311 -376h-166zM526 195l316 370v10l-316 373h166l312 -377l-312 -376h-166z" />
    <glyph glyph-name="questiondown" unicode="&#xbf;" horiz-adv-x="1024" 
d="M41 82q0 65 17 118t52 96t63.5 69t74.5 63q12 9 18 14q45 36 70.5 60t54.5 61.5t41 82.5t8 99h129q3 -59 -9.5 -111.5t-29.5 -87t-53.5 -74.5t-58.5 -59.5t-68 -56.5q-35 -29 -54.5 -45.5t-47 -45.5t-41.5 -53.5t-24.5 -59.5t-10.5 -74q0 -116 80.5 -188t212.5 -72
q143 0 230.5 84t101.5 207l125 -21q-22 -173 -146.5 -280t-310.5 -107q-187 0 -305.5 105.5t-118.5 275.5zM399 1036q0 43 30 73t71 30q43 0 72.5 -30t29.5 -73q0 -41 -29.5 -70.5t-72.5 -29.5q-41 0 -71 29.5t-30 70.5z" />
    <glyph glyph-name="Agrave" unicode="&#xc0;" horiz-adv-x="1259" 
d="M-41 0l561 1403h154l565 -1403h-152l-155 395h-668l-158 -395h-147zM295 1804h176l207 -276h-148zM305 514h580l-283 731h-10z" />
    <glyph glyph-name="Aacute" unicode="&#xc1;" horiz-adv-x="1320" 
d="M20 0l562 1403h153l565 -1403h-151l-156 395h-667l-158 -395h-148zM367 514h579l-282 731h-11zM602 1538l207 277h166l-236 -277h-137z" />
    <glyph glyph-name="Acircumflex" unicode="&#xc2;" horiz-adv-x="1320" 
d="M20 0l562 1403h153l565 -1403h-151l-156 395h-667l-158 -395h-148zM367 514h579l-282 731h-11zM373 1509l211 226h145l211 -226h-145l-138 138l-133 -138h-151z" />
    <glyph glyph-name="Atilde" unicode="&#xc3;" horiz-adv-x="1320" 
d="M20 0l562 1403h153l565 -1403h-151l-156 395h-667l-158 -395h-148zM367 514h579l-282 731h-11zM367 1497v23q0 91 47.5 138.5t120.5 47.5q35 0 65.5 -12t47 -25t40.5 -35q3 -2 18.5 -17.5t22 -21t20.5 -12t27 -6.5q25 0 43.5 16.5t18.5 55.5v39h108v-23q0 -93 -46 -140.5
t-118 -47.5q-33 0 -64 13t-46.5 25.5t-40.5 36.5q-4 4 -12.5 12t-12.5 11.5t-11 10t-12 9t-11 6t-12.5 5.5t-12.5 2q-29 2 -50.5 -16.5t-21.5 -55.5v-39h-108z" />
    <glyph glyph-name="Adieresis" unicode="&#xc4;" horiz-adv-x="1320" 
d="M20 0l562 1403h153l565 -1403h-151l-156 395h-667l-158 -395h-148zM367 514h579l-282 731h-11zM379 1602q0 41 29.5 70.5t72.5 29.5q41 0 71 -29.5t30 -70.5q0 -43 -30 -73t-71 -30q-43 0 -72.5 30t-29.5 73zM737 1602q0 41 30 70.5t73 29.5q41 0 70.5 -29.5t29.5 -70.5
q0 -43 -29.5 -73t-70.5 -30q-43 0 -73 30t-30 73z" />
    <glyph glyph-name="Aring" unicode="&#xc5;" horiz-adv-x="1320" 
d="M20 0l562 1403h153l565 -1403h-151l-156 395h-667l-158 -395h-148zM367 514h579l-282 731h-11zM461 1659q0 84 55.5 138t140.5 54q83 0 137 -53.5t54 -138.5q0 -83 -54 -137t-137 -54q-85 0 -140.5 54t-55.5 137zM561 1659q0 -41 28 -69.5t68 -28.5t66.5 28.5t26.5 69.5
q0 43 -26.5 72.5t-66.5 29.5t-68 -29.5t-28 -72.5z" />
    <glyph glyph-name="AE" unicode="&#xc6;" horiz-adv-x="1939" 
d="M20 0l553 1403h1244v-123h-779v-504h719v-123h-719v-530h779v-123h-914v393h-577l-156 -393h-150zM369 516h534v764h-244z" />
    <glyph glyph-name="Ccedilla" unicode="&#xc7;" horiz-adv-x="1411" 
d="M76 700q0 206 78.5 369t231.5 258.5t357 95.5q223 0 377 -113t209 -309l-131 -32q-51 155 -171.5 241t-287.5 86q-111 0 -206.5 -40t-167 -113.5t-112 -186t-40.5 -249.5q0 -175 65 -311.5t184.5 -213t274.5 -76.5q165 0 285.5 88.5t175.5 256.5l127 -35
q-61 -209 -215.5 -322.5t-368.5 -113.5h-18l-43 -84q48 18 86 18q91 0 152 -50t61 -145q0 -51 -19 -90t-51 -62t-71 -34.5t-82 -11.5q-83 0 -147.5 38.5t-92.5 118.5l96 29q30 -96 136 -96q54 0 92.5 26.5t38.5 81.5q0 52 -34.5 81.5t-88.5 29.5q-18 0 -33.5 -3t-29 -10
t-21 -11.5t-19 -13.5t-14.5 -11l-90 51l76 156q-244 41 -396.5 232t-152.5 480z" />
    <glyph glyph-name="Egrave" unicode="&#xc8;" horiz-adv-x="1220" 
d="M184 0v1403h914v-123h-779v-504h719v-123h-719v-530h779v-123h-914zM344 1804h176l207 -276h-147z" />
    <glyph glyph-name="Eacute" unicode="&#xc9;" horiz-adv-x="1220" 
d="M184 0v1403h914v-123h-779v-504h719v-123h-719v-530h779v-123h-914zM512 1538l207 277h166l-236 -277h-137z" />
    <glyph glyph-name="Ecircumflex" unicode="&#xca;" horiz-adv-x="1220" 
d="M184 0v1403h914v-123h-779v-504h719v-123h-719v-530h779v-123h-914zM354 1509l211 226h146l211 -226h-146l-137 138l-133 -138h-152z" />
    <glyph glyph-name="Edieresis" unicode="&#xcb;" horiz-adv-x="1220" 
d="M184 0v1403h914v-123h-779v-504h719v-123h-719v-530h779v-123h-914zM350 1602q0 41 30 70.5t73 29.5q41 0 70.5 -29.5t29.5 -70.5q0 -43 -29.5 -73t-70.5 -30q-43 0 -73 30t-30 73zM709 1602q0 41 29.5 70.5t72.5 29.5q41 0 70.5 -29.5t29.5 -70.5q0 -43 -29.5 -73
t-70.5 -30q-43 0 -72.5 30t-29.5 73z" />
    <glyph glyph-name="Igrave" unicode="&#xcc;" horiz-adv-x="477" 
d="M-92 1835h176l207 -276h-148zM158 0v1403h135v-1403h-135z" />
    <glyph glyph-name="Iacute" unicode="&#xcd;" horiz-adv-x="522" 
d="M184 0v1403h135v-1403h-135zM190 1569l207 276h166l-235 -276h-138z" />
    <glyph glyph-name="Icircumflex" unicode="&#xce;" horiz-adv-x="425" 
d="M-57 1540l211 225h145l211 -225h-145l-138 137l-133 -137h-151zM164 0v1403h135v-1403h-135z" />
    <glyph glyph-name="Idieresis" unicode="&#xcf;" horiz-adv-x="602" 
d="M23 1632q0 42 29.5 71.5t72.5 29.5q41 0 70.5 -30t29.5 -71q0 -43 -29.5 -72.5t-70.5 -29.5q-43 0 -72.5 29.5t-29.5 72.5zM240 0v1403h135v-1403h-135zM381 1632q0 42 29.5 71.5t72.5 29.5q41 0 71 -30t30 -71q0 -42 -30 -72t-71 -30q-43 0 -72.5 29.5t-29.5 72.5z" />
    <glyph glyph-name="Eth" unicode="&#xd0;" horiz-adv-x="1398" 
d="M37 676v110h143v617h457q185 0 336.5 -83t242.5 -243.5t91 -369.5q0 -158 -53 -292t-143.5 -224t-213 -140.5t-260.5 -50.5h-457v676h-143zM315 123h326q109 0 205.5 41t168.5 115.5t114 185t42 242.5t-42 241t-114 181t-168.5 111.5t-205.5 39.5h-326v-494h275v-110
h-275v-553z" />
    <glyph glyph-name="Ntilde" unicode="&#xd1;" horiz-adv-x="1501" 
d="M184 0v1403h176l811 -1217h11v1217h135v-1403h-176l-811 1217h-11v-1217h-135zM424 1528v22q0 91 47.5 139t120.5 48q35 0 65.5 -12t47 -25t40.5 -35q4 -4 15 -14.5t17 -16t16 -12.5t20 -10.5t21 -3.5q25 0 43 16t18 55v39h109v-22q0 -94 -46 -141.5t-118 -47.5
q-33 0 -64 13.5t-46.5 26t-41.5 36.5q-3 3 -11 10.5t-11 10t-10 9t-10.5 8.5t-9.5 6t-10.5 5.5t-10 3.5t-11.5 2q-29 2 -50.5 -16t-21.5 -55v-39h-108z" />
    <glyph glyph-name="Ograve" unicode="&#xd2;" horiz-adv-x="1525" 
d="M92 702q0 321 187 521t483 200q194 0 347 -90t239 -254.5t86 -376.5q0 -160 -50.5 -295t-139 -228.5t-213 -146t-269.5 -52.5q-296 0 -483 200t-187 522zM233 702q0 -269 145.5 -433.5t383.5 -164.5q239 0 384.5 164.5t145.5 433.5q0 266 -145.5 431t-384.5 165
q-237 0 -383 -165t-146 -431zM432 1835h176l207 -276h-147z" />
    <glyph glyph-name="Oacute" unicode="&#xd3;" horiz-adv-x="1525" 
d="M92 702q0 321 187 521t483 200q194 0 347 -90t239 -254.5t86 -376.5q0 -160 -50.5 -295t-139 -228.5t-213 -146t-269.5 -52.5q-296 0 -483 200t-187 522zM233 702q0 -269 145.5 -433.5t383.5 -164.5q239 0 384.5 164.5t145.5 433.5q0 266 -145.5 431t-384.5 165
q-237 0 -383 -165t-146 -431zM655 1569l207 276h166l-235 -276h-138z" />
    <glyph glyph-name="Ocircumflex" unicode="&#xd4;" horiz-adv-x="1525" 
d="M92 702q0 321 187 521t483 200q194 0 347 -90t239 -254.5t86 -376.5q0 -160 -50.5 -295t-139 -228.5t-213 -146t-269.5 -52.5q-296 0 -483 200t-187 522zM233 702q0 -269 145.5 -433.5t383.5 -164.5q239 0 384.5 164.5t145.5 433.5q0 266 -145.5 431t-384.5 165
q-237 0 -383 -165t-146 -431zM479 1540l211 225h146l211 -225h-146l-137 137l-133 -137h-152z" />
    <glyph glyph-name="Otilde" unicode="&#xd5;" horiz-adv-x="1525" 
d="M92 702q0 321 187 521t483 200q194 0 347 -90t239 -254.5t86 -376.5q0 -160 -50.5 -295t-139 -228.5t-213 -146t-269.5 -52.5q-296 0 -483 200t-187 522zM233 702q0 -269 145.5 -433.5t383.5 -164.5q239 0 384.5 164.5t145.5 433.5q0 266 -145.5 431t-384.5 165
q-237 0 -383 -165t-146 -431zM436 1528v22q0 91 47.5 139t120.5 48q50 0 84 -19t70 -53q3 -2 18.5 -17.5t22 -21t20.5 -12t27 -6.5q25 0 43 16t18 55v39h109v-22q0 -94 -46 -141.5t-118 -47.5q-33 0 -64 13.5t-46.5 26t-41.5 36.5q-3 3 -11 10.5t-11 10t-10 9t-10.5 8.5
t-9.5 6t-10.5 5.5t-10 3.5t-11.5 2q-29 2 -50 -16t-21 -55v-39h-109z" />
    <glyph glyph-name="Odieresis" unicode="&#xd6;" horiz-adv-x="1525" 
d="M92 702q0 321 187 521t483 200q194 0 347 -90t239 -254.5t86 -376.5q0 -160 -50.5 -295t-139 -228.5t-213 -146t-269.5 -52.5q-296 0 -483 200t-187 522zM233 702q0 -269 145.5 -433.5t383.5 -164.5q239 0 384.5 164.5t145.5 433.5q0 266 -145.5 431t-384.5 165
q-237 0 -383 -165t-146 -431zM475 1632q0 41 30 71t73 30q41 0 70.5 -30t29.5 -71q0 -43 -29.5 -72.5t-70.5 -29.5q-43 0 -73 29.5t-30 72.5zM834 1632q0 42 30 71.5t72 29.5q41 0 70.5 -30t29.5 -71q0 -43 -29.5 -72.5t-70.5 -29.5q-43 0 -72.5 29.5t-29.5 72.5z" />
    <glyph glyph-name="multiply" unicode="&#xd7;" horiz-adv-x="1056" 
d="M82 328l360 360l-360 361l86 86l360 -361l361 361l86 -86l-361 -361l361 -360l-86 -86l-361 360l-360 -360z" />
    <glyph glyph-name="Oslash" unicode="&#xd8;" horiz-adv-x="1540" 
d="M92 37l162 188q-148 194 -148 477q0 321 187 521t483 200q233 0 402 -127l108 125l90 -73l-112 -129q184 -200 184 -517q0 -160 -50.5 -295t-139 -228.5t-213 -146t-269.5 -52.5q-263 0 -442 159l-152 -176zM248 702q0 -218 98 -370l748 866q-137 100 -318 100
q-237 0 -382.5 -165t-145.5 -431zM422 240q142 -136 354 -136q239 0 385 164.5t146 433.5q0 252 -131 414z" />
    <glyph glyph-name="Ugrave" unicode="&#xd9;" horiz-adv-x="1413" 
d="M164 520v883h135v-883q0 -197 112 -304t296 -107t295.5 107t111.5 304v883h135v-883q0 -254 -148.5 -395t-393.5 -141q-247 0 -395 141t-148 395zM428 1804h176l207 -276h-147z" />
    <glyph glyph-name="Uacute" unicode="&#xda;" horiz-adv-x="1433" 
d="M164 520v883h135v-883q0 -197 112 -304t296 -107t295.5 107t111.5 304v883h135v-883q0 -254 -148.5 -395t-393.5 -141q-247 0 -395 141t-148 395zM651 1538l207 277h166l-236 -277h-137z" />
    <glyph glyph-name="Ucircumflex" unicode="&#xdb;" horiz-adv-x="1413" 
d="M164 520v883h135v-883q0 -197 112 -304t296 -107t295.5 107t111.5 304v883h135v-883q0 -254 -148.5 -395t-393.5 -141q-247 0 -395 141t-148 395zM416 1509l211 226h145l211 -226h-145l-138 138l-133 -138h-151z" />
    <glyph glyph-name="Udieresis" unicode="&#xdc;" horiz-adv-x="1413" 
d="M164 520v883h135v-883q0 -197 112 -304t296 -107t295.5 107t111.5 304v883h135v-883q0 -254 -148.5 -395t-393.5 -141q-247 0 -395 141t-148 395zM422 1602q0 41 29.5 70.5t72.5 29.5q41 0 71 -29.5t30 -70.5q0 -43 -30 -73t-71 -30q-43 0 -72.5 30t-29.5 73zM780 1602
q0 41 30 70.5t73 29.5q41 0 70.5 -29.5t29.5 -70.5q0 -43 -29.5 -73t-70.5 -30q-43 0 -73 30t-30 73z" />
    <glyph glyph-name="Yacute" unicode="&#xdd;" horiz-adv-x="1234" 
d="M20 1403h158l432 -696h11l436 696h157l-530 -840v-563h-135v563zM567 1569l207 276h166l-235 -276h-138z" />
    <glyph glyph-name="Thorn" unicode="&#xde;" horiz-adv-x="1218" 
d="M184 0h135v332h400q195 0 316.5 114t121.5 297t-121.5 295.5t-316.5 112.5h-397v252h-138v-1403zM322 455v573h393q139 0 221 -78.5t82 -208.5t-82 -208t-221 -78h-393z" />
    <glyph glyph-name="germandbls" unicode="&#xdf;" horiz-adv-x="1234" 
d="M184 0v1008q0 180 122.5 297.5t334.5 117.5q126 0 227.5 -40.5t163.5 -122.5t62 -193q0 -65 -22 -120.5t-57.5 -92t-72 -60t-74.5 -36.5v-10q23 -4 53 -15.5t70.5 -38.5t73 -63.5t55.5 -97t23 -132.5q0 -96 -41.5 -174t-112 -126.5t-159.5 -74.5t-187 -26h-192v123h192
q156 0 256 72.5t100 207.5t-101.5 210t-274.5 75h-62v113h55q161 0 247.5 67t86.5 189q0 120 -87 181.5t-226 61.5q-154 0 -236 -83t-82 -230v-987h-135z" />
    <glyph glyph-name="agrave" unicode="&#xe0;" horiz-adv-x="1073" 
d="M102 287q0 141 99 215.5t274 85.5l225 14q33 2 49.5 5t36 13t27.5 32t8 57q0 106 -78.5 165.5t-203.5 59.5q-118 0 -190.5 -53.5t-94.5 -137.5l-125 13q20 128 132.5 208t277.5 80q184 0 297.5 -91t113.5 -242v-711h-137l2 190h-10q-35 -93 -128 -153t-222 -60
q-158 0 -255.5 85.5t-97.5 224.5zM238 289q0 -90 63 -143.5t174 -53.5q155 0 250.5 102.5t95.5 247.5v74q-25 -14 -106 -20l-226 -17q-121 -8 -186 -53t-65 -137zM262 1446h176l207 -277h-147z" />
    <glyph glyph-name="aacute" unicode="&#xe1;" horiz-adv-x="1073" 
d="M102 287q0 141 99 215.5t274 85.5l225 14q33 2 49.5 5t36 13t27.5 32t8 57q0 106 -78.5 165.5t-203.5 59.5q-118 0 -190.5 -53.5t-94.5 -137.5l-125 13q20 128 132.5 208t277.5 80q184 0 297.5 -91t113.5 -242v-711h-137l2 190h-10q-35 -93 -128 -153t-222 -60
q-158 0 -255.5 85.5t-97.5 224.5zM238 289q0 -90 63 -143.5t174 -53.5q155 0 250.5 102.5t95.5 247.5v74q-25 -14 -106 -20l-226 -17q-121 -8 -186 -53t-65 -137zM487 1180l207 276h166l-235 -276h-138z" />
    <glyph glyph-name="acircumflex" unicode="&#xe2;" horiz-adv-x="1073" 
d="M102 287q0 141 99 215.5t274 85.5l225 14q33 2 49.5 5t36 13t27.5 32t8 57q0 106 -78.5 165.5t-203.5 59.5q-118 0 -190.5 -53.5t-94.5 -137.5l-125 13q20 128 132.5 208t277.5 80q184 0 297.5 -91t113.5 -242v-711h-137l2 190h-10q-35 -93 -128 -153t-222 -60
q-158 0 -255.5 85.5t-97.5 224.5zM238 289q0 -90 63 -143.5t174 -53.5q155 0 250.5 102.5t95.5 247.5v74q-25 -14 -106 -20l-226 -17q-121 -8 -186 -53t-65 -137zM254 1151l211 225h145l211 -225h-145l-137 137l-133 -137h-152z" />
    <glyph glyph-name="atilde" unicode="&#xe3;" horiz-adv-x="1073" 
d="M102 287q0 141 99 215.5t274 85.5l225 14q33 2 49.5 5t36 13t27.5 32t8 57q0 106 -78.5 165.5t-203.5 59.5q-118 0 -190.5 -53.5t-94.5 -137.5l-125 13q20 128 132.5 208t277.5 80q184 0 297.5 -91t113.5 -242v-711h-137l2 190h-10q-35 -93 -128 -153t-222 -60
q-158 0 -255.5 85.5t-97.5 224.5zM236 1139v22q0 91 47 139t120 48q50 0 84 -19t70 -53q3 -2 18.5 -17.5t22 -21t20.5 -12t27 -6.5q25 0 43.5 16t18.5 55v39h108v-22q0 -94 -46 -141.5t-118 -47.5q-33 0 -64 13.5t-46 25.5t-41 37q-3 3 -11 10.5t-11 10t-10 9t-10.5 8.5
t-9.5 6t-10.5 5.5t-10 3.5t-11.5 2q-29 2 -50.5 -16t-21.5 -55v-39h-108zM238 289q0 -90 63 -143.5t174 -53.5q155 0 250.5 102.5t95.5 247.5v74q-25 -14 -106 -20l-226 -17q-121 -8 -186 -53t-65 -137z" />
    <glyph glyph-name="adieresis" unicode="&#xe4;" horiz-adv-x="1073" 
d="M102 287q0 141 99 215.5t274 85.5l225 14q33 2 49.5 5t36 13t27.5 32t8 57q0 106 -78.5 165.5t-203.5 59.5q-118 0 -190.5 -53.5t-94.5 -137.5l-125 13q20 128 132.5 208t277.5 80q184 0 297.5 -91t113.5 -242v-711h-137l2 190h-10q-35 -93 -128 -153t-222 -60
q-158 0 -255.5 85.5t-97.5 224.5zM238 289q0 -90 63 -143.5t174 -53.5q155 0 250.5 102.5t95.5 247.5v74q-25 -14 -106 -20l-226 -17q-121 -8 -186 -53t-65 -137zM256 1243q0 41 29.5 70.5t72.5 29.5q41 0 71 -29.5t30 -70.5q0 -43 -29.5 -72.5t-71.5 -29.5
q-43 0 -72.5 29.5t-29.5 72.5zM614 1243q0 41 30 70.5t73 29.5q41 0 70.5 -29.5t29.5 -70.5q0 -43 -29.5 -72.5t-70.5 -29.5q-43 0 -73 29.5t-30 72.5z" />
    <glyph glyph-name="aring" unicode="&#xe5;" horiz-adv-x="1073" 
d="M102 287q0 141 99 215.5t274 85.5l225 14q33 2 49.5 5t36 13t27.5 32t8 57q0 106 -78.5 165.5t-203.5 59.5q-118 0 -190.5 -53.5t-94.5 -137.5l-125 13q20 128 132.5 208t277.5 80q184 0 297.5 -91t113.5 -242v-711h-137l2 190h-10q-35 -93 -128 -153t-222 -60
q-158 0 -255.5 85.5t-97.5 224.5zM238 289q0 -90 63 -143.5t174 -53.5q155 0 250.5 102.5t95.5 247.5v74q-25 -14 -106 -20l-226 -17q-121 -8 -186 -53t-65 -137zM350 1300q0 84 56 138.5t141 54.5q83 0 136.5 -54t53.5 -139q0 -83 -53.5 -136.5t-136.5 -53.5
q-85 0 -141 53.5t-56 136.5zM451 1300q0 -41 28 -69.5t68 -28.5t66 28t26 70q0 43 -26.5 73t-65.5 30q-40 0 -68 -30t-28 -73z" />
    <glyph glyph-name="ae" unicode="&#xe6;" horiz-adv-x="1839" 
d="M102 287q0 141 99 215.5t274 85.5l225 14q33 2 49.5 5t36 13t27.5 32t8 57q0 106 -78.5 165.5t-203.5 59.5q-118 0 -190.5 -53.5t-94.5 -137.5l-125 13q20 128 132.5 208t277.5 80q134 0 233 -49.5t143 -138.5q130 186 379 186q218 0 340.5 -148t122.5 -382v-45h-807v-68
q23 -138 114 -221.5t239 -83.5q117 0 197.5 60.5t109.5 144.5l116 -33q-33 -118 -148.5 -203.5t-277.5 -85.5q-216 0 -350 144v-121h-137l2 190h-10q-35 -93 -128 -153t-222 -60q-158 0 -255.5 85.5t-97.5 224.5zM238 289q0 -90 63 -143.5t174 -53.5q147 0 242 94.5
t104 231.5q-6 44 -6 88v8q-21 -12 -100 -18l-226 -17q-121 -8 -186 -53t-65 -137zM950 582h676q-7 163 -98 252.5t-232 89.5t-239 -93.5t-107 -248.5z" />
    <glyph glyph-name="ccedilla" unicode="&#xe7;" horiz-adv-x="1087" 
d="M82 512q0 235 141.5 383.5t360.5 148.5q159 0 280.5 -82t157.5 -231l-125 -29q-35 108 -116.5 166t-192.5 58q-168 0 -269.5 -120t-101.5 -296q0 -181 104 -296.5t267 -115.5q110 0 196.5 58t124.5 170l117 -25q-41 -154 -164 -237.5t-282 -83.5h-19l-41 -80q48 18 86 18
q91 0 152 -49.5t61 -144.5q0 -99 -65.5 -149t-157.5 -50q-82 0 -147 39t-93 119l97 28q30 -96 135 -96q54 0 92.5 27t38.5 82q0 52 -34.5 81t-88.5 29q-18 0 -33.5 -3t-29 -10t-21 -11.5t-19 -13.5t-14.5 -11l-90 51l76 156q-170 38 -276.5 177t-106.5 343z" />
    <glyph glyph-name="egrave" unicode="&#xe8;" horiz-adv-x="1107" 
d="M84 506q0 236 129 386t350 150q218 0 340.5 -148t122.5 -382v-45h-813q5 -165 99 -269t259 -104q117 0 198 60.5t110 144.5l116 -33q-33 -118 -148.5 -203.5t-277.5 -85.5q-222 0 -353.5 146.5t-131.5 382.5zM219 582h676q-7 163 -98 252.5t-232 89.5t-239 -93.5
t-107 -248.5zM264 1444h176l207 -277h-147z" />
    <glyph glyph-name="eacute" unicode="&#xe9;" horiz-adv-x="1107" 
d="M84 506q0 236 129 386t350 150q218 0 340.5 -148t122.5 -382v-45h-813q5 -165 99 -269t259 -104q117 0 198 60.5t110 144.5l116 -33q-33 -118 -148.5 -203.5t-277.5 -85.5q-222 0 -353.5 146.5t-131.5 382.5zM219 582h676q-7 163 -98 252.5t-232 89.5t-239 -93.5
t-107 -248.5zM487 1178l207 276h166l-235 -276h-138z" />
    <glyph glyph-name="ecircumflex" unicode="&#xea;" horiz-adv-x="1107" 
d="M84 506q0 236 129 386t350 150q218 0 340.5 -148t122.5 -382v-45h-813q5 -165 99 -269t259 -104q117 0 198 60.5t110 144.5l116 -33q-33 -118 -148.5 -203.5t-277.5 -85.5q-222 0 -353.5 146.5t-131.5 382.5zM219 582h676q-7 163 -98 252.5t-232 89.5t-239 -93.5
t-107 -248.5zM283 1149l211 225h145l211 -225h-145l-138 137l-133 -137h-151z" />
    <glyph glyph-name="edieresis" unicode="&#xeb;" horiz-adv-x="1107" 
d="M84 506q0 236 129 386t350 150q218 0 340.5 -148t122.5 -382v-45h-813q5 -165 99 -269t259 -104q117 0 198 60.5t110 144.5l116 -33q-33 -118 -148.5 -203.5t-277.5 -85.5q-222 0 -353.5 146.5t-131.5 382.5zM219 582h676q-7 163 -98 252.5t-232 89.5t-239 -93.5
t-107 -248.5zM283 1241q0 41 29.5 70.5t72.5 29.5q41 0 70.5 -29.5t29.5 -70.5q0 -43 -29.5 -72.5t-70.5 -29.5q-43 0 -72.5 29.5t-29.5 72.5zM641 1241q0 41 29.5 70.5t72.5 29.5q41 0 71 -29.5t30 -70.5q0 -43 -30 -72.5t-71 -29.5q-43 0 -72.5 29.5t-29.5 72.5z" />
    <glyph glyph-name="igrave" unicode="&#xec;" horiz-adv-x="479" 
d="M-68 1425h177l206 -276h-147zM174 0v1024h129v-1024h-129z" />
    <glyph glyph-name="iacute" unicode="&#xed;" horiz-adv-x="460" 
d="M164 1159l207 277h166l-236 -277h-137zM182 0v1024h129v-1024h-129z" />
    <glyph glyph-name="icircumflex" unicode="&#xee;" horiz-adv-x="440" 
d="M-61 1130l211 226h145l211 -226h-146l-137 138l-133 -138h-151zM158 0v1024h129v-1024h-129z" />
    <glyph glyph-name="idieresis" unicode="&#xef;" horiz-adv-x="571" 
d="M6 1223q0 41 30 70.5t73 29.5q41 0 70.5 -29.5t29.5 -70.5q0 -43 -29.5 -73t-70.5 -30q-43 0 -73 30t-30 73zM227 0v1024h129v-1024h-129zM365 1223q0 41 29.5 70.5t72.5 29.5q41 0 70.5 -29.5t29.5 -70.5q0 -43 -29.5 -73t-70.5 -30q-43 0 -72.5 30t-29.5 73z" />
    <glyph glyph-name="eth" unicode="&#xf0;" horiz-adv-x="1316" 
d="M82 508q0 231 128.5 378.5t330.5 147.5q130 0 225 -61.5t135 -151.5h10v314h-227v110h227v178h129v-178h197v-110h-197v-1135h-129v186h-10q-39 -89 -134 -149t-222 -60q-201 0 -332 149t-131 382zM213 508q0 -190 96.5 -300t249.5 -110t256 109t103 295q0 185 -102 299
t-259 114q-153 0 -248.5 -110.5t-95.5 -296.5z" />
    <glyph glyph-name="ntilde" unicode="&#xf1;" 
d="M164 0v1024h129v-197h8q36 97 129.5 157t220.5 60q165 0 267 -100t102 -278v-666h-129v635q0 40 -8 78.5t-27.5 78t-49.5 69.5t-78.5 48.5t-109.5 18.5q-142 0 -233.5 -103.5t-91.5 -287.5v-537h-129zM297 1145v22q0 91 47.5 139t120.5 48q35 0 65.5 -12t47 -25t40.5 -35
q4 -4 15 -14.5t17 -16t16 -12.5t20 -10.5t21 -3.5q25 0 43 16t18 55v39h109v-22q0 -94 -46 -141.5t-118 -47.5q-33 0 -64 13.5t-46.5 26t-41.5 36.5q-3 3 -11 10.5t-11 10t-10 9t-10.5 8.5t-9.5 6t-10.5 5.5t-10 3.5t-11.5 2q-29 2 -50 -16t-21 -55v-39h-109z" />
    <glyph glyph-name="ograve" unicode="&#xf2;" horiz-adv-x="1175" 
d="M82 510q0 236 144 385t364 149q219 0 361.5 -149t142.5 -385q0 -234 -142.5 -382t-361.5 -148q-220 0 -364 148t-144 382zM217 510q0 -185 104 -299.5t267 -114.5q164 0 269.5 114.5t105.5 299.5q0 186 -105 302t-268 116t-268 -116t-105 -302zM281 1425h176l207 -276
h-148z" />
    <glyph glyph-name="oacute" unicode="&#xf3;" horiz-adv-x="1175" 
d="M82 510q0 236 144 385t364 149q219 0 361.5 -149t142.5 -385q0 -234 -142.5 -382t-361.5 -148q-220 0 -364 148t-144 382zM217 510q0 -185 104 -299.5t267 -114.5q164 0 269.5 114.5t105.5 299.5q0 186 -105 302t-268 116t-268 -116t-105 -302zM504 1159l207 277h166
l-236 -277h-137z" />
    <glyph glyph-name="ocircumflex" unicode="&#xf4;" horiz-adv-x="1175" 
d="M82 510q0 236 144 385t364 149q219 0 361.5 -149t142.5 -385q0 -234 -142.5 -382t-361.5 -148q-220 0 -364 148t-144 382zM217 510q0 -185 104 -299.5t267 -114.5q164 0 269.5 114.5t105.5 299.5q0 186 -105 302t-268 116t-268 -116t-105 -302zM303 1130l211 226h145
l211 -226h-145l-137 138l-133 -138h-152z" />
    <glyph glyph-name="otilde" unicode="&#xf5;" horiz-adv-x="1175" 
d="M82 510q0 236 144 385t364 149q219 0 361.5 -149t142.5 -385q0 -234 -142.5 -382t-361.5 -148q-220 0 -364 148t-144 382zM217 510q0 -185 104 -299.5t267 -114.5q164 0 269.5 114.5t105.5 299.5q0 186 -105 302t-268 116t-268 -116t-105 -302zM285 1118v23
q0 91 47.5 138.5t120.5 47.5q35 0 65.5 -12t47 -25t40.5 -35q3 -2 18.5 -17.5t22 -21t20.5 -12t27 -6.5q25 0 43.5 16.5t18.5 55.5v39h108v-23q0 -93 -46 -140.5t-118 -47.5q-33 0 -64 13.5t-46 25.5t-41 37q-3 3 -11 10.5t-11 10t-10 9t-10.5 8.5t-9.5 6t-10.5 5.5t-10 3.5
t-11.5 2q-29 2 -50.5 -16.5t-21.5 -55.5v-39h-108z" />
    <glyph glyph-name="odieresis" unicode="&#xf6;" horiz-adv-x="1175" 
d="M82 510q0 236 144 385t364 149q219 0 361.5 -149t142.5 -385q0 -234 -142.5 -382t-361.5 -148q-220 0 -364 148t-144 382zM217 510q0 -185 104 -299.5t267 -114.5q164 0 269.5 114.5t105.5 299.5q0 186 -105 302t-268 116t-268 -116t-105 -302zM301 1223q0 41 29.5 70.5
t72.5 29.5q41 0 71 -29.5t30 -70.5q0 -43 -30 -73t-71 -30q-43 0 -72.5 30t-29.5 73zM659 1223q0 41 30 70.5t73 29.5q41 0 70.5 -29.5t29.5 -70.5q0 -43 -29.5 -73t-70.5 -30q-43 0 -73 30t-30 73z" />
    <glyph glyph-name="divide" unicode="&#xf7;" horiz-adv-x="1064" 
d="M113 649v111h839v-111h-839zM428 395q0 41 30 71t72 30q41 0 71 -30t30 -71q0 -43 -29.5 -72.5t-71.5 -29.5q-43 0 -72.5 29.5t-29.5 72.5zM428 1016q0 41 29.5 70.5t72.5 29.5q41 0 71 -29.5t30 -70.5q0 -43 -30 -73t-71 -30q-43 0 -72.5 30t-29.5 73z" />
    <glyph glyph-name="oslash" unicode="&#xf8;" horiz-adv-x="1155" 
d="M82 39l111 127q-111 143 -111 344q0 236 144 385t364 149q159 0 284 -83l91 102l94 -84l-90 -105q125 -147 125 -364q0 -234 -142.5 -382t-361.5 -148q-176 0 -307 98l-107 -123zM217 510q0 -137 62 -242l516 598q-91 62 -205 62q-163 0 -268 -116t-105 -302zM362 172
q95 -76 226 -76q164 0 269.5 114.5t105.5 299.5q0 153 -78 268z" />
    <glyph glyph-name="ugrave" unicode="&#xf9;" 
d="M154 358v666h129v-635q0 -53 12.5 -101t41 -93t83.5 -72t131 -27q150 0 240 113.5t90 298.5v516h129v-1024h-129v205h-11q-41 -103 -127 -164t-221 -61q-173 0 -270.5 100.5t-97.5 277.5zM303 1425h176l207 -276h-147z" />
    <glyph glyph-name="uacute" unicode="&#xfa;" 
d="M154 358v666h129v-635q0 -53 12.5 -101t41 -93t83.5 -72t131 -27q150 0 240 113.5t90 298.5v516h129v-1024h-129v205h-11q-41 -103 -127 -164t-221 -61q-173 0 -270.5 100.5t-97.5 277.5zM526 1159l207 277h166l-235 -277h-138z" />
    <glyph glyph-name="ucircumflex" unicode="&#xfb;" 
d="M154 358v666h129v-635q0 -53 12.5 -101t41 -93t83.5 -72t131 -27q150 0 240 113.5t90 298.5v516h129v-1024h-129v205h-11q-41 -103 -127 -164t-221 -61q-173 0 -270.5 100.5t-97.5 277.5zM299 1130l211 226h145l211 -226h-145l-137 138l-133 -138h-152z" />
    <glyph glyph-name="udieresis" unicode="&#xfc;" 
d="M154 358v666h129v-635q0 -53 12.5 -101t41 -93t83.5 -72t131 -27q150 0 240 113.5t90 298.5v516h129v-1024h-129v205h-11q-41 -103 -127 -164t-221 -61q-173 0 -270.5 100.5t-97.5 277.5zM305 1223q0 41 30 70.5t73 29.5q41 0 70.5 -29.5t29.5 -70.5q0 -43 -29.5 -73
t-70.5 -30q-43 0 -73 30t-30 73zM664 1223q0 41 29.5 70.5t72.5 29.5q41 0 70.5 -29.5t29.5 -70.5q0 -43 -29.5 -73t-70.5 -30q-43 0 -72.5 30t-29.5 73z" />
    <glyph glyph-name="yacute" unicode="&#xfd;" horiz-adv-x="1015" 
d="M20 1024h142l346 -872h10l322 872h155l-463 -1143q-15 -38 -27 -63.5t-39 -66t-57 -65.5t-77 -44t-103 -19h-174v115h152q68 0 113.5 37t76.5 116l43 111zM420 1159l207 277h166l-236 -277h-137z" />
    <glyph glyph-name="thorn" unicode="&#xfe;" horiz-adv-x="1204" 
d="M164 -379v1802h129v-585h10q39 89 133.5 149t222.5 60q202 0 332.5 -148.5t130.5 -382.5q0 -231 -127.5 -378.5t-330.5 -147.5q-132 0 -226.5 61.5t-134.5 151.5h-10v-582h-129zM287 522q0 -185 101.5 -299t258.5 -114q153 0 248.5 110.5t95.5 296.5q0 190 -96.5 300
t-249.5 110t-255.5 -109t-102.5 -295z" />
    <glyph glyph-name="ydieresis" unicode="&#xff;" horiz-adv-x="1015" 
d="M20 1024h142l346 -872h10l322 872h155l-463 -1143q-15 -38 -27 -63.5t-39 -66t-57 -65.5t-77 -44t-103 -19h-174v115h152q68 0 113.5 37t76.5 116l43 111zM219 1223q0 41 30 70.5t73 29.5q41 0 70.5 -29.5t29.5 -70.5q0 -43 -29.5 -73t-70.5 -30q-43 0 -73 30t-30 73z
M578 1223q0 41 29.5 70.5t72.5 29.5q41 0 70.5 -29.5t29.5 -70.5q0 -43 -29.5 -73t-70.5 -30q-43 0 -72.5 30t-29.5 73z" />
    <glyph glyph-name="OE" unicode="&#x152;" horiz-adv-x="2334" 
d="M92 702q0 321 187 521t483 200q169 0 307.5 -69t228.5 -195v244h914v-123h-778v-504h718v-123h-718v-530h778v-123h-914v246q-90 -127 -228.5 -196.5t-307.5 -69.5q-296 0 -483 200t-187 522zM233 702q0 -269 145.5 -433.5t383.5 -164.5q239 0 384.5 164.5t145.5 433.5
q0 266 -145.5 431t-384.5 165q-237 0 -383 -165t-146 -431z" />
    <glyph glyph-name="oe" unicode="&#x153;" horiz-adv-x="1986" 
d="M82 510q0 236 144 385t364 149q142 0 256.5 -66t179.5 -185q58 118 164.5 183.5t251.5 65.5q218 0 340.5 -148t122.5 -382v-45h-813v-6q6 -164 100 -265.5t258 -101.5q117 0 197.5 60.5t109.5 144.5l117 -33q-33 -118 -148.5 -203.5t-277.5 -85.5q-146 0 -255.5 65.5
t-168.5 184.5q-65 -116 -178.5 -181.5t-255.5 -65.5q-220 0 -364 148t-144 382zM217 510q0 -185 104 -299.5t267 -114.5q164 0 269.5 114.5t105.5 299.5q0 186 -105 302t-268 116t-268 -116t-105 -302zM1098 582h676q-7 163 -98 252.5t-232 89.5t-239 -93.5t-107 -248.5z
" />
    <glyph glyph-name="Ydieresis" unicode="&#x178;" horiz-adv-x="1234" 
d="M20 1403h158l432 -696h11l436 696h157l-530 -840v-563h-135v563zM332 1632q0 42 30 71.5t72 29.5q41 0 71 -30t30 -71q0 -42 -29.5 -72t-71.5 -30q-43 0 -72.5 29.5t-29.5 72.5zM690 1632q0 41 30 71t73 30q41 0 70.5 -30t29.5 -71q0 -43 -29.5 -72.5t-70.5 -29.5
q-43 0 -73 29.5t-30 72.5z" />
    <glyph glyph-name="circumflex" unicode="&#x2c6;" horiz-adv-x="710" 
d="M72 1186l211 225h145l211 -225h-145l-138 137l-133 -137h-151z" />
    <glyph glyph-name="tilde" unicode="&#x2dc;" horiz-adv-x="706" 
d="M63 1274v22q0 91 47.5 139t120.5 48q50 0 84 -19t70 -53q3 -2 18.5 -17.5t22 -21t20.5 -12t27 -6.5q25 0 43.5 16t18.5 55v39h108v-22q0 -94 -46 -141.5t-118 -47.5q-33 0 -64 13.5t-46 25.5t-41 37q-3 3 -11 10.5t-11 10t-10 9t-10.5 8.5t-9.5 6t-10.5 5.5t-10 3.5
t-11.5 2q-29 2 -50.5 -16t-21.5 -55v-39h-109z" />
    <glyph glyph-name="uni2000" unicode="&#x2000;" horiz-adv-x="925" 
 />
    <glyph glyph-name="uni2001" unicode="&#x2001;" horiz-adv-x="1851" 
 />
    <glyph glyph-name="uni2002" unicode="&#x2002;" horiz-adv-x="925" 
 />
    <glyph glyph-name="uni2003" unicode="&#x2003;" horiz-adv-x="1851" 
 />
    <glyph glyph-name="uni2004" unicode="&#x2004;" horiz-adv-x="617" 
 />
    <glyph glyph-name="uni2005" unicode="&#x2005;" horiz-adv-x="462" 
 />
    <glyph glyph-name="uni2006" unicode="&#x2006;" horiz-adv-x="308" 
 />
    <glyph glyph-name="uni2007" unicode="&#x2007;" horiz-adv-x="308" 
 />
    <glyph glyph-name="uni2008" unicode="&#x2008;" horiz-adv-x="231" 
 />
    <glyph glyph-name="uni2009" unicode="&#x2009;" horiz-adv-x="370" 
 />
    <glyph glyph-name="uni200A" unicode="&#x200a;" horiz-adv-x="102" 
 />
    <glyph glyph-name="uni2010" unicode="&#x2010;" horiz-adv-x="983" 
d="M92 629v110h799v-110h-799z" />
    <glyph glyph-name="uni2011" unicode="&#x2011;" horiz-adv-x="983" 
d="M92 629v110h799v-110h-799z" />
    <glyph glyph-name="figuredash" unicode="&#x2012;" horiz-adv-x="983" 
d="M92 629v110h799v-110h-799z" />
    <glyph glyph-name="endash" unicode="&#x2013;" horiz-adv-x="1515" 
d="M133 578v112h1249v-112h-1249z" />
    <glyph glyph-name="emdash" unicode="&#x2014;" horiz-adv-x="2349" 
d="M154 578v112h2041v-112h-2041z" />
    <glyph glyph-name="quoteleft" unicode="&#x2018;" horiz-adv-x="370" 
d="M82 1382q0 75 46.5 131t121.5 68l18 -63q-48 -8 -77 -39t-29 -60q12 4 28 4q42 0 70.5 -23t28.5 -65q0 -43 -27.5 -68.5t-68.5 -25.5q-52 0 -81.5 38t-29.5 103z" />
    <glyph glyph-name="quoteright" unicode="&#x2019;" horiz-adv-x="370" 
d="M82 1487q0 43 27.5 68.5t68.5 25.5q52 0 81.5 -38t29.5 -103q0 -75 -46.5 -131t-121.5 -68l-19 64q48 8 77.5 39t29.5 59q-12 -4 -29 -4q-42 0 -70 23t-28 65z" />
    <glyph glyph-name="quotesinglbase" unicode="&#x201a;" horiz-adv-x="370" 
d="M82 61q0 43 27.5 69t68.5 26q52 0 81.5 -38.5t29.5 -103.5q0 -75 -46.5 -130.5t-121.5 -67.5l-19 63q48 8 77.5 39t29.5 59q-12 -4 -29 -4q-42 0 -70 23t-28 65z" />
    <glyph glyph-name="quotedblleft" unicode="&#x201c;" horiz-adv-x="634" 
d="M82 1280q0 75 46.5 131t121.5 68l18 -64q-48 -8 -77 -39t-29 -59q12 4 28 4q42 0 70.5 -23t28.5 -65q0 -43 -27.5 -68.5t-68.5 -25.5q-52 0 -81.5 38t-29.5 103zM346 1280q0 75 46.5 131t121.5 68l18 -64q-48 -8 -77 -39t-29 -59q12 4 29 4q42 0 70 -23t28 -65
q0 -43 -27.5 -68.5t-68.5 -25.5q-52 0 -81.5 38t-29.5 103z" />
    <glyph glyph-name="quotedblright" unicode="&#x201d;" horiz-adv-x="634" 
d="M82 1384q0 43 27.5 69t68.5 26q52 0 81.5 -38.5t29.5 -103.5q0 -75 -46.5 -130.5t-121.5 -67.5l-19 63q48 8 77.5 39t29.5 59q-12 -4 -29 -4q-42 0 -70 23t-28 65zM346 1384q0 43 27.5 69t68.5 26q52 0 81.5 -38.5t29.5 -103.5q0 -75 -46.5 -130.5t-121.5 -67.5l-18 63
q48 8 77 39t29 59q-12 -4 -29 -4q-42 0 -70 23t-28 65z" />
    <glyph glyph-name="quotedblbase" unicode="&#x201e;" horiz-adv-x="634" 
d="M82 61q0 43 27.5 69t68.5 26q52 0 81.5 -38.5t29.5 -103.5q0 -75 -46.5 -130.5t-121.5 -67.5l-19 63q48 8 77.5 39t29.5 59q-12 -4 -29 -4q-42 0 -70 23t-28 65zM346 61q0 43 27.5 69t68.5 26q52 0 81.5 -38.5t29.5 -103.5q0 -75 -46.5 -130.5t-121.5 -67.5l-18 63
q48 8 77 39t29 59q-12 -4 -29 -4q-42 0 -70 23t-28 65z" />
    <glyph glyph-name="bullet" unicode="&#x2022;" horiz-adv-x="612" 
d="M143 655q0 68 47.5 115t116.5 47q67 0 114.5 -47.5t47.5 -114.5q0 -69 -47 -116t-115 -47q-69 0 -116.5 47t-47.5 116z" />
    <glyph glyph-name="ellipsis" unicode="&#x2026;" horiz-adv-x="1445" 
d="M184 88q0 41 30 70.5t73 29.5q41 0 70.5 -29.5t29.5 -70.5q0 -43 -29.5 -72.5t-70.5 -29.5q-43 0 -73 29.5t-30 72.5zM625 88q0 41 29.5 70.5t72.5 29.5q41 0 70.5 -29.5t29.5 -70.5q0 -43 -29.5 -72.5t-70.5 -29.5q-43 0 -72.5 29.5t-29.5 72.5zM1059 88q0 41 29.5 70.5
t72.5 29.5q41 0 71 -29.5t30 -70.5q0 -42 -30 -72t-71 -30q-43 0 -72.5 29.5t-29.5 72.5z" />
    <glyph glyph-name="uni202F" unicode="&#x202f;" horiz-adv-x="370" 
 />
    <glyph glyph-name="guilsinglleft" unicode="&#x2039;" horiz-adv-x="579" 
d="M61 571l312 377h166l-316 -377l316 -376h-166z" />
    <glyph glyph-name="guilsinglright" unicode="&#x203a;" horiz-adv-x="579" 
d="M41 195l315 376l-315 377h166l311 -377l-311 -376h-166z" />
    <glyph glyph-name="uni205F" unicode="&#x205f;" horiz-adv-x="462" 
 />
    <glyph glyph-name="Euro" unicode="&#x20ac;" horiz-adv-x="1474" 
d="M70 496l20 116h146q-5 72 -5 90q0 51 2 76h-163l20 117h158q44 251 201.5 389.5t394.5 138.5q216 0 360.5 -115.5t200.5 -328.5l-133 -31q-51 169 -163.5 257.5t-270.5 88.5q-169 0 -288 -101t-159 -298h570l-21 -117h-563q-2 -23 -2 -71q0 -33 4 -95h582l-21 -116h-543
q41 -186 155.5 -286.5t283.5 -100.5q157 0 271.5 89.5t162.5 264.5l133 -35q-61 -218 -209 -333t-354 -115q-223 0 -381.5 133.5t-208.5 382.5h-180z" />
    <glyph glyph-name="trademark" unicode="&#x2122;" horiz-adv-x="1210" 
d="M61 1343v80h459v-80h-186v-423h-86v423h-187zM578 922v501h98l158 -381l153 381h100v-501h-88v317l-127 -315h-77l-131 323v-325h-86z" />
    <glyph glyph-name="uni25FC" unicode="&#x25fc;" horiz-adv-x="1024" 
d="M0 0v1024h1024v-1024h-1024z" />
    </font>
</defs>
</svg>
