<?xml version="1.0" standalone="no"?>
<!DOCTYPE svg PUBLIC "-//W3C//DTD SVG 1.1//EN" "http://www.w3.org/Graphics/SVG/1.1/DTD/svg11.dtd" >
<svg xmlns="http://www.w3.org/2000/svg" xmlns:xlink="http://www.w3.org/1999/xlink" version="1.1">
<metadata>
Created by FontForge 20170731 at Fri Jul 14 18:49:04 2023
 By Aleksey,,,
Copyright (c) 2022 by Studio Few. All rights reserved.
</metadata>
<defs>
<font id="FTSterling-Book" horiz-adv-x="1081" >
  <font-face 
    font-family="FT Sterling Book"
    font-weight="400"
    font-stretch="normal"
    units-per-em="2048"
    panose-1="0 0 0 0 0 0 0 0 0 0"
    ascent="1638"
    descent="-410"
    x-height="1024"
    cap-height="1403"
    bbox="-94 -545 2218 1864"
    underline-thickness="102"
    underline-position="-357"
    unicode-range="U+0020-25FC"
  />
<missing-glyph horiz-adv-x="748" 
d="M68 0v1365h544v-1365h-544zM136 68h408v1229h-408v-1229z" />
    <glyph glyph-name=".notdef" horiz-adv-x="748" 
d="M68 0v1365h544v-1365h-544zM136 68h408v1229h-408v-1229z" />
    <glyph glyph-name="glyph1" horiz-adv-x="0" 
 />
    <glyph glyph-name="glyph2" horiz-adv-x="682" 
 />
    <glyph glyph-name="space" unicode=" " horiz-adv-x="608" 
 />
    <glyph glyph-name="exclam" unicode="!" horiz-adv-x="585" 
d="M182 96q0 44 32.5 76.5t78.5 32.5q45 0 76.5 -32t31.5 -77q0 -47 -31 -79.5t-77 -32.5t-78.5 32.5t-32.5 79.5zM213 1403h156l-15 -1014h-129z" />
    <glyph glyph-name="quotedbl" unicode="&#x22;" horiz-adv-x="577" 
d="M80 1489h166l-19 -369h-131zM334 1489h166l-19 -369h-131z" />
    <glyph glyph-name="numbersign" unicode="#" horiz-adv-x="1499" 
d="M98 358l15 121h274l74 475h-277l13 119h280l55 363h138l-56 -363h371l53 363h138l-54 -363h277l-13 -119h-280l-70 -475h279l-12 -121h-285l-49 -358h-138l50 358h-375l-55 -358h-138l56 358h-271zM524 479h375l70 475h-371z" />
    <glyph glyph-name="dollar" unicode="$" horiz-adv-x="1257" 
d="M78 377l149 33q19 -119 110 -195.5t230 -91.5v534l-137 23q-144 23 -228.5 117t-84.5 231q0 162 125 271.5t325 123.5v88h140v-90q156 -20 264 -101.5t143 -227.5l-149 -31q-49 188 -258 221v-504l79 -12q53 -8 100.5 -22.5t97.5 -42t85.5 -65t58.5 -95.5t23 -129
q0 -173 -119.5 -288.5t-324.5 -135.5v-99h-140v97q-201 14 -329.5 116t-159.5 275zM272 1034q0 -87 53.5 -144.5t147.5 -72.5l94 -16v487q-132 -12 -213.5 -82.5t-81.5 -171.5zM707 123q135 17 212.5 91.5t77.5 182.5q0 59 -20 102t-56 67.5t-73.5 37.5t-85.5 21l-55 10
v-512z" />
    <glyph glyph-name="percent" unicode="%" horiz-adv-x="1579" 
d="M109 1083q0 146 92 241t233 95t234.5 -94t93.5 -238t-93.5 -238.5t-234.5 -94.5t-233 93t-92 236zM215 0l1004 1405h161l-1001 -1405h-164zM238 1085q0 -93 55 -155t141 -62q84 0 138.5 62t54.5 155q0 92 -54.5 153.5t-138.5 61.5q-85 0 -140.5 -61.5t-55.5 -153.5z
M836 299q0 146 92 241t233 95t234.5 -94.5t93.5 -237.5q0 -144 -93.5 -239t-234.5 -95t-233 93.5t-92 236.5zM965 299q0 -92 55.5 -153.5t140.5 -61.5q84 0 138.5 61.5t54.5 153.5q0 93 -54.5 155t-138.5 62q-86 0 -141 -62t-55 -155z" />
    <glyph glyph-name="ampersand" unicode="&#x26;" horiz-adv-x="1409" 
d="M143 369q0 134 79 235t237 176q-4 4 -29 31.5t-32.5 36t-29.5 36t-30.5 42t-24 42.5t-22 50t-12 51t-5.5 59q0 143 102 235.5t261 92.5q156 0 259 -88.5t103 -226.5q0 -123 -86 -214.5t-237 -170.5l348 -361q26 38 49 111.5t33 155.5l149 -11q-31 -228 -125 -364
l189 -187l-98 -102l-162 168q-81 -94 -196 -146.5t-253 -52.5q-208 0 -337.5 110.5t-129.5 291.5zM295 373q0 -118 86.5 -196.5t228.5 -78.5q104 0 195.5 45t150.5 123l-405 420h-10q-246 -129 -246 -313zM424 1122q0 -121 147 -268h11q127 62 195.5 126.5t68.5 156.5
q0 87 -55.5 141.5t-147.5 54.5q-98 0 -158.5 -60.5t-60.5 -150.5z" />
    <glyph glyph-name="quotesingle" unicode="'" horiz-adv-x="323" 
d="M80 1489h166l-19 -369h-131z" />
    <glyph glyph-name="parenleft" unicode="(" horiz-adv-x="555" 
d="M109 664q0 261 77 492t201 405h162q-130 -189 -210.5 -424.5t-80.5 -472.5q0 -239 82 -479t215 -435h-162q-126 179 -205 415.5t-79 498.5z" />
    <glyph glyph-name="parenright" unicode=")" horiz-adv-x="555" 
d="M-2 -250q133 193 215 433.5t82 480.5q0 238 -80 473.5t-211 423.5h164q124 -174 201 -405t77 -492t-79.5 -497.5t-204.5 -416.5h-164z" />
    <glyph glyph-name="asterisk" unicode="*" horiz-adv-x="593" 
d="M68 1239l30 94l150 -57l-4 168h102l-2 -166l152 55l28 -94l-153 -47l102 -129l-78 -59l-100 135l-92 -133l-82 57l100 129z" />
    <glyph glyph-name="plus" unicode="+" horiz-adv-x="1191" 
d="M111 637v123h415v454h140v-454h415v-123h-415v-473h-140v473h-415z" />
    <glyph glyph-name="comma" unicode="," horiz-adv-x="505" 
d="M139 72q0 46 30.5 74t76.5 28q56 0 87.5 -41.5t31.5 -112.5q0 -84 -50.5 -143.5t-134.5 -71.5l-18 72q50 8 81 40t33 63q-25 -5 -32 -5q-45 0 -75 26t-30 71z" />
    <glyph glyph-name="hyphen" unicode="-" horiz-adv-x="980" 
d="M92 612v127h799v-127h-799z" />
    <glyph glyph-name="period" unicode="." horiz-adv-x="501" 
d="M141 96q0 44 32.5 76.5t78.5 32.5q44 0 76 -32.5t32 -76.5q0 -46 -32 -78t-76 -32q-46 0 -78.5 32t-32.5 78z" />
    <glyph glyph-name="slash" unicode="/" horiz-adv-x="983" 
d="M-2 -233l823 1708h162l-821 -1708h-164z" />
    <glyph glyph-name="zero" unicode="0" horiz-adv-x="1286" 
d="M100 702q0 339 146.5 530t398.5 191q253 0 397 -192.5t144 -525.5q0 -338 -145.5 -531.5t-399.5 -193.5t-397.5 193.5t-143.5 528.5zM260 705q0 -267 100.5 -425.5t280.5 -158.5q178 0 281.5 157t103.5 427q0 271 -104 424t-281 153t-279 -154.5t-102 -422.5z" />
    <glyph glyph-name="one" unicode="1" horiz-adv-x="688" 
d="M61 1118v88q150 9 227 54.5t103 142.5h146v-1403h-156v1118h-320z" />
    <glyph glyph-name="two" unicode="2" horiz-adv-x="1130" 
d="M72 0v119q0 77 21 144t54 115.5t82.5 92t97 73t107.5 58.5l203 98q58 27 95 49t77 57.5t60 83.5t20 109q0 125 -86 203t-225 78q-142 0 -226 -80.5t-108 -206.5l-150 25q21 180 153.5 292.5t336.5 112.5q206 0 337.5 -114.5t131.5 -300.5q0 -53 -12.5 -101.5t-30.5 -84.5
t-46.5 -69.5t-53 -55t-57.5 -43t-52 -31.5t-45 -23l-201 -96q-30 -14 -41.5 -19.5t-43 -22t-47.5 -27t-44.5 -30.5t-44 -37t-36 -41.5t-31.5 -49t-19 -55.5t-8 -64v-17h794v-141h-962z" />
    <glyph glyph-name="three" unicode="3" horiz-adv-x="1140" 
d="M92 354l146 23q28 -118 112.5 -190t218.5 -72q146 0 238 76.5t92 207.5q0 129 -99.5 200t-267.5 71h-116v127h110q156 0 241 66t85 184q0 116 -81.5 178.5t-213.5 62.5q-135 0 -213 -70t-94 -180l-144 23q6 71 38.5 135t88.5 115.5t142.5 81.5t191.5 30q125 0 226 -42
t162 -125.5t61 -194.5q0 -65 -21.5 -121t-57.5 -93.5t-74.5 -63t-78.5 -38.5v-10q28 -4 60 -16t72.5 -38.5t72 -62.5t53 -94.5t21.5 -128.5q0 -127 -68.5 -223t-179 -144t-244.5 -48q-200 0 -328 106t-151 268z" />
    <glyph glyph-name="four" unicode="4" horiz-adv-x="1171" 
d="M72 348v146l635 909h217v-918h219v-139h-219v-346h-156v348h-696zM236 485h532v760h-10l-522 -749v-11z" />
    <glyph glyph-name="five" unicode="5" horiz-adv-x="1116" 
d="M78 315l133 43q32 -108 125.5 -174.5t214.5 -66.5q148 0 245 99t97 243t-96 236.5t-240 92.5q-193 0 -297 -161l-156 55l101 721h743v-139h-629l-67 -476h10q111 134 322 134q200 0 331.5 -130.5t131.5 -330.5q0 -98 -36 -185.5t-100.5 -153t-159 -104t-204.5 -38.5
q-183 0 -311 96.5t-158 238.5z" />
    <glyph glyph-name="six" unicode="6" horiz-adv-x="1200" 
d="M100 688q0 185 44.5 329t122 231t176 131t214.5 44q158 0 274.5 -74t147.5 -188l-133 -53q-80 178 -287 178q-194 0 -297.5 -159t-103.5 -431v-16h10q42 102 150 165.5t244 63.5q197 0 331.5 -126t134.5 -328q0 -133 -60 -241.5t-173.5 -172.5t-259.5 -64
q-117 0 -214.5 46t-169.5 134t-111.5 223.5t-39.5 307.5zM299 444q0 -139 95 -235t247 -96t240 96.5t88 241.5q0 147 -90 234t-232 87q-150 0 -249 -94t-99 -234z" />
    <glyph glyph-name="seven" unicode="7" horiz-adv-x="997" 
d="M14 1264v139h971v-109q-124 -150 -213.5 -284.5t-165 -292t-119.5 -335.5t-59 -382h-166q16 190 62 367t117.5 332t155.5 288.5t191 265.5v11h-774z" />
    <glyph glyph-name="eight" unicode="8" horiz-adv-x="1136" 
d="M90 387q0 136 76.5 229t202.5 125v11q-106 33 -171 121.5t-65 195.5q0 152 121.5 253t312.5 101q194 0 315.5 -101t121.5 -253q0 -108 -65.5 -195.5t-172.5 -121.5v-11q126 -32 203.5 -124.5t77.5 -225.5q0 -183 -134.5 -297t-345.5 -114q-214 0 -345.5 115t-131.5 292z
M250 395q0 -123 87.5 -198.5t229.5 -75.5q144 0 232 75.5t88 198.5t-87 204t-233 81t-231.5 -81t-85.5 -204zM295 1059q0 -102 75.5 -167t196.5 -65t198 65t77 167q0 101 -76.5 162t-198.5 61t-197 -61t-75 -162z" />
    <glyph glyph-name="nine" unicode="9" horiz-adv-x="1200" 
d="M70 946q0 203 137.5 340t357.5 137q241 0 387 -184.5t146 -525.5q0 -185 -44 -328.5t-121 -231t-176 -132t-214 -44.5q-158 0 -274.5 74.5t-149.5 190.5l133 53q38 -85 110.5 -132.5t176.5 -47.5q194 0 298.5 159t104.5 431v16h-10q-42 -101 -150.5 -165t-244.5 -64
q-127 0 -233 55t-170 160t-64 239zM229 950q0 -147 90.5 -234t233.5 -87q150 0 249 93.5t99 233.5q0 139 -95 235.5t-247 96.5t-241 -96.5t-89 -241.5z" />
    <glyph glyph-name="colon" unicode=":" horiz-adv-x="520" 
d="M150 111q0 45 32.5 76.5t79.5 31.5q44 0 76.5 -32t32.5 -76q0 -47 -32 -80t-77 -33q-47 0 -79.5 33t-32.5 80zM150 918q0 45 32.5 76.5t79.5 31.5q44 0 76.5 -32t32.5 -76q0 -47 -32 -80t-77 -33q-47 0 -79.5 33t-32.5 80z" />
    <glyph glyph-name="semicolon" unicode=";" horiz-adv-x="526" 
d="M152 86q0 46 29.5 74t74.5 28q57 0 89 -41t32 -112q0 -84 -51.5 -143.5t-135.5 -71.5l-18 71q51 8 82 39.5t33 63.5q-20 -4 -33 -4q-43 0 -72.5 25.5t-29.5 70.5zM154 918q0 45 32.5 76.5t79.5 31.5q44 0 76.5 -32t32.5 -76q0 -47 -32 -80t-77 -33q-47 0 -79.5 33
t-32.5 80z" />
    <glyph glyph-name="less" unicode="&#x3c;" horiz-adv-x="1021" 
d="M72 606v158l878 385v-152l-743 -307v-10l743 -309v-152z" />
    <glyph glyph-name="equal" unicode="=" horiz-adv-x="1173" 
d="M131 420v127h913v-127h-913zM131 836v127h913v-127h-913z" />
    <glyph glyph-name="greater" unicode="&#x3e;" horiz-adv-x="1021" 
d="M70 219v152l745 309v10l-745 309v150l880 -385v-158z" />
    <glyph glyph-name="question" unicode="?" horiz-adv-x="1030" 
d="M70 1030q20 177 145.5 285t314.5 108q190 0 310.5 -106t120.5 -277q0 -65 -17.5 -118.5t-53 -96.5t-64 -69t-76.5 -63q-11 -9 -17 -13q-44 -34 -70 -58t-54.5 -60.5t-40 -80.5t-7.5 -98h-143q-3 43 3 82.5t15 69.5t28.5 61t34.5 51t43.5 47t45.5 40.5t49 39.5
q43 34 66 55t51.5 55.5t41.5 73t13 84.5q0 110 -78 179t-201 69q-136 0 -219.5 -80.5t-97.5 -201.5zM383 96q0 45 33 77t80 32q44 0 76 -32.5t32 -76.5q0 -47 -31.5 -79.5t-76.5 -32.5q-47 0 -80 32.5t-33 79.5z" />
    <glyph glyph-name="at" unicode="@" horiz-adv-x="1437" 
d="M90 555q0 186 85.5 339.5t239 243t343.5 89.5q171 0 309.5 -73t218.5 -206t80 -301q0 -178 -85 -290.5t-222 -112.5q-69 0 -117 33t-61 106h-11q-62 -145 -213 -145q-114 0 -186 79.5t-72 210.5q0 152 93 260.5t223 108.5q61 0 105 -29t57 -94h10l10 113h145l-45 -408
q-12 -119 74 -119q72 0 120 79.5t48 203.5q0 208 -136 338.5t-347 130.5q-153 0 -275.5 -73.5t-190 -200t-67.5 -279.5q0 -148 61.5 -266t179 -187t271.5 -69h500v-115h-500q-194 0 -342 85t-225.5 228t-77.5 320zM539 532q0 -81 39.5 -128.5t101.5 -47.5q79 0 134.5 72.5
t55.5 171.5q0 81 -38 129.5t-101 48.5q-80 0 -136 -71.5t-56 -174.5z" />
    <glyph glyph-name="A" unicode="A" horiz-adv-x="1337" 
d="M16 0l562 1403h178l565 -1403h-174l-154 389h-651l-156 -389h-170zM385 522h557l-270 705h-10z" />
    <glyph glyph-name="B" unicode="B" horiz-adv-x="1306" 
d="M180 0v1403h576q190 -4 302.5 -98.5t112.5 -245.5q0 -107 -59 -187.5t-168 -121.5v-17q116 -20 195.5 -108t79.5 -226q0 -174 -128 -286.5t-335 -112.5h-576zM338 137h379q172 0 255 72t83 194q0 126 -85.5 193.5t-226.5 67.5h-405v-527zM338 801h377q138 0 216.5 66
t78.5 175t-77.5 166.5t-225.5 57.5h-369v-465z" />
    <glyph glyph-name="C" unicode="C" horiz-adv-x="1437" 
d="M90 700q0 155 47.5 288t133.5 229.5t213.5 151t279.5 54.5q228 0 384 -116t210 -310l-150 -39q-48 150 -164.5 236t-281.5 86q-107 0 -200.5 -38.5t-163.5 -110t-110 -181t-40 -243.5q0 -260 141.5 -421t370.5 -161q163 0 279 87.5t169 246.5l146 -39
q-59 -205 -214.5 -322.5t-375.5 -117.5q-143 0 -267 51t-214 143.5t-141.5 228t-51.5 297.5z" />
    <glyph glyph-name="D" unicode="D" horiz-adv-x="1409" 
d="M180 0v1403h461q141 0 265 -48.5t215.5 -136.5t144.5 -220t53 -291q0 -160 -53 -294t-144.5 -223.5t-215.5 -139.5t-265 -50h-461zM336 139h307q107 0 201 39t164.5 110.5t111.5 180t41 238.5q0 129 -41 235.5t-111.5 176t-164.5 107.5t-201 38h-307v-1125z" />
    <glyph glyph-name="E" unicode="E" horiz-adv-x="1226" 
d="M180 0v1403h926v-139h-768v-480h702l2 -139h-704v-506h768v-139h-926z" />
    <glyph glyph-name="F" unicode="F" horiz-adv-x="1159" 
d="M180 0v1403h918v-139h-760v-484h696v-139h-696v-641h-158z" />
    <glyph glyph-name="G" unicode="G" horiz-adv-x="1488" 
d="M90 702q0 325 186 525t484 200q112 0 211.5 -31.5t171.5 -85t121.5 -122t68.5 -144.5l-153 -36q-39 116 -150 196t-278 80q-227 0 -365.5 -157.5t-138.5 -419.5q0 -168 59.5 -300.5t175 -209t269.5 -76.5q96 0 177 28.5t132.5 72t88 97t52 102t15.5 89.5v20
q0 37 -17 53.5t-55 16.5h-445v137h451q116 0 170.5 -52.5t54.5 -166.5v-518h-151v281h-11q-14 -41 -35.5 -79.5t-61 -80.5t-90 -73t-126 -51t-164.5 -20q-191 0 -338.5 92t-228 257t-80.5 376z" />
    <glyph glyph-name="H" unicode="H" horiz-adv-x="1443" 
d="M180 0v1403h158v-625h768v625h158v-1403h-158v635h-768v-635h-158z" />
    <glyph glyph-name="I" unicode="I" horiz-adv-x="518" 
d="M180 0v1403h158v-1403h-158z" />
    <glyph glyph-name="J" unicode="J" horiz-adv-x="733" 
d="M41 0v139h166q105 0 157 56t52 161v1047h155v-1047q0 -172 -91.5 -264t-270.5 -92h-168z" />
    <glyph glyph-name="K" unicode="K" horiz-adv-x="1310" 
d="M180 0v1403h158l2 -764h10l686 764h195l-526 -602l579 -801h-201l-493 684h-10l-240 -256l-2 -428h-158z" />
    <glyph glyph-name="L" unicode="L" horiz-adv-x="1077" 
d="M180 0v1403h158v-1264h690v-139h-848z" />
    <glyph glyph-name="M" unicode="M" horiz-adv-x="1765" 
d="M180 0v1403h226l464 -1227h11l477 1227h227v-1403h-158v1145h-10l-448 -1145h-187l-434 1141h-10v-1141h-158z" />
    <glyph glyph-name="N" unicode="N" horiz-adv-x="1509" 
d="M180 0v1403h195l786 -1182h10v1182h156v-1403h-197l-782 1178h-10v-1178h-158z" />
    <glyph glyph-name="O" unicode="O" horiz-adv-x="1533" 
d="M90 702q0 213 87 377.5t240.5 254t348.5 89.5q194 0 348 -89t242 -254t88 -378q0 -161 -51 -296.5t-141 -228.5t-215.5 -145t-270.5 -52t-270 52t-214.5 145t-140.5 228.5t-51 296.5zM250 702q0 -261 143 -420t373 -159q231 0 373.5 158.5t142.5 420.5q0 260 -142.5 420
t-373.5 160q-230 0 -373 -160t-143 -420z" />
    <glyph glyph-name="P" unicode="P" horiz-adv-x="1226" 
d="M180 0v1403h541q200 0 323 -115.5t123 -298.5q0 -184 -124 -301t-324 -117h-383v-571h-156zM336 711h377q136 0 214.5 75.5t78.5 200.5t-78.5 201t-214.5 76h-375z" />
    <glyph glyph-name="Q" unicode="Q" horiz-adv-x="1552" 
d="M92 702q0 211 87 375.5t241 255t348 90.5q195 0 349.5 -90.5t241.5 -255t87 -375.5q0 -160 -51.5 -294.5t-145.5 -231.5q72 -63 176 -63h39v-133h-41q-174 0 -284 104q-159 -104 -371 -104q-144 0 -269.5 53t-215 147t-140.5 229t-51 293zM254 702q0 -256 143.5 -417.5
t370.5 -161.5q157 0 279 80q-56 88 -121.5 131t-163.5 43h-37v133h41q132 0 224.5 -53.5t160.5 -161.5q135 160 135 407q0 255 -144.5 417.5t-373.5 162.5q-227 0 -370.5 -162.5t-143.5 -417.5z" />
    <glyph glyph-name="R" unicode="R" horiz-adv-x="1366" 
d="M180 0v1403h559q216 0 331.5 -103t115.5 -280q0 -249 -244 -330v-10q45 -2 82 -15.5t69 -41.5t50 -77t18 -116v-430h-157v426q0 98 -52 136t-145 38h-473v-600h-154zM334 737h397q137 0 215 73t78 200q0 120 -76 188t-225 68h-387z" />
    <glyph glyph-name="S" unicode="S" horiz-adv-x="1257" 
d="M78 377l149 33q22 -133 133 -213t277 -80q164 0 262 79t98 201q0 59 -20 102t-56 67.5t-73.5 37.5t-85.5 21l-332 55q-144 23 -228.5 117t-84.5 231q0 173 141 285t360 112q122 0 221.5 -34t173.5 -110.5t101 -188.5l-149 -31q-17 64 -53.5 110.5t-86 72t-101.5 37
t-110 11.5q-150 0 -246 -73.5t-96 -184.5q0 -87 53.5 -144.5t147.5 -72.5l313 -51q53 -8 100.5 -22.5t97.5 -42t85.5 -65t58.5 -95.5t23 -129q0 -190 -141 -309t-381 -119q-226 0 -372.5 104t-178.5 289z" />
    <glyph glyph-name="T" unicode="T" horiz-adv-x="1193" 
d="M20 1268v135h1154v-135h-500v-1268h-154l2 1268h-502z" />
    <glyph glyph-name="U" unicode="U" horiz-adv-x="1417" 
d="M162 518v885h155v-883q0 -189 107.5 -292t284.5 -103q178 0 284.5 103t106.5 292v883h157v-885q0 -253 -150.5 -394.5t-397.5 -141.5t-397 141.5t-150 394.5z" />
    <glyph glyph-name="V" unicode="V" horiz-adv-x="1345" 
d="M20 1403h177l471 -1206h10l471 1206h176l-569 -1403h-166z" />
    <glyph glyph-name="W" unicode="W" horiz-adv-x="1894" 
d="M29 1403h168l303 -1202h10l352 1202h168l352 -1204h11l303 1204h168l-387 -1403h-185l-342 1165h-10l-346 -1165h-184z" />
    <glyph glyph-name="X" unicode="X" horiz-adv-x="1335" 
d="M20 0l537 723l-504 680h183l415 -563h15l405 563h186l-489 -684l547 -719h-191l-456 602h-13l-442 -602h-193z" />
    <glyph glyph-name="Y" unicode="Y" horiz-adv-x="1247" 
d="M18 1403h181l417 -682h11l422 682h180l-529 -840v-563h-155v563z" />
    <glyph glyph-name="Z" unicode="Z" horiz-adv-x="1294" 
d="M90 0v145l920 1108v11h-908v139h1102v-146l-921 -1107v-11h929v-139h-1122z" />
    <glyph glyph-name="bracketleft" unicode="[" horiz-adv-x="651" 
d="M180 -256v1708h463v-131h-317v-1448h317v-129h-463z" />
    <glyph glyph-name="backslash" unicode="\" horiz-adv-x="983" 
d="M-2 1475h162l823 -1708h-164z" />
    <glyph glyph-name="bracketright" unicode="]" horiz-adv-x="651" 
d="M10 -127h316v1448h-316v131h461v-1708h-461v129z" />
    <glyph glyph-name="asciicircum" unicode="^" horiz-adv-x="888" 
d="M55 784l307 619h164l308 -619h-146l-239 494h-11l-239 -494h-144z" />
    <glyph glyph-name="underscore" unicode="_" horiz-adv-x="1046" 
d="M27 0h991v-129h-991v129z" />
    <glyph glyph-name="grave" unicode="`" horiz-adv-x="532" 
d="M68 1505h194l205 -282h-162z" />
    <glyph glyph-name="a" unicode="a" 
d="M98 287q0 143 100 217.5t273 85.5l225 14q60 4 87.5 22.5t27.5 80.5q0 101 -74 158t-194 57q-113 0 -183 -52t-92 -133l-141 15q19 130 133 212.5t283 82.5q187 0 302.5 -93t115.5 -249v-705h-156l2 184h-10q-32 -89 -124.5 -149t-219.5 -60q-159 0 -257 85.5t-98 226.5z
M254 291q0 -87 61 -138t166 -51q146 0 238 97.5t92 238.5v70q-26 -16 -98 -19l-219 -16q-240 -17 -240 -182z" />
    <glyph glyph-name="b" unicode="b" horiz-adv-x="1212" 
d="M160 0v1423h149v-594h10q40 87 133.5 147t221.5 60q202 0 330.5 -147.5t128.5 -378.5q0 -235 -131 -384t-332 -149q-125 0 -218 58.5t-133 144.5h-10v-180h-149zM303 504q0 -180 99 -285.5t247 -105.5q146 0 240 106.5t94 288.5q0 180 -92.5 287.5t-239.5 107.5
q-151 0 -249.5 -110t-98.5 -289z" />
    <glyph glyph-name="c" unicode="c" horiz-adv-x="1091" 
d="M80 512q0 235 141.5 383.5t362.5 148.5q163 0 284.5 -84t157.5 -231l-139 -35q-34 104 -112 160.5t-187 56.5q-161 0 -259 -115t-98 -286q0 -174 101 -285.5t258 -111.5q106 0 189.5 58t119.5 163l131 -31q-40 -152 -163 -237.5t-285 -85.5q-216 0 -359 146.5t-143 385.5
z" />
    <glyph glyph-name="d" unicode="d" horiz-adv-x="1202" 
d="M80 510q0 230 129 378t330 148q128 0 222 -60t132 -147h10v594h150v-1423h-150v180h-10q-38 -85 -131.5 -144t-218.5 -59q-201 0 -332 149t-131 384zM229 508q0 -182 94 -288.5t240 -106.5q148 0 247 105.5t99 285.5q0 179 -98.5 289t-249.5 110q-147 0 -239.5 -107.5
t-92.5 -287.5z" />
    <glyph glyph-name="e" unicode="e" horiz-adv-x="1112" 
d="M82 508q0 237 131 385.5t352 148.5q219 0 344 -147t125 -383q0 -8 -1 -26t-1 -25h-801q5 -157 95 -254.5t247 -97.5q113 0 190.5 57t106.5 139l134 -37q-35 -123 -153 -207t-280 -84q-223 0 -356 146.5t-133 384.5zM236 586h647q-7 152 -94.5 238.5t-223.5 86.5
q-135 0 -227.5 -89.5t-101.5 -235.5z" />
    <glyph glyph-name="f" unicode="f" horiz-adv-x="704" 
d="M39 895v129h194v152q0 124 71 190t196 66h166v-127h-142q-81 0 -112 -38t-31 -108v-135h274v-129h-274v-895h-148v895h-194z" />
    <glyph glyph-name="g" unicode="g" horiz-adv-x="1200" 
d="M88 522q0 233 132.5 379t332.5 146q126 0 216 -58t132 -145h10v180h148v-967q0 -217 -133 -336.5t-357 -119.5q-176 0 -299.5 79t-146.5 207l139 29q23 -86 110 -137t199 -51q155 0 247.5 84.5t92.5 240.5v154h-10q-42 -88 -133 -147.5t-219 -59.5q-201 0 -331 146
t-130 376zM240 522q0 -177 92.5 -283t238.5 -106q148 0 246 109.5t98 285.5q0 175 -98 279t-244 104t-239.5 -105t-93.5 -284z" />
    <glyph glyph-name="h" unicode="h" horiz-adv-x="1173" 
d="M160 0v1423h149v-596h8q38 101 125.5 159t219.5 58q172 0 271 -99t99 -279v-666h-149v629q0 41 -7 78.5t-25.5 76t-47 66.5t-75.5 45.5t-107 17.5q-140 0 -226 -97.5t-86 -272.5v-543h-149z" />
    <glyph glyph-name="i" unicode="i" horiz-adv-x="448" 
d="M119 1319q0 43 31 73.5t75 30.5q43 0 74 -30.5t31 -73.5q0 -44 -31 -75.5t-74 -31.5q-44 0 -75 31.5t-31 75.5zM147 0v1024h150v-1024h-150z" />
    <glyph glyph-name="j" unicode="j" horiz-adv-x="491" 
d="M-35 -233h92q71 0 104.5 32.5t33.5 114.5v1110h147v-1122q0 -128 -70.5 -196t-183.5 -68h-123v129zM160 1321q0 43 31 73.5t75 30.5q43 0 74 -30.5t31 -73.5q0 -44 -31 -75.5t-74 -31.5q-44 0 -75 31.5t-31 75.5z" />
    <glyph glyph-name="k" unicode="k" horiz-adv-x="1040" 
d="M160 0v1423h149v-944h10l498 545h187l-388 -424l406 -600h-178l-330 489h-10l-195 -202v-287h-149z" />
    <glyph glyph-name="l" unicode="l" horiz-adv-x="468" 
d="M160 0v1423h149v-1423h-149z" />
    <glyph glyph-name="m" unicode="m" horiz-adv-x="1765" 
d="M160 0v1024h149v-199h10q34 99 117.5 160.5t204.5 61.5q115 0 191.5 -55.5t105.5 -160.5h10q50 112 138.5 164t197.5 52q160 0 250 -103.5t90 -277.5v-666h-147v633q0 51 -10.5 96.5t-35 89t-71.5 69t-113 25.5q-122 0 -196 -91t-74 -247v-575h-148v633q0 41 -5 77.5
t-20 75t-39 65.5t-65.5 44.5t-95.5 17.5q-132 0 -213.5 -102.5t-81.5 -282.5v-528h-149z" />
    <glyph glyph-name="n" unicode="n" horiz-adv-x="1173" 
d="M160 0v1024h149v-188h8q38 93 129.5 150.5t215.5 57.5q166 0 268 -100t102 -278v-666h-149v629q0 51 -13.5 98.5t-42 90.5t-81.5 69t-125 26q-137 0 -224.5 -98.5t-87.5 -273.5v-541h-149z" />
    <glyph glyph-name="o" unicode="o" horiz-adv-x="1177" 
d="M80 510q0 236 144.5 385t365.5 149t364.5 -149t143.5 -385q0 -235 -143.5 -382.5t-364.5 -147.5q-222 0 -366 148t-144 382zM233 510q0 -178 100 -288.5t255 -110.5q158 0 259 110t101 289q0 181 -100.5 292t-257.5 111q-156 0 -256.5 -111t-100.5 -292z" />
    <glyph glyph-name="p" unicode="p" horiz-adv-x="1212" 
d="M160 -381v1405h149v-180h10q40 86 133 144.5t218 58.5q201 0 333 -149t132 -382q0 -232 -129.5 -380t-331.5 -148q-128 0 -221.5 60t-133.5 147h-10v-576h-149zM303 520q0 -179 98.5 -289t249.5 -110q147 0 239.5 107.5t92.5 287.5q0 182 -94 288.5t-240 106.5
q-148 0 -247 -105.5t-99 -285.5z" />
    <glyph glyph-name="q" unicode="q" horiz-adv-x="1204" 
d="M80 516q0 233 131 382t332 149q126 0 219 -58.5t131 -144.5h10v180h150v-1405h-150v576h-10q-39 -87 -131.5 -147t-222.5 -60q-201 0 -330 148t-129 380zM229 516q0 -180 93.5 -287.5t240.5 -107.5q151 0 248.5 110t97.5 289q0 180 -98.5 285.5t-245.5 105.5
q-148 0 -242 -106.5t-94 -288.5z" />
    <glyph glyph-name="r" unicode="r" horiz-adv-x="763" 
d="M160 0v1024h149v-184h8q8 30 24.5 59t46.5 60t80 50t114 19h143v-139h-147q-128 0 -198.5 -78t-70.5 -225v-586h-149z" />
    <glyph glyph-name="s" unicode="s" horiz-adv-x="999" 
d="M70 266l143 29q16 -84 91.5 -138.5t195.5 -54.5q118 0 191 54t73 141q0 34 -13 59.5t-28.5 39t-45.5 24t-45 13.5t-46 7l-240 39q-112 18 -180 87.5t-68 176.5q0 134 107.5 217.5t286.5 83.5q66 0 126 -13.5t114.5 -43t94 -82t54.5 -123.5l-140 -30q-26 86 -93.5 127
t-158.5 41q-99 0 -171 -42t-72 -126q0 -51 29.5 -85.5t64 -47.5t76.5 -19l219 -35q276 -38 276 -260q0 -151 -119 -240.5t-298 -89.5q-172 0 -288 80.5t-136 210.5z" />
    <glyph glyph-name="t" unicode="t" horiz-adv-x="813" 
d="M39 897v127h168q16 0 16 18v267l150 16v-301h329v-127h-329v-631q0 -64 30 -100.5t109 -36.5h213v-129h-240q-127 0 -194.5 66t-67.5 194v637h-184z" />
    <glyph glyph-name="u" unicode="u" horiz-adv-x="1171" 
d="M150 360v664h149v-629q0 -53 12.5 -99.5t40 -90t80 -69t125.5 -25.5q144 0 229.5 107t85.5 282v524h150v-1024h-150v197h-10q-90 -217 -342 -217q-172 0 -271 101t-99 279z" />
    <glyph glyph-name="v" unicode="v" horiz-adv-x="1009" 
d="M20 1024h162l316 -864h10l317 864h166l-401 -1024h-172z" />
    <glyph glyph-name="w" unicode="w" horiz-adv-x="1472" 
d="M29 1024h159l220 -819h10l233 819h170l236 -819h10l217 819h160l-299 -1024h-156l-246 840h-10l-246 -840h-157z" />
    <glyph glyph-name="x" unicode="x" horiz-adv-x="1003" 
d="M20 0l390 522l-375 502h172l289 -391h10l282 391h173l-367 -506l389 -518h-174l-299 410h-10l-305 -410h-175z" />
    <glyph glyph-name="y" unicode="y" horiz-adv-x="1030" 
d="M18 1024h162l334 -852h10l312 852h176l-463 -1147q-16 -38 -29.5 -66t-41 -67t-58 -64t-78 -43t-102.5 -18h-183v129h158q69 1 111.5 38t72.5 114l39 100z" />
    <glyph glyph-name="z" unicode="z" horiz-adv-x="1011" 
d="M80 0v127l657 758v10h-641v129h830v-129l-656 -756v-10h662v-129h-852z" />
    <glyph glyph-name="braceleft" unicode="{" horiz-adv-x="565" 
d="M92 510v113q97 49 126.5 122.5t29.5 217.5v354q0 110 62.5 182t168.5 72h78v-127h-41q-63 0 -95 -35t-32 -123v-354q0 -66 -5 -112.5t-21 -95.5t-49.5 -87t-86.5 -68v-10q52 -29 85.5 -66.5t49.5 -86t21.5 -95t5.5 -112.5v-387q0 -83 32 -117.5t95 -34.5h41v-129h-76
q-107 0 -170 72.5t-63 185.5v379q0 77 -5 124.5t-21.5 90.5t-47.5 72.5t-82 54.5z" />
    <glyph glyph-name="bar" unicode="|" horiz-adv-x="503" 
d="M180 -248v1850h142v-1850h-142z" />
    <glyph glyph-name="braceright" unicode="}" horiz-adv-x="565" 
d="M10 -340h39q64 0 95.5 34t31.5 118v387q0 135 32 220t132 140v10q-53 30 -86.5 68t-50 87t-22 95.5t-5.5 112.5v354q0 88 -31.5 123t-95.5 35h-39v127h76q106 0 168.5 -72t62.5 -182v-354q0 -144 30 -217.5t128 -122.5v-113q-99 -48 -128.5 -119.5t-29.5 -222.5v-379
q0 -113 -63 -185.5t-170 -72.5h-74v129z" />
    <glyph glyph-name="uni00A0" unicode="&#xa0;" horiz-adv-x="608" 
 />
    <glyph glyph-name="exclamdown" unicode="&#xa1;" horiz-adv-x="516" 
d="M147 1112q0 46 32.5 78.5t78.5 32.5t78.5 -32.5t32.5 -78.5q0 -44 -32.5 -76t-78.5 -32t-78.5 32t-32.5 76zM178 -195l15 1012h126l15 -1012h-156z" />
    <glyph glyph-name="cent" unicode="&#xa2;" horiz-adv-x="1138" 
d="M90 684q0 219 124.5 364.5t322.5 165.5v136h133v-138q136 -19 235 -101t131 -210l-139 -35q-28 86 -86.5 140t-140.5 71v-786q84 18 146.5 73t92.5 142l131 -31q-36 -132 -135.5 -215t-234.5 -102v-129h-133v125q-196 21 -321.5 165t-125.5 365zM242 682
q0 -155 81.5 -262t213.5 -129v788q-135 -23 -215 -133.5t-80 -263.5z" />
    <glyph glyph-name="sterling" unicode="&#xa3;" horiz-adv-x="1146" 
d="M131 600v137h129q-5 17 -29 73.5t-37.5 109.5t-13.5 112q0 180 126.5 296t324.5 116q181 0 306.5 -100.5t147.5 -258.5l-151 -30q-13 65 -45 115t-75 79t-89.5 43.5t-95.5 14.5q-117 0 -203 -73t-86 -204q0 -54 12.5 -103t37.5 -111.5t30 -78.5h493v-137h-446
q24 -77 23.5 -142.5t-25.5 -126t-58 -105.5t-75 -79v-10h766v-137h-965v137q61 42 104 90.5t70 108t26 124.5t-28 140h-174z" />
    <glyph glyph-name="yen" unicode="&#xa5;" horiz-adv-x="1255" 
d="M-6 1403h182l418 -682h10l422 682h180l-510 -809h367v-117h-385v-112h385v-115h-385v-250h-158v250h-266v115h266v112h-266v117h248z" />
    <glyph glyph-name="brokenbar" unicode="&#xa6;" horiz-adv-x="503" 
d="M180 -238v766h142v-766h-142zM180 831v766h142v-766h-142z" />
    <glyph glyph-name="dieresis" unicode="&#xa8;" horiz-adv-x="735" 
d="M74 1317q0 44 32 76t78 32t78.5 -32t32.5 -76q0 -46 -32.5 -78.5t-78.5 -32.5t-78 32.5t-32 78.5zM440 1317q0 44 32.5 76t78.5 32t78.5 -32t32.5 -76q0 -46 -32.5 -78.5t-78.5 -32.5t-78.5 32.5t-32.5 78.5z" />
    <glyph glyph-name="copyright" unicode="&#xa9;" horiz-adv-x="1744" 
d="M90 727q0 227 99.5 407.5t278.5 282t404 101.5q226 0 405.5 -102t279.5 -282.5t100 -406.5q0 -170 -59 -317t-162 -250.5t-249 -163t-315 -59.5q-170 0 -315.5 59.5t-248 164t-160.5 251t-58 315.5zM213 727q0 -193 84 -347t234.5 -240.5t340.5 -86.5q189 0 340.5 87
t236.5 241t85 346t-85 346t-236.5 241t-340.5 87q-190 0 -340.5 -86.5t-234.5 -240.5t-84 -347zM424 723q0 221 128.5 357.5t334.5 136.5q162 0 271 -88t140 -236l-127 -25q-32 105 -108 164.5t-180 59.5q-145 0 -232.5 -101.5t-87.5 -267.5q0 -167 88.5 -268t229.5 -101
q104 0 180 60t110 166l125 -33q-33 -144 -143 -232t-268 -88q-204 0 -332.5 137.5t-128.5 358.5z" />
    <glyph glyph-name="guillemotleft" unicode="&#xab;" horiz-adv-x="1230" 
d="M188 578l312 376h182l-313 -372v-11l313 -370h-182zM467 578l311 376h183l-316 -372v-11l316 -370h-183z" />
    <glyph glyph-name="uni00AD" unicode="&#xad;" horiz-adv-x="1112" 
d="M188 567v129h727v-129h-727z" />
    <glyph glyph-name="registered" unicode="&#xae;" horiz-adv-x="1744" 
d="M90 727q0 227 99.5 407.5t278.5 282t404 101.5q226 0 405 -102t278.5 -282.5t99.5 -406.5q0 -170 -58.5 -317t-161 -250.5t-248.5 -163t-315 -59.5q-170 0 -315.5 59.5t-248 164t-160.5 251t-58 315.5zM213 727q0 -193 84 -347t234.5 -240.5t340.5 -86.5q189 0 340 87
t235.5 241t84.5 346t-84.5 346t-235.5 241t-340 87q-190 0 -340.5 -86.5t-234.5 -240.5t-84 -347zM575 287v895h353q136 0 216.5 -74t80.5 -195q0 -94 -48 -147t-118 -61v-11q164 3 164 -155v-252h-148v252q0 58 -27 79t-83 21h-263v-352h-127zM702 756h216q79 0 126.5 40.5
t47.5 110.5q0 74 -46 116t-128 42h-213z" />
    <glyph glyph-name="macron" unicode="&#xaf;" horiz-adv-x="708" 
d="M70 1227v127h569v-127h-569z" />
    <glyph glyph-name="degree" unicode="&#xb0;" horiz-adv-x="636" 
d="M49 1278q0 118 76 195t192 77q117 0 194 -75.5t77 -192.5t-77 -193.5t-194 -76.5q-116 0 -192 75.5t-76 190.5zM170 1278q0 -68 42 -113t105 -45t103.5 45t40.5 113q0 71 -40.5 117.5t-103.5 46.5t-105 -47t-42 -117z" />
    <glyph glyph-name="acute" unicode="&#xb4;" horiz-adv-x="526" 
d="M68 1223l204 282h187l-238 -282h-153z" />
    <glyph glyph-name="periodcentered" unicode="&#xb7;" horiz-adv-x="495" 
d="M139 625q0 44 32.5 76t78.5 32q44 0 76 -32t32 -76q0 -45 -32 -77t-76 -32q-46 0 -78.5 31.5t-32.5 77.5z" />
    <glyph glyph-name="cedilla" unicode="&#xb8;" horiz-adv-x="595" 
d="M63 -387l103 33q30 -92 129 -92q52 0 88.5 25.5t36.5 78.5q0 49 -33 76.5t-84 27.5q-21 0 -40.5 -5.5t-27.5 -10t-26 -17t-19 -12.5l-94 56l107 213h110l-77 -150q51 17 83 17q90 -2 149.5 -52.5t59.5 -142.5q0 -98 -66 -150.5t-159 -52.5q-83 0 -148.5 39.5t-91.5 118.5
z" />
    <glyph glyph-name="guillemotright" unicode="&#xbb;" horiz-adv-x="1230" 
d="M188 201l316 370v11l-316 372h183l311 -376l-311 -377h-183zM467 201l313 370v11l-313 372h182l312 -376l-312 -377h-182z" />
    <glyph glyph-name="questiondown" unicode="&#xbf;" horiz-adv-x="1021" 
d="M39 80q0 52 13.5 99t30.5 78t50 66t54 52.5t61 48.5q12 9 18 14q45 35 70.5 59t54 61t40.5 80.5t9 96.5h142q3 -60 -9 -112.5t-29.5 -87.5t-53 -74.5t-59.5 -59.5t-69 -55q-41 -33 -65 -55t-51.5 -55.5t-40 -72.5t-12.5 -85q0 -112 76 -180t200 -68q136 0 219.5 80.5
t97.5 202.5l144 -23q-20 -179 -146 -287t-315 -108t-309.5 106.5t-120.5 278.5zM395 1024q0 46 32.5 78.5t78.5 32.5t78 -32.5t32 -78.5q0 -44 -32 -76.5t-78 -32.5t-78.5 32.5t-32.5 76.5z" />
    <glyph glyph-name="Agrave" unicode="&#xc0;" horiz-adv-x="1280" 
d="M-37 0l561 1403h178l564 -1403h-174l-152 389h-653l-154 -389h-170zM301 1806h197l204 -280h-163zM332 522h557l-271 705h-10z" />
    <glyph glyph-name="Aacute" unicode="&#xc1;" horiz-adv-x="1337" 
d="M16 0l562 1403h178l565 -1403h-174l-154 389h-651l-156 -389h-170zM385 522h557l-270 705h-10zM596 1534l203 283h188l-239 -283h-152z" />
    <glyph glyph-name="Acircumflex" unicode="&#xc2;" horiz-adv-x="1337" 
d="M16 0l562 1403h178l565 -1403h-174l-154 389h-651l-156 -389h-170zM369 1509l213 234h163l216 -234h-162l-135 138l-129 -138h-166zM385 522h557l-270 705h-10z" />
    <glyph glyph-name="Atilde" unicode="&#xc3;" horiz-adv-x="1337" 
d="M16 0l562 1403h178l565 -1403h-174l-154 389h-651l-156 -389h-170zM367 1501v19q-1 96 48 147t126 51q34 0 65.5 -11.5t48.5 -24t41 -33.5q3 -2 15.5 -14.5t17.5 -16.5t16 -11.5t20 -10.5t19 -3q25 0 43.5 17t18.5 57v35h115v-21q3 -97 -45 -148.5t-123 -51.5
q-79 0 -152 73q-4 3 -14 12.5t-15 13t-14 10.5t-15 10.5t-14.5 6.5t-15.5 3q-30 2 -50.5 -18t-19.5 -58v-33h-116zM385 522h557l-270 705h-10z" />
    <glyph glyph-name="Adieresis" unicode="&#xc4;" horiz-adv-x="1337" 
d="M16 0l562 1403h178l565 -1403h-174l-154 389h-651l-156 -389h-170zM373 1608q0 44 32 76t78 32q44 0 76.5 -32t32.5 -76q0 -46 -32.5 -78.5t-76.5 -32.5q-46 0 -78 32.5t-32 78.5zM385 522h557l-270 705h-10zM739 1608q0 44 32.5 76t78.5 32q45 0 76.5 -31.5t31.5 -76.5
q0 -46 -31.5 -78.5t-76.5 -32.5q-46 0 -78.5 32.5t-32.5 78.5z" />
    <glyph glyph-name="Aring" unicode="&#xc5;" horiz-adv-x="1337" 
d="M16 0l562 1403h178l565 -1403h-174l-154 389h-651l-156 -389h-170zM385 522h557l-270 705h-10zM461 1665q0 87 58 143t145 56q86 0 142 -56t56 -143q0 -85 -55 -141t-141 -56q-88 0 -146.5 56t-58.5 141zM571 1665q0 -40 27.5 -67t67.5 -27q38 0 63 27t25 67
q0 43 -25 71.5t-63 28.5q-40 0 -67.5 -28.5t-27.5 -71.5z" />
    <glyph glyph-name="AE" unicode="&#xc6;" horiz-adv-x="1953" 
d="M16 0l553 1403h1264v-139h-766v-480h702l3 -139h-705v-506h766v-139h-924v387h-571l-152 -387h-170zM385 524h524v740h-243z" />
    <glyph glyph-name="Ccedilla" unicode="&#xc7;" horiz-adv-x="1423" 
d="M76 700q0 208 81 371.5t235 257.5t358 94q227 0 382 -116t209 -310l-149 -39q-48 150 -165 236t-282 86q-107 0 -200.5 -38.5t-163.5 -110t-110 -181t-40 -243.5q0 -259 142.5 -420.5t369.5 -161.5q163 0 279.5 87.5t169.5 246.5l147 -39q-59 -205 -215 -322.5
t-376 -117.5h-13l-43 -82q48 16 84 16q90 -2 149.5 -52.5t59.5 -142.5q0 -98 -66.5 -150t-160.5 -52q-82 0 -147 39t-91 118l103 33q30 -92 129 -92q52 0 88.5 25.5t36.5 78.5q0 50 -32.5 77.5t-84.5 27.5q-14 0 -27.5 -2.5t-22.5 -5.5t-20 -9t-16 -9t-15 -10.5t-12 -8.5
l-94 55l78 154q-248 41 -401.5 232t-153.5 480z" />
    <glyph glyph-name="Egrave" unicode="&#xc8;" horiz-adv-x="1226" 
d="M180 0v1403h926v-139h-768v-480h702l2 -139h-704v-506h768v-139h-926zM336 1804h196l203 -280h-162z" />
    <glyph glyph-name="Eacute" unicode="&#xc9;" horiz-adv-x="1226" 
d="M180 0v1403h926v-139h-768v-480h702l2 -139h-704v-506h768v-139h-926zM510 1532l203 283h188l-237 -283h-154z" />
    <glyph glyph-name="Ecircumflex" unicode="&#xca;" horiz-adv-x="1226" 
d="M180 0v1403h926v-139h-768v-480h702l2 -139h-704v-506h768v-139h-926zM344 1507l213 232h164l215 -232h-162l-133 138l-131 -138h-166z" />
    <glyph glyph-name="Edieresis" unicode="&#xcb;" horiz-adv-x="1226" 
d="M180 0v1403h926v-139h-768v-480h702l2 -139h-704v-506h768v-139h-926zM340 1606q0 44 32.5 76t78.5 32q44 0 76 -32t32 -76q0 -47 -31.5 -79t-76.5 -32q-46 0 -78.5 32t-32.5 79zM707 1606q0 44 32 76t78 32q45 0 77 -32t32 -76q0 -47 -31.5 -79t-77.5 -32t-78 32t-32 79
z" />
    <glyph glyph-name="Igrave" unicode="&#xcc;" horiz-adv-x="493" 
d="M-94 1831h196l205 -281h-164zM156 0v1403h155v-1403h-155z" />
    <glyph glyph-name="Iacute" unicode="&#xcd;" horiz-adv-x="536" 
d="M180 0v1403h158v-1403h-158zM188 1559l205 282h187l-238 -282h-154z" />
    <glyph glyph-name="Icircumflex" unicode="&#xce;" horiz-adv-x="446" 
d="M-59 1534l213 233h163l215 -233h-161l-133 137l-132 -137h-165zM162 0v1403h157v-1403h-157z" />
    <glyph glyph-name="Idieresis" unicode="&#xcf;" horiz-adv-x="614" 
d="M16 1632q0 45 32 77t79 32q44 0 76.5 -32.5t32.5 -76.5q0 -46 -32 -78t-77 -32q-47 0 -79 32t-32 78zM236 0v1403h155v-1403h-155zM383 1632q0 44 32.5 76.5t78.5 32.5q44 0 76 -32.5t32 -76.5q0 -46 -32 -78t-76 -32q-46 0 -78.5 32t-32.5 78z" />
    <glyph glyph-name="Eth" unicode="&#xd0;" horiz-adv-x="1402" 
d="M35 666v125h139v612h461q141 0 265 -48.5t215.5 -136.5t144.5 -220t53 -291q0 -160 -53 -294t-144.5 -223.5t-215.5 -139.5t-265 -50h-461v666h-139zM330 139h307q107 0 201.5 39t165.5 110.5t112 180t41 238.5q0 129 -41 235.5t-111.5 176t-164.5 107.5t-201 38h-309
v-473h268v-125h-268v-527z" />
    <glyph glyph-name="Ntilde" unicode="&#xd1;" horiz-adv-x="1509" 
d="M180 0v1403h195l786 -1182h10v1182h156v-1403h-197l-782 1178h-10v-1178h-158zM426 1528v20q-3 95 46.5 147t125.5 52q34 0 65.5 -12t49 -24.5t41.5 -33.5q6 -5 20.5 -18.5t22 -20t20.5 -12.5t25 -6q26 0 44 18t17 58v33h117v-19q1 -98 -46.5 -149.5t-123.5 -51.5
t-152 72q-3 3 -10.5 10t-11 10l-10.5 9t-11 9t-10.5 7t-11.5 6t-11 4t-12 2q-29 0 -49 -19t-20 -56v-35h-115z" />
    <glyph glyph-name="Ograve" unicode="&#xd2;" horiz-adv-x="1533" 
d="M90 702q0 213 87 377.5t240.5 254t348.5 89.5q194 0 348 -89t242 -254t88 -378q0 -161 -51 -296.5t-141 -228.5t-215.5 -145t-270.5 -52t-270 52t-214.5 145t-140.5 228.5t-51 296.5zM250 702q0 -261 143 -420t373 -159q231 0 373.5 158.5t142.5 420.5q0 260 -142.5 420
t-373.5 160q-230 0 -373 -160t-143 -420zM432 1837h197l202 -283h-161z" />
    <glyph glyph-name="Oacute" unicode="&#xd3;" horiz-adv-x="1533" 
d="M90 702q0 213 87 377.5t240.5 254t348.5 89.5q194 0 348 -89t242 -254t88 -378q0 -161 -51 -296.5t-141 -228.5t-215.5 -145t-270.5 -52t-270 52t-214.5 145t-140.5 228.5t-51 296.5zM250 702q0 -261 143 -420t373 -159q231 0 373.5 158.5t142.5 420.5q0 260 -142.5 420
t-373.5 160q-230 0 -373 -160t-143 -420zM655 1565l203 280h189l-240 -280h-152z" />
    <glyph glyph-name="Ocircumflex" unicode="&#xd4;" horiz-adv-x="1533" 
d="M90 702q0 213 87 377.5t240.5 254t348.5 89.5q194 0 348 -89t242 -254t88 -378q0 -161 -51 -296.5t-141 -228.5t-215.5 -145t-270.5 -52t-270 52t-214.5 145t-140.5 228.5t-51 296.5zM250 702q0 -261 143 -420t373 -159q231 0 373.5 158.5t142.5 420.5q0 260 -142.5 420
t-373.5 160q-230 0 -373 -160t-143 -420zM471 1538l213 234h166l213 -234h-162l-133 139l-131 -139h-166z" />
    <glyph glyph-name="Otilde" unicode="&#xd5;" horiz-adv-x="1533" 
d="M90 702q0 213 87 377.5t240.5 254t348.5 89.5q194 0 348 -89t242 -254t88 -378q0 -161 -51 -296.5t-141 -228.5t-215.5 -145t-270.5 -52t-270 52t-214.5 145t-140.5 228.5t-51 296.5zM250 702q0 -261 143 -420t373 -159q231 0 373.5 158.5t142.5 420.5q0 260 -142.5 420
t-373.5 160q-230 0 -373 -160t-143 -420zM438 1530v20q-1 96 47.5 147.5t124.5 51.5q50 0 85 -19t71 -53q6 -5 20.5 -17.5t23 -19t21.5 -12.5t25 -6q24 0 42 18t17 58v33h117v-19q1 -98 -46.5 -149.5t-123.5 -51.5q-32 0 -63 12.5t-47 24.5t-41 35q-2 2 -10.5 10t-11 10.5
t-10 8.5t-11 8.5t-10.5 7t-11.5 6t-11 3t-12.5 1.5q-29 2 -49.5 -17t-20.5 -56v-35h-115z" />
    <glyph glyph-name="Odieresis" unicode="&#xd6;" horiz-adv-x="1533" 
d="M90 702q0 213 87 377.5t240.5 254t348.5 89.5q194 0 348 -89t242 -254t88 -378q0 -161 -51 -296.5t-141 -228.5t-215.5 -145t-270.5 -52t-270 52t-214.5 145t-140.5 228.5t-51 296.5zM250 702q0 -261 143 -420t373 -159q231 0 373.5 158.5t142.5 420.5q0 260 -142.5 420
t-373.5 160q-230 0 -373 -160t-143 -420zM467 1638q0 44 32.5 76.5t78.5 32.5t78 -32.5t32 -76.5q0 -47 -32 -79.5t-78 -32.5t-78.5 32.5t-32.5 79.5zM834 1638q0 44 32 76.5t78 32.5t78.5 -32.5t32.5 -76.5q0 -47 -32.5 -79.5t-78.5 -32.5t-78 32.5t-32 79.5z" />
    <glyph glyph-name="multiply" unicode="&#xd7;" horiz-adv-x="1056" 
d="M80 338l352 352l-352 350l98 97l350 -351l353 351l96 -97l-352 -350l352 -352l-96 -96l-353 350l-352 -350z" />
    <glyph glyph-name="Oslash" unicode="&#xd8;" horiz-adv-x="1558" 
d="M94 39l162 188q-150 193 -150 475q0 213 87 377.5t240.5 254t348.5 89.5q229 0 400 -123l112 132l103 -84l-117 -136q180 -199 180 -510q0 -161 -51 -296.5t-141 -228.5t-215.5 -145t-270.5 -52q-256 0 -434 149l-149 -174zM266 702q0 -209 94 -354l723 840
q-126 94 -301 94q-230 0 -373 -160t-143 -420zM446 244q137 -121 336 -121q231 0 373.5 158.5t142.5 420.5q0 240 -118 392z" />
    <glyph glyph-name="Ugrave" unicode="&#xd9;" horiz-adv-x="1417" 
d="M162 518v885h155v-883q0 -189 107.5 -292t284.5 -103q178 0 284.5 103t106.5 292v883h157v-885q0 -253 -150.5 -394.5t-397.5 -141.5t-397 141.5t-150 394.5zM418 1806h196l203 -280h-162z" />
    <glyph glyph-name="Uacute" unicode="&#xda;" horiz-adv-x="1437" 
d="M162 518v885h155v-883q0 -189 107.5 -292t284.5 -103q178 0 284.5 103t106.5 292v883h157v-885q0 -253 -150.5 -394.5t-397.5 -141.5t-397 141.5t-150 394.5zM639 1534l205 283h186l-237 -283h-154z" />
    <glyph glyph-name="Ucircumflex" unicode="&#xdb;" horiz-adv-x="1417" 
d="M162 518v885h155v-883q0 -189 107.5 -292t284.5 -103q178 0 284.5 103t106.5 292v883h157v-885q0 -253 -150.5 -394.5t-397.5 -141.5t-397 141.5t-150 394.5zM406 1509l215 234h163l213 -234h-159l-136 138l-129 -138h-167z" />
    <glyph glyph-name="Udieresis" unicode="&#xdc;" horiz-adv-x="1417" 
d="M162 518v885h155v-883q0 -189 107.5 -292t284.5 -103q178 0 284.5 103t106.5 292v883h157v-885q0 -253 -150.5 -394.5t-397.5 -141.5t-397 141.5t-150 394.5zM412 1608q0 44 32 76t78 32q44 0 76.5 -32t32.5 -76q0 -46 -32.5 -78.5t-76.5 -32.5q-46 0 -78 32.5t-32 78.5z
M778 1608q0 44 32.5 76t78.5 32q45 0 76.5 -31.5t31.5 -76.5q0 -46 -31.5 -78.5t-76.5 -32.5q-46 0 -78.5 32.5t-32.5 78.5z" />
    <glyph glyph-name="Yacute" unicode="&#xdd;" horiz-adv-x="1247" 
d="M18 1403h181l417 -682h11l422 682h180l-529 -840v-563h-155v563zM561 1559l203 280h188l-237 -280h-154z" />
    <glyph glyph-name="Thorn" unicode="&#xde;" horiz-adv-x="1226" 
d="M180 0h156v324h387q199 0 321.5 115.5t122.5 299.5t-122.5 300t-321.5 116h-385v248h-158v-1403zM338 461v555h375q136 0 214.5 -76.5t78.5 -200.5q0 -125 -78.5 -201.5t-214.5 -76.5h-375z" />
    <glyph glyph-name="germandbls" unicode="&#xdf;" horiz-adv-x="1243" 
d="M180 0l2 1004q0 186 125 302.5t340 116.5q130 0 233.5 -41.5t165.5 -124t62 -192.5q0 -65 -21 -120t-56.5 -92t-73 -60.5t-78.5 -36.5v-11q27 -4 59.5 -16.5t72 -40t70.5 -64.5t52.5 -95.5t21.5 -127.5q0 -126 -71.5 -219t-184.5 -137.5t-250 -44.5h-188v139h188
q150 0 246 69.5t96 197.5q0 129 -99 200.5t-263 71.5h-62v129h56q154 0 238.5 63.5t84.5 180.5q0 115 -84.5 175t-220.5 60q-147 0 -226 -79.5t-79 -221.5v-985h-156z" />
    <glyph glyph-name="agrave" unicode="&#xe0;" 
d="M98 287q0 143 100 217.5t273 85.5l225 14q60 4 87.5 22.5t27.5 80.5q0 101 -74 158t-194 57q-113 0 -183 -52t-92 -133l-141 15q19 130 133 212.5t283 82.5q187 0 302.5 -93t115.5 -249v-705h-156l2 184h-10q-32 -89 -124.5 -149t-219.5 -60q-159 0 -257 85.5t-98 226.5z
M254 291q0 -87 61 -138t166 -51q146 0 238 97.5t92 238.5v70q-26 -16 -98 -19l-219 -16q-240 -17 -240 -182zM256 1446h197l202 -281h-161z" />
    <glyph glyph-name="aacute" unicode="&#xe1;" 
d="M98 287q0 143 100 217.5t273 85.5l225 14q60 4 87.5 22.5t27.5 80.5q0 101 -74 158t-194 57q-113 0 -183 -52t-92 -133l-141 15q19 130 133 212.5t283 82.5q187 0 302.5 -93t115.5 -249v-705h-156l2 184h-10q-32 -89 -124.5 -149t-219.5 -60q-159 0 -257 85.5t-98 226.5z
M254 291q0 -87 61 -138t166 -51q146 0 238 97.5t92 238.5v70q-26 -16 -98 -19l-219 -16q-240 -17 -240 -182zM479 1174l205 282h186l-237 -282h-154z" />
    <glyph glyph-name="acircumflex" unicode="&#xe2;" 
d="M98 287q0 143 100 217.5t273 85.5l225 14q60 4 87.5 22.5t27.5 80.5q0 101 -74 158t-194 57q-113 0 -183 -52t-92 -133l-141 15q19 130 133 212.5t283 82.5q187 0 302.5 -93t115.5 -249v-705h-156l2 184h-10q-32 -89 -124.5 -149t-219.5 -60q-159 0 -257 85.5t-98 226.5z
M248 1149l213 233h164l215 -233h-162l-135 137l-129 -137h-166zM254 291q0 -87 61 -138t166 -51q146 0 238 97.5t92 238.5v70q-26 -16 -98 -19l-219 -16q-240 -17 -240 -182z" />
    <glyph glyph-name="atilde" unicode="&#xe3;" 
d="M98 287q0 143 100 217.5t273 85.5l225 14q60 4 87.5 22.5t27.5 80.5q0 101 -74 158t-194 57q-113 0 -183 -52t-92 -133l-141 15q19 130 133 212.5t283 82.5q187 0 302.5 -93t115.5 -249v-705h-156l2 184h-10q-32 -89 -124.5 -149t-219.5 -60q-159 0 -257 85.5t-98 226.5z
M231 1141v18q-1 96 48.5 147.5t126.5 51.5q34 0 65.5 -12t48.5 -24t41 -34q3 -3 13 -12.5t14.5 -13t13.5 -11t15 -10.5t15 -5.5t17 -2.5q25 0 43.5 17t18.5 57v34h114v-20q3 -97 -45 -149t-123 -52q-48 0 -82.5 20t-68.5 54q-3 3 -12 10.5t-13 11t-12 10t-13 9.5t-12 6.5
t-13.5 5.5t-12.5 2q-30 2 -50.5 -17.5t-19.5 -57.5v-33h-117zM254 291q0 -87 61 -138t166 -51q146 0 238 97.5t92 238.5v70q-26 -16 -98 -19l-219 -16q-240 -17 -240 -182z" />
    <glyph glyph-name="adieresis" unicode="&#xe4;" 
d="M98 287q0 143 100 217.5t273 85.5l225 14q60 4 87.5 22.5t27.5 80.5q0 101 -74 158t-194 57q-113 0 -183 -52t-92 -133l-141 15q19 130 133 212.5t283 82.5q187 0 302.5 -93t115.5 -249v-705h-156l2 184h-10q-32 -89 -124.5 -149t-219.5 -60q-159 0 -257 85.5t-98 226.5z
M248 1247q0 45 32 77t78 32q45 0 77 -32t32 -77q0 -46 -31.5 -78t-77.5 -32t-78 32t-32 78zM254 291q0 -87 61 -138t166 -51q146 0 238 97.5t92 238.5v70q-26 -16 -98 -19l-219 -16q-240 -17 -240 -182zM614 1247q0 44 32.5 76.5t78.5 32.5t78.5 -32.5t32.5 -76.5
q0 -46 -32.5 -78t-78.5 -32t-78.5 32t-32.5 78z" />
    <glyph glyph-name="aring" unicode="&#xe5;" 
d="M98 287q0 143 100 217.5t273 85.5l225 14q60 4 87.5 22.5t27.5 80.5q0 101 -74 158t-194 57q-113 0 -183 -52t-92 -133l-141 15q19 130 133 212.5t283 82.5q187 0 302.5 -93t115.5 -249v-705h-156l2 184h-10q-32 -89 -124.5 -149t-219.5 -60q-159 0 -257 85.5t-98 226.5z
M254 291q0 -87 61 -138t166 -51q146 0 238 97.5t92 238.5v70q-26 -16 -98 -19l-219 -16q-240 -17 -240 -182zM348 1305q0 87 57.5 142.5t145.5 55.5q87 0 142 -55.5t55 -142.5q0 -85 -55.5 -141t-141.5 -56q-88 0 -145.5 56t-57.5 141zM457 1305q0 -40 27 -67.5t67 -27.5
q38 0 64 27.5t26 67.5q0 43 -26 71.5t-64 28.5q-40 0 -67 -28.5t-27 -71.5z" />
    <glyph glyph-name="ae" unicode="&#xe6;" horiz-adv-x="1837" 
d="M98 289q0 142 100 216t273 85l225 14q60 4 87.5 22.5t27.5 80.5q0 101 -74 158t-194 57q-113 0 -183 -52t-92 -133l-141 15q19 130 133 212.5t283 82.5q130 0 227.5 -47t147.5 -132q134 174 372 174q219 0 344 -147t125 -383q0 -8 -1 -26t-1 -25h-796v-51
q18 -136 105.5 -218.5t231.5 -82.5q113 0 190.5 57t106.5 139l134 -37q-35 -123 -153 -207t-280 -84q-204 0 -335 125v-102h-156l2 184h-10q-32 -89 -124.5 -149t-219.5 -60q-159 0 -257 86t-98 228zM254 291q0 -87 61 -138t166 -51q144 0 235.5 94.5t94.5 233.5
q-4 50 -4 76q-28 -14 -94 -17l-219 -16q-240 -17 -240 -182zM961 586h647q-7 152 -94.5 238.5t-223.5 86.5q-135 0 -227.5 -89.5t-101.5 -235.5z" />
    <glyph glyph-name="ccedilla" unicode="&#xe7;" horiz-adv-x="1091" 
d="M80 512q0 235 141.5 383.5t362.5 148.5q163 0 284.5 -84t157.5 -231l-139 -35q-34 104 -112 160.5t-187 56.5q-161 0 -259 -115t-98 -286q0 -174 101 -285.5t258 -111.5q106 0 189.5 58t119.5 163l131 -31q-40 -152 -163 -237.5t-285 -85.5h-13l-41 -78q3 1 18 5.5
t30.5 7t35.5 1.5q90 -2 148.5 -52t58.5 -143q0 -98 -65.5 -149t-159.5 -51q-82 0 -147 39t-93 118l105 31q26 -92 129 -92q52 0 88.5 25.5t36.5 78.5q0 50 -33.5 78.5t-85.5 28.5q-16 0 -30.5 -3t-27.5 -9.5t-20 -10.5t-19 -13t-14 -11l-94 55l78 156q-173 38 -280 176.5
t-107 343.5z" />
    <glyph glyph-name="egrave" unicode="&#xe8;" horiz-adv-x="1112" 
d="M82 508q0 237 131 385.5t352 148.5q219 0 344 -147t125 -383q0 -8 -1 -26t-1 -25h-801q5 -157 95 -254.5t247 -97.5q113 0 190.5 57t106.5 139l134 -37q-35 -123 -153 -207t-280 -84q-223 0 -356 146.5t-133 384.5zM236 586h647q-7 152 -94.5 238.5t-223.5 86.5
q-135 0 -227.5 -89.5t-101.5 -235.5zM258 1446h195l204 -283h-161z" />
    <glyph glyph-name="eacute" unicode="&#xe9;" horiz-adv-x="1112" 
d="M82 508q0 237 131 385.5t352 148.5q219 0 344 -147t125 -383q0 -8 -1 -26t-1 -25h-801q5 -157 95 -254.5t247 -97.5q113 0 190.5 57t106.5 139l134 -37q-35 -123 -153 -207t-280 -84q-223 0 -356 146.5t-133 384.5zM236 586h647q-7 152 -94.5 238.5t-223.5 86.5
q-135 0 -227.5 -89.5t-101.5 -235.5zM477 1171l205 283h186l-237 -283h-154z" />
    <glyph glyph-name="ecircumflex" unicode="&#xea;" horiz-adv-x="1112" 
d="M82 508q0 237 131 385.5t352 148.5q219 0 344 -147t125 -383q0 -8 -1 -26t-1 -25h-801q5 -157 95 -254.5t247 -97.5q113 0 190.5 57t106.5 139l134 -37q-35 -123 -153 -207t-280 -84q-223 0 -356 146.5t-133 384.5zM236 586h647q-7 152 -94.5 238.5t-223.5 86.5
q-135 0 -227.5 -89.5t-101.5 -235.5zM272 1147l213 233h166l213 -233h-162l-133 139l-131 -139h-166z" />
    <glyph glyph-name="edieresis" unicode="&#xeb;" horiz-adv-x="1112" 
d="M82 508q0 237 131 385.5t352 148.5q219 0 344 -147t125 -383q0 -8 -1 -26t-1 -25h-801q5 -157 95 -254.5t247 -97.5q113 0 190.5 57t106.5 139l134 -37q-35 -123 -153 -207t-280 -84q-223 0 -356 146.5t-133 384.5zM236 586h647q-7 152 -94.5 238.5t-223.5 86.5
q-135 0 -227.5 -89.5t-101.5 -235.5zM272 1245q0 45 32 77t79 32q44 0 76.5 -32.5t32.5 -76.5q0 -45 -32 -77.5t-77 -32.5q-47 0 -79 32t-32 78zM639 1245q0 45 32 77t79 32q44 0 76 -32.5t32 -76.5q0 -46 -32 -78t-76 -32q-47 0 -79 32t-32 78z" />
    <glyph glyph-name="igrave" unicode="&#xec;" horiz-adv-x="489" 
d="M-72 1427h197l205 -280h-162zM172 0v1024h147v-1024h-147z" />
    <glyph glyph-name="iacute" unicode="&#xed;" horiz-adv-x="473" 
d="M160 1155l205 283h186l-238 -283h-153zM176 0v1024h148v-1024h-148z" />
    <glyph glyph-name="icircumflex" unicode="&#xee;" horiz-adv-x="458" 
d="M-66 1130l216 234h163l215 -234h-161l-136 138l-129 -138h-168zM158 0v1024h147v-1024h-147z" />
    <glyph glyph-name="idieresis" unicode="&#xef;" horiz-adv-x="583" 
d="M-2 1229q0 44 33 76t80 32q44 0 76 -32t32 -76q0 -46 -32 -78.5t-76 -32.5q-47 0 -80 32.5t-33 78.5zM223 0v1024h148v-1024h-148zM367 1229q0 45 31.5 76.5t78.5 31.5q44 0 76.5 -32t32.5 -76q0 -46 -32.5 -78.5t-76.5 -32.5q-47 0 -78.5 32.5t-31.5 78.5z" />
    <glyph glyph-name="eth" unicode="&#xf0;" horiz-adv-x="1316" 
d="M80 510q0 230 129 378t330 148q128 0 222 -60t132 -147h10v299h-217v121h217v174h150v-174h186v-121h-186v-1128h-150v180h-10q-38 -85 -131.5 -144t-218.5 -59q-201 0 -332 149t-131 384zM229 508q0 -182 94 -288.5t240 -106.5q148 0 247 105.5t99 285.5
q0 179 -98.5 289t-249.5 110q-147 0 -239.5 -107.5t-92.5 -287.5z" />
    <glyph glyph-name="ntilde" unicode="&#xf1;" horiz-adv-x="1173" 
d="M160 0v1024h149v-188h8q38 93 129.5 150.5t215.5 57.5q166 0 268 -100t102 -278v-666h-149v629q0 51 -13.5 98.5t-42 90.5t-81.5 69t-125 26q-137 0 -224.5 -98.5t-87.5 -273.5v-541h-149zM295 1145v18q-1 96 48 147.5t126 51.5q34 0 65.5 -12t47.5 -24t41 -34
q4 -4 16.5 -15t18.5 -15.5t16 -11.5t19.5 -10t19.5 -3q25 0 43 17t18 57v35h115v-21q1 -97 -46.5 -149t-123.5 -52q-32 0 -63.5 13.5t-47 25.5t-41.5 35q-21 20 -29.5 27.5t-26 17t-32.5 10.5q-29 2 -49 -17t-20 -58v-33h-115z" />
    <glyph glyph-name="ograve" unicode="&#xf2;" horiz-adv-x="1177" 
d="M80 510q0 236 144.5 385t365.5 149t364.5 -149t143.5 -385q0 -235 -143.5 -382.5t-364.5 -147.5q-222 0 -366 148t-144 382zM233 510q0 -178 100 -288.5t255 -110.5q158 0 259 110t101 289q0 181 -100.5 292t-257.5 111q-156 0 -256.5 -111t-100.5 -292zM272 1430h197
l205 -283h-164z" />
    <glyph glyph-name="oacute" unicode="&#xf3;" horiz-adv-x="1177" 
d="M80 510q0 236 144.5 385t365.5 149t364.5 -149t143.5 -385q0 -235 -143.5 -382.5t-364.5 -147.5q-222 0 -366 148t-144 382zM233 510q0 -178 100 -288.5t255 -110.5q158 0 259 110t101 289q0 181 -100.5 292t-257.5 111q-156 0 -256.5 -111t-100.5 -292zM496 1155
l202 283h189l-240 -283h-151z" />
    <glyph glyph-name="ocircumflex" unicode="&#xf4;" horiz-adv-x="1177" 
d="M80 510q0 236 144.5 385t365.5 149t364.5 -149t143.5 -385q0 -235 -143.5 -382.5t-364.5 -147.5q-222 0 -366 148t-144 382zM233 510q0 -178 100 -288.5t255 -110.5q158 0 259 110t101 289q0 181 -100.5 292t-257.5 111q-156 0 -256.5 -111t-100.5 -292zM291 1130
l213 234h166l213 -234h-162l-133 140l-129 -140h-168z" />
    <glyph glyph-name="otilde" unicode="&#xf5;" horiz-adv-x="1177" 
d="M80 510q0 236 144.5 385t365.5 149t364.5 -149t143.5 -385q0 -235 -143.5 -382.5t-364.5 -147.5q-222 0 -366 148t-144 382zM233 510q0 -178 100 -288.5t255 -110.5q158 0 259 110t101 289q0 181 -100.5 292t-257.5 111q-156 0 -256.5 -111t-100.5 -292zM279 1122v21
q-1 94 48 145t126 51q34 0 65 -11.5t47.5 -23.5t40.5 -34q7 -5 21 -17.5t22.5 -19.5t21.5 -13t25 -6q24 0 43 17.5t19 56.5v35h114v-20q1 -97 -46.5 -148t-123.5 -51q-32 0 -63 12.5t-47 24.5t-41 35q-21 20 -29.5 27.5t-26 17t-32.5 10.5q-29 2 -49.5 -17.5t-20.5 -56.5
v-35h-114z" />
    <glyph glyph-name="odieresis" unicode="&#xf6;" horiz-adv-x="1177" 
d="M80 510q0 236 144.5 385t365.5 149t364.5 -149t143.5 -385q0 -235 -143.5 -382.5t-364.5 -147.5q-222 0 -366 148t-144 382zM233 510q0 -178 100 -288.5t255 -110.5q158 0 259 110t101 289q0 181 -100.5 292t-257.5 111q-156 0 -256.5 -111t-100.5 -292zM289 1229
q0 45 32.5 76.5t79.5 31.5q44 0 76.5 -32t32.5 -76q0 -46 -32.5 -78.5t-76.5 -32.5q-47 0 -79.5 32.5t-32.5 78.5zM657 1229q0 45 32 76.5t79 31.5q44 0 76.5 -32t32.5 -76q0 -46 -32.5 -78.5t-76.5 -32.5q-47 0 -79 32.5t-32 78.5z" />
    <glyph glyph-name="divide" unicode="&#xf7;" 
d="M111 641v125h860v-125h-860zM430 385q0 44 32.5 76.5t78.5 32.5q44 0 75 -32t31 -77q0 -46 -31 -78.5t-75 -32.5q-47 0 -79 32.5t-32 78.5zM430 1024q0 44 32.5 75t78.5 31q44 0 75 -31t31 -75q0 -46 -31 -77.5t-75 -31.5q-46 0 -78.5 31.5t-32.5 77.5z" />
    <glyph glyph-name="oslash" unicode="&#xf8;" horiz-adv-x="1171" 
d="M84 39l111 129q-109 144 -109 342q0 236 144.5 385t365.5 149q160 0 281 -79l92 106l104 -92l-92 -107q123 -145 123 -362q0 -235 -143.5 -382.5t-364.5 -147.5q-170 0 -301 92l-107 -125zM240 510q0 -129 55 -225l491 573q-79 55 -190 55q-156 0 -256 -111t-100 -292z
M387 178q89 -67 207 -67q158 0 259 110t101 289q0 147 -67 250z" />
    <glyph glyph-name="ugrave" unicode="&#xf9;" horiz-adv-x="1171" 
d="M150 360v664h149v-629q0 -53 12.5 -99.5t40 -90t80 -69t125.5 -25.5q144 0 229.5 107t85.5 282v524h150v-1024h-150v197h-10q-90 -217 -342 -217q-172 0 -271 101t-99 279zM297 1425h197l204 -282h-163z" />
    <glyph glyph-name="uacute" unicode="&#xfa;" horiz-adv-x="1171" 
d="M150 360v664h149v-629q0 -53 12.5 -99.5t40 -90t80 -69t125.5 -25.5q144 0 229.5 107t85.5 282v524h150v-1024h-150v197h-10q-90 -217 -342 -217q-172 0 -271 101t-99 279zM516 1153l205 281h186l-237 -281h-154z" />
    <glyph glyph-name="ucircumflex" unicode="&#xfb;" horiz-adv-x="1171" 
d="M150 360v664h149v-629q0 -53 12.5 -99.5t40 -90t80 -69t125.5 -25.5q144 0 229.5 107t85.5 282v524h150v-1024h-150v197h-10q-90 -217 -342 -217q-172 0 -271 101t-99 279zM291 1126l213 234h166l213 -234h-162l-133 140l-129 -140h-168z" />
    <glyph glyph-name="udieresis" unicode="&#xfc;" horiz-adv-x="1171" 
d="M150 360v664h149v-629q0 -53 12.5 -99.5t40 -90t80 -69t125.5 -25.5q144 0 229.5 107t85.5 282v524h150v-1024h-150v197h-10q-90 -217 -342 -217q-172 0 -271 101t-99 279zM297 1227q0 44 32.5 76t78.5 32q44 0 76 -32t32 -76q0 -47 -32 -80t-76 -33q-46 0 -78.5 33
t-32.5 80zM664 1227q0 44 32 76t78 32t77.5 -31.5t31.5 -76.5q0 -47 -31.5 -80t-77.5 -33t-78 33t-32 80z" />
    <glyph glyph-name="yacute" unicode="&#xfd;" horiz-adv-x="1030" 
d="M18 1024h162l334 -852h10l312 852h176l-463 -1147q-16 -38 -29.5 -66t-41 -67t-58 -64t-78 -43t-102.5 -18h-183v129h158q69 1 111.5 38t72.5 114l39 100zM420 1153l203 281h188l-238 -281h-153z" />
    <glyph glyph-name="thorn" unicode="&#xfe;" horiz-adv-x="1212" 
d="M160 -381v1804h149v-579h10q40 86 132.5 144.5t218.5 58.5q202 0 333.5 -148.5t131.5 -382.5q0 -232 -128.5 -380t-332.5 -148q-129 0 -222 60t-133 147h-10v-576h-149zM303 520q0 -178 98.5 -288.5t249.5 -110.5q147 0 239.5 107.5t92.5 287.5q0 182 -94 288.5
t-240 106.5q-148 0 -247 -105.5t-99 -285.5z" />
    <glyph glyph-name="ydieresis" unicode="&#xff;" horiz-adv-x="1028" 
d="M18 1024h162l334 -852h10l312 852h176l-463 -1147q-16 -38 -29.5 -66t-41 -67t-58 -64t-78 -43t-102.5 -18h-183v129h158q69 1 111.5 38t72.5 114l39 100zM213 1227q0 44 32.5 76t78.5 32t78 -32t32 -76q0 -47 -32 -80t-78 -33t-78.5 33t-32.5 80zM580 1227q0 44 32 76
t78 32t78.5 -32t32.5 -76q0 -47 -32.5 -80t-78.5 -33t-78 33t-32 80z" />
    <glyph glyph-name="OE" unicode="&#x152;" horiz-adv-x="2340" 
d="M90 702q0 213 87 377.5t240.5 254t348.5 89.5q164 0 300.5 -64t227.5 -183v227h924v-139h-766v-480h702l3 -139h-705v-506h766v-139h-924v227q-91 -119 -227.5 -183t-300.5 -64q-145 0 -270 52t-214.5 145t-140.5 228.5t-51 296.5zM250 702q0 -261 143 -420t373 -159
q231 0 373.5 158.5t142.5 420.5q0 260 -142.5 420t-373.5 160q-230 0 -373 -160t-143 -420z" />
    <glyph glyph-name="oe" unicode="&#x153;" horiz-adv-x="1978" 
d="M80 510q0 236 144.5 385t365.5 149q139 0 251.5 -62t178.5 -173q61 111 167 172t245 61q219 0 344 -147t125 -383q0 -8 -1.5 -26t-1.5 -25h-800q5 -157 95 -254.5t247 -97.5q113 0 190.5 57t106.5 139l133 -37q-34 -123 -151 -207t-281 -84q-140 0 -248.5 61.5
t-171.5 172.5q-65 -109 -177 -170t-251 -61q-222 0 -366 148t-144 382zM233 510q0 -178 100 -288.5t255 -110.5q158 0 259 110t101 289q0 181 -100.5 292t-257.5 111q-156 0 -256.5 -111t-100.5 -292zM1102 586h647q-7 152 -93.5 238.5t-221.5 86.5q-137 0 -230 -89.5
t-102 -235.5z" />
    <glyph glyph-name="Ydieresis" unicode="&#x178;" horiz-adv-x="1247" 
d="M18 1403h181l417 -682h11l422 682h180l-529 -840v-563h-155v563zM326 1632q0 44 32 76.5t78 32.5q45 0 77 -32t32 -77q0 -47 -31.5 -79.5t-77.5 -32.5t-78 32.5t-32 79.5zM692 1632q0 44 32.5 76.5t78.5 32.5q45 0 77.5 -32.5t32.5 -76.5q0 -47 -32 -79.5t-78 -32.5
t-78.5 32.5t-32.5 79.5z" />
    <glyph glyph-name="circumflex" unicode="&#x2c6;" horiz-adv-x="729" 
d="M68 1186l215 233h163l213 -233h-159l-135 139l-129 -139h-168z" />
    <glyph glyph-name="tilde" unicode="&#x2dc;" horiz-adv-x="714" 
d="M59 1270v20q-1 94 48 145.5t126 51.5q34 0 65.5 -12t49 -24.5t41.5 -33.5q4 -4 19 -17.5t22.5 -19.5t21 -12t25.5 -6q26 0 44.5 17.5t17.5 56.5v34h114v-20q3 -97 -45 -148t-123 -51q-33 0 -64 12.5t-47.5 25t-39.5 34.5q-57 53 -88 55q-29 2 -50 -17t-20 -56v-35h-117z
" />
    <glyph glyph-name="uni2000" unicode="&#x2000;" horiz-adv-x="932" 
 />
    <glyph glyph-name="uni2001" unicode="&#x2001;" horiz-adv-x="1864" 
 />
    <glyph glyph-name="uni2002" unicode="&#x2002;" horiz-adv-x="932" 
 />
    <glyph glyph-name="uni2003" unicode="&#x2003;" horiz-adv-x="1864" 
 />
    <glyph glyph-name="uni2004" unicode="&#x2004;" horiz-adv-x="621" 
 />
    <glyph glyph-name="uni2005" unicode="&#x2005;" horiz-adv-x="466" 
 />
    <glyph glyph-name="uni2006" unicode="&#x2006;" horiz-adv-x="310" 
 />
    <glyph glyph-name="uni2007" unicode="&#x2007;" horiz-adv-x="310" 
 />
    <glyph glyph-name="uni2008" unicode="&#x2008;" horiz-adv-x="233" 
 />
    <glyph glyph-name="uni2009" unicode="&#x2009;" horiz-adv-x="372" 
 />
    <glyph glyph-name="uni200A" unicode="&#x200a;" horiz-adv-x="103" 
 />
    <glyph glyph-name="uni2010" unicode="&#x2010;" horiz-adv-x="980" 
d="M92 612v127h799v-127h-799z" />
    <glyph glyph-name="uni2011" unicode="&#x2011;" horiz-adv-x="980" 
d="M92 612v127h799v-127h-799z" />
    <glyph glyph-name="figuredash" unicode="&#x2012;" horiz-adv-x="980" 
d="M92 612v127h799v-127h-799z" />
    <glyph glyph-name="endash" unicode="&#x2013;" horiz-adv-x="1474" 
d="M131 567v129h1210v-129h-1210z" />
    <glyph glyph-name="emdash" unicode="&#x2014;" horiz-adv-x="2320" 
d="M152 567v129h2015v-129h-2015z" />
    <glyph glyph-name="quoteleft" unicode="&#x2018;" horiz-adv-x="385" 
d="M80 1364q0 84 50 143.5t134 71.5l21 -72q-52 -8 -83.5 -39.5t-31.5 -62.5q16 4 33 4q43 0 72.5 -25.5t29.5 -70.5q0 -46 -30 -73.5t-76 -27.5q-55 0 -87 40.5t-32 111.5z" />
    <glyph glyph-name="quoteright" unicode="&#x2019;" horiz-adv-x="385" 
d="M80 1477q0 46 29.5 74t74.5 28q57 0 89 -41t32 -111q0 -84 -51 -143.5t-135 -71.5l-19 70q52 8 82.5 39.5t32.5 64.5q-20 -4 -33 -4q-44 0 -73 25t-29 70z" />
    <glyph glyph-name="quotesinglbase" unicode="&#x201a;" horiz-adv-x="385" 
d="M80 72q0 46 29.5 74t74.5 28q57 0 89 -41.5t32 -112.5q0 -84 -51 -143.5t-135 -71.5l-19 72q51 8 82 39.5t33 63.5q-25 -5 -33 -5q-43 0 -72.5 26t-29.5 71z" />
    <glyph glyph-name="quotedblleft" unicode="&#x201c;" horiz-adv-x="667" 
d="M80 1274q0 84 50 143.5t134 71.5l19 -70q-50 -8 -81.5 -40.5t-31.5 -63.5q16 4 33 4q44 0 73 -24.5t29 -69.5q0 -46 -30.5 -74.5t-75.5 -28.5q-55 0 -87 41.5t-32 110.5zM362 1274q0 84 51.5 143.5t135.5 71.5l18 -70q-51 -8 -81.5 -40t-32.5 -64q20 4 32 4
q44 0 73.5 -24.5t29.5 -69.5q0 -46 -30 -74.5t-75 -28.5q-57 0 -89 41t-32 111z" />
    <glyph glyph-name="quotedblright" unicode="&#x201d;" horiz-adv-x="667" 
d="M80 1386q0 46 29.5 74.5t74.5 28.5q57 0 89 -41t32 -111q0 -84 -51 -143.5t-135 -71.5l-19 70q51 8 82 40t33 64q-20 -4 -33 -4q-44 0 -73 24.5t-29 69.5zM362 1386q0 46 31 74.5t76 28.5q55 0 87 -41.5t32 -110.5q0 -84 -50.5 -143.5t-134.5 -71.5l-18 70
q50 8 81.5 40.5t31.5 63.5q-16 -4 -31 -4q-45 0 -75 24.5t-30 69.5z" />
    <glyph glyph-name="quotedblbase" unicode="&#x201e;" horiz-adv-x="667" 
d="M80 72q0 46 29.5 74t74.5 28q57 0 89 -41.5t32 -112.5q0 -84 -51 -143.5t-135 -71.5l-19 72q51 8 82 39.5t33 63.5q-25 -5 -33 -5q-43 0 -72.5 26t-29.5 71zM362 72q0 46 30.5 74t76.5 28q55 0 87 -41.5t32 -112.5q0 -84 -50.5 -143.5t-134.5 -71.5l-18 72q50 8 81.5 40
t31.5 63q-20 -5 -31 -5q-45 0 -75 26t-30 71z" />
    <glyph glyph-name="bullet" unicode="&#x2022;" horiz-adv-x="628" 
d="M139 659q0 72 51.5 123.5t124.5 51.5q72 0 123 -51.5t51 -123.5q0 -73 -51 -124.5t-123 -51.5q-73 0 -124.5 51.5t-51.5 124.5z" />
    <glyph glyph-name="ellipsis" unicode="&#x2026;" horiz-adv-x="1466" 
d="M180 96q0 45 32 77t79 32q44 0 76 -32.5t32 -76.5q0 -46 -32 -78t-76 -32q-47 0 -79 32t-32 78zM627 96q0 45 31.5 77t78.5 32q44 0 76.5 -32.5t32.5 -76.5q0 -46 -32 -78t-77 -32q-47 0 -78.5 32t-31.5 78zM1067 96q0 44 32.5 76.5t78.5 32.5q45 0 76.5 -32t31.5 -77
q0 -46 -31 -78t-77 -32t-78.5 32t-32.5 78z" />
    <glyph glyph-name="uni202F" unicode="&#x202f;" horiz-adv-x="372" 
 />
    <glyph glyph-name="guilsinglleft" unicode="&#x2039;" horiz-adv-x="593" 
d="M59 578l312 376h184l-315 -376l315 -377h-184z" />
    <glyph glyph-name="guilsinglright" unicode="&#x203a;" horiz-adv-x="593" 
d="M39 201l315 377l-315 376h184l312 -376l-312 -377h-184z" />
    <glyph glyph-name="uni205F" unicode="&#x205f;" horiz-adv-x="466" 
 />
    <glyph glyph-name="Euro" unicode="&#x20ac;" horiz-adv-x="1492" 
d="M72 489l20 127h139q-4 58 -4 86q0 49 2 74h-157l20 127h154q46 248 204.5 386t395.5 138q216 0 361 -116t202 -322l-149 -39q-47 159 -156 245.5t-264 86.5q-162 0 -277 -96.5t-155 -282.5h557l-21 -127h-553q-2 -23 -2 -69q0 -33 4 -91h572l-21 -127h-530
q41 -174 151.5 -269t272.5 -95q153 0 263.5 87t155.5 251l150 -41q-60 -211 -207.5 -326.5t-357.5 -115.5q-224 0 -383.5 132t-210.5 377h-176z" />
    <glyph glyph-name="trademark" unicode="&#x2122;" horiz-adv-x="1222" 
d="M61 1335v86h463v-86h-184v-420h-92v420h-187zM584 918v503h106l154 -372l149 372h109l-2 -503h-92v313l-123 -311h-84l-127 319l2 -321h-92z" />
    <glyph glyph-name="uni25FC" unicode="&#x25fc;" horiz-adv-x="1024" 
d="M0 0v1024h1024v-1024h-1024z" />
    </font>
</defs>
</svg>
