<?xml version="1.0" standalone="no"?>
<!DOCTYPE svg PUBLIC "-//W3C//DTD SVG 1.1//EN" "http://www.w3.org/Graphics/SVG/1.1/DTD/svg11.dtd" >
<svg xmlns="http://www.w3.org/2000/svg" xmlns:xlink="http://www.w3.org/1999/xlink" version="1.1">
<metadata>
Created by FontForge 20170731 at Fri Jul 14 18:49:00 2023
 By Aleksey,,,
Copyright (c) 2022 by Studio Few. All rights reserved.
</metadata>
<defs>
<font id="FTSterling-LightItalic" horiz-adv-x="1163" >
  <font-face 
    font-family="FT Sterling Light"
    font-weight="300"
    font-style="italic"
    font-stretch="normal"
    units-per-em="2048"
    panose-1="0 0 0 0 0 0 0 0 0 0"
    ascent="1638"
    descent="-410"
    x-height="1024"
    cap-height="1403"
    bbox="-242 -543 2312 1851"
    underline-thickness="102"
    underline-position="-357"
    unicode-range="U+0020-25FC"
  />
<missing-glyph horiz-adv-x="748" 
d="M68 0v1365h544v-1365h-544zM136 68h408v1229h-408v-1229z" />
    <glyph glyph-name=".notdef" horiz-adv-x="748" 
d="M68 0v1365h544v-1365h-544zM136 68h408v1229h-408v-1229z" />
    <glyph glyph-name="glyph1" horiz-adv-x="0" 
 />
    <glyph glyph-name="glyph2" horiz-adv-x="682" 
 />
    <glyph glyph-name="space" unicode=" " horiz-adv-x="612" 
 />
    <glyph glyph-name="exclam" unicode="!" horiz-adv-x="571" 
d="M51 88q8 41 43 70.5t78 29.5q41 0 65 -29.5t17 -70.5q-7 -43 -41.5 -72.5t-75.5 -29.5q-43 0 -68 29.5t-18 72.5zM147 381l168 1022h138l-193 -1022h-113z" />
    <glyph glyph-name="quotedbl" unicode="&#x22;" horiz-adv-x="550" 
d="M150 1130l45 353h151l-78 -353h-118zM385 1130l45 353h152l-78 -353h-119z" />
    <glyph glyph-name="numbersign" unicode="#" horiz-adv-x="1490" 
d="M18 365l33 108h275l163 490h-282l33 108h284l119 367h123l-119 -367h379l119 367h123l-119 -367h281l-33 -108h-281l-160 -490h287l-33 -108h-286l-115 -365h-123l115 365h-385l-121 -365h-123l121 365h-275zM449 473h385l159 490h-381z" />
    <glyph glyph-name="dollar" unicode="$" horiz-adv-x="1249" 
d="M-4 379l137 29q-4 -126 78 -206.5t229 -95.5l99 560l-146 24q-132 24 -199.5 117.5t-41.5 226.5q30 160 172.5 268.5t347.5 118.5l14 84h127l-14 -86q149 -19 243 -99t103 -226l-135 -25q-15 195 -234 229l-92 -526l84 -14q47 -8 87.5 -20.5t86 -39.5t75 -63.5t43.5 -96
t1 -132.5q-30 -171 -167 -284t-347 -132l-17 -96h-127l17 94q-200 12 -312 114t-112 277zM287 1036q-17 -91 29 -150.5t139 -74.5l106 -18l90 510q-145 -10 -244.5 -84.5t-119.5 -182.5zM567 109q146 15 241.5 92.5t117.5 193.5q38 198 -199 238l-65 10z" />
    <glyph glyph-name="percent" unicode="%" horiz-adv-x="1558" 
d="M78 0l1235 1403h143l-1235 -1403h-143zM156 1079q25 145 132 239.5t247 94.5t215.5 -94t50.5 -236q-26 -144 -134.5 -237.5t-248.5 -93.5t-214 92.5t-48 234.5zM272 1079q-17 -96 29 -160.5t135 -64.5q87 0 156 64.5t86 160.5t-29 161t-133 65q-88 0 -157.5 -65
t-86.5 -161zM725 299q26 145 134 239.5t247 94.5q140 0 215.5 -94t50.5 -236q-26 -144 -134.5 -238t-248.5 -94q-139 0 -214 92.5t-50 235.5zM842 299q-15 -96 31.5 -160.5t134.5 -64.5q87 0 155.5 64.5t83.5 160.5q17 96 -28 160.5t-132 64.5q-89 0 -158.5 -64.5
t-86.5 -160.5z" />
    <glyph glyph-name="ampersand" unicode="&#x26;" horiz-adv-x="1394" 
d="M59 369q48 266 390 415q-6 9 -19 26t-21.5 29.5t-21 31.5t-21 35.5t-18.5 37.5t-15 42t-9 44.5t-3.5 49.5t5.5 53q24 140 140 233.5t275 93.5q155 0 239.5 -88t61.5 -223q-12 -67 -48.5 -126t-94 -107t-119 -84.5t-139.5 -71.5l301 -383q75 85 133 274l133 -6
q-70 -227 -184 -366l156 -187l-105 -92l-135 168q-99 -97 -223.5 -149t-261.5 -52q-209 0 -318 112t-78 290zM195 373q-22 -125 54 -207t226 -82q107 0 209.5 45.5t181.5 128.5l-350 442h-10q-276 -134 -311 -327zM459 1128q-11 -69 16.5 -137t87.5 -143h10
q148 66 229.5 132.5t100.5 162.5q18 88 -28.5 147.5t-145.5 59.5q-103 0 -179 -64t-91 -158z" />
    <glyph glyph-name="quotesingle" unicode="'" horiz-adv-x="315" 
d="M150 1130l45 353h151l-78 -353h-118z" />
    <glyph glyph-name="parenleft" unicode="(" horiz-adv-x="540" 
d="M57 401q1 132 25 265q44 254 160 481t268 401h149q-357 -417 -440 -882q-83 -470 131 -906h-149q-43 85 -74 182.5t-51 212t-19 246.5z" />
    <glyph glyph-name="parenright" unicode=")" horiz-adv-x="540" 
d="M-190 -240q366 430 450 904q82 465 -129 884h150q58 -111 93 -242t45.5 -297.5t-22.5 -342.5q-46 -259 -165 -493t-273 -413h-149z" />
    <glyph glyph-name="asterisk" unicode="*" horiz-adv-x="579" 
d="M143 1243l41 86l138 -57l26 166h92l-32 -164l159 55l13 -86l-160 -47l78 -127l-80 -53l-74 133l-117 -131l-63 53l121 125z" />
    <glyph glyph-name="plus" unicode="+" horiz-adv-x="1191" 
d="M78 645l18 107h422l82 462h123l-82 -462h422l-19 -107h-421l-84 -481h-123l84 481h-422z" />
    <glyph glyph-name="comma" unicode="," horiz-adv-x="493" 
d="M-6 -121q50 8 85 39t40 59q-12 -4 -31 -4q-42 0 -65.5 23t-16.5 65q7 43 39.5 69t73.5 26q50 0 74 -38.5t12 -103.5q-14 -75 -70.5 -130.5t-132.5 -67.5z" />
    <glyph glyph-name="hyphen" unicode="-" horiz-adv-x="983" 
d="M55 629l19 110h798l-18 -110h-799z" />
    <glyph glyph-name="period" unicode="." horiz-adv-x="489" 
d="M10 88q8 41 43 70.5t78 29.5q41 0 65 -29.5t17 -70.5q-7 -43 -41.5 -72.5t-75.5 -29.5q-43 0 -68 29.5t-18 72.5z" />
    <glyph glyph-name="slash" unicode="/" horiz-adv-x="989" 
d="M-190 -244l1144 1714h146l-1143 -1714h-147z" />
    <glyph glyph-name="zero" unicode="0" horiz-adv-x="1277" 
d="M78 702q59 333 236.5 527t428.5 194q249 0 358.5 -192.5t49.5 -528.5q-61 -341 -239.5 -531.5t-426.5 -190.5q-251 0 -358.5 194.5t-48.5 527.5zM219 702q-47 -271 28.5 -434.5t260.5 -163.5q186 0 320 162.5t182 435.5q50 280 -29.5 438t-261.5 158
q-184 0 -318.5 -160.5t-181.5 -435.5z" />
    <glyph glyph-name="one" unicode="1" horiz-adv-x="667" 
d="M115 1137l12 77q152 9 235.5 52.5t124.5 136.5h127l-247 -1403h-136l201 1137h-317z" />
    <glyph glyph-name="two" unicode="2" horiz-adv-x="1126" 
d="M-76 0l21 119q14 78 47.5 146t76 116.5t101.5 92t111.5 72t117.5 56.5l213 92q43 19 68 30.5t64.5 33.5t64.5 44t52 52t44 68t25 82q23 132 -53.5 212t-223.5 80q-148 0 -251 -84t-148 -213l-125 23q52 178 203 289.5t352 111.5t312 -113t79 -298q-11 -62 -35.5 -116
t-60 -95t-69.5 -72t-77.5 -56t-69 -38t-58.5 -27l-205 -88q-40 -17 -62.5 -27t-68 -32.5t-74 -42t-67 -50.5t-62.5 -62.5t-45 -74t-29 -88.5l-2 -18h811l-22 -125h-955z" />
    <glyph glyph-name="three" unicode="3" horiz-adv-x="1138" 
d="M10 352l133 21q5 -124 80 -198.5t215 -74.5q152 0 263 79.5t135 217.5q23 132 -63.5 206.5t-264.5 74.5h-119l21 113h112q160 0 258.5 69.5t120.5 192.5q21 120 -49.5 185t-206.5 65q-147 0 -240.5 -72t-130.5 -187l-122 21q18 70 61 133t107 114t155 81t195 30
q122 0 214 -41.5t137.5 -124.5t25.5 -194q-12 -65 -43.5 -121.5t-73.5 -94t-83 -62t-81 -37.5l-2 -11q15 -2 33.5 -8.5t43.5 -19t47 -31t44.5 -45.5t34.5 -61t17.5 -78.5t-5.5 -98.5q-23 -128 -108.5 -224.5t-203.5 -143.5t-249 -47q-198 0 -306 107t-102 265z" />
    <glyph glyph-name="four" unicode="4" horiz-adv-x="1161" 
d="M-14 352l22 127l805 924h199l-164 -928h219l-23 -125h-219l-61 -350h-135l61 352h-704zM156 475h557l139 795h-10l-684 -785z" />
    <glyph glyph-name="five" unicode="5" horiz-adv-x="1110" 
d="M-12 315l121 37q12 -111 98 -181.5t211 -70.5q153 0 272 104t146 255q26 149 -55.5 245.5t-231.5 96.5q-202 0 -340 -168l-131 49l225 721h737l-22 -123h-635l-158 -500h11q140 140 348 140q205 0 314.5 -130.5t72.5 -330.5q-37 -203 -199.5 -341t-378.5 -138
q-181 0 -291.5 97t-113.5 238z" />
    <glyph glyph-name="six" unicode="6" horiz-adv-x="1196" 
d="M78 688q26 149 76 271.5t115 207.5t145 143.5t165.5 85.5t176.5 27q155 0 257 -73t113 -185l-125 -49q-50 184 -262 184q-104 0 -193 -46t-153.5 -129t-109.5 -194t-68 -245l-4 -18h10q63 107 186.5 173t260.5 66q95 0 174.5 -32.5t133 -90.5t75.5 -144t4 -187
q-36 -201 -194.5 -338.5t-375.5 -137.5q-246 0 -356 186t-51 525zM215 442q-17 -93 12.5 -171t103.5 -125.5t179 -47.5q158 0 266 99.5t135 251.5q27 154 -49 244.5t-225 90.5q-156 0 -276 -97.5t-146 -244.5z" />
    <glyph glyph-name="seven" unicode="7" horiz-adv-x="985" 
d="M88 1280l23 123h964l-16 -88q-208 -209 -353.5 -400.5t-258.5 -421t-181 -493.5h-147q97 360 285 671.5t468 598.5l2 10h-786z" />
    <glyph glyph-name="eight" unicode="8" horiz-adv-x="1128" 
d="M12 387q24 139 118 232.5t230 125.5l2 11q-102 33 -152.5 122t-31.5 197q25 147 163 247.5t327 100.5q188 0 289.5 -100t74.5 -250q-20 -108 -101.5 -196t-195.5 -121l-2 -11q124 -32 185.5 -125t37.5 -229q-31 -182 -183 -296.5t-363 -114.5q-209 0 -318.5 115
t-79.5 292zM156 393q-23 -128 53 -207.5t225 -79.5q150 0 255 79.5t128 207.5q22 128 -53 212.5t-227 84.5q-151 0 -255 -84.5t-126 -212.5zM319 1061q-15 -103 51 -168.5t191 -65.5q122 0 213.5 64.5t112.5 171.5q20 106 -48 169.5t-196 63.5q-129 0 -219 -65.5
t-105 -169.5z" />
    <glyph glyph-name="nine" unicode="9" horiz-adv-x="1196" 
d="M20 236l125 49q24 -88 90.5 -136.5t172.5 -48.5q138 0 248 81.5t177.5 217.5t98.5 316l4 18h-10q-61 -107 -186 -173t-263 -66q-193 0 -306 126t-79 326q23 130 100.5 238.5t202 173.5t269.5 65q245 0 354.5 -186t50.5 -524q-26 -149 -76 -271.5t-115 -207.5t-145 -143.5
t-165.5 -86t-176.5 -27.5q-155 0 -257.5 73.5t-113.5 185.5zM236 952q-27 -155 49 -245.5t225 -90.5q157 0 276.5 97t145.5 245q26 144 -55.5 244.5t-239.5 100.5t-266 -99.5t-135 -251.5z" />
    <glyph glyph-name="colon" unicode=":" horiz-adv-x="509" 
d="M25 104q9 43 43 71t75 28t65.5 -29.5t18.5 -69.5q-6 -43 -40.5 -73.5t-77.5 -30.5q-41 0 -67 30t-17 74zM168 924q8 41 43 70.5t78 29.5q41 0 65 -29.5t17 -70.5q-7 -43 -42.5 -73t-76.5 -30q-43 0 -67.5 30t-16.5 73z" />
    <glyph glyph-name="semicolon" unicode=";" horiz-adv-x="514" 
d="M8 -104q50 8 84 38.5t39 59.5q-12 -4 -31 -4q-42 0 -65 23t-17 63q6 42 39.5 69t75.5 27q53 0 74.5 -40t9.5 -103q-15 -77 -70.5 -131t-132.5 -66zM172 924q8 41 43 70.5t78 29.5q41 0 65 -29.5t17 -70.5q-7 -43 -42.5 -73t-76.5 -30q-43 0 -67.5 30t-16.5 73z" />
    <glyph glyph-name="less" unicode="&#x3c;" horiz-adv-x="1021" 
d="M31 612l26 150l947 379l-23 -133l-825 -316l-2 -10l712 -315l-22 -134z" />
    <glyph glyph-name="equal" unicode="=" horiz-adv-x="1165" 
d="M61 434l21 113h899l-20 -113h-900zM133 836l19 112h899l-19 -112h-899z" />
    <glyph glyph-name="greater" unicode="&#x3e;" horiz-adv-x="1021" 
d="M-35 233l23 134l823 315l2 10l-711 316l23 133l811 -379l-27 -150z" />
    <glyph glyph-name="question" unicode="?" horiz-adv-x="1024" 
d="M106 1036q53 173 196 280t329 107q187 0 287 -105.5t71 -273.5q-9 -53 -30.5 -100t-45.5 -79t-62 -66.5t-65 -54.5t-69 -49q-4 -3 -6.5 -4.5t-6 -4t-6.5 -4.5q-51 -36 -78.5 -58t-65 -61t-57.5 -84t-26 -100h-129q9 68 32.5 123t64.5 102t83.5 82.5t108.5 81.5
q51 36 81.5 60.5t64.5 59.5t53.5 74.5t27.5 86.5q20 119 -50 188.5t-198 69.5q-143 0 -245 -84t-138 -207zM258 88q8 41 43 70.5t78 29.5q41 0 65 -29.5t17 -70.5q-7 -43 -41.5 -72.5t-75.5 -29.5q-43 0 -68 29.5t-18 72.5z" />
    <glyph glyph-name="at" unicode="@" horiz-adv-x="1402" 
d="M43 557q34 182 143.5 330.5t273.5 234.5t347 86q167 0 288.5 -71.5t175.5 -201.5t25 -294q-32 -175 -133 -281t-231 -106q-68 0 -110.5 32.5t-39.5 108.5h-10q-85 -147 -235 -147q-110 0 -166.5 77t-34.5 203q26 149 135.5 255t237.5 106q137 0 137 -129h10l31 119h135
l-115 -404q-31 -115 56 -115q73 0 134 78.5t83 202.5q35 204 -75 333.5t-319 129.5q-231 0 -405.5 -156t-214.5 -387q-21 -110 -0.5 -204.5t70.5 -164.5t137.5 -109.5t199.5 -39.5h506l-18 -104h-506q-187 0 -315 83.5t-178 223t-19 311.5zM467 535q-15 -83 16 -131t92 -48
q81 0 148.5 73t85.5 169q15 83 -14.5 131.5t-92.5 48.5q-82 0 -149.5 -72t-85.5 -171z" />
    <glyph glyph-name="A" unicode="A" horiz-adv-x="1320" 
d="M-127 0l809 1403h154l317 -1403h-152l-86 395h-667l-228 -395h-147zM309 514h580l-154 731h-10z" />
    <glyph glyph-name="B" unicode="B" horiz-adv-x="1300" 
d="M37 0l248 1403h563q190 -6 284 -99q74 -73 74 -181q0 -30 -6 -62q-19 -107 -92 -187.5t-190 -121.5l-3 -19q112 -19 176 -107q46 -63 46 -153q0 -35 -7 -74q-30 -170 -177 -284.5t-357 -114.5h-559zM193 123h391q181 0 280.5 74.5t122.5 201.5q6 32 6 60q0 89 -58 143
q-76 70 -222 70h-422zM311 795h391q144 0 238 69.5t115 184.5q5 26 5 49q0 80 -56 124q-72 58 -224 58h-383z" />
    <glyph glyph-name="C" unicode="C" horiz-adv-x="1427" 
d="M66 403q-13 64 -14 134q0 77 16 163q27 154 96 286t170.5 229t238 152.5t289.5 55.5q223 0 357 -113t155 -309l-137 -32q-23 155 -128.5 241t-272.5 86q-149 0 -279 -68t-224 -202.5t-126 -316.5q-14 -77 -14 -147q0 -169 82 -288q115 -168 350 -168q165 0 301 88.5
t221 256.5l121 -35q-98 -210 -273 -323t-389 -113q-142 0 -256 51t-185 145t-99 227z" />
    <glyph glyph-name="D" unicode="D" horiz-adv-x="1402" 
d="M37 0l248 1403h456q141 0 255 -50t188 -139t102 -220q15 -67 15 -141q0 -69 -13 -144q-28 -161 -106 -296.5t-185.5 -224.5t-237.5 -138.5t-265 -49.5h-457zM193 123h325q146 0 279 70t229 204.5t127 309.5q12 68 11 128q0 59 -11 113q-23 106 -82.5 180t-149 113
t-198.5 39h-326z" />
    <glyph glyph-name="E" unicode="E" horiz-adv-x="1220" 
d="M37 0l248 1403h913l-22 -123h-779l-88 -504h719l-22 -123h-719l-94 -530h778l-21 -123h-913z" />
    <glyph glyph-name="F" unicode="F" horiz-adv-x="1148" 
d="M37 0l248 1403h903l-23 -123h-768l-90 -506h709l-21 -123h-708l-115 -651h-135z" />
    <glyph glyph-name="G" unicode="G" horiz-adv-x="1476" 
d="M68 702q38 216 151.5 380.5t278.5 252.5t356 88q220 0 357.5 -112.5t146.5 -270.5l-139 -32q-20 122 -121.5 205t-272.5 83q-232 0 -401.5 -160.5t-216.5 -426.5q-14 -80 -14 -152q0 -84 19 -157q37 -136 142.5 -215t266.5 -79q100 0 189 31t150 78t107.5 103.5t70 105.5
t29.5 86l4 22q6 40 -9 57t-56 17h-444l22 123h451q109 0 151 -51q28 -34 28 -95q0 -30 -7 -65l-90 -518h-136l52 291h-11q-18 -40 -45.5 -78.5t-74 -82t-103 -75.5t-137.5 -53.5t-172 -21.5q-199 0 -331 95t-180 257q-27 92 -27 198q0 82 16 172z" />
    <glyph glyph-name="H" unicode="H" horiz-adv-x="1435" 
d="M37 0l248 1403h135l-113 -633h797l113 633h135l-248 -1403h-135l112 643h-796l-113 -643h-135z" />
    <glyph glyph-name="I" unicode="I" horiz-adv-x="503" 
d="M37 0l248 1403h135l-248 -1403h-135z" />
    <glyph glyph-name="J" unicode="J" horiz-adv-x="712" 
d="M-106 0l20 123h156q217 0 258 225l186 1055h135l-186 -1055q-31 -172 -136.5 -260t-277.5 -88h-155z" />
    <glyph glyph-name="K" unicode="K" horiz-adv-x="1294" 
d="M37 0l248 1403h135l-137 -787h10l850 787h168l-637 -604l442 -799h-174l-385 696h-10l-297 -266l-78 -430h-135z" />
    <glyph glyph-name="L" unicode="L" horiz-adv-x="1069" 
d="M37 0l248 1403h135l-227 -1280h698l-21 -123h-833z" />
    <glyph glyph-name="M" unicode="M" horiz-adv-x="1748" 
d="M37 0l248 1403h196l258 -1264h11l718 1264h197l-248 -1403h-135l207 1176h-10l-672 -1176h-176l-242 1174h-10l-207 -1174h-135z" />
    <glyph glyph-name="N" unicode="N" horiz-adv-x="1501" 
d="M37 0l248 1403h176l596 -1217h10l215 1217h135l-248 -1403h-176l-598 1217h-10l-213 -1217h-135z" />
    <glyph glyph-name="O" unicode="O" horiz-adv-x="1525" 
d="M68 702q57 321 278.5 521t517.5 200q194 0 331 -90q137 -91 194 -255q35 -100 34 -216q0 -76 -14 -160q-57 -322 -280.5 -522t-518.5 -200q-195 0 -331.5 90t-192.5 254q-33 99 -33 215q0 78 15 163zM209 702q-14 -77 -14 -146q-1 -170 83 -288q116 -164 355 -164
t413.5 164.5t221.5 433.5q13 76 13 144q0 168 -81 286q-114 166 -354 166q-239 0 -414.5 -165t-222.5 -431z" />
    <glyph glyph-name="P" unicode="P" horiz-adv-x="1218" 
d="M37 0l248 1403h534q195 -1 296 -113q77 -85 77 -211q0 -40 -8 -84q-32 -183 -173.5 -297t-336.5 -114h-400l-102 -584h-135zM297 707h395q139 0 234 78t118 208q6 33 6 63q0 88 -50 146q-68 78 -207 78h-394z" />
    <glyph glyph-name="Q" unicode="Q" horiz-adv-x="1544" 
d="M68 700q27 155 99.5 289t176.5 229.5t238.5 150t281.5 54.5q194 0 331.5 -91.5t194.5 -256.5q34 -100 34 -216q0 -76 -15 -159q-30 -166 -108 -303t-193 -233q67 -70 174 -70h39l-21 -114h-38q-176 0 -265 106q-174 -106 -387 -106q-193 0 -329.5 91.5t-192.5 256.5
q-35 99 -35 214q0 76 15 158zM209 702q-13 -72 -13 -138q0 -92 25 -171q42 -136 149.5 -212.5t262.5 -76.5q160 0 303 84q-40 88 -100.5 134.5t-157.5 46.5h-39l23 116h38q130 0 210 -51.5t126 -154.5l4 -11q181 164 228 434q13 72 13 138q0 91 -25 170
q-41 135 -148.5 211.5t-263.5 76.5q-235 0 -412 -167.5t-223 -428.5z" />
    <glyph glyph-name="R" unicode="R" horiz-adv-x="1363" 
d="M37 0l248 1403h546q215 -1 311 -101q72 -76 71 -195q0 -39 -7 -83q-14 -77 -45.5 -136t-75.5 -97t-85.5 -60t-92.5 -39l-2 -10q43 -2 76 -14.5t62 -41t36 -74.5q3 -20 3 -46q0 -32 -5 -72l-76 -434h-137l76 434q6 27 6 49q0 14 -2 26q-6 31 -19 50.5t-38.5 31t-52 15.5
t-62.5 4h-498l-106 -610h-131zM297 733h414q141 0 236 74.5t118 208.5q5 30 5 57q0 83 -50 137q-66 70 -221 70h-404z" />
    <glyph glyph-name="S" unicode="S" horiz-adv-x="1249" 
d="M-4 379l137 29v-13q-1 -129 95 -209q100 -84 274 -84q169 0 284.5 82.5t139.5 210.5q4 34 4 61v16q-2 33 -18.5 58.5t-34 42t-45 29t-51.5 19.5t-54 12l-334 57q-133 24 -199 116q-48 67 -48 159q0 33 6 69q29 169 187.5 279t373.5 110q87 0 161 -18.5t134 -57t96 -103
t41 -150.5l-135 -25q-6 67 -36 116t-77 74t-98 36.5t-109 11.5q-154 0 -268.5 -77.5t-134.5 -193.5q-5 -25 -4 -47q1 -59 33 -103q46 -60 139 -75l313 -53q47 -8 87.5 -20.5t86 -39.5t75 -63.5t43.5 -96.5q7 -31 7 -65q0 -32 -6 -67q-33 -186 -192 -303t-396 -117
q-223 0 -350 103t-127 290z" />
    <glyph glyph-name="T" unicode="T" horiz-adv-x="1187" 
d="M98 1284l23 119h1147l-23 -119h-508l-225 -1284h-131l225 1284h-508z" />
    <glyph glyph-name="U" unicode="U" horiz-adv-x="1413" 
d="M109 520l155 883h135l-155 -883q-10 -54 -10 -101q0 -123 66 -201q91 -108 278 -109q186 0 316 107.5t165 303.5l155 883h136l-156 -883q-45 -254 -219.5 -395t-419.5 -141q-247 0 -369 140q-90 103 -89 267q0 60 12 129z" />
    <glyph glyph-name="V" unicode="V" horiz-adv-x="1333" 
d="M121 1403h153l271 -1231h10l705 1231h153l-823 -1403h-141z" />
    <glyph glyph-name="W" unicode="W" horiz-adv-x="1871" 
d="M131 1403h145l93 -1235h10l582 1235h147l143 -1237h11l530 1237h150l-635 -1403h-166l-140 1194h-10l-563 -1194h-166z" />
    <glyph glyph-name="X" unicode="X" horiz-adv-x="1327" 
d="M-127 0l670 725l-387 678h157l330 -578h14l525 578h161l-612 -682l428 -721h-166l-370 623h-11l-571 -623h-168z" />
    <glyph glyph-name="Y" unicode="Y" horiz-adv-x="1234" 
d="M121 1403h158l309 -696h10l559 696h158l-680 -840l-98 -563h-136l99 563z" />
    <glyph glyph-name="Z" unicode="Z" horiz-adv-x="1298" 
d="M-55 0l22 127l1145 1143l2 10h-932l23 123h1104l-25 -129l-1147 -1141l-2 -10h955l-21 -123h-1124z" />
    <glyph glyph-name="bracketleft" unicode="[" horiz-adv-x="634" 
d="M-8 -248l295 1671h440l-20 -118h-310l-252 -1434h310l-23 -119h-440z" />
    <glyph glyph-name="backslash" unicode="\" horiz-adv-x="989" 
d="M111 1470h145l543 -1714h-148z" />
    <glyph glyph-name="bracketright" unicode="]" horiz-adv-x="634" 
d="M-182 -248l22 119h310l251 1434h-309l21 118h440l-295 -1671h-440z" />
    <glyph glyph-name="asciicircum" unicode="^" horiz-adv-x="870" 
d="M39 786l418 617h149l197 -617h-127l-158 512h-10l-342 -512h-127z" />
    <glyph glyph-name="underscore" unicode="_" horiz-adv-x="1044" 
d="M-137 -113l20 113h983l-20 -113h-983z" />
    <glyph glyph-name="grave" unicode="`" horiz-adv-x="522" 
d="M186 1505h176l160 -276h-147z" />
    <glyph glyph-name="a" unicode="a" horiz-adv-x="1073" 
d="M4 287q25 141 138 215.5t288 85.5l229 14q33 2 51 5.5t39 13.5t32.5 32.5t17.5 57.5q3 21 3 40q0 75 -52 123q-66 60 -193 60q-119 0 -201 -53.5t-118 -137.5l-123 13q41 128 168 208t292 80q183 0 281 -91q77 -72 77 -181q0 -29 -5 -61l-125 -711h-137l34 190h-10
q-52 -93 -155 -153t-232 -60q-159 -1 -241 85q-63 66 -64 163q0 30 6 62zM141 291q-4 -22 -4 -41q0 -62 41 -104q54 -54 164 -54q157 0 271.5 103t138.5 247l12 74q-28 -14 -111 -20l-227 -17q-254 -17 -285 -188z" />
    <glyph glyph-name="b" unicode="b" horiz-adv-x="1204" 
d="M16 0l250 1423h129l-106 -602h10q57 90 163 151.5t236 61.5q202 0 304 -148q73 -106 73 -254q0 -60 -12 -126q-42 -236 -199.5 -382.5t-355.5 -146.5q-127 0 -212 60t-108 149h-10l-33 -186h-129zM227 502q-9 -53 -9 -99q0 -118 60 -196q84 -109 236.5 -109t268.5 110
t149 300q10 57 10 107q0 114 -52 190q-75 110 -228 110q-158 0 -280.5 -114t-154.5 -299z" />
    <glyph glyph-name="c" unicode="c" horiz-adv-x="1087" 
d="M25 512q41 235 209 383.5t387 148.5q103 0 186 -35t136.5 -106.5t60.5 -171.5l-132 -29q-15 108 -87 166t-183 58q-170 0 -290.5 -120.5t-151.5 -293.5q-9 -51 -9 -96q0 -114 58 -199q82 -119 248 -119q110 0 207 58t155 170l113 -25q-70 -154 -207.5 -237.5
t-296.5 -83.5q-213 0 -329 146q-85 108 -85 265q0 57 11 121z" />
    <glyph glyph-name="d" unicode="d" horiz-adv-x="1193" 
d="M23 504q38 231 193.5 380.5t358.5 149.5q130 0 214 -61.5t108 -151.5h10l107 602h129l-250 -1423h-129l33 186h-11q-56 -89 -161 -149t-232 -60q-134 0 -228 69q-95 69 -131 189q-22 71 -21 153q0 55 10 116zM154 508q-10 -56 -10 -106q0 -114 54 -192q76 -112 230 -112
q153 0 275 109t155 295q9 53 9 100q0 120 -58 200q-81 114 -238 113q-153 0 -268.5 -110.5t-148.5 -296.5z" />
    <glyph glyph-name="e" unicode="e" horiz-adv-x="1107" 
d="M25 504q25 149 101 270t200 194.5t274 73.5q146 0 240 -70.5t126 -189.5q17 -63 17 -135q0 -64 -14 -135l-8 -45h-814q-6 -39 -6 -75q1 -112 57 -192q74 -106 236 -106q123 0 214 60.5t134 144.5l113 -33q-56 -121 -185.5 -205t-295.5 -84q-218 1 -324 147
q-76 106 -76 258q0 58 11 122zM174 582h676q5 36 5 68q0 114 -59 184q-75 90 -216 90t-255.5 -93.5t-150.5 -248.5z" />
    <glyph glyph-name="f" unicode="f" horiz-adv-x="696" 
d="M53 909l21 115h198l27 154q22 122 101 187t202 65h158l-21 -115h-139q-83 0 -122.5 -40t-51.5 -112l-25 -139h275l-21 -115h-274l-160 -909h-129l160 909h-199z" />
    <glyph glyph-name="g" unicode="g" horiz-adv-x="1193" 
d="M-39 -111l127 25q9 -93 89 -145t200 -52q156 0 266.5 87t138.5 247l29 162h-10q-55 -90 -160 -151.5t-235 -61.5q-201 0 -306 146q-75 105 -75 253q0 58 12 123q41 234 199.5 379.5t357.5 145.5q128 0 210 -59.5t107 -149.5h11l32 186h129l-170 -969
q-39 -216 -190.5 -333t-366.5 -117q-180 0 -286.5 79t-108.5 205zM168 522q-9 -54 -9 -102q0 -114 53 -191q76 -110 228 -110q156 0 278 113.5t154 295.5q9 51 9 97q0 115 -60 193q-84 108 -237 108q-152 0 -268 -109.5t-148 -294.5z" />
    <glyph glyph-name="h" unicode="h" 
d="M16 0l250 1423h129l-106 -604h8q56 104 156 164.5t235 60.5q172 0 252 -99q58 -71 58 -183q0 -45 -9 -96l-117 -666h-129l111 635q5 39 7 79v10q1 34 -11 68q-14 38 -37 68.5t-68.5 49t-107.5 18.5q-150 0 -257 -102t-140 -289l-95 -537h-129z" />
    <glyph glyph-name="i" unicode="i" horiz-adv-x="432" 
d="M2 0l180 1024h129l-180 -1024h-129zM207 1323q7 40 39.5 67t72.5 27q38 1 61 -27q18 -22 18 -50q0 -7 -1 -15q-6 -41 -39.5 -69.5t-72.5 -28.5q-41 0 -63 28q-17 21 -17 50q0 9 2 18z" />
    <glyph glyph-name="j" unicode="j" horiz-adv-x="473" 
d="M-242 -358l21 114h84q70 0 111 32.5t57 119.5l196 1116h129l-198 -1126q-22 -126 -102 -191t-189 -65h-109zM246 1325q6 38 39 66t73 28t62 -27q17 -23 17 -51q0 -7 -1 -14q-5 -38 -37.5 -68t-72.5 -30t-64 28q-18 22 -18 50q0 9 2 18z" />
    <glyph glyph-name="k" unicode="k" horiz-adv-x="1021" 
d="M16 0l250 1423h129l-170 -962h11l616 563h166l-463 -424l299 -600h-158l-247 502h-11l-241 -213l-52 -289h-129z" />
    <glyph glyph-name="l" unicode="l" horiz-adv-x="456" 
d="M16 0l250 1423h129l-250 -1423h-129z" />
    <glyph glyph-name="m" unicode="m" horiz-adv-x="1755" 
d="M16 0l181 1024h129l-37 -209h10q52 103 148 166t219 63q119 0 185 -56t75 -163h10q69 115 167.5 167t209.5 52q162 0 230 -103q47 -71 47 -176q0 -46 -9 -99l-117 -666h-129l111 635q7 41 8 79v8q0 34 -8 70q-9 40 -29 69t-59 48t-94 19q-129 0 -223 -96.5t-123 -262.5
l-101 -569h-129l111 635q7 41 9 79q0 6 1 12q0 32 -7 66q-8 40 -27 69.5t-57.5 48t-94.5 18.5q-142 0 -248 -110.5t-139 -301.5l-91 -516h-129z" />
    <glyph glyph-name="n" unicode="n" 
d="M16 0l181 1024h129l-35 -197h8q54 97 158 157t231 60q165 0 249 -100q61 -72 61 -186q0 -43 -9 -92l-117 -666h-129l111 635q5 39 6 79v5q0 37 -13 73q-14 38 -37.5 68.5t-68 49t-104.5 18.5q-144 0 -254 -103t-143 -288l-95 -537h-129z" />
    <glyph glyph-name="o" unicode="o" horiz-adv-x="1175" 
d="M25 510q41 236 211.5 385t390.5 149q218 0 334 -149q86 -110 86 -268q0 -56 -11 -117q-41 -234 -210 -382t-388 -148q-220 0 -337 148q-87 109 -87 266q0 55 11 116zM160 512q-9 -53 -10 -100q0 -119 60 -201q84 -115 247 -115q162 0 288.5 114t159.5 302q9 51 9 96
q0 120 -62 204q-84 116 -246 116q-160 0 -285.5 -114t-160.5 -302z" />
    <glyph glyph-name="p" unicode="p" horiz-adv-x="1271" 
d="M16 -379l248 1403h129l-33 -186h11q54 89 160 149t233 60q201 0 306 -149q75 -107 75 -257q0 -59 -12 -125q-40 -231 -194.5 -378.5t-356.5 -147.5q-130 0 -214.5 61.5t-109.5 151.5h-10l-103 -582h-129zM299 522q-10 -53 -10 -101q0 -117 59 -198q81 -114 238 -114
q154 0 268 109.5t147 297.5q10 57 10 107q0 116 -54 193q-77 110 -230 110t-274 -109t-154 -295z" />
    <glyph glyph-name="q" unicode="q" horiz-adv-x="1122" 
d="M23 516q41 233 198.5 382t358.5 149q127 0 210.5 -60t108.5 -149h10l33 186h129l-248 -1403h-129l103 582h-11q-55 -90 -161 -151.5t-236 -61.5q-202 0 -304 148q-73 105 -73 254q0 59 11 124zM154 516q-10 -56 -10 -105q0 -115 54 -192q75 -110 228 -110q157 0 279 114
t155 299q9 52 9 98q0 119 -61 197q-84 109 -237 109t-268.5 -110t-148.5 -300z" />
    <glyph glyph-name="r" unicode="r" horiz-adv-x="751" 
d="M16 0l181 1024h129l-33 -186h8q10 22 23 42.5t39 48.5t57 49t79 35.5t103 14.5h141l-20 -123h-143q-132 0 -218 -81t-112 -230l-105 -594h-129z" />
    <glyph glyph-name="s" unicode="s" horiz-adv-x="991" 
d="M-29 266l131 25q0 -87 68 -143t192 -56q123 0 210 56.5t102 146.5q3 15 3 28q-1 20 -7 37q-10 28 -24 42t-45.5 25.5t-44 14t-44.5 7.5l-229 38q-105 19 -161 87q-42 51 -43 123q0 24 5 51q24 131 144 212.5t296 81.5q50 0 94.5 -7t88 -25.5t75.5 -47t53 -75t23 -105.5
l-127 -26q-11 91 -73 132.5t-156 41.5q-102 0 -185.5 -43.5t-99.5 -132.5q-3 -15 -3 -29q0 -24 8 -43q12 -31 38.5 -48.5t51.5 -26.5t55 -13l211 -35q121 -18 176 -67q56 -51 56 -135q0 -25 -5 -54q-27 -150 -160 -238t-307 -88q-167 0 -269 78q-98 75 -98 201v10z" />
    <glyph glyph-name="t" unicode="t" horiz-adv-x="806" 
d="M53 911l21 113h172q13 0 16 16l49 271l131 16l-53 -303h334l-21 -113h-333l-115 -657q-4 -21 -4 -39q0 -38 18 -63q26 -37 107 -37h213l-21 -115h-239q-117 0 -172 62q-39 44 -39 121q0 31 6 67l117 661h-187z" />
    <glyph glyph-name="u" unicode="u" 
d="M70 358l116 666h129l-112 -635q-8 -31 -8 -64q1 -18 3 -36q6 -52 25 -95t68.5 -70.5t122.5 -27.5q154 0 264 113t143 299l92 516h129l-180 -1024h-129l35 205h-10q-131 -225 -387 -225q-171 0 -252 99q-58 71 -58 184q0 44 9 95z" />
    <glyph glyph-name="v" unicode="v" horiz-adv-x="989" 
d="M53 1024h144l165 -889h11l483 889h145l-577 -1024h-158z" />
    <glyph glyph-name="w" unicode="w" horiz-adv-x="1452" 
d="M63 1024h142l78 -842h10l389 842h154l90 -842h10l377 842h141l-481 -1024h-137l-99 860h-10l-401 -860h-140z" />
    <glyph glyph-name="x" unicode="x" horiz-adv-x="987" 
d="M-127 0l485 522l-290 502h149l232 -403h10l366 403h152l-459 -508l301 -516h-153l-236 422h-10l-393 -422h-154z" />
    <glyph glyph-name="y" unicode="y" horiz-adv-x="1015" 
d="M-160 -377l21 115h151q130 0 217 153l64 111l-240 1022h142l192 -872h10l475 872h156l-663 -1143q-21 -36 -39 -63t-52 -66.5t-68.5 -65t-85.5 -44.5t-106 -19h-174z" />
    <glyph glyph-name="z" unicode="z" horiz-adv-x="1007" 
d="M-66 0l19 113l813 786l2 10h-657l20 115h823l-20 -115l-811 -784l-2 -10h678l-21 -115h-844z" />
    <glyph glyph-name="braceleft" unicode="{" horiz-adv-x="544" 
d="M33 500l18 104q45 21 77.5 47t53.5 53t36.5 68.5t24 78.5t19.5 97l64 355q19 109 92 178t178 69h63l-20 -114h-35q-64 0 -103 -37t-55 -129l-61 -352q-10 -53 -18 -86.5t-24 -78.5t-37 -76t-56.5 -63.5t-81.5 -58.5l-2 -10q33 -22 56 -48.5t33.5 -58t15.5 -59t2 -66.5
t-6.5 -63.5t-10.5 -65.5l-68 -379q-16 -88 10.5 -123.5t90.5 -35.5h35l-21 -117h-61q-109 0 -157 72t-28 180l66 373q14 79 17.5 125.5t-3.5 91t-32.5 74.5t-71.5 55z" />
    <glyph glyph-name="bar" unicode="|" horiz-adv-x="495" 
d="M-6 -246l323 1843h127l-323 -1843h-127z" />
    <glyph glyph-name="braceright" unicode="}" horiz-adv-x="544" 
d="M-221 -471l20 117h35q64 0 103 35t55 124l67 379q10 55 17.5 87t24 77.5t37 76t56 63t82.5 57.5l3 10q-47 31 -73 70.5t-31.5 90t-2 94t15.5 108.5l62 352q16 92 -10 129t-90 37h-35l20 114h64q106 0 154.5 -69t29.5 -178l-64 -355q-10 -59 -14.5 -97.5t-2.5 -79
t13.5 -68t35 -53t61.5 -46.5l-19 -104q-72 -33 -114 -80.5t-61.5 -105t-37.5 -160.5l-65 -373q-20 -114 -95.5 -183t-179.5 -69h-61z" />
    <glyph glyph-name="uni00A0" unicode="&#xa0;" horiz-adv-x="612" 
 />
    <glyph glyph-name="exclamdown" unicode="&#xa1;" horiz-adv-x="501" 
d="M0 -184l193 1022h112l-168 -1022h-137zM201 1130q8 43 43 73t78 30q41 0 65 -30t16 -73q-8 -41 -42.5 -70.5t-75.5 -29.5q-43 0 -67.5 29.5t-16.5 70.5z" />
    <glyph glyph-name="cent" unicode="&#xa2;" horiz-adv-x="1136" 
d="M63 686q38 221 189 366.5t354 164.5l25 137h123l-25 -140q133 -18 218.5 -98t94.5 -211l-131 -28q-12 90 -65 146t-137 71l-146 -815q92 15 168.5 71t126.5 150l113 -25q-61 -135 -175.5 -216t-252.5 -101l-23 -129h-123l23 127q-193 18 -294.5 162t-62.5 368zM199 686
q-30 -160 36 -275t205 -135l146 820q-150 -20 -255 -136.5t-132 -273.5z" />
    <glyph glyph-name="sterling" unicode="&#xa3;" horiz-adv-x="1144" 
d="M-12 0l20 123q318 207 256 481h-172l21 123h133q-2 22 -11.5 61t-16.5 70t-10 82t7 96q32 180 178 295t340 115q176 0 285.5 -98t103.5 -263l-139 -26q-2 70 -27 123t-65 82.5t-85 44t-95 14.5q-121 0 -224.5 -76t-128.5 -213q-9 -41 -6 -90t9 -79.5t15 -72t11 -65.5h504
l-21 -123h-460q15 -75 0.5 -149t-50.5 -133.5t-78.5 -106t-91.5 -82.5l-2 -10h779l-21 -123h-958z" />
    <glyph glyph-name="yen" unicode="&#xa5;" horiz-adv-x="1239" 
d="M94 1403h158l309 -696h10l559 696h158l-657 -813h383l-21 -111h-399l-21 -117h400l-21 -110h-399l-43 -252h-135l43 252h-264l20 110h264l21 117h-264l20 111h246z" />
    <glyph glyph-name="brokenbar" unicode="&#xa6;" horiz-adv-x="495" 
d="M-6 -240l135 766h127l-135 -766h-127zM182 831l135 766h127l-135 -766h-127z" />
    <glyph glyph-name="dieresis" unicode="&#xa8;" horiz-adv-x="716" 
d="M162 1319q8 41 43 70.5t78 29.5q41 0 65 -29.5t17 -70.5q-7 -42 -42 -72t-77 -30q-43 0 -67.5 29.5t-16.5 72.5zM520 1319q8 41 43 70.5t78 29.5q41 0 65 -29.5t17 -70.5q-7 -42 -42 -72t-77 -30q-43 0 -67.5 29.5t-16.5 72.5z" />
    <glyph glyph-name="copyright" unicode="&#xa9;" horiz-adv-x="1744" 
d="M72 721q30 170 113.5 316.5t204 250t276.5 162.5t325 59q170 0 305 -59t218.5 -163t115.5 -249.5t2 -314.5q-29 -168 -112 -314.5t-203 -251.5t-276.5 -165t-327.5 -60q-226 0 -386.5 101.5t-227.5 281.5t-27 406zM188 721q-35 -195 22 -350.5t193 -242.5t328 -87
q191 0 359 87.5t280.5 243t147.5 349.5t-23.5 349.5t-195.5 243t-328 87.5q-144 0 -276.5 -51t-235 -140.5t-174 -216t-97.5 -272.5zM401 715q39 228 192.5 363.5t358.5 135.5q162 0 256 -86.5t97 -238.5l-119 -21q-15 107 -83.5 168.5t-174.5 61.5q-149 0 -258 -104.5
t-140 -276.5q-30 -173 42 -278t216 -105q108 0 199.5 62t145.5 171l108 -30q-60 -148 -185.5 -234t-283.5 -86q-199 0 -304 136t-67 362z" />
    <glyph glyph-name="guillemotleft" unicode="&#xab;" horiz-adv-x="1224" 
d="M88 571l377 377h166l-381 -373l-2 -10l252 -370h-166zM479 571l377 377h166l-381 -373l-2 -10l252 -370h-166z" />
    <glyph glyph-name="uni00AD" unicode="&#xad;" horiz-adv-x="1112" 
d="M147 578l21 112h717l-21 -112h-717z" />
    <glyph glyph-name="registered" unicode="&#xae;" horiz-adv-x="1744" 
d="M72 721q30 170 113.5 316.5t204 250t276.5 162.5t325 59q170 0 305 -59t218.5 -163t115.5 -249.5t2 -314.5q-29 -168 -112 -314.5t-203 -251.5t-276.5 -165t-327.5 -60q-226 0 -386.5 101.5t-227.5 281.5t-27 406zM188 721q-35 -195 22 -350.5t193 -242.5t328 -87
q191 0 359 87.5t280.5 243t147.5 349.5t-23.5 349.5t-195.5 243t-328 87.5q-144 0 -276.5 -51t-235 -140.5t-174 -216t-97.5 -272.5zM479 276l158 904h346q138 0 207 -74t47 -195q-16 -94 -74.5 -148.5t-132.5 -62.5l-2 -10q79 3 116 -32.5t23 -120.5l-45 -261h-135l45 261
q10 58 -14 79t-80 21h-279l-63 -361h-117zM678 745h223q84 0 142 43.5t71 116.5q15 74 -27 120t-129 46h-221z" />
    <glyph glyph-name="macron" unicode="&#xaf;" horiz-adv-x="696" 
d="M141 1231l19 110h553l-19 -110h-553z" />
    <glyph glyph-name="degree" unicode="&#xb0;" horiz-adv-x="636" 
d="M129 1278q20 118 108.5 195t204.5 77q117 0 180.5 -75.5t41.5 -192.5q-20 -117 -109.5 -193.5t-206.5 -76.5q-115 0 -177 75t-42 191zM240 1278q-14 -72 22 -120t103 -48q66 0 117 48t65 120q12 76 -21.5 125t-99.5 49q-68 0 -121 -49.5t-65 -124.5z" />
    <glyph glyph-name="acute" unicode="&#xb4;" horiz-adv-x="514" 
d="M141 1229l254 276h166l-282 -276h-138z" />
    <glyph glyph-name="periodcentered" unicode="&#xb7;" horiz-adv-x="489" 
d="M106 627q9 43 43.5 70.5t75.5 27.5t65.5 -29t18.5 -69q-6 -43 -41 -74t-78 -31q-41 0 -67 30.5t-17 74.5z" />
    <glyph glyph-name="cedilla" unicode="&#xb8;" horiz-adv-x="600" 
d="M-150 -385l101 29q13 -97 119 -97q54 0 96.5 26.5t52.5 82.5q9 53 -19.5 82t-82.5 29q-22 0 -43.5 -6.5t-32.5 -12t-29.5 -17.5t-21.5 -14l-80 52l141 213h105l-105 -150q54 18 90 18q91 0 143.5 -49.5t34.5 -144.5q-18 -99 -92 -149t-166 -50q-83 0 -140.5 39t-70.5 119
z" />
    <glyph glyph-name="guillemotright" unicode="&#xbb;" horiz-adv-x="1224" 
d="M23 195l378 370l2 10l-249 373h165l246 -377l-377 -376h-165zM414 195l379 370l2 10l-250 373h166l245 -377l-376 -376h-166z" />
    <glyph glyph-name="questiondown" unicode="&#xbf;" horiz-adv-x="1024" 
d="M-92 84q8 44 23 82.5t38 71t45 58t54.5 52t54.5 42.5t58 41q11 7 16 11q41 29 65 47t56.5 48.5t51 58t34 66.5t20.5 83h129q-9 -68 -32.5 -123t-64.5 -102t-83.5 -82.5t-108.5 -81.5q-52 -37 -81.5 -60.5t-64 -59t-54 -74.5t-27.5 -86q-20 -119 50 -188.5t198 -69.5
q143 0 245 84t138 207l120 -21q-51 -173 -194.5 -280t-329.5 -107q-187 0 -287 106t-69 277zM434 1036q7 43 42.5 73t76.5 30q43 0 67.5 -30t16.5 -73q-8 -41 -43 -70.5t-78 -29.5q-41 0 -65 29.5t-17 70.5z" />
    <glyph glyph-name="Agrave" unicode="&#xc0;" horiz-adv-x="1259" 
d="M-188 0l809 1403h153l318 -1403h-152l-86 395h-668l-227 -395h-147zM248 514h579l-153 731h-10zM465 1804h176l158 -276h-148z" />
    <glyph glyph-name="Aacute" unicode="&#xc1;" horiz-adv-x="1320" 
d="M-127 0l809 1403h154l317 -1403h-152l-86 395h-667l-228 -395h-147zM309 514h580l-154 731h-10zM725 1538l256 277h166l-285 -277h-137z" />
    <glyph glyph-name="Acircumflex" unicode="&#xc2;" horiz-adv-x="1320" 
d="M-127 0l809 1403h154l317 -1403h-152l-86 395h-667l-228 -395h-147zM309 514h580l-154 731h-10zM492 1509l249 226h146l172 -226h-146l-112 138l-158 -138h-151z" />
    <glyph glyph-name="Atilde" unicode="&#xc3;" horiz-adv-x="1320" 
d="M-127 0l809 1403h154l317 -1403h-152l-86 395h-667l-228 -395h-147zM309 514h580l-154 731h-10zM483 1497l4 23q17 91 72.5 138.5t130.5 47.5q32 0 58 -10.5t41.5 -23.5t37.5 -38q2 -2 9 -10.5t11 -13t12 -11.5t15 -11.5t16.5 -7.5t18.5 -3q23 0 44 16.5t28 55.5l6 39
h109l-4 -23q-17 -91 -70.5 -139.5t-124.5 -48.5q-34 0 -63 13t-43 25.5t-35 36.5q-2 2 -9 10t-9 10.5t-8 9t-9 9t-8.5 6.5t-9.5 5.5t-9.5 3.5t-11.5 2q-26 2 -51.5 -15t-32.5 -57l-6 -39h-109z" />
    <glyph glyph-name="Adieresis" unicode="&#xc4;" horiz-adv-x="1320" 
d="M-127 0l809 1403h154l317 -1403h-152l-86 395h-667l-228 -395h-147zM309 514h580l-154 731h-10zM514 1604q9 43 43.5 70.5t75.5 27.5t65.5 -29t18.5 -69q-6 -43 -41 -74t-78 -31q-41 0 -67 30.5t-17 74.5zM872 1604q9 43 43.5 70.5t75.5 27.5t65.5 -29t18.5 -69
q-6 -43 -41 -74t-78 -31q-41 0 -67 30.5t-17 74.5z" />
    <glyph glyph-name="Aring" unicode="&#xc5;" horiz-adv-x="1320" 
d="M-127 0l809 1403h154l317 -1403h-152l-86 395h-667l-228 -395h-147zM309 514h580l-154 731h-10zM606 1661q15 84 80.5 137t149.5 53q83 0 127 -53.5t30 -136.5q-14 -84 -77.5 -138.5t-147.5 -54.5q-85 0 -131 54.5t-31 138.5zM707 1659q-7 -41 15 -69.5t62 -28.5
t71.5 28.5t39.5 69.5q8 43 -14 72.5t-62 29.5t-72 -29.5t-40 -72.5z" />
    <glyph glyph-name="AE" unicode="&#xc6;" horiz-adv-x="1939" 
d="M-127 0l801 1403h1243l-23 -123h-778l-88 -504h719l-23 -123h-718l-95 -530h779l-21 -123h-913l69 393h-577l-225 -393h-150zM311 516h537l133 764h-244z" />
    <glyph glyph-name="Ccedilla" unicode="&#xc7;" horiz-adv-x="1411" 
d="M44 430.5q-19 122.5 7 269.5q27 154 96.5 286t171 229t237.5 152.5t290 55.5q223 0 357 -113t155 -309l-137 -32q-23 155 -129 241t-273 86q-149 0 -279 -68t-224 -202.5t-126 -316.5q-47 -267 68 -435t350 -168q165 0 301 88.5t221 256.5l121 -35q-99 -210 -273 -323
t-388 -113h-17l-59 -84q48 18 88 18q91 0 143.5 -50t36.5 -143q-14 -94 -88.5 -147t-173.5 -53q-81 0 -138.5 38.5t-70.5 118.5l103 29q10 -96 116 -96q54 0 98 26.5t54 81.5q9 52 -20.5 81.5t-83.5 29.5q-18 0 -34 -3t-30.5 -10t-23 -11.5t-22 -14t-15.5 -10.5l-82 51
l104 156q-116 19 -207 77.5t-148 150.5t-76 214.5z" />
    <glyph glyph-name="Egrave" unicode="&#xc8;" horiz-adv-x="1220" 
d="M37 0l248 1403h913l-22 -123h-779l-88 -504h719l-22 -123h-719l-94 -530h778l-21 -123h-913zM514 1804h176l158 -276h-148z" />
    <glyph glyph-name="Eacute" unicode="&#xc9;" horiz-adv-x="1220" 
d="M37 0l248 1403h913l-22 -123h-779l-88 -504h719l-22 -123h-719l-94 -530h778l-21 -123h-913zM635 1538l256 277h166l-285 -277h-137z" />
    <glyph glyph-name="Ecircumflex" unicode="&#xca;" horiz-adv-x="1220" 
d="M37 0l248 1403h913l-22 -123h-779l-88 -504h719l-22 -123h-719l-94 -530h778l-21 -123h-913zM473 1509l250 226h145l172 -226h-145l-113 138l-157 -138h-152z" />
    <glyph glyph-name="Edieresis" unicode="&#xcb;" horiz-adv-x="1220" 
d="M37 0l248 1403h913l-22 -123h-779l-88 -504h719l-22 -123h-719l-94 -530h778l-21 -123h-913zM485 1604q9 43 43.5 70.5t75.5 27.5t65.5 -29t18.5 -69q-6 -43 -41 -74t-78 -31q-41 0 -67 30.5t-17 74.5zM844 1604q9 43 43.5 70.5t75.5 27.5t65.5 -29t18.5 -69
q-6 -43 -41 -74t-78 -31q-41 0 -67 30.5t-17 74.5z" />
    <glyph glyph-name="Igrave" unicode="&#xcc;" horiz-adv-x="501" 
d="M10 0l248 1403h135l-248 -1403h-135zM84 1835h176l158 -276h-148z" />
    <glyph glyph-name="Iacute" unicode="&#xcd;" horiz-adv-x="522" 
d="M37 0l248 1403h135l-248 -1403h-135zM319 1569l256 276h166l-284 -276h-138z" />
    <glyph glyph-name="Icircumflex" unicode="&#xce;" horiz-adv-x="425" 
d="M16 0l248 1403h135l-247 -1403h-136zM66 1540l251 225h146l170 -225h-146l-112 137l-158 -137h-151z" />
    <glyph glyph-name="Idieresis" unicode="&#xcf;" horiz-adv-x="602" 
d="M92 0l248 1403h135l-248 -1403h-135zM162 1632q8 41 43 71t78 30q41 0 65.5 -30t16.5 -71q-7 -42 -42 -72t-77 -30q-43 0 -67.5 29.5t-16.5 72.5zM520 1632q8 41 43 71t78 30q41 0 65.5 -30t16.5 -71q-7 -42 -42 -72t-77 -30q-43 0 -67.5 29.5t-16.5 72.5z" />
    <glyph glyph-name="Eth" unicode="&#xd0;" horiz-adv-x="1398" 
d="M8 676l19 110h145l109 617h456q141 0 255 -50t188 -139t102.5 -220t1.5 -285q-28 -161 -106 -296.5t-186 -224.5t-238 -138.5t-265 -49.5h-456l119 676h-144zM188 123h326q146 0 279 70t229 204.5t127 309.5q23 135 0 241.5t-82.5 180t-149 112.5t-198.5 39h-326
l-88 -494h275l-19 -110h-274z" />
    <glyph glyph-name="Ntilde" unicode="&#xd1;" horiz-adv-x="1501" 
d="M37 0l248 1403h176l596 -1217h10l215 1217h135l-248 -1403h-176l-598 1217h-10l-213 -1217h-135zM545 1528l4 22q18 94 74 140.5t127 46.5q84 0 141 -72q43 -57 80 -57q22 0 42.5 15.5t28.5 55.5l9 39h108l-4 -22q-18 -94 -71.5 -141.5t-125.5 -47.5q-33 0 -62 13.5
t-42.5 26t-34.5 36.5q-2 2 -7.5 8.5t-7 8.5t-6.5 7.5t-7 7t-6.5 6t-7.5 6t-7 4t-7.5 4t-8 2.5t-9.5 1q-29 2 -52.5 -16t-30.5 -55l-9 -39h-108z" />
    <glyph glyph-name="Ograve" unicode="&#xd2;" horiz-adv-x="1525" 
d="M68 702q57 321 278.5 521t517.5 200q194 0 331 -90t194 -254.5t20 -376.5q-57 -322 -280.5 -522t-518.5 -200q-195 0 -331.5 90t-192 254.5t-18.5 377.5zM209 702q-47 -269 69.5 -433.5t354.5 -164.5q239 0 413.5 164.5t221.5 433.5q46 264 -68 430t-354 166
q-239 0 -414.5 -165t-222.5 -431zM608 1835h176l158 -276h-147z" />
    <glyph glyph-name="Oacute" unicode="&#xd3;" horiz-adv-x="1525" 
d="M68 702q57 321 278.5 521t517.5 200q194 0 331 -90t194 -254.5t20 -376.5q-57 -322 -280.5 -522t-518.5 -200q-195 0 -331.5 90t-192 254.5t-18.5 377.5zM209 702q-47 -269 69.5 -433.5t354.5 -164.5q239 0 413.5 164.5t221.5 433.5q46 264 -68 430t-354 166
q-239 0 -414.5 -165t-222.5 -431zM784 1569l256 276h166l-284 -276h-138z" />
    <glyph glyph-name="Ocircumflex" unicode="&#xd4;" horiz-adv-x="1525" 
d="M68 702q57 321 278.5 521t517.5 200q194 0 331 -90t194 -254.5t20 -376.5q-57 -322 -280.5 -522t-518.5 -200q-195 0 -331.5 90t-192 254.5t-18.5 377.5zM209 702q-47 -269 69.5 -433.5t354.5 -164.5q239 0 413.5 164.5t221.5 433.5q46 264 -68 430t-354 166
q-239 0 -414.5 -165t-222.5 -431zM602 1540l252 225h145l170 -225h-145l-113 137l-157 -137h-152z" />
    <glyph glyph-name="Otilde" unicode="&#xd5;" horiz-adv-x="1525" 
d="M68 702q57 321 278.5 521t517.5 200q194 0 331 -90t194 -254.5t20 -376.5q-57 -322 -280.5 -522t-518.5 -200q-195 0 -331.5 90t-192 254.5t-18.5 377.5zM209 702q-47 -269 69.5 -433.5t354.5 -164.5q239 0 413.5 164.5t221.5 433.5q46 264 -68 430t-354 166
q-239 0 -414.5 -165t-222.5 -431zM557 1528l4 22q18 94 74 140.5t127 46.5q84 0 141 -72q43 -57 80 -57q23 0 43.5 16t28.5 55l8 39h108l-4 -22q-18 -94 -71.5 -141.5t-124.5 -47.5q-33 0 -62 13.5t-43 26t-35 36.5q-2 3 -8.5 10.5t-9 10t-8 9t-8.5 8.5t-8.5 6t-9.5 5.5
t-9.5 3.5t-11.5 2q-29 2 -53 -16t-31 -55l-8 -39h-109z" />
    <glyph glyph-name="Odieresis" unicode="&#xd6;" horiz-adv-x="1525" 
d="M68 702q57 321 278.5 521t517.5 200q194 0 331 -90t194 -254.5t20 -376.5q-57 -322 -280.5 -522t-518.5 -200q-195 0 -331.5 90t-192 254.5t-18.5 377.5zM209 702q-47 -269 69.5 -433.5t354.5 -164.5q239 0 413.5 164.5t221.5 433.5q46 264 -68 430t-354 166
q-239 0 -414.5 -165t-222.5 -431zM614 1632q8 41 43 71t78 30q41 0 65.5 -30t16.5 -71q-7 -42 -42 -72t-77 -30q-43 0 -67.5 29.5t-16.5 72.5zM973 1632q8 41 43 71t78 30q41 0 65.5 -30t16.5 -71q-7 -42 -42 -72t-77 -30q-43 0 -67.5 29.5t-16.5 72.5z" />
    <glyph glyph-name="multiply" unicode="&#xd7;" horiz-adv-x="1056" 
d="M-8 328l424 360l-297 361l100 86l297 -361l424 361l72 -86l-424 -361l297 -360l-101 -86l-297 360l-424 -360z" />
    <glyph glyph-name="Oslash" unicode="&#xd8;" horiz-adv-x="1540" 
d="M-49 37l194 188q-112 192 -63 477q57 321 279 521t518 200q232 0 378 -127l132 125l77 -73l-135 -131q147 -200 92 -515q-57 -322 -280 -522t-518 -200q-264 0 -414 159l-182 -176zM223 702q-39 -212 33 -370l901 866q-117 100 -297 100q-239 0 -414.5 -165t-222.5 -431z
M315 240q120 -136 332 -136q239 0 413.5 164.5t221.5 433.5q44 254 -57 414z" />
    <glyph glyph-name="Ugrave" unicode="&#xd9;" horiz-adv-x="1413" 
d="M109 520l155 883h135l-155 -883q-35 -194 56 -302.5t278 -108.5q186 0 316 107.5t165 303.5l155 883h136l-156 -883q-45 -254 -219.5 -395t-419.5 -141q-246 0 -368.5 140.5t-77.5 395.5zM598 1804h176l158 -276h-148z" />
    <glyph glyph-name="Uacute" unicode="&#xda;" horiz-adv-x="1433" 
d="M109 520l155 883h135l-155 -883q-35 -194 56 -302.5t278 -108.5q186 0 316 107.5t165 303.5l155 883h136l-156 -883q-45 -254 -219.5 -395t-419.5 -141q-246 0 -368.5 140.5t-77.5 395.5zM774 1538l256 277h166l-285 -277h-137z" />
    <glyph glyph-name="Ucircumflex" unicode="&#xdb;" horiz-adv-x="1413" 
d="M109 520l155 883h135l-155 -883q-35 -194 56 -302.5t278 -108.5q186 0 316 107.5t165 303.5l155 883h136l-156 -883q-45 -254 -219.5 -395t-419.5 -141q-246 0 -368.5 140.5t-77.5 395.5zM535 1509l249 226h146l172 -226h-146l-112 138l-158 -138h-151z" />
    <glyph glyph-name="Udieresis" unicode="&#xdc;" horiz-adv-x="1413" 
d="M109 520l155 883h135l-155 -883q-35 -194 56 -302.5t278 -108.5q186 0 316 107.5t165 303.5l155 883h136l-156 -883q-45 -254 -219.5 -395t-419.5 -141q-246 0 -368.5 140.5t-77.5 395.5zM557 1604q9 43 43.5 70.5t75.5 27.5t65.5 -29t18.5 -69q-6 -43 -41 -74t-78 -31
q-41 0 -67 30.5t-17 74.5zM915 1604q9 43 43.5 70.5t75.5 27.5t65.5 -29t18.5 -69q-6 -43 -41 -74t-78 -31q-41 0 -67 30.5t-17 74.5z" />
    <glyph glyph-name="Yacute" unicode="&#xdd;" horiz-adv-x="1234" 
d="M121 1403h158l309 -696h10l559 696h158l-680 -840l-98 -563h-136l99 563zM696 1569l256 276h166l-284 -276h-138z" />
    <glyph glyph-name="Thorn" unicode="&#xde;" horiz-adv-x="1175" 
d="M37 0h135l57 332h400q195 0 337.5 114t174.5 297t-70 295.5t-297 112.5h-397l45 252h-137zM254 455l100 573h394q138 0 206.5 -78t46.5 -207q-23 -133 -120 -210.5t-234 -77.5h-393z" />
    <glyph glyph-name="germandbls" unicode="&#xdf;" horiz-adv-x="1234" 
d="M37 0l178 1008q32 181 174.5 298t355.5 117q191 0 304.5 -95t85.5 -259q-11 -66 -42.5 -122t-73.5 -92.5t-83 -60t-82 -36.5l-2 -10q18 -3 40 -11.5t52 -26.5t54 -44.5t45 -64.5t26 -87.5t-4 -112.5q-24 -129 -112 -222t-206 -136t-251 -43h-193l21 123h192
q156 0 269 72.5t137 207.5t-64.5 210t-261.5 75h-61l20 113h55q158 0 258.5 67t120.5 189q20 117 -53.5 180t-212.5 63q-158 0 -255 -82.5t-122 -230.5l-174 -987h-135z" />
    <glyph glyph-name="agrave" unicode="&#xe0;" horiz-adv-x="1073" 
d="M4 287q25 141 138 215.5t288 85.5l229 14q33 2 51 5.5t39 13.5t32.5 32.5t17.5 57.5q17 103 -49.5 163t-192.5 60q-119 0 -201 -53.5t-118 -137.5l-123 13q41 128 168 208t292 80q184 0 281.5 -91t71.5 -242l-125 -711h-137l34 190h-10q-52 -93 -155 -153t-232 -60
q-159 0 -241.5 85.5t-57.5 224.5zM141 291q-17 -91 37 -145t164 -54q157 0 271.5 103t138.5 247l12 74q-28 -14 -111 -20l-227 -17q-254 -17 -285 -188zM369 1446h176l157 -277h-147z" />
    <glyph glyph-name="aacute" unicode="&#xe1;" horiz-adv-x="1107" 
d="M4 287q25 141 138 215.5t288 85.5l229 14q33 2 51 5.5t39 13.5t32.5 32.5t17.5 57.5q17 103 -49.5 163t-192.5 60q-119 0 -201 -53.5t-118 -137.5l-123 13q41 128 168 208t292 80q184 0 281.5 -91t71.5 -242l-125 -711h-137l34 190h-10q-52 -93 -155 -153t-232 -60
q-159 0 -241.5 85.5t-57.5 224.5zM141 291q-17 -91 37 -145t164 -54q157 0 271.5 103t138.5 247l12 74q-28 -14 -111 -20l-227 -17q-254 -17 -285 -188zM547 1180l256 276h166l-285 -276h-137z" />
    <glyph glyph-name="acircumflex" unicode="&#xe2;" horiz-adv-x="1073" 
d="M4 287q25 141 138 215.5t288 85.5l229 14q33 2 51 5.5t39 13.5t32.5 32.5t17.5 57.5q17 103 -49.5 163t-192.5 60q-119 0 -201 -53.5t-118 -137.5l-123 13q41 128 168 208t292 80q184 0 281.5 -91t71.5 -242l-125 -711h-137l34 190h-10q-52 -93 -155 -153t-232 -60
q-159 0 -241.5 85.5t-57.5 224.5zM141 291q-17 -91 37 -145t164 -54q157 0 271.5 103t138.5 247l12 74q-28 -14 -111 -20l-227 -17q-254 -17 -285 -188zM309 1151l250 225h146l172 -225h-146l-113 137l-157 -137h-152z" />
    <glyph glyph-name="atilde" unicode="&#xe3;" horiz-adv-x="1073" 
d="M4 287q25 141 138 215.5t288 85.5l229 14q33 2 51 5.5t39 13.5t32.5 32.5t17.5 57.5q17 103 -49.5 163t-192.5 60q-119 0 -201 -53.5t-118 -137.5l-123 13q41 128 168 208t292 80q184 0 281.5 -91t71.5 -242l-125 -711h-137l34 190h-10q-52 -93 -155 -153t-232 -60
q-159 0 -241.5 85.5t-57.5 224.5zM141 291q-17 -91 37 -145t164 -54q157 0 271.5 103t138.5 247l12 74q-28 -14 -111 -20l-227 -17q-254 -17 -285 -188zM289 1139l4 22q18 94 74 140.5t127 46.5q84 0 141 -72q43 -57 80 -57q23 0 43.5 16t27.5 55l7 39h108l-4 -22
q-18 -95 -72 -142t-123 -47q-34 0 -63 13.5t-41.5 25.5t-34.5 37q-29 32 -43.5 43t-32.5 12q-28 2 -52.5 -15.5t-31.5 -55.5l-6 -39h-108z" />
    <glyph glyph-name="adieresis" unicode="&#xe4;" horiz-adv-x="1073" 
d="M4 287q25 141 138 215.5t288 85.5l229 14q33 2 51 5.5t39 13.5t32.5 32.5t17.5 57.5q17 103 -49.5 163t-192.5 60q-119 0 -201 -53.5t-118 -137.5l-123 13q41 128 168 208t292 80q184 0 281.5 -91t71.5 -242l-125 -711h-137l34 190h-10q-52 -93 -155 -153t-232 -60
q-159 0 -241.5 85.5t-57.5 224.5zM141 291q-17 -91 37 -145t164 -54q157 0 271.5 103t138.5 247l12 74q-28 -14 -111 -20l-227 -17q-254 -17 -285 -188zM328 1243q8 42 42 71t76 29q41 0 66 -29.5t18 -70.5q-7 -43 -42 -72.5t-76 -29.5q-43 0 -67.5 29.5t-16.5 72.5z
M686 1243q8 42 42.5 71t76.5 29q41 0 66 -29.5t18 -70.5q-7 -42 -42 -72t-77 -30q-43 0 -67.5 29.5t-16.5 72.5z" />
    <glyph glyph-name="aring" unicode="&#xe5;" horiz-adv-x="1073" 
d="M4 287q25 141 138 215.5t288 85.5l229 14q33 2 51 5.5t39 13.5t32.5 32.5t17.5 57.5q17 103 -49.5 163t-192.5 60q-119 0 -201 -53.5t-118 -137.5l-123 13q41 128 168 208t292 80q184 0 281.5 -91t71.5 -242l-125 -711h-137l34 190h-10q-52 -93 -155 -153t-232 -60
q-159 0 -241.5 85.5t-57.5 224.5zM141 291q-17 -91 37 -145t164 -54q157 0 271.5 103t138.5 247l12 74q-28 -14 -111 -20l-227 -17q-254 -17 -285 -188zM432 1303q15 84 80.5 137t149.5 53q83 0 127 -53.5t30 -136.5q-14 -84 -77.5 -138.5t-147.5 -54.5q-85 0 -131 54.5
t-31 138.5zM532 1300q-7 -41 15.5 -69.5t62.5 -28.5t71.5 28.5t39.5 69.5q8 43 -13.5 73t-60.5 30q-40 0 -74 -30t-41 -73z" />
    <glyph glyph-name="ae" unicode="&#xe6;" horiz-adv-x="1839" 
d="M4 287q25 141 138 215.5t288 85.5l229 14q33 2 51 5.5t39 13.5t32.5 32.5t17.5 57.5q17 103 -49.5 163t-192.5 60q-119 0 -201 -53.5t-118 -137.5l-123 13q41 128 168 208t292 80q133 0 223.5 -50t121.5 -138q77 88 182.5 137t228.5 49q146 0 240 -70.5t125.5 -189.5
t3.5 -270l-8 -45h-807l-13 -68q-2 -135 73.5 -220t219.5 -85q123 0 214 60.5t134 144.5l113 -33q-56 -121 -185.5 -205t-295.5 -84q-213 0 -322 144l-20 -121h-137l34 190h-10q-52 -93 -155 -153t-232 -60q-159 0 -241.5 85.5t-57.5 224.5zM141 291q-17 -91 37 -145t164 -54
q149 0 260 93.5t143 228.5q4 52 11 90l2 10q-23 -12 -105 -18l-227 -17q-254 -17 -285 -188zM905 582h676q21 163 -54 252.5t-216 89.5t-255.5 -93.5t-150.5 -248.5z" />
    <glyph glyph-name="ccedilla" unicode="&#xe7;" horiz-adv-x="1087" 
d="M25 512q41 235 209 383.5t387 148.5q103 0 186 -35t136.5 -106.5t60.5 -171.5l-132 -29q-15 108 -87 166t-183 58q-170 0 -290.5 -120.5t-151.5 -293.5q-33 -176 49 -295t248 -119q110 0 207 58t155 170l113 -25q-70 -154 -207.5 -237.5t-296.5 -83.5h-18l-56 -80
q54 18 90 18q91 0 143 -49.5t36 -144.5q-18 -99 -92 -149t-166 -50q-82 0 -140.5 39t-72.5 119l102 28q13 -96 119 -96q54 0 96.5 26.5t52.5 82.5q9 52 -20.5 81t-83.5 29q-22 0 -43 -6t-32 -11.5t-29 -17.5l-21 -14l-80 51l102 156q-164 38 -245 176.5t-45 343.5z" />
    <glyph glyph-name="egrave" unicode="&#xe8;" horiz-adv-x="1107" 
d="M25 504q25 149 101 270t200 194.5t274 73.5q146 0 240 -70.5t125.5 -189.5t3.5 -270l-8 -45h-814q-24 -160 50.5 -266.5t236.5 -106.5q123 0 214 60.5t134 144.5l113 -33q-56 -121 -185.5 -205t-295.5 -84q-218 0 -323.5 146.5t-65.5 380.5zM174 582h676
q21 163 -54 252.5t-216 89.5t-255.5 -93.5t-150.5 -248.5zM371 1444h176l158 -277h-148z" />
    <glyph glyph-name="eacute" unicode="&#xe9;" horiz-adv-x="1107" 
d="M25 504q25 149 101 270t200 194.5t274 73.5q146 0 240 -70.5t125.5 -189.5t3.5 -270l-8 -45h-814q-24 -160 50.5 -266.5t236.5 -106.5q123 0 214 60.5t134 144.5l113 -33q-56 -121 -185.5 -205t-295.5 -84q-218 0 -323.5 146.5t-65.5 380.5zM174 582h676
q21 163 -54 252.5t-216 89.5t-255.5 -93.5t-150.5 -248.5zM547 1178l256 276h166l-285 -276h-137z" />
    <glyph glyph-name="ecircumflex" unicode="&#xea;" horiz-adv-x="1107" 
d="M25 504q25 149 101 270t200 194.5t274 73.5q146 0 240 -70.5t125.5 -189.5t3.5 -270l-8 -45h-814q-24 -160 50.5 -266.5t236.5 -106.5q123 0 214 60.5t134 144.5l113 -33q-56 -121 -185.5 -205t-295.5 -84q-218 0 -323.5 146.5t-65.5 380.5zM174 582h676
q21 163 -54 252.5t-216 89.5t-255.5 -93.5t-150.5 -248.5zM338 1149l250 225h145l172 -225h-145l-115 137l-156 -137h-151z" />
    <glyph glyph-name="edieresis" unicode="&#xeb;" horiz-adv-x="1107" 
d="M25 504q25 149 101 270t200 194.5t274 73.5q146 0 240 -70.5t125.5 -189.5t3.5 -270l-8 -45h-814q-24 -160 50.5 -266.5t236.5 -106.5q123 0 214 60.5t134 144.5l113 -33q-56 -121 -185.5 -205t-295.5 -84q-218 0 -323.5 146.5t-65.5 380.5zM174 582h676
q21 163 -54 252.5t-216 89.5t-255.5 -93.5t-150.5 -248.5zM354 1243q9 43 43.5 70.5t75.5 27.5t65.5 -29t18.5 -69q-6 -43 -41 -73.5t-78 -30.5q-41 0 -67 30t-17 74zM713 1243q9 43 43 70.5t75 27.5t65.5 -29t18.5 -69q-6 -43 -40.5 -73.5t-77.5 -30.5q-41 0 -67 30t-17 74
z" />
    <glyph glyph-name="igrave" unicode="&#xec;" horiz-adv-x="479" 
d="M27 0l180 1024h129l-180 -1024h-129zM35 1425h176l160 -276h-148z" />
    <glyph glyph-name="iacute" unicode="&#xed;" horiz-adv-x="460" 
d="M35 0l180 1024h129l-180 -1024h-129zM221 1159l254 277h166l-283 -277h-137z" />
    <glyph glyph-name="icircumflex" unicode="&#xee;" horiz-adv-x="440" 
d="M-10 1130l250 226h145l172 -226h-145l-113 138l-158 -138h-151zM10 0l180 1024h129l-180 -1024h-129z" />
    <glyph glyph-name="idieresis" unicode="&#xef;" horiz-adv-x="571" 
d="M74 1223q8 41 43 70.5t78 29.5q41 0 65 -29.5t16 -70.5q-7 -43 -42 -73t-76 -30q-43 0 -67.5 30t-16.5 73zM80 0l180 1024h129l-180 -1024h-129zM432 1223q8 41 43 70.5t78 29.5q41 0 65 -29.5t17 -70.5q-7 -43 -42.5 -73t-76.5 -30q-43 0 -67.5 30t-16.5 73z" />
    <glyph glyph-name="eth" unicode="&#xf0;" horiz-adv-x="1316" 
d="M23 504q38 231 193.5 380.5t358.5 149.5q130 0 214 -61.5t108 -151.5h10l56 314h-228l21 110h227l31 178h129l-31 -178h197l-21 -110h-196l-199 -1135h-129l33 186h-11q-56 -89 -161 -149t-232 -60q-134 0 -228 69t-130.5 189t-11.5 269zM154 508q-33 -187 43.5 -298.5
t230.5 -111.5q153 0 275 109t155 295q32 186 -49 299.5t-238 113.5q-153 0 -268.5 -110.5t-148.5 -296.5z" />
    <glyph glyph-name="ntilde" unicode="&#xf1;" 
d="M16 0l181 1024h129l-35 -197h8q54 97 158 157t231 60q165 0 249 -100t52 -278l-117 -666h-129l111 635q5 38 6 78.5t-13 79t-37.5 68.5t-68 48.5t-104.5 18.5q-144 0 -254 -103t-143 -288l-95 -537h-129zM350 1145l4 22q18 94 74 140.5t127 46.5q84 0 141 -72
q43 -57 80 -57q23 0 43.5 16t28.5 55l8 39h109l-4 -22q-18 -94 -71.5 -141.5t-125.5 -47.5q-33 0 -62 13.5t-42.5 26t-34.5 36.5q-2 2 -7.5 8.5t-7 8.5t-6.5 7.5t-7 7t-6.5 6t-7.5 6t-7 4t-7.5 4t-8 2.5t-9.5 1q-29 2 -53 -16t-31 -55l-8 -39h-109z" />
    <glyph glyph-name="ograve" unicode="&#xf2;" horiz-adv-x="1175" 
d="M25 510q41 236 211.5 385t390.5 149q218 0 334 -149t75 -385q-41 -234 -210 -382t-388 -148q-220 0 -337 147.5t-76 382.5zM160 512q-33 -186 50.5 -301t246.5 -115q162 0 288.5 114t159.5 302q32 185 -52.5 300.5t-246.5 115.5q-160 0 -285.5 -114t-160.5 -302z
M383 1425h176l160 -276h-148z" />
    <glyph glyph-name="oacute" unicode="&#xf3;" horiz-adv-x="1175" 
d="M25 510q41 236 211.5 385t390.5 149q218 0 334 -149t75 -385q-41 -234 -210 -382t-388 -148q-220 0 -337 147.5t-76 382.5zM160 512q-33 -186 50.5 -301t246.5 -115q162 0 288.5 114t159.5 302q32 185 -52.5 300.5t-246.5 115.5q-160 0 -285.5 -114t-160.5 -302z
M561 1159l254 277h166l-283 -277h-137z" />
    <glyph glyph-name="ocircumflex" unicode="&#xf4;" horiz-adv-x="1175" 
d="M25 510q41 236 211.5 385t390.5 149q218 0 334 -149t75 -385q-41 -234 -210 -382t-388 -148q-220 0 -337 147.5t-76 382.5zM160 512q-33 -186 50.5 -301t246.5 -115q162 0 288.5 114t159.5 302q32 185 -52.5 300.5t-246.5 115.5q-160 0 -285.5 -114t-160.5 -302z
M354 1130l250 226h146l172 -226h-146l-112 138l-158 -138h-152z" />
    <glyph glyph-name="otilde" unicode="&#xf5;" horiz-adv-x="1175" 
d="M25 510q41 236 211.5 385t390.5 149q218 0 334 -149t75 -385q-41 -234 -210 -382t-388 -148q-220 0 -337 147.5t-76 382.5zM160 512q-33 -186 50.5 -301t246.5 -115q162 0 288.5 114t159.5 302q32 185 -52.5 300.5t-246.5 115.5q-160 0 -285.5 -114t-160.5 -302z
M334 1118l4 23q18 94 74 140t127 46q84 0 141 -72q43 -57 80 -57q23 0 43.5 16.5t27.5 55.5l7 39h108l-4 -23q-18 -95 -71.5 -141.5t-122.5 -46.5q-34 0 -63 13.5t-42 25.5t-35 37q-28 31 -42 42.5t-31 12.5q-29 2 -54 -16.5t-32 -55.5l-7 -39h-108z" />
    <glyph glyph-name="odieresis" unicode="&#xf6;" horiz-adv-x="1175" 
d="M25 510q41 236 211.5 385t390.5 149q218 0 334 -149t75 -385q-41 -234 -210 -382t-388 -148q-220 0 -337 147.5t-76 382.5zM160 512q-33 -186 50.5 -301t246.5 -115q162 0 288.5 114t159.5 302q32 185 -52.5 300.5t-246.5 115.5q-160 0 -285.5 -114t-160.5 -302z
M369 1223q8 41 42.5 70.5t77.5 29.5q41 0 65 -29.5t17 -70.5q-7 -43 -42 -73t-76 -30q-43 0 -67.5 30t-16.5 73zM727 1223q8 41 43 70.5t78 29.5q41 0 65 -29.5t17 -70.5q-7 -43 -42.5 -73t-76.5 -30q-43 0 -67.5 30t-16.5 73z" />
    <glyph glyph-name="divide" unicode="&#xf7;" horiz-adv-x="1064" 
d="M80 649l18 111h840l-18 -111h-840zM350 395q8 42 42.5 71.5t76.5 29.5q41 0 66 -30t18 -71q-7 -42 -42 -72t-77 -30q-43 0 -67.5 29.5t-16.5 72.5zM459 1016q8 41 43 70.5t78 29.5q41 0 65 -29.5t17 -70.5q-7 -43 -42.5 -73t-76.5 -30q-43 0 -67.5 30t-16.5 73z" />
    <glyph glyph-name="oslash" unicode="&#xf8;" horiz-adv-x="1155" 
d="M-59 39l133 129q-86 143 -49 342q41 236 211.5 385t390.5 149q160 0 270 -83l107 102l79 -84l-108 -105q101 -147 61 -364q-41 -234 -210 -382t-388 -148q-176 0 -291 98l-127 -123zM160 512q-25 -146 18 -244l623 598q-81 62 -195 62q-160 0 -285.5 -114t-160.5 -302z
M246 172q79 -76 211 -76q162 0 288.5 114t159.5 302q27 156 -31 266z" />
    <glyph glyph-name="ugrave" unicode="&#xf9;" 
d="M70 358l116 666h129l-112 -635q-12 -48 -5.5 -100t25.5 -95t68.5 -70.5t122.5 -27.5q154 0 264 113t143 299l92 516h129l-180 -1024h-129l35 205h-10q-131 -225 -387 -225q-171 0 -252 99t-49 279zM406 1425h176l159 -276h-147z" />
    <glyph glyph-name="uacute" unicode="&#xfa;" 
d="M70 358l116 666h129l-112 -635q-12 -48 -5.5 -100t25.5 -95t68.5 -70.5t122.5 -27.5q154 0 264 113t143 299l92 516h129l-180 -1024h-129l35 205h-10q-131 -225 -387 -225q-171 0 -252 99t-49 279zM584 1159l254 277h166l-283 -277h-137z" />
    <glyph glyph-name="ucircumflex" unicode="&#xfb;" 
d="M70 358l116 666h129l-112 -635q-12 -48 -5.5 -100t25.5 -95t68.5 -70.5t122.5 -27.5q154 0 264 113t143 299l92 516h129l-180 -1024h-129l35 205h-10q-131 -225 -387 -225q-171 0 -252 99t-49 279zM350 1130l250 226h145l173 -226h-146l-113 138l-157 -138h-152z" />
    <glyph glyph-name="udieresis" unicode="&#xfc;" 
d="M70 358l116 666h129l-112 -635q-12 -48 -5.5 -100t25.5 -95t68.5 -70.5t122.5 -27.5q154 0 264 113t143 299l92 516h129l-180 -1024h-129l35 205h-10q-131 -225 -387 -225q-171 0 -252 99t-49 279zM373 1223q8 41 43 70.5t78 29.5q41 0 65 -29.5t16 -70.5q-7 -43 -42 -73
t-76 -30q-43 0 -67.5 30t-16.5 73zM731 1223q8 41 43 70.5t78 29.5q41 0 65 -29.5t17 -70.5q-7 -43 -42.5 -73t-76.5 -30q-43 0 -67.5 30t-16.5 73z" />
    <glyph glyph-name="yacute" unicode="&#xfd;" horiz-adv-x="1015" 
d="M-160 -377l21 115h151q130 0 217 153l64 111l-240 1022h142l192 -872h10l475 872h156l-663 -1143q-21 -36 -39 -63t-52 -66.5t-68.5 -65t-85.5 -44.5t-106 -19h-174zM477 1159l254 277h166l-283 -277h-137z" />
    <glyph glyph-name="thorn" unicode="&#xfe;" horiz-adv-x="1204" 
d="M-51 -379l317 1802h129l-102 -585h10q55 89 160 149t233 60q202 0 306 -148.5t63 -382.5q-40 -231 -194 -378.5t-357 -147.5q-131 0 -215 61t-109 152h-10l-102 -582h-129zM231 522q-33 -185 48.5 -299t238.5 -114q154 0 268.5 109.5t147.5 297.5q33 190 -44.5 300
t-230.5 110t-274 -109t-154 -295z" />
    <glyph glyph-name="ydieresis" unicode="&#xff;" horiz-adv-x="1015" 
d="M-160 -377l21 115h151q130 0 217 153l64 111l-240 1022h142l192 -872h10l475 872h156l-663 -1143q-21 -36 -39 -63t-52 -66.5t-68.5 -65t-85.5 -44.5t-106 -19h-174zM287 1223q8 41 43 70.5t78 29.5q41 0 65 -29.5t16 -70.5q-7 -43 -42 -73t-76 -30q-43 0 -67.5 30
t-16.5 73zM645 1223q8 41 43 70.5t78 29.5q41 0 65 -29.5t17 -70.5q-7 -43 -42.5 -73t-76.5 -30q-43 0 -67.5 30t-16.5 73z" />
    <glyph glyph-name="OE" unicode="&#x152;" horiz-adv-x="2334" 
d="M68 702q57 321 278.5 521t517.5 200q169 0 296.5 -69.5t195.5 -196.5l43 246h913l-22 -123h-779l-88 -504h719l-22 -123h-719l-94 -530h778l-21 -123h-913l43 246q-111 -127 -263 -196.5t-321 -69.5q-195 0 -331.5 90t-192 254.5t-18.5 377.5zM209 702
q-47 -269 69.5 -433.5t354.5 -164.5q239 0 413.5 164.5t221.5 433.5q46 264 -68 430t-354 166q-239 0 -414.5 -165t-222.5 -431z" />
    <glyph glyph-name="oe" unicode="&#x153;" horiz-adv-x="1986" 
d="M25 510q41 236 211.5 385t390.5 149q142 0 245 -66t146 -185q79 116 197.5 182.5t263.5 66.5q146 0 239.5 -70.5t125 -189.5t3.5 -270l-8 -45h-811l-4 -12q-20 -155 55 -258t234 -103q123 0 214 60.5t134 144.5l113 -33q-56 -121 -186 -205t-296 -84q-144 0 -240.5 65.5
t-133.5 182.5q-87 -116 -212.5 -180.5t-267.5 -64.5q-220 0 -337 147.5t-76 382.5zM160 512q-33 -186 50.5 -301t246.5 -115q157 0 281 106.5t163 286.5l2 15q4 16 4 26q26 177 -58.5 287.5t-242.5 110.5q-160 0 -285.5 -114t-160.5 -302zM1053 582h676q21 163 -54.5 252.5
t-216.5 89.5t-255 -93.5t-150 -248.5z" />
    <glyph glyph-name="Ydieresis" unicode="&#x178;" horiz-adv-x="1234" 
d="M121 1403h158l309 -696h10l559 696h158l-680 -840l-98 -563h-136l99 563zM471 1632q8 41 43 71t78 30q41 0 65.5 -30t16.5 -71q-7 -42 -42 -72t-77 -30q-43 0 -67.5 29.5t-16.5 72.5zM829 1632q8 41 43 71t78 30q41 0 65.5 -30t16.5 -71q-7 -42 -42 -72t-77 -30
q-43 0 -67.5 29.5t-16.5 72.5z" />
    <glyph glyph-name="circumflex" unicode="&#x2c6;" horiz-adv-x="710" 
d="M133 1186l250 225h145l172 -225h-145l-113 137l-157 -137h-152z" />
    <glyph glyph-name="tilde" unicode="&#x2dc;" horiz-adv-x="706" 
d="M139 1274l4 22q18 94 74 140.5t127 46.5q84 0 141 -72q43 -57 80 -57q23 0 44 16t28 55l8 39h109l-4 -22q-17 -92 -70.5 -140.5t-124.5 -48.5q-34 0 -63.5 13.5t-43 26t-34.5 36.5q-2 2 -7.5 8.5t-7 8.5t-6.5 7.5t-7 7t-6.5 6t-7.5 6t-7 4t-7.5 4t-8 2.5t-9.5 1
q-29 2 -53 -16t-31 -55l-8 -39h-109z" />
    <glyph glyph-name="uni2000" unicode="&#x2000;" horiz-adv-x="925" 
 />
    <glyph glyph-name="uni2001" unicode="&#x2001;" horiz-adv-x="1851" 
 />
    <glyph glyph-name="uni2002" unicode="&#x2002;" horiz-adv-x="925" 
 />
    <glyph glyph-name="uni2003" unicode="&#x2003;" horiz-adv-x="1851" 
 />
    <glyph glyph-name="uni2004" unicode="&#x2004;" horiz-adv-x="617" 
 />
    <glyph glyph-name="uni2005" unicode="&#x2005;" horiz-adv-x="462" 
 />
    <glyph glyph-name="uni2006" unicode="&#x2006;" horiz-adv-x="308" 
 />
    <glyph glyph-name="uni2007" unicode="&#x2007;" horiz-adv-x="308" 
 />
    <glyph glyph-name="uni2008" unicode="&#x2008;" horiz-adv-x="231" 
 />
    <glyph glyph-name="uni2009" unicode="&#x2009;" horiz-adv-x="370" 
 />
    <glyph glyph-name="uni200A" unicode="&#x200a;" horiz-adv-x="102" 
 />
    <glyph glyph-name="uni2010" unicode="&#x2010;" horiz-adv-x="983" 
d="M55 629l19 110h798l-18 -110h-799z" />
    <glyph glyph-name="uni2011" unicode="&#x2011;" horiz-adv-x="983" 
d="M55 629l19 110h798l-18 -110h-799z" />
    <glyph glyph-name="figuredash" unicode="&#x2012;" horiz-adv-x="983" 
d="M55 629l19 110h798l-18 -110h-799z" />
    <glyph glyph-name="endash" unicode="&#x2013;" horiz-adv-x="1515" 
d="M86 578l20 112h1250l-21 -112h-1249z" />
    <glyph glyph-name="emdash" unicode="&#x2014;" horiz-adv-x="2349" 
d="M106 578l21 112h2042l-21 -112h-2042z" />
    <glyph glyph-name="quoteleft" unicode="&#x2018;" horiz-adv-x="370" 
d="M178 1384q14 75 68 129.5t135 67.5l6 -63q-50 -8 -84 -39t-39 -60q12 4 29 4q42 0 66.5 -23t17.5 -65q-7 -43 -39.5 -68.5t-73.5 -25.5q-52 0 -75 38.5t-11 104.5z" />
    <glyph glyph-name="quoteright" unicode="&#x2019;" horiz-adv-x="370" 
d="M184 1305q50 8 85 39t40 59q-16 -4 -30 -4q-42 0 -65.5 23t-16.5 65q7 43 39 68.5t73 25.5q50 0 74 -38t12 -103q-14 -75 -70 -131t-132 -68z" />
    <glyph glyph-name="quotesinglbase" unicode="&#x201a;" horiz-adv-x="370" 
d="M-68 -121q50 8 85 39t40 59q-12 -4 -30 -4q-42 0 -65.5 23t-16.5 65q7 43 39 69t73 26q50 0 74 -38.5t12 -103.5q-14 -75 -70 -130.5t-132 -67.5z" />
    <glyph glyph-name="quotedblleft" unicode="&#x201c;" horiz-adv-x="634" 
d="M160 1280q14 75 70 131t132 68l9 -64q-50 -8 -85 -39t-40 -59q12 4 28 4q42 0 66.5 -23t17.5 -65q-7 -43 -39 -68.5t-73 -25.5q-50 0 -74 38t-12 103zM424 1280q14 75 70.5 131t132.5 68l8 -64q-50 -8 -85 -39t-40 -59q12 4 29 4q42 0 66.5 -23t17.5 -65
q-7 -43 -39.5 -68.5t-73.5 -25.5q-50 0 -74 38t-12 103z" />
    <glyph glyph-name="quotedblright" unicode="&#x201d;" horiz-adv-x="634" 
d="M166 1202q50 8 85 39t40 59q-12 -4 -31 -4q-42 0 -65.5 23t-16.5 65q7 43 39.5 69t73.5 26q50 0 74 -38.5t12 -103.5q-14 -75 -70.5 -130.5t-132.5 -67.5zM430 1202q50 8 85 39t40 59q-12 -4 -31 -4q-42 0 -65.5 23t-16.5 65q7 43 39.5 69t73.5 26q50 0 74 -38.5
t12 -103.5q-14 -75 -70.5 -130.5t-132.5 -67.5z" />
    <glyph glyph-name="quotedblbase" unicode="&#x201e;" horiz-adv-x="634" 
d="M-68 -121q50 8 85 39t40 59q-12 -4 -30 -4q-42 0 -65.5 23t-16.5 65q7 43 39 69t73 26q50 0 74 -38.5t12 -103.5q-14 -75 -70 -130.5t-132 -67.5zM197 -121q50 8 85 39t40 59q-12 -4 -31 -4q-42 0 -65.5 23t-16.5 65q7 43 39.5 69t73.5 26q50 0 74 -38.5t12 -103.5
q-14 -75 -70.5 -130.5t-132.5 -67.5z" />
    <glyph glyph-name="bullet" unicode="&#x2022;" horiz-adv-x="612" 
d="M111 655q12 68 67.5 115t124.5 47q67 0 106 -47t27 -115q-12 -69 -67 -116t-123 -47q-69 0 -108 47t-27 116z" />
    <glyph glyph-name="ellipsis" unicode="&#x2026;" horiz-adv-x="1445" 
d="M51 88q8 41 43 70.5t78 29.5q41 0 65 -29.5t17 -70.5q-7 -43 -41.5 -72.5t-75.5 -29.5q-43 0 -68 29.5t-18 72.5zM492 88q8 41 42.5 70.5t77.5 29.5q41 0 65 -29.5t17 -70.5q-8 -43 -41.5 -72.5t-74.5 -29.5q-43 0 -68 29.5t-18 72.5zM926 88q8 41 43 70.5t78 29.5
q41 0 65 -29.5t16 -70.5q-8 -43 -41.5 -72.5t-74.5 -29.5q-43 0 -68 29.5t-18 72.5z" />
    <glyph glyph-name="uni202F" unicode="&#x202f;" horiz-adv-x="370" 
 />
    <glyph glyph-name="guilsinglleft" unicode="&#x2039;" horiz-adv-x="579" 
d="M14 571l377 377h166l-381 -377l250 -376h-166z" />
    <glyph glyph-name="guilsinglright" unicode="&#x203a;" horiz-adv-x="579" 
d="M-72 195l381 376l-250 377h166l246 -377l-377 -376h-166z" />
    <glyph glyph-name="uni205F" unicode="&#x205f;" horiz-adv-x="462" 
 />
    <glyph glyph-name="Euro" unicode="&#x20ac;" horiz-adv-x="1474" 
d="M8 496l41 116h146q3 44 12 90q4 24 16 76h-164l41 117h156q89 251 271 389.5t419 138.5q216 0 340.5 -115.5t143.5 -328.5l-140 -31q-20 169 -117 257.5t-255 88.5q-170 0 -306 -101t-209 -298h568l-41 -117h-563l-15 -69q-9 -49 -12 -97h580l-41 -116h-543
q9 -186 105.5 -286.5t265.5 -100.5q157 0 287 89.5t210 264.5l127 -35q-100 -218 -268.5 -333t-374.5 -115q-223 0 -358.5 133.5t-141.5 382.5h-180z" />
    <glyph glyph-name="trademark" unicode="&#x2122;" horiz-adv-x="1210" 
d="M150 1343l14 80h459l-15 -80h-186l-74 -423h-86l74 423h-186zM592 922l88 501h98l92 -381l220 381h100l-88 -501h-88l55 317l-182 -315h-78l-74 323l-57 -325h-86z" />
    <glyph glyph-name="uni25FC" unicode="&#x25fc;" horiz-adv-x="1024" 
d="M0 0v1024h1024v-1024h-1024z" />
    </font>
</defs>
</svg>
